%TF.GenerationSoftware,KiCad,Pcbnew,(6.0.2)*%
%TF.CreationDate,2022-11-11T21:19:41-06:00*%
%TF.ProjectId,CGA2SCart,43474132-5343-4617-9274-2e6b69636164,rev?*%
%TF.SameCoordinates,Original*%
%TF.FileFunction,Copper,L2,Bot*%
%TF.FilePolarity,Positive*%
%FSLAX46Y46*%
G04 Gerber Fmt 4.6, Leading zero omitted, Abs format (unit mm)*
G04 Created by KiCad (PCBNEW (6.0.2)) date 2022-11-11 21:19:41*
%MOMM*%
%LPD*%
G01*
G04 APERTURE LIST*
%TA.AperFunction,ComponentPad*%
%ADD10R,1.700000X1.700000*%
%TD*%
%TA.AperFunction,ComponentPad*%
%ADD11O,1.700000X1.700000*%
%TD*%
%TA.AperFunction,ComponentPad*%
%ADD12O,1.600000X1.600000*%
%TD*%
%TA.AperFunction,ComponentPad*%
%ADD13C,1.600000*%
%TD*%
%TA.AperFunction,ComponentPad*%
%ADD14R,1.600000X1.600000*%
%TD*%
%TA.AperFunction,WasherPad*%
%ADD15O,4.100000X3.100000*%
%TD*%
%TA.AperFunction,ComponentPad*%
%ADD16C,1.998980*%
%TD*%
%TA.AperFunction,ComponentPad*%
%ADD17C,4.000000*%
%TD*%
%TA.AperFunction,ComponentPad*%
%ADD18C,1.500000*%
%TD*%
%TA.AperFunction,ComponentPad*%
%ADD19R,1.500000X1.500000*%
%TD*%
%TA.AperFunction,ComponentPad*%
%ADD20O,1.000000X2.000000*%
%TD*%
%TA.AperFunction,ComponentPad*%
%ADD21O,2.000000X1.000000*%
%TD*%
%TA.AperFunction,ComponentPad*%
%ADD22O,2.000000X1.500000*%
%TD*%
%TA.AperFunction,ComponentPad*%
%ADD23O,1.500000X2.000000*%
%TD*%
%TA.AperFunction,ViaPad*%
%ADD24C,0.800000*%
%TD*%
%TA.AperFunction,Conductor*%
%ADD25C,0.350000*%
%TD*%
G04 APERTURE END LIST*
D10*
%TO.P,JP2,1,A*%
%TO.N,Net-(D1-Pad1)*%
X138684000Y-76200000D03*
D11*
%TO.P,JP2,2,B*%
%TO.N,Net-(JP2-Pad2)*%
X138684000Y-78740000D03*
%TD*%
D12*
%TO.P,R19,2*%
%TO.N,VGA_VSYNC*%
X115824000Y-49530000D03*
D13*
%TO.P,R19,1*%
%TO.N,CGA_VSYNC*%
X108204000Y-49530000D03*
%TD*%
D12*
%TO.P,R18,2*%
%TO.N,VGA_HSYNC*%
X115824000Y-52578000D03*
D13*
%TO.P,R18,1*%
%TO.N,CGA_HSYNC*%
X108204000Y-52578000D03*
%TD*%
D12*
%TO.P,R17,2*%
%TO.N,Net-(J1-Pad7)*%
X128016000Y-77978000D03*
D13*
%TO.P,R17,1*%
%TO.N,VGA_BLUE*%
X128016000Y-70358000D03*
%TD*%
%TO.P,R16,1*%
%TO.N,VGA_GREEN*%
X144018000Y-75438000D03*
D12*
%TO.P,R16,2*%
%TO.N,Net-(J1-Pad11)*%
X144018000Y-83058000D03*
%TD*%
D13*
%TO.P,R15,1*%
%TO.N,VGA_RED*%
X126238000Y-61976000D03*
D12*
%TO.P,R15,2*%
%TO.N,Net-(J1-Pad15)*%
X133858000Y-61976000D03*
%TD*%
D13*
%TO.P,R14,1*%
%TO.N,Net-(Q1-Pad2)*%
X125730000Y-96520000D03*
D12*
%TO.P,R14,2*%
%TO.N,GND*%
X118110000Y-96520000D03*
%TD*%
D13*
%TO.P,R10,1*%
%TO.N,CGA_VSYNC*%
X114300000Y-92710000D03*
D12*
%TO.P,R10,2*%
%TO.N,Net-(Q1-Pad2)*%
X121920000Y-92710000D03*
%TD*%
D13*
%TO.P,R7,1*%
%TO.N,CGA_GREEN*%
X114300000Y-85090000D03*
D12*
%TO.P,R7,2*%
%TO.N,Net-(J1-Pad11)*%
X121920000Y-85090000D03*
%TD*%
D14*
%TO.P,D2,1,K*%
%TO.N,Net-(D2-Pad1)*%
X111252000Y-62230000D03*
D12*
%TO.P,D2,2,A*%
%TO.N,Net-(D2-Pad2)*%
X103632000Y-62230000D03*
%TD*%
D13*
%TO.P,R8,1*%
%TO.N,CGA_RED*%
X114300000Y-77470000D03*
D12*
%TO.P,R8,2*%
%TO.N,Net-(J1-Pad15)*%
X121920000Y-77470000D03*
%TD*%
D13*
%TO.P,R13,1*%
%TO.N,EGA_RED*%
X114300000Y-69850000D03*
D12*
%TO.P,R13,2*%
%TO.N,Net-(R13-Pad2)*%
X121920000Y-69850000D03*
%TD*%
D14*
%TO.P,D3,1,K*%
%TO.N,Net-(D3-Pad1)*%
X111252000Y-68834000D03*
D12*
%TO.P,D3,2,A*%
%TO.N,Net-(D3-Pad2)*%
X103632000Y-68834000D03*
%TD*%
D15*
%TO.P,J1,*%
%TO.N,*%
X155140660Y-58336180D03*
X155140660Y-111335820D03*
D16*
%TO.P,J1,1,P1*%
%TO.N,unconnected-(J1-Pad1)*%
X162219640Y-103886000D03*
%TO.P,J1,2,P2*%
%TO.N,Net-(J1-Pad2)*%
X157139640Y-101981000D03*
%TO.P,J1,3,P3*%
%TO.N,unconnected-(J1-Pad3)*%
X162219640Y-100076000D03*
%TO.P,J1,4,P4*%
%TO.N,GND*%
X157139640Y-98171000D03*
%TO.P,J1,5,P5*%
X162219640Y-96266000D03*
%TO.P,J1,6,P6*%
%TO.N,Net-(J1-Pad6)*%
X157139640Y-94361000D03*
%TO.P,J1,7,P7*%
%TO.N,Net-(J1-Pad7)*%
X162219640Y-92456000D03*
%TO.P,J1,8,P8*%
%TO.N,unconnected-(J1-Pad8)*%
X157139640Y-90551000D03*
%TO.P,J1,9,P9*%
%TO.N,GND*%
X162219640Y-88646000D03*
%TO.P,J1,10,P10*%
%TO.N,unconnected-(J1-Pad10)*%
X157139640Y-86741000D03*
%TO.P,J1,11,P11*%
%TO.N,Net-(J1-Pad11)*%
X162219640Y-84836000D03*
%TO.P,J1,12,P12*%
%TO.N,unconnected-(J1-Pad12)*%
X157139640Y-82931000D03*
%TO.P,J1,13,P13*%
%TO.N,GND*%
X162219640Y-81026000D03*
%TO.P,J1,14,P14*%
%TO.N,unconnected-(J1-Pad14)*%
X157139640Y-79121000D03*
%TO.P,J1,15,P15*%
%TO.N,Net-(J1-Pad15)*%
X162219640Y-77216000D03*
%TO.P,J1,16,P16*%
%TO.N,Net-(J1-Pad16)*%
X157139640Y-75311000D03*
%TO.P,J1,17,P17*%
%TO.N,unconnected-(J1-Pad17)*%
X162219640Y-73406000D03*
%TO.P,J1,18,P18*%
%TO.N,unconnected-(J1-Pad18)*%
X157139640Y-71501000D03*
%TO.P,J1,19,P19*%
%TO.N,unconnected-(J1-Pad19)*%
X162219640Y-69596000D03*
%TO.P,J1,20,P20*%
%TO.N,Net-(J1-Pad20)*%
X157139640Y-67691000D03*
%TO.P,J1,21,P21*%
%TO.N,GND*%
X162219640Y-65786000D03*
%TD*%
D10*
%TO.P,JP3,1,A*%
%TO.N,Net-(D2-Pad1)*%
X138684000Y-87630000D03*
D11*
%TO.P,JP3,2,B*%
%TO.N,Net-(JP3-Pad2)*%
X138684000Y-85090000D03*
%TD*%
D10*
%TO.P,JP6,1,A*%
%TO.N,Net-(R13-Pad2)*%
X132334000Y-67310000D03*
D11*
%TO.P,JP6,2,B*%
%TO.N,Net-(J1-Pad15)*%
X132334000Y-69850000D03*
%TD*%
D13*
%TO.P,R11,1*%
%TO.N,INTENS_EGA_GREEN*%
X114300000Y-66040000D03*
D12*
%TO.P,R11,2*%
%TO.N,Net-(R11-Pad2)*%
X121920000Y-66040000D03*
%TD*%
D13*
%TO.P,R4,1*%
%TO.N,INTENS_EGA_GREEN*%
X111252000Y-65532000D03*
D12*
%TO.P,R4,2*%
%TO.N,Net-(D2-Pad2)*%
X103632000Y-65532000D03*
%TD*%
D13*
%TO.P,R2,1*%
%TO.N,Net-(J1-Pad16)*%
X144526000Y-103124000D03*
D12*
%TO.P,R2,2*%
%TO.N,Net-(R1-Pad1)*%
X136906000Y-103124000D03*
%TD*%
D13*
%TO.P,R5,1*%
%TO.N,INTENS_EGA_GREEN*%
X111252000Y-71882000D03*
D12*
%TO.P,R5,2*%
%TO.N,Net-(D3-Pad2)*%
X103632000Y-71882000D03*
%TD*%
D10*
%TO.P,JP7,1,A*%
%TO.N,Net-(R11-Pad2)*%
X132334000Y-85090000D03*
D11*
%TO.P,JP7,2,B*%
%TO.N,Net-(JP3-Pad2)*%
X132334000Y-87630000D03*
%TD*%
D14*
%TO.P,D1,1,K*%
%TO.N,Net-(D1-Pad1)*%
X111252000Y-55626000D03*
D12*
%TO.P,D1,2,A*%
%TO.N,Net-(D1-Pad2)*%
X103632000Y-55626000D03*
%TD*%
D17*
%TO.P,J2,0*%
%TO.N,N/C*%
X107142000Y-77622000D03*
X107142000Y-102622000D03*
D14*
%TO.P,J2,1,1*%
%TO.N,GND*%
X107442000Y-84582000D03*
D13*
%TO.P,J2,2,2*%
%TO.N,EGA_RED*%
X107442000Y-87352000D03*
%TO.P,J2,3,3*%
%TO.N,CGA_RED*%
X107442000Y-90122000D03*
%TO.P,J2,4,4*%
%TO.N,CGA_GREEN*%
X107442000Y-92892000D03*
%TO.P,J2,5,5*%
%TO.N,CGA_BLUE*%
X107442000Y-95662000D03*
%TO.P,J2,6,6*%
%TO.N,INTENS_EGA_GREEN*%
X104602000Y-85967000D03*
%TO.P,J2,7,7*%
%TO.N,EGA_BLUE*%
X104602000Y-88737000D03*
%TO.P,J2,8,8*%
%TO.N,CGA_HSYNC*%
X104602000Y-91507000D03*
%TO.P,J2,9,9*%
%TO.N,CGA_VSYNC*%
X104602000Y-94277000D03*
%TD*%
D10*
%TO.P,JP5,1,A*%
%TO.N,Net-(JP5-Pad1)*%
X132334000Y-78740000D03*
D11*
%TO.P,JP5,2,B*%
%TO.N,Net-(JP2-Pad2)*%
X132334000Y-76200000D03*
%TD*%
D17*
%TO.P,J4,0*%
%TO.N,N/C*%
X121863000Y-53830000D03*
X146863000Y-53830000D03*
D14*
%TO.P,J4,1*%
%TO.N,VGA_RED*%
X130048000Y-55880000D03*
D13*
%TO.P,J4,2*%
%TO.N,VGA_GREEN*%
X132338000Y-55880000D03*
%TO.P,J4,3*%
%TO.N,VGA_BLUE*%
X134628000Y-55880000D03*
%TO.P,J4,4*%
%TO.N,unconnected-(J4-Pad4)*%
X136918000Y-55880000D03*
%TO.P,J4,5*%
%TO.N,GND*%
X139208000Y-55880000D03*
%TO.P,J4,6*%
X128903000Y-53900000D03*
%TO.P,J4,7*%
X131193000Y-53900000D03*
%TO.P,J4,8*%
X133483000Y-53900000D03*
%TO.P,J4,9*%
%TO.N,unconnected-(J4-Pad9)*%
X135773000Y-53900000D03*
%TO.P,J4,10*%
%TO.N,GND*%
X138063000Y-53900000D03*
%TO.P,J4,11*%
X130048000Y-51920000D03*
%TO.P,J4,12*%
%TO.N,unconnected-(J4-Pad12)*%
X132338000Y-51920000D03*
%TO.P,J4,13*%
%TO.N,VGA_HSYNC*%
X134628000Y-51920000D03*
%TO.P,J4,14*%
%TO.N,VGA_VSYNC*%
X136918000Y-51920000D03*
%TO.P,J4,15*%
%TO.N,unconnected-(J4-Pad15)*%
X139208000Y-51920000D03*
%TD*%
%TO.P,R12,1*%
%TO.N,EGA_BLUE*%
X114300000Y-73660000D03*
D12*
%TO.P,R12,2*%
%TO.N,Net-(JP5-Pad1)*%
X121920000Y-73660000D03*
%TD*%
D13*
%TO.P,R9,1*%
%TO.N,CGA_HSYNC*%
X114300000Y-81280000D03*
D12*
%TO.P,R9,2*%
%TO.N,Net-(Q1-Pad2)*%
X121920000Y-81280000D03*
%TD*%
D10*
%TO.P,JP4,1,A*%
%TO.N,Net-(D3-Pad1)*%
X138684000Y-67310000D03*
D11*
%TO.P,JP4,2,B*%
%TO.N,Net-(J1-Pad15)*%
X138684000Y-69850000D03*
%TD*%
D18*
%TO.P,Q1,3,D*%
%TO.N,Net-(J1-Pad20)*%
X133858000Y-94488000D03*
%TO.P,Q1,2,G*%
%TO.N,Net-(Q1-Pad2)*%
X131318000Y-94488000D03*
D19*
%TO.P,Q1,1,S*%
%TO.N,GND*%
X128778000Y-94488000D03*
%TD*%
D13*
%TO.P,R6,1*%
%TO.N,CGA_BLUE*%
X114300000Y-88900000D03*
D12*
%TO.P,R6,2*%
%TO.N,Net-(J1-Pad7)*%
X121920000Y-88900000D03*
%TD*%
D20*
%TO.P,J3,1*%
%TO.N,Net-(J1-Pad2)*%
X133578000Y-107438000D03*
%TO.P,J3,2*%
%TO.N,Net-(J1-Pad6)*%
X123578000Y-103938000D03*
D21*
%TO.P,J3,3*%
%TO.N,GND*%
X128778000Y-111838000D03*
D22*
%TO.P,J3,4*%
%TO.N,unconnected-(J3-Pad4)*%
X133078000Y-100538000D03*
D23*
%TO.P,J3,5*%
%TO.N,unconnected-(J3-Pad5)*%
X126178000Y-104938000D03*
%TD*%
D10*
%TO.P,JP1,1,A*%
%TO.N,Net-(R1-Pad1)*%
X118872000Y-103886000D03*
D11*
%TO.P,JP1,2,B*%
%TO.N,EGA_BLUE*%
X116332000Y-103886000D03*
%TD*%
D13*
%TO.P,R1,1*%
%TO.N,Net-(R1-Pad1)*%
X137922000Y-100076000D03*
D12*
%TO.P,R1,2*%
%TO.N,Net-(J1-Pad20)*%
X137922000Y-92456000D03*
%TD*%
D13*
%TO.P,R3,1*%
%TO.N,INTENS_EGA_GREEN*%
X111252000Y-58928000D03*
D12*
%TO.P,R3,2*%
%TO.N,Net-(D1-Pad2)*%
X103632000Y-58928000D03*
%TD*%
D24*
%TO.N,EGA_BLUE*%
X105918000Y-98044000D03*
%TO.N,VGA_GREEN*%
X134620000Y-58674000D03*
%TD*%
D25*
%TO.N,Net-(J1-Pad15)*%
X135128000Y-63246000D02*
X133858000Y-61976000D01*
X138176000Y-63246000D02*
X135128000Y-63246000D01*
X140208000Y-65278000D02*
X138176000Y-63246000D01*
X138684000Y-69850000D02*
X139446000Y-69850000D01*
%TO.N,VGA_RED*%
X126238000Y-60960000D02*
X126238000Y-61976000D01*
X130048000Y-57150000D02*
X126238000Y-60960000D01*
X130048000Y-55880000D02*
X130048000Y-57150000D01*
%TO.N,Net-(J1-Pad15)*%
X139446000Y-69850000D02*
X140208000Y-69088000D01*
X140208000Y-69088000D02*
X140208000Y-65278000D01*
%TO.N,INTENS_EGA_GREEN*%
X109474000Y-63754000D02*
X111252000Y-65532000D01*
X110236000Y-58928000D02*
X109474000Y-59690000D01*
X111252000Y-58928000D02*
X110236000Y-58928000D01*
X109474000Y-59690000D02*
X109474000Y-63754000D01*
%TO.N,Net-(D3-Pad1)*%
X138684000Y-66040000D02*
X138684000Y-67310000D01*
X137604000Y-64960000D02*
X138684000Y-66040000D01*
X131382000Y-64960000D02*
X137604000Y-64960000D01*
X129540000Y-66802000D02*
X131382000Y-64960000D01*
X129540000Y-71374000D02*
X129540000Y-66802000D01*
X128016000Y-72898000D02*
X129540000Y-71374000D01*
X126492000Y-72898000D02*
X128016000Y-72898000D01*
X124460000Y-70866000D02*
X126492000Y-72898000D01*
X124460000Y-64262000D02*
X124460000Y-70866000D01*
X112522000Y-54102000D02*
X113538000Y-55118000D01*
X113538000Y-59690000D02*
X117348000Y-63500000D01*
X110236000Y-54102000D02*
X112522000Y-54102000D01*
X117348000Y-63500000D02*
X123698000Y-63500000D01*
X123698000Y-63500000D02*
X124460000Y-64262000D01*
X108712000Y-55626000D02*
X110236000Y-54102000D01*
X113538000Y-55118000D02*
X113538000Y-59690000D01*
X108712000Y-66294000D02*
X108712000Y-55626000D01*
X111252000Y-68834000D02*
X108712000Y-66294000D01*
%TO.N,EGA_BLUE*%
X106172000Y-98298000D02*
X105918000Y-98044000D01*
X106172000Y-98298000D02*
X110744000Y-98298000D01*
X116332000Y-103886000D02*
X110744000Y-98298000D01*
%TO.N,CGA_HSYNC*%
X112522000Y-81280000D02*
X114300000Y-81280000D01*
X110236000Y-83566000D02*
X112522000Y-81280000D01*
X110236000Y-86614000D02*
X110236000Y-83566000D01*
X108204000Y-88646000D02*
X110236000Y-86614000D01*
X106680000Y-88646000D02*
X108204000Y-88646000D01*
X105918000Y-89408000D02*
X106680000Y-88646000D01*
X105918000Y-90191000D02*
X105918000Y-89408000D01*
X104602000Y-91507000D02*
X105918000Y-90191000D01*
%TO.N,INTENS_EGA_GREEN*%
X111252000Y-73406000D02*
X111252000Y-71882000D01*
X110236000Y-74422000D02*
X111252000Y-73406000D01*
X107188000Y-81280000D02*
X110236000Y-78232000D01*
X104602000Y-82850000D02*
X106172000Y-81280000D01*
X106172000Y-81280000D02*
X107188000Y-81280000D01*
X110236000Y-78232000D02*
X110236000Y-74422000D01*
X104602000Y-85967000D02*
X104602000Y-82850000D01*
%TO.N,EGA_BLUE*%
X111252000Y-76708000D02*
X114300000Y-73660000D01*
X111252000Y-78247138D02*
X111252000Y-76708000D01*
X105918000Y-83581138D02*
X111252000Y-78247138D01*
X105918000Y-87421000D02*
X105918000Y-83581138D01*
X104602000Y-88737000D02*
X105918000Y-87421000D01*
%TO.N,EGA_RED*%
X109081000Y-82689000D02*
X112522000Y-79248000D01*
X109081000Y-85713000D02*
X109081000Y-82689000D01*
X112522000Y-79248000D02*
X112522000Y-76454000D01*
X107442000Y-87352000D02*
X109081000Y-85713000D01*
%TO.N,VGA_HSYNC*%
X132746000Y-50038000D02*
X134628000Y-51920000D01*
X118364000Y-50038000D02*
X132746000Y-50038000D01*
X115824000Y-52578000D02*
X118364000Y-50038000D01*
%TO.N,CGA_HSYNC*%
X102870000Y-52578000D02*
X108204000Y-52578000D01*
X101092000Y-90170000D02*
X101092000Y-54356000D01*
X102429000Y-91507000D02*
X101092000Y-90170000D01*
X104602000Y-91507000D02*
X102429000Y-91507000D01*
X101092000Y-54356000D02*
X102870000Y-52578000D01*
%TO.N,CGA_VSYNC*%
X103124000Y-49530000D02*
X108204000Y-49530000D01*
X99822000Y-91948000D02*
X99822000Y-52832000D01*
X99822000Y-52832000D02*
X103124000Y-49530000D01*
X102151000Y-94277000D02*
X99822000Y-91948000D01*
X104602000Y-94277000D02*
X102151000Y-94277000D01*
%TO.N,VGA_VSYNC*%
X134020000Y-49022000D02*
X136918000Y-51920000D01*
X115824000Y-49530000D02*
X116332000Y-49022000D01*
X116332000Y-49022000D02*
X134020000Y-49022000D01*
%TO.N,Net-(D1-Pad1)*%
X112776000Y-60198000D02*
X112776000Y-57150000D01*
X116840000Y-64262000D02*
X112776000Y-60198000D01*
X116840000Y-64262000D02*
X123190000Y-64262000D01*
X112776000Y-57150000D02*
X111252000Y-55626000D01*
%TO.N,Net-(D1-Pad2)*%
X103632000Y-58928000D02*
X103632000Y-55626000D01*
%TO.N,Net-(D2-Pad2)*%
X103632000Y-65532000D02*
X103632000Y-62230000D01*
%TO.N,Net-(D2-Pad1)*%
X113030000Y-62230000D02*
X111252000Y-62230000D01*
X117094000Y-66294000D02*
X113030000Y-62230000D01*
X117094000Y-94234000D02*
X117094000Y-66294000D01*
X115824000Y-95504000D02*
X117094000Y-94234000D01*
X115824000Y-99568000D02*
X115824000Y-95504000D01*
X116616000Y-100360000D02*
X115824000Y-99568000D01*
X127762000Y-98806000D02*
X126208000Y-100360000D01*
X126208000Y-100360000D02*
X116616000Y-100360000D01*
X133858000Y-98806000D02*
X127762000Y-98806000D01*
X139446000Y-93218000D02*
X133858000Y-98806000D01*
X138684000Y-87630000D02*
X139446000Y-88392000D01*
X139446000Y-88392000D02*
X139446000Y-93218000D01*
%TO.N,INTENS_EGA_GREEN*%
X114300000Y-66040000D02*
X111760000Y-66040000D01*
X111760000Y-66040000D02*
X111252000Y-65532000D01*
%TO.N,Net-(D3-Pad2)*%
X103632000Y-71882000D02*
X103632000Y-68834000D01*
%TO.N,INTENS_EGA_GREEN*%
X112776000Y-67564000D02*
X114300000Y-66040000D01*
X111252000Y-71882000D02*
X112776000Y-70358000D01*
X112776000Y-70358000D02*
X112776000Y-67564000D01*
%TO.N,Net-(R11-Pad2)*%
X118070480Y-69889520D02*
X121920000Y-66040000D01*
X118070480Y-78117618D02*
X118070480Y-69889520D01*
X118110000Y-78157138D02*
X118070480Y-78117618D01*
X118110000Y-94234000D02*
X118110000Y-78157138D01*
X116586000Y-95758000D02*
X118110000Y-94234000D01*
X116586000Y-99276000D02*
X116586000Y-95758000D01*
X116990000Y-99680000D02*
X116586000Y-99276000D01*
X125237000Y-99680000D02*
X116990000Y-99680000D01*
X127381000Y-97536000D02*
X125237000Y-99680000D01*
X132588000Y-96266000D02*
X131318000Y-97536000D01*
X132588000Y-92964000D02*
X132588000Y-96266000D01*
X130048000Y-90424000D02*
X132588000Y-92964000D01*
X131318000Y-97536000D02*
X127381000Y-97536000D01*
X130048000Y-86106000D02*
X130048000Y-90424000D01*
X132334000Y-85090000D02*
X131064000Y-85090000D01*
X131064000Y-85090000D02*
X130048000Y-86106000D01*
%TO.N,CGA_VSYNC*%
X114300000Y-94488000D02*
X114300000Y-92710000D01*
X111506000Y-97282000D02*
X114300000Y-94488000D01*
X104602000Y-95712000D02*
X106172000Y-97282000D01*
X106172000Y-97282000D02*
X111506000Y-97282000D01*
X104602000Y-94277000D02*
X104602000Y-95712000D01*
%TO.N,CGA_BLUE*%
X114300000Y-90170000D02*
X114300000Y-88900000D01*
X108808000Y-95662000D02*
X114300000Y-90170000D01*
X107442000Y-95662000D02*
X108808000Y-95662000D01*
%TO.N,EGA_RED*%
X116078000Y-71628000D02*
X114300000Y-69850000D01*
X116078000Y-74676000D02*
X116078000Y-71628000D01*
X115316000Y-75438000D02*
X116078000Y-74676000D01*
X112522000Y-76454000D02*
X113538000Y-75438000D01*
X113538000Y-75438000D02*
X115316000Y-75438000D01*
%TO.N,CGA_RED*%
X114808000Y-77470000D02*
X114300000Y-77470000D01*
X115824000Y-78486000D02*
X114808000Y-77470000D01*
X115824000Y-82550000D02*
X115824000Y-78486000D01*
X115062000Y-83312000D02*
X115824000Y-82550000D01*
X113030000Y-83312000D02*
X115062000Y-83312000D01*
X111506000Y-84836000D02*
X113030000Y-83312000D01*
X111506000Y-87884000D02*
X111506000Y-84836000D01*
X109268000Y-90122000D02*
X111506000Y-87884000D01*
X107442000Y-90122000D02*
X109268000Y-90122000D01*
%TO.N,CGA_GREEN*%
X114300000Y-85852000D02*
X114300000Y-85090000D01*
X112522000Y-87630000D02*
X114300000Y-85852000D01*
X112522000Y-90678000D02*
X112522000Y-87630000D01*
X110308000Y-92892000D02*
X112522000Y-90678000D01*
X107442000Y-92892000D02*
X110308000Y-92892000D01*
%TO.N,Net-(Q1-Pad2)*%
X130556000Y-96520000D02*
X131318000Y-95758000D01*
X131318000Y-95758000D02*
X131318000Y-94488000D01*
X125730000Y-96520000D02*
X130556000Y-96520000D01*
X121920000Y-92710000D02*
X121920000Y-93980000D01*
X121920000Y-93980000D02*
X124460000Y-96520000D01*
X124460000Y-96520000D02*
X125730000Y-96520000D01*
%TO.N,Net-(D1-Pad1)*%
X123812000Y-64884000D02*
X123190000Y-64262000D01*
X123812000Y-66408000D02*
X123812000Y-64884000D01*
X121560000Y-67690000D02*
X122530000Y-67690000D01*
X120050000Y-69200000D02*
X121560000Y-67690000D01*
X120050000Y-70730000D02*
X120050000Y-69200000D01*
X120960000Y-71640000D02*
X120050000Y-70730000D01*
X122820000Y-71640000D02*
X120960000Y-71640000D01*
X123960000Y-72780000D02*
X122820000Y-71640000D01*
X123960000Y-74150000D02*
X123960000Y-72780000D01*
X122610000Y-75500000D02*
X123960000Y-74150000D01*
X120620000Y-75500000D02*
X122610000Y-75500000D01*
X119990000Y-76130000D02*
X120620000Y-75500000D01*
X119990000Y-77910000D02*
X119990000Y-76130000D01*
X122438000Y-78730000D02*
X120810000Y-78730000D01*
X120810000Y-78730000D02*
X119990000Y-77910000D01*
X125984000Y-75184000D02*
X122438000Y-78730000D01*
X128778000Y-75184000D02*
X125984000Y-75184000D01*
X122530000Y-67690000D02*
X123812000Y-66408000D01*
X138684000Y-76200000D02*
X138684000Y-75692000D01*
X138684000Y-75692000D02*
X136602000Y-73610000D01*
X136602000Y-73610000D02*
X130352000Y-73610000D01*
X130352000Y-73610000D02*
X128778000Y-75184000D01*
%TO.N,Net-(R1-Pad1)*%
X121666000Y-101092000D02*
X125984000Y-101092000D01*
X121666000Y-101092000D02*
X118872000Y-103886000D01*
%TO.N,Net-(J1-Pad11)*%
X124968000Y-82042000D02*
X121920000Y-85090000D01*
X136398000Y-83058000D02*
X135382000Y-82042000D01*
X140716000Y-83058000D02*
X136398000Y-83058000D01*
X135382000Y-82042000D02*
X124968000Y-82042000D01*
X142494000Y-84836000D02*
X140716000Y-83058000D01*
X144272000Y-84836000D02*
X142494000Y-84836000D01*
%TO.N,Net-(J1-Pad7)*%
X124968000Y-81026000D02*
X124460000Y-81026000D01*
X158623000Y-81026000D02*
X124968000Y-81026000D01*
X128016000Y-77978000D02*
X124968000Y-81026000D01*
%TO.N,VGA_GREEN*%
X134620000Y-58674000D02*
X137414000Y-58674000D01*
X137414000Y-58674000D02*
X144018000Y-65278000D01*
X144018000Y-75438000D02*
X144018000Y-65278000D01*
%TO.N,Net-(J1-Pad11)*%
X144018000Y-84582000D02*
X144272000Y-84836000D01*
X144018000Y-83058000D02*
X144018000Y-84582000D01*
X162219640Y-84836000D02*
X144272000Y-84836000D01*
%TO.N,Net-(J1-Pad15)*%
X140525500Y-76771500D02*
X140525500Y-74104500D01*
X143510000Y-79756000D02*
X140525500Y-76771500D01*
X140525500Y-74104500D02*
X138684000Y-72263000D01*
X155956000Y-77216000D02*
X153416000Y-79756000D01*
X153416000Y-79756000D02*
X143510000Y-79756000D01*
X155956000Y-77216000D02*
X162219640Y-77216000D01*
X138684000Y-72263000D02*
X138684000Y-69850000D01*
%TO.N,Net-(JP3-Pad2)*%
X133350000Y-87630000D02*
X132334000Y-87630000D01*
X135890000Y-85090000D02*
X133350000Y-87630000D01*
X138684000Y-85090000D02*
X135890000Y-85090000D01*
%TO.N,Net-(J1-Pad20)*%
X136916000Y-86350000D02*
X133858000Y-89408000D01*
X136916000Y-86350000D02*
X144490000Y-86350000D01*
X133858000Y-89408000D02*
X133858000Y-94488000D01*
%TO.N,Net-(JP2-Pad2)*%
X132334000Y-76200000D02*
X136144000Y-76200000D01*
X136144000Y-76200000D02*
X138684000Y-78740000D01*
%TO.N,Net-(J1-Pad15)*%
X138684000Y-69850000D02*
X132334000Y-69850000D01*
X121920000Y-77216000D02*
X121920000Y-77470000D01*
X124714000Y-74422000D02*
X121920000Y-77216000D01*
X128524000Y-74422000D02*
X124714000Y-74422000D01*
X132334000Y-70612000D02*
X128524000Y-74422000D01*
%TO.N,Net-(R13-Pad2)*%
X122174000Y-69850000D02*
X121920000Y-69850000D01*
X128397000Y-73660000D02*
X125984000Y-73660000D01*
X125984000Y-73660000D02*
X122174000Y-69850000D01*
X130302000Y-68834000D02*
X130302000Y-71755000D01*
X130302000Y-71755000D02*
X128397000Y-73660000D01*
X131826000Y-67310000D02*
X130302000Y-68834000D01*
%TO.N,Net-(J1-Pad15)*%
X132334000Y-69850000D02*
X132334000Y-70612000D01*
%TO.N,Net-(R13-Pad2)*%
X132334000Y-67310000D02*
X131826000Y-67310000D01*
%TO.N,Net-(JP5-Pad1)*%
X131318000Y-78740000D02*
X132334000Y-78740000D01*
X128524000Y-75946000D02*
X131318000Y-78740000D01*
X126825000Y-75946000D02*
X128524000Y-75946000D01*
X123361000Y-79410000D02*
X126825000Y-75946000D01*
X120460000Y-73660000D02*
X118620000Y-75500000D01*
X121920000Y-73660000D02*
X120460000Y-73660000D01*
X118620000Y-75500000D02*
X118620000Y-77890000D01*
X118620000Y-77890000D02*
X120140000Y-79410000D01*
X120140000Y-79410000D02*
X123361000Y-79410000D01*
%TO.N,VGA_BLUE*%
X134628000Y-56634000D02*
X134628000Y-55880000D01*
X128016000Y-63246000D02*
X134628000Y-56634000D01*
X128016000Y-70358000D02*
X128016000Y-63246000D01*
%TO.N,Net-(J1-Pad7)*%
X120760000Y-88900000D02*
X121920000Y-88900000D01*
X119360000Y-87500000D02*
X120760000Y-88900000D01*
X119360000Y-81340000D02*
X119360000Y-87500000D01*
X120670000Y-80030000D02*
X119360000Y-81340000D01*
X123464000Y-80030000D02*
X120670000Y-80030000D01*
X160401000Y-82804000D02*
X158623000Y-81026000D01*
X163068000Y-82804000D02*
X160401000Y-82804000D01*
X164020000Y-83756000D02*
X163068000Y-82804000D01*
X124460000Y-81026000D02*
X123464000Y-80030000D01*
X164020000Y-91430000D02*
X164020000Y-83756000D01*
X162994000Y-92456000D02*
X164020000Y-91430000D01*
%TO.N,Net-(J1-Pad20)*%
X135890000Y-92456000D02*
X137922000Y-92456000D01*
X133858000Y-94488000D02*
X135890000Y-92456000D01*
%TO.N,Net-(R1-Pad1)*%
X137922000Y-102108000D02*
X136906000Y-103124000D01*
X137922000Y-100076000D02*
X137922000Y-102108000D01*
%TO.N,Net-(J1-Pad16)*%
X150876000Y-103124000D02*
X144526000Y-103124000D01*
X152908000Y-101092000D02*
X150876000Y-103124000D01*
X152908000Y-93980000D02*
X152908000Y-101092000D01*
X154548000Y-92340000D02*
X152908000Y-93980000D01*
X154548000Y-92340000D02*
X158126000Y-92340000D01*
%TO.N,Net-(R1-Pad1)*%
X136906000Y-103124000D02*
X128016000Y-103124000D01*
X128016000Y-103124000D02*
X125984000Y-101092000D01*
%TO.N,Net-(J1-Pad6)*%
X157139640Y-95082360D02*
X157139640Y-94361000D01*
X154940000Y-97282000D02*
X157139640Y-95082360D01*
X131826000Y-105410000D02*
X150622000Y-105410000D01*
X150622000Y-105410000D02*
X154940000Y-101092000D01*
X128778000Y-108458000D02*
X131826000Y-105410000D01*
X124714000Y-108458000D02*
X128778000Y-108458000D01*
X123578000Y-107322000D02*
X124714000Y-108458000D01*
X154940000Y-101092000D02*
X154940000Y-97282000D01*
X123578000Y-103938000D02*
X123578000Y-107322000D01*
%TO.N,Net-(Q1-Pad2)*%
X121350000Y-87100000D02*
X122360000Y-87100000D01*
X123800000Y-90830000D02*
X121920000Y-92710000D01*
X123800000Y-88540000D02*
X123800000Y-90830000D01*
X121920000Y-81280000D02*
X120280000Y-82920000D01*
X120280000Y-86030000D02*
X121350000Y-87100000D01*
X120280000Y-82920000D02*
X120280000Y-86030000D01*
X122360000Y-87100000D02*
X123800000Y-88540000D01*
%TO.N,Net-(J1-Pad20)*%
X163450000Y-94360000D02*
X164770000Y-93040000D01*
X158750000Y-88646000D02*
X160274000Y-90170000D01*
X164770000Y-68930000D02*
X163531000Y-67691000D01*
X164770000Y-93040000D02*
X164770000Y-68930000D01*
X146786000Y-88646000D02*
X158750000Y-88646000D01*
X160274000Y-93218000D02*
X161416000Y-94360000D01*
X161416000Y-94360000D02*
X163450000Y-94360000D01*
X144490000Y-86350000D02*
X146786000Y-88646000D01*
X163531000Y-67691000D02*
X156377640Y-67691000D01*
X160274000Y-90170000D02*
X160274000Y-93218000D01*
%TO.N,Net-(J1-Pad2)*%
X156377640Y-102662360D02*
X156377640Y-101981000D01*
X151602000Y-107438000D02*
X156377640Y-102662360D01*
X133578000Y-107438000D02*
X151602000Y-107438000D01*
%TO.N,Net-(J1-Pad16)*%
X157607000Y-64008000D02*
X163478000Y-64008000D01*
X161306000Y-98060000D02*
X159766000Y-96520000D01*
X163478000Y-64008000D02*
X165440000Y-65970000D01*
X159766000Y-93980000D02*
X158126000Y-92340000D01*
X156377640Y-75013820D02*
X155194000Y-73830180D01*
X159766000Y-96520000D02*
X159766000Y-93980000D01*
X155194000Y-66421000D02*
X157607000Y-64008000D01*
X165440000Y-96150000D02*
X163530000Y-98060000D01*
X163530000Y-98060000D02*
X161306000Y-98060000D01*
X165440000Y-65970000D02*
X165440000Y-96150000D01*
X156377640Y-75311000D02*
X156377640Y-75013820D01*
X155194000Y-73830180D02*
X155194000Y-66421000D01*
%TD*%
M02*
