%TF.GenerationSoftware,KiCad,Pcbnew,(6.0.2)*%
%TF.CreationDate,2022-12-21T21:35:27-06:00*%
%TF.ProjectId,CGA2SCart,43474132-5343-4617-9274-2e6b69636164,rev?*%
%TF.SameCoordinates,Original*%
%TF.FileFunction,Legend,Top*%
%TF.FilePolarity,Positive*%
%FSLAX46Y46*%
G04 Gerber Fmt 4.6, Leading zero omitted, Abs format (unit mm)*
G04 Created by KiCad (PCBNEW (6.0.2)) date 2022-12-21 21:35:27*
%MOMM*%
%LPD*%
G01*
G04 APERTURE LIST*
%ADD10C,0.150000*%
%ADD11C,0.304800*%
%ADD12C,0.120000*%
%ADD13C,0.381000*%
%ADD14C,0.100000*%
%ADD15O,4.100000X3.100000*%
G04 APERTURE END LIST*
D10*
X141490952Y-99177142D02*
X141443333Y-99224761D01*
X141300476Y-99272380D01*
X141205238Y-99272380D01*
X141062380Y-99224761D01*
X140967142Y-99129523D01*
X140919523Y-99034285D01*
X140871904Y-98843809D01*
X140871904Y-98700952D01*
X140919523Y-98510476D01*
X140967142Y-98415238D01*
X141062380Y-98320000D01*
X141205238Y-98272380D01*
X141300476Y-98272380D01*
X141443333Y-98320000D01*
X141490952Y-98367619D01*
X141871904Y-99224761D02*
X142014761Y-99272380D01*
X142252857Y-99272380D01*
X142348095Y-99224761D01*
X142395714Y-99177142D01*
X142443333Y-99081904D01*
X142443333Y-98986666D01*
X142395714Y-98891428D01*
X142348095Y-98843809D01*
X142252857Y-98796190D01*
X142062380Y-98748571D01*
X141967142Y-98700952D01*
X141919523Y-98653333D01*
X141871904Y-98558095D01*
X141871904Y-98462857D01*
X141919523Y-98367619D01*
X141967142Y-98320000D01*
X142062380Y-98272380D01*
X142300476Y-98272380D01*
X142443333Y-98320000D01*
X143062380Y-98796190D02*
X143062380Y-99272380D01*
X142729047Y-98272380D02*
X143062380Y-98796190D01*
X143395714Y-98272380D01*
X143729047Y-99272380D02*
X143729047Y-98272380D01*
X144300476Y-99272380D01*
X144300476Y-98272380D01*
X145348095Y-99177142D02*
X145300476Y-99224761D01*
X145157619Y-99272380D01*
X145062380Y-99272380D01*
X144919523Y-99224761D01*
X144824285Y-99129523D01*
X144776666Y-99034285D01*
X144729047Y-98843809D01*
X144729047Y-98700952D01*
X144776666Y-98510476D01*
X144824285Y-98415238D01*
X144919523Y-98320000D01*
X145062380Y-98272380D01*
X145157619Y-98272380D01*
X145300476Y-98320000D01*
X145348095Y-98367619D01*
X140825714Y-94142380D02*
X140825714Y-93142380D01*
X140825714Y-93618571D02*
X141397142Y-93618571D01*
X141397142Y-94142380D02*
X141397142Y-93142380D01*
X141825714Y-94094761D02*
X141968571Y-94142380D01*
X142206666Y-94142380D01*
X142301904Y-94094761D01*
X142349523Y-94047142D01*
X142397142Y-93951904D01*
X142397142Y-93856666D01*
X142349523Y-93761428D01*
X142301904Y-93713809D01*
X142206666Y-93666190D01*
X142016190Y-93618571D01*
X141920952Y-93570952D01*
X141873333Y-93523333D01*
X141825714Y-93428095D01*
X141825714Y-93332857D01*
X141873333Y-93237619D01*
X141920952Y-93190000D01*
X142016190Y-93142380D01*
X142254285Y-93142380D01*
X142397142Y-93190000D01*
X143016190Y-93666190D02*
X143016190Y-94142380D01*
X142682857Y-93142380D02*
X143016190Y-93666190D01*
X143349523Y-93142380D01*
X143682857Y-94142380D02*
X143682857Y-93142380D01*
X144254285Y-94142380D01*
X144254285Y-93142380D01*
X145301904Y-94047142D02*
X145254285Y-94094761D01*
X145111428Y-94142380D01*
X145016190Y-94142380D01*
X144873333Y-94094761D01*
X144778095Y-93999523D01*
X144730476Y-93904285D01*
X144682857Y-93713809D01*
X144682857Y-93570952D01*
X144730476Y-93380476D01*
X144778095Y-93285238D01*
X144873333Y-93190000D01*
X145016190Y-93142380D01*
X145111428Y-93142380D01*
X145254285Y-93190000D01*
X145301904Y-93237619D01*
X133608571Y-89771428D02*
X133608571Y-89438095D01*
X134132380Y-89295238D02*
X134132380Y-89771428D01*
X133132380Y-89771428D01*
X133132380Y-89295238D01*
X133180000Y-88342857D02*
X133132380Y-88438095D01*
X133132380Y-88580952D01*
X133180000Y-88723809D01*
X133275238Y-88819047D01*
X133370476Y-88866666D01*
X133560952Y-88914285D01*
X133703809Y-88914285D01*
X133894285Y-88866666D01*
X133989523Y-88819047D01*
X134084761Y-88723809D01*
X134132380Y-88580952D01*
X134132380Y-88485714D01*
X134084761Y-88342857D01*
X134037142Y-88295238D01*
X133703809Y-88295238D01*
X133703809Y-88485714D01*
X133846666Y-87914285D02*
X133846666Y-87438095D01*
X134132380Y-88009523D02*
X133132380Y-87676190D01*
X134132380Y-87342857D01*
X133180000Y-86485714D02*
X133132380Y-86580952D01*
X133132380Y-86723809D01*
X133180000Y-86866666D01*
X133275238Y-86961904D01*
X133370476Y-87009523D01*
X133560952Y-87057142D01*
X133703809Y-87057142D01*
X133894285Y-87009523D01*
X133989523Y-86961904D01*
X134084761Y-86866666D01*
X134132380Y-86723809D01*
X134132380Y-86628571D01*
X134084761Y-86485714D01*
X134037142Y-86438095D01*
X133703809Y-86438095D01*
X133703809Y-86628571D01*
X134132380Y-85438095D02*
X133656190Y-85771428D01*
X134132380Y-86009523D02*
X133132380Y-86009523D01*
X133132380Y-85628571D01*
X133180000Y-85533333D01*
X133227619Y-85485714D01*
X133322857Y-85438095D01*
X133465714Y-85438095D01*
X133560952Y-85485714D01*
X133608571Y-85533333D01*
X133656190Y-85628571D01*
X133656190Y-86009523D01*
X133608571Y-85009523D02*
X133608571Y-84676190D01*
X134132380Y-84533333D02*
X134132380Y-85009523D01*
X133132380Y-85009523D01*
X133132380Y-84533333D01*
X133608571Y-84104761D02*
X133608571Y-83771428D01*
X134132380Y-83628571D02*
X134132380Y-84104761D01*
X133132380Y-84104761D01*
X133132380Y-83628571D01*
X134132380Y-83200000D02*
X133132380Y-83200000D01*
X134132380Y-82628571D01*
X133132380Y-82628571D01*
X133528571Y-71225238D02*
X133528571Y-70891904D01*
X134052380Y-70749047D02*
X134052380Y-71225238D01*
X133052380Y-71225238D01*
X133052380Y-70749047D01*
X133100000Y-69796666D02*
X133052380Y-69891904D01*
X133052380Y-70034761D01*
X133100000Y-70177619D01*
X133195238Y-70272857D01*
X133290476Y-70320476D01*
X133480952Y-70368095D01*
X133623809Y-70368095D01*
X133814285Y-70320476D01*
X133909523Y-70272857D01*
X134004761Y-70177619D01*
X134052380Y-70034761D01*
X134052380Y-69939523D01*
X134004761Y-69796666D01*
X133957142Y-69749047D01*
X133623809Y-69749047D01*
X133623809Y-69939523D01*
X133766666Y-69368095D02*
X133766666Y-68891904D01*
X134052380Y-69463333D02*
X133052380Y-69130000D01*
X134052380Y-68796666D01*
X134052380Y-67891904D02*
X133576190Y-68225238D01*
X134052380Y-68463333D02*
X133052380Y-68463333D01*
X133052380Y-68082380D01*
X133100000Y-67987142D01*
X133147619Y-67939523D01*
X133242857Y-67891904D01*
X133385714Y-67891904D01*
X133480952Y-67939523D01*
X133528571Y-67987142D01*
X133576190Y-68082380D01*
X133576190Y-68463333D01*
X133528571Y-67463333D02*
X133528571Y-67130000D01*
X134052380Y-66987142D02*
X134052380Y-67463333D01*
X133052380Y-67463333D01*
X133052380Y-66987142D01*
X134052380Y-66558571D02*
X133052380Y-66558571D01*
X133052380Y-66320476D01*
X133100000Y-66177619D01*
X133195238Y-66082380D01*
X133290476Y-66034761D01*
X133480952Y-65987142D01*
X133623809Y-65987142D01*
X133814285Y-66034761D01*
X133909523Y-66082380D01*
X134004761Y-66177619D01*
X134052380Y-66320476D01*
X134052380Y-66558571D01*
X140222380Y-70627142D02*
X139222380Y-70627142D01*
X140222380Y-70150952D02*
X139222380Y-70150952D01*
X140222380Y-69579523D01*
X139222380Y-69579523D01*
X139222380Y-69246190D02*
X139222380Y-68674761D01*
X140222380Y-68960476D02*
X139222380Y-68960476D01*
X139698571Y-68341428D02*
X139698571Y-68008095D01*
X140222380Y-67865238D02*
X140222380Y-68341428D01*
X139222380Y-68341428D01*
X139222380Y-67865238D01*
X140222380Y-67436666D02*
X139222380Y-67436666D01*
X140222380Y-66865238D01*
X139222380Y-66865238D01*
X140174761Y-66436666D02*
X140222380Y-66293809D01*
X140222380Y-66055714D01*
X140174761Y-65960476D01*
X140127142Y-65912857D01*
X140031904Y-65865238D01*
X139936666Y-65865238D01*
X139841428Y-65912857D01*
X139793809Y-65960476D01*
X139746190Y-66055714D01*
X139698571Y-66246190D01*
X139650952Y-66341428D01*
X139603333Y-66389047D01*
X139508095Y-66436666D01*
X139412857Y-66436666D01*
X139317619Y-66389047D01*
X139270000Y-66341428D01*
X139222380Y-66246190D01*
X139222380Y-66008095D01*
X139270000Y-65865238D01*
X106172095Y-106688000D02*
X106076857Y-106640380D01*
X105934000Y-106640380D01*
X105791142Y-106688000D01*
X105695904Y-106783238D01*
X105648285Y-106878476D01*
X105600666Y-107068952D01*
X105600666Y-107211809D01*
X105648285Y-107402285D01*
X105695904Y-107497523D01*
X105791142Y-107592761D01*
X105934000Y-107640380D01*
X106029238Y-107640380D01*
X106172095Y-107592761D01*
X106219714Y-107545142D01*
X106219714Y-107211809D01*
X106029238Y-107211809D01*
X106648285Y-107640380D02*
X106648285Y-106640380D01*
X107219714Y-107640380D01*
X107219714Y-106640380D01*
X107695904Y-107640380D02*
X107695904Y-106640380D01*
X107934000Y-106640380D01*
X108076857Y-106688000D01*
X108172095Y-106783238D01*
X108219714Y-106878476D01*
X108267333Y-107068952D01*
X108267333Y-107211809D01*
X108219714Y-107402285D01*
X108172095Y-107497523D01*
X108076857Y-107592761D01*
X107934000Y-107640380D01*
X107695904Y-107640380D01*
X164238095Y-65267619D02*
X164285714Y-65220000D01*
X164380952Y-65172380D01*
X164619047Y-65172380D01*
X164714285Y-65220000D01*
X164761904Y-65267619D01*
X164809523Y-65362857D01*
X164809523Y-65458095D01*
X164761904Y-65600952D01*
X164190476Y-66172380D01*
X164809523Y-66172380D01*
X165761904Y-66172380D02*
X165190476Y-66172380D01*
X165476190Y-66172380D02*
X165476190Y-65172380D01*
X165380952Y-65315238D01*
X165285714Y-65410476D01*
X165190476Y-65458095D01*
X154389523Y-71902380D02*
X153818095Y-71902380D01*
X154103809Y-71902380D02*
X154103809Y-70902380D01*
X154008571Y-71045238D01*
X153913333Y-71140476D01*
X153818095Y-71188095D01*
X154960952Y-71330952D02*
X154865714Y-71283333D01*
X154818095Y-71235714D01*
X154770476Y-71140476D01*
X154770476Y-71092857D01*
X154818095Y-70997619D01*
X154865714Y-70950000D01*
X154960952Y-70902380D01*
X155151428Y-70902380D01*
X155246666Y-70950000D01*
X155294285Y-70997619D01*
X155341904Y-71092857D01*
X155341904Y-71140476D01*
X155294285Y-71235714D01*
X155246666Y-71283333D01*
X155151428Y-71330952D01*
X154960952Y-71330952D01*
X154865714Y-71378571D01*
X154818095Y-71426190D01*
X154770476Y-71521428D01*
X154770476Y-71711904D01*
X154818095Y-71807142D01*
X154865714Y-71854761D01*
X154960952Y-71902380D01*
X155151428Y-71902380D01*
X155246666Y-71854761D01*
X155294285Y-71807142D01*
X155341904Y-71711904D01*
X155341904Y-71521428D01*
X155294285Y-71426190D01*
X155246666Y-71378571D01*
X155151428Y-71330952D01*
X111712476Y-106640380D02*
X112045809Y-107640380D01*
X112379142Y-106640380D01*
X112664857Y-107592761D02*
X112807714Y-107640380D01*
X113045809Y-107640380D01*
X113141047Y-107592761D01*
X113188666Y-107545142D01*
X113236285Y-107449904D01*
X113236285Y-107354666D01*
X113188666Y-107259428D01*
X113141047Y-107211809D01*
X113045809Y-107164190D01*
X112855333Y-107116571D01*
X112760095Y-107068952D01*
X112712476Y-107021333D01*
X112664857Y-106926095D01*
X112664857Y-106830857D01*
X112712476Y-106735619D01*
X112760095Y-106688000D01*
X112855333Y-106640380D01*
X113093428Y-106640380D01*
X113236285Y-106688000D01*
X126285809Y-112720380D02*
X126285809Y-111720380D01*
X126857238Y-112720380D01*
X126857238Y-111720380D01*
X127333428Y-112720380D02*
X127333428Y-111720380D01*
X127809619Y-112720380D02*
X127809619Y-111720380D01*
X128381047Y-112720380D01*
X128381047Y-111720380D01*
X128714380Y-111720380D02*
X129047714Y-112720380D01*
X129381047Y-111720380D01*
X165163523Y-89098380D02*
X165354000Y-89098380D01*
X165449238Y-89050761D01*
X165496857Y-89003142D01*
X165592095Y-88860285D01*
X165639714Y-88669809D01*
X165639714Y-88288857D01*
X165592095Y-88193619D01*
X165544476Y-88146000D01*
X165449238Y-88098380D01*
X165258761Y-88098380D01*
X165163523Y-88146000D01*
X165115904Y-88193619D01*
X165068285Y-88288857D01*
X165068285Y-88526952D01*
X165115904Y-88622190D01*
X165163523Y-88669809D01*
X165258761Y-88717428D01*
X165449238Y-88717428D01*
X165544476Y-88669809D01*
X165592095Y-88622190D01*
X165639714Y-88526952D01*
X154449523Y-75832380D02*
X153878095Y-75832380D01*
X154163809Y-75832380D02*
X154163809Y-74832380D01*
X154068571Y-74975238D01*
X153973333Y-75070476D01*
X153878095Y-75118095D01*
X155306666Y-74832380D02*
X155116190Y-74832380D01*
X155020952Y-74880000D01*
X154973333Y-74927619D01*
X154878095Y-75070476D01*
X154830476Y-75260952D01*
X154830476Y-75641904D01*
X154878095Y-75737142D01*
X154925714Y-75784761D01*
X155020952Y-75832380D01*
X155211428Y-75832380D01*
X155306666Y-75784761D01*
X155354285Y-75737142D01*
X155401904Y-75641904D01*
X155401904Y-75403809D01*
X155354285Y-75308571D01*
X155306666Y-75260952D01*
X155211428Y-75213333D01*
X155020952Y-75213333D01*
X154925714Y-75260952D01*
X154878095Y-75308571D01*
X154830476Y-75403809D01*
X140102380Y-79607142D02*
X139102380Y-79607142D01*
X140102380Y-79130952D02*
X139102380Y-79130952D01*
X140102380Y-78559523D01*
X139102380Y-78559523D01*
X139102380Y-78226190D02*
X139102380Y-77654761D01*
X140102380Y-77940476D02*
X139102380Y-77940476D01*
X139578571Y-77321428D02*
X139578571Y-76988095D01*
X140102380Y-76845238D02*
X140102380Y-77321428D01*
X139102380Y-77321428D01*
X139102380Y-76845238D01*
X140102380Y-76416666D02*
X139102380Y-76416666D01*
X140102380Y-75845238D01*
X139102380Y-75845238D01*
X140054761Y-75416666D02*
X140102380Y-75273809D01*
X140102380Y-75035714D01*
X140054761Y-74940476D01*
X140007142Y-74892857D01*
X139911904Y-74845238D01*
X139816666Y-74845238D01*
X139721428Y-74892857D01*
X139673809Y-74940476D01*
X139626190Y-75035714D01*
X139578571Y-75226190D01*
X139530952Y-75321428D01*
X139483333Y-75369047D01*
X139388095Y-75416666D01*
X139292857Y-75416666D01*
X139197619Y-75369047D01*
X139150000Y-75321428D01*
X139102380Y-75226190D01*
X139102380Y-74988095D01*
X139150000Y-74845238D01*
X164655523Y-77562380D02*
X164084095Y-77562380D01*
X164369809Y-77562380D02*
X164369809Y-76562380D01*
X164274571Y-76705238D01*
X164179333Y-76800476D01*
X164084095Y-76848095D01*
X165560285Y-76562380D02*
X165084095Y-76562380D01*
X165036476Y-77038571D01*
X165084095Y-76990952D01*
X165179333Y-76943333D01*
X165417428Y-76943333D01*
X165512666Y-76990952D01*
X165560285Y-77038571D01*
X165607904Y-77133809D01*
X165607904Y-77371904D01*
X165560285Y-77467142D01*
X165512666Y-77514761D01*
X165417428Y-77562380D01*
X165179333Y-77562380D01*
X165084095Y-77514761D01*
X165036476Y-77467142D01*
X100442380Y-110473904D02*
X100442380Y-110283428D01*
X100394761Y-110188190D01*
X100347142Y-110140571D01*
X100204285Y-110045333D01*
X100013809Y-109997714D01*
X99632857Y-109997714D01*
X99537619Y-110045333D01*
X99490000Y-110092952D01*
X99442380Y-110188190D01*
X99442380Y-110378666D01*
X99490000Y-110473904D01*
X99537619Y-110521523D01*
X99632857Y-110569142D01*
X99870952Y-110569142D01*
X99966190Y-110521523D01*
X100013809Y-110473904D01*
X100061428Y-110378666D01*
X100061428Y-110188190D01*
X100013809Y-110092952D01*
X99966190Y-110045333D01*
X99870952Y-109997714D01*
X100061428Y-109569142D02*
X100061428Y-108807238D01*
X100442380Y-107807238D02*
X100442380Y-108378666D01*
X100442380Y-108092952D02*
X99442380Y-108092952D01*
X99585238Y-108188190D01*
X99680476Y-108283428D01*
X99728095Y-108378666D01*
X99537619Y-107426285D02*
X99490000Y-107378666D01*
X99442380Y-107283428D01*
X99442380Y-107045333D01*
X99490000Y-106950095D01*
X99537619Y-106902476D01*
X99632857Y-106854857D01*
X99728095Y-106854857D01*
X99870952Y-106902476D01*
X100442380Y-107473904D01*
X100442380Y-106854857D01*
X101052380Y-110045333D02*
X102052380Y-109712000D01*
X101052380Y-109378666D01*
X102052380Y-109045333D02*
X101052380Y-109045333D01*
X101052380Y-108807238D01*
X101100000Y-108664380D01*
X101195238Y-108569142D01*
X101290476Y-108521523D01*
X101480952Y-108473904D01*
X101623809Y-108473904D01*
X101814285Y-108521523D01*
X101909523Y-108569142D01*
X102004761Y-108664380D01*
X102052380Y-108807238D01*
X102052380Y-109045333D01*
X101957142Y-107473904D02*
X102004761Y-107521523D01*
X102052380Y-107664380D01*
X102052380Y-107759619D01*
X102004761Y-107902476D01*
X101909523Y-107997714D01*
X101814285Y-108045333D01*
X101623809Y-108092952D01*
X101480952Y-108092952D01*
X101290476Y-108045333D01*
X101195238Y-107997714D01*
X101100000Y-107902476D01*
X101052380Y-107759619D01*
X101052380Y-107664380D01*
X101100000Y-107521523D01*
X101147619Y-107473904D01*
X103662380Y-110354857D02*
X102662380Y-110354857D01*
X102662380Y-109973904D01*
X102710000Y-109878666D01*
X102757619Y-109831047D01*
X102852857Y-109783428D01*
X102995714Y-109783428D01*
X103090952Y-109831047D01*
X103138571Y-109878666D01*
X103186190Y-109973904D01*
X103186190Y-110354857D01*
X103662380Y-109354857D02*
X102662380Y-109354857D01*
X103662380Y-108878666D02*
X102662380Y-108878666D01*
X103662380Y-108307238D01*
X102662380Y-108307238D01*
X103281428Y-107831047D02*
X103281428Y-107069142D01*
X103662380Y-107450095D02*
X102900476Y-107450095D01*
X155110476Y-98035714D02*
X155110476Y-98702380D01*
X154872380Y-97654761D02*
X154634285Y-98369047D01*
X155253333Y-98369047D01*
X164669523Y-85262380D02*
X164098095Y-85262380D01*
X164383809Y-85262380D02*
X164383809Y-84262380D01*
X164288571Y-84405238D01*
X164193333Y-84500476D01*
X164098095Y-84548095D01*
X165621904Y-85262380D02*
X165050476Y-85262380D01*
X165336190Y-85262380D02*
X165336190Y-84262380D01*
X165240952Y-84405238D01*
X165145714Y-84500476D01*
X165050476Y-84548095D01*
X165198095Y-95732380D02*
X164721904Y-95732380D01*
X164674285Y-96208571D01*
X164721904Y-96160952D01*
X164817142Y-96113333D01*
X165055238Y-96113333D01*
X165150476Y-96160952D01*
X165198095Y-96208571D01*
X165245714Y-96303809D01*
X165245714Y-96541904D01*
X165198095Y-96637142D01*
X165150476Y-96684761D01*
X165055238Y-96732380D01*
X164817142Y-96732380D01*
X164721904Y-96684761D01*
X164674285Y-96637142D01*
X154764285Y-101577619D02*
X154811904Y-101530000D01*
X154907142Y-101482380D01*
X155145238Y-101482380D01*
X155240476Y-101530000D01*
X155288095Y-101577619D01*
X155335714Y-101672857D01*
X155335714Y-101768095D01*
X155288095Y-101910952D01*
X154716666Y-102482380D01*
X155335714Y-102482380D01*
X164766666Y-91652380D02*
X165433333Y-91652380D01*
X165004761Y-92652380D01*
X151342380Y-53191428D02*
X152342380Y-52858095D01*
X151342380Y-52524761D01*
X151390000Y-51667619D02*
X151342380Y-51762857D01*
X151342380Y-51905714D01*
X151390000Y-52048571D01*
X151485238Y-52143809D01*
X151580476Y-52191428D01*
X151770952Y-52239047D01*
X151913809Y-52239047D01*
X152104285Y-52191428D01*
X152199523Y-52143809D01*
X152294761Y-52048571D01*
X152342380Y-51905714D01*
X152342380Y-51810476D01*
X152294761Y-51667619D01*
X152247142Y-51620000D01*
X151913809Y-51620000D01*
X151913809Y-51810476D01*
X152056666Y-51239047D02*
X152056666Y-50762857D01*
X152342380Y-51334285D02*
X151342380Y-51000952D01*
X152342380Y-50667619D01*
X151818571Y-49239047D02*
X151818571Y-49572380D01*
X152342380Y-49572380D02*
X151342380Y-49572380D01*
X151342380Y-49096190D01*
X153708095Y-67257619D02*
X153755714Y-67210000D01*
X153850952Y-67162380D01*
X154089047Y-67162380D01*
X154184285Y-67210000D01*
X154231904Y-67257619D01*
X154279523Y-67352857D01*
X154279523Y-67448095D01*
X154231904Y-67590952D01*
X153660476Y-68162380D01*
X154279523Y-68162380D01*
X154898571Y-67162380D02*
X154993809Y-67162380D01*
X155089047Y-67210000D01*
X155136666Y-67257619D01*
X155184285Y-67352857D01*
X155231904Y-67543333D01*
X155231904Y-67781428D01*
X155184285Y-67971904D01*
X155136666Y-68067142D01*
X155089047Y-68114761D01*
X154993809Y-68162380D01*
X154898571Y-68162380D01*
X154803333Y-68114761D01*
X154755714Y-68067142D01*
X154708095Y-67971904D01*
X154660476Y-67781428D01*
X154660476Y-67543333D01*
X154708095Y-67352857D01*
X154755714Y-67257619D01*
X154803333Y-67210000D01*
X154898571Y-67162380D01*
X159399357Y-113129142D02*
X159351738Y-113176761D01*
X159208880Y-113224380D01*
X159113642Y-113224380D01*
X158970785Y-113176761D01*
X158875547Y-113081523D01*
X158827928Y-112986285D01*
X158780309Y-112795809D01*
X158780309Y-112652952D01*
X158827928Y-112462476D01*
X158875547Y-112367238D01*
X158970785Y-112272000D01*
X159113642Y-112224380D01*
X159208880Y-112224380D01*
X159351738Y-112272000D01*
X159399357Y-112319619D01*
X160351738Y-112272000D02*
X160256500Y-112224380D01*
X160113642Y-112224380D01*
X159970785Y-112272000D01*
X159875547Y-112367238D01*
X159827928Y-112462476D01*
X159780309Y-112652952D01*
X159780309Y-112795809D01*
X159827928Y-112986285D01*
X159875547Y-113081523D01*
X159970785Y-113176761D01*
X160113642Y-113224380D01*
X160208880Y-113224380D01*
X160351738Y-113176761D01*
X160399357Y-113129142D01*
X160399357Y-112795809D01*
X160208880Y-112795809D01*
X160780309Y-112938666D02*
X161256500Y-112938666D01*
X160685071Y-113224380D02*
X161018404Y-112224380D01*
X161351738Y-113224380D01*
X162399357Y-112176761D02*
X161542214Y-113462476D01*
X162732690Y-112700571D02*
X163066023Y-112700571D01*
X163208880Y-113224380D02*
X162732690Y-113224380D01*
X162732690Y-112224380D01*
X163208880Y-112224380D01*
X164161261Y-112272000D02*
X164066023Y-112224380D01*
X163923166Y-112224380D01*
X163780309Y-112272000D01*
X163685071Y-112367238D01*
X163637452Y-112462476D01*
X163589833Y-112652952D01*
X163589833Y-112795809D01*
X163637452Y-112986285D01*
X163685071Y-113081523D01*
X163780309Y-113176761D01*
X163923166Y-113224380D01*
X164018404Y-113224380D01*
X164161261Y-113176761D01*
X164208880Y-113129142D01*
X164208880Y-112795809D01*
X164018404Y-112795809D01*
X164589833Y-112938666D02*
X165066023Y-112938666D01*
X164494595Y-113224380D02*
X164827928Y-112224380D01*
X165161261Y-113224380D01*
X154446976Y-113834380D02*
X155018404Y-113834380D01*
X154732690Y-114834380D02*
X154732690Y-113834380D01*
X155542214Y-113834380D02*
X155732690Y-113834380D01*
X155827928Y-113882000D01*
X155923166Y-113977238D01*
X155970785Y-114167714D01*
X155970785Y-114501047D01*
X155923166Y-114691523D01*
X155827928Y-114786761D01*
X155732690Y-114834380D01*
X155542214Y-114834380D01*
X155446976Y-114786761D01*
X155351738Y-114691523D01*
X155304119Y-114501047D01*
X155304119Y-114167714D01*
X155351738Y-113977238D01*
X155446976Y-113882000D01*
X155542214Y-113834380D01*
X157113642Y-114786761D02*
X157256500Y-114834380D01*
X157494595Y-114834380D01*
X157589833Y-114786761D01*
X157637452Y-114739142D01*
X157685071Y-114643904D01*
X157685071Y-114548666D01*
X157637452Y-114453428D01*
X157589833Y-114405809D01*
X157494595Y-114358190D01*
X157304119Y-114310571D01*
X157208880Y-114262952D01*
X157161261Y-114215333D01*
X157113642Y-114120095D01*
X157113642Y-114024857D01*
X157161261Y-113929619D01*
X157208880Y-113882000D01*
X157304119Y-113834380D01*
X157542214Y-113834380D01*
X157685071Y-113882000D01*
X158685071Y-114739142D02*
X158637452Y-114786761D01*
X158494595Y-114834380D01*
X158399357Y-114834380D01*
X158256500Y-114786761D01*
X158161261Y-114691523D01*
X158113642Y-114596285D01*
X158066023Y-114405809D01*
X158066023Y-114262952D01*
X158113642Y-114072476D01*
X158161261Y-113977238D01*
X158256500Y-113882000D01*
X158399357Y-113834380D01*
X158494595Y-113834380D01*
X158637452Y-113882000D01*
X158685071Y-113929619D01*
X159066023Y-114548666D02*
X159542214Y-114548666D01*
X158970785Y-114834380D02*
X159304119Y-113834380D01*
X159637452Y-114834380D01*
X160542214Y-114834380D02*
X160208880Y-114358190D01*
X159970785Y-114834380D02*
X159970785Y-113834380D01*
X160351738Y-113834380D01*
X160446976Y-113882000D01*
X160494595Y-113929619D01*
X160542214Y-114024857D01*
X160542214Y-114167714D01*
X160494595Y-114262952D01*
X160446976Y-114310571D01*
X160351738Y-114358190D01*
X159970785Y-114358190D01*
X160827928Y-113834380D02*
X161399357Y-113834380D01*
X161113642Y-114834380D02*
X161113642Y-113834380D01*
X162446976Y-113786761D02*
X161589833Y-115072476D01*
X162637452Y-113834380D02*
X162970785Y-114834380D01*
X163304119Y-113834380D01*
X164161261Y-113882000D02*
X164066023Y-113834380D01*
X163923166Y-113834380D01*
X163780309Y-113882000D01*
X163685071Y-113977238D01*
X163637452Y-114072476D01*
X163589833Y-114262952D01*
X163589833Y-114405809D01*
X163637452Y-114596285D01*
X163685071Y-114691523D01*
X163780309Y-114786761D01*
X163923166Y-114834380D01*
X164018404Y-114834380D01*
X164161261Y-114786761D01*
X164208880Y-114739142D01*
X164208880Y-114405809D01*
X164018404Y-114405809D01*
X164589833Y-114548666D02*
X165066023Y-114548666D01*
X164494595Y-114834380D02*
X164827928Y-113834380D01*
X165161261Y-114834380D01*
X156542214Y-116444380D02*
X156542214Y-115444380D01*
X156923166Y-115444380D01*
X157018404Y-115492000D01*
X157066023Y-115539619D01*
X157113642Y-115634857D01*
X157113642Y-115777714D01*
X157066023Y-115872952D01*
X157018404Y-115920571D01*
X156923166Y-115968190D01*
X156542214Y-115968190D01*
X158113642Y-116349142D02*
X158066023Y-116396761D01*
X157923166Y-116444380D01*
X157827928Y-116444380D01*
X157685071Y-116396761D01*
X157589833Y-116301523D01*
X157542214Y-116206285D01*
X157494595Y-116015809D01*
X157494595Y-115872952D01*
X157542214Y-115682476D01*
X157589833Y-115587238D01*
X157685071Y-115492000D01*
X157827928Y-115444380D01*
X157923166Y-115444380D01*
X158066023Y-115492000D01*
X158113642Y-115539619D01*
X158875547Y-115920571D02*
X159018404Y-115968190D01*
X159066023Y-116015809D01*
X159113642Y-116111047D01*
X159113642Y-116253904D01*
X159066023Y-116349142D01*
X159018404Y-116396761D01*
X158923166Y-116444380D01*
X158542214Y-116444380D01*
X158542214Y-115444380D01*
X158875547Y-115444380D01*
X158970785Y-115492000D01*
X159018404Y-115539619D01*
X159066023Y-115634857D01*
X159066023Y-115730095D01*
X159018404Y-115825333D01*
X158970785Y-115872952D01*
X158875547Y-115920571D01*
X158542214Y-115920571D01*
X160161261Y-115444380D02*
X160494595Y-116444380D01*
X160827928Y-115444380D01*
X161066023Y-115444380D02*
X161685071Y-115444380D01*
X161351738Y-115825333D01*
X161494595Y-115825333D01*
X161589833Y-115872952D01*
X161637452Y-115920571D01*
X161685071Y-116015809D01*
X161685071Y-116253904D01*
X161637452Y-116349142D01*
X161589833Y-116396761D01*
X161494595Y-116444380D01*
X161208880Y-116444380D01*
X161113642Y-116396761D01*
X161066023Y-116349142D01*
X163208880Y-115920571D02*
X163351738Y-115968190D01*
X163399357Y-116015809D01*
X163446976Y-116111047D01*
X163446976Y-116253904D01*
X163399357Y-116349142D01*
X163351738Y-116396761D01*
X163256500Y-116444380D01*
X162875547Y-116444380D01*
X162875547Y-115444380D01*
X163208880Y-115444380D01*
X163304119Y-115492000D01*
X163351738Y-115539619D01*
X163399357Y-115634857D01*
X163399357Y-115730095D01*
X163351738Y-115825333D01*
X163304119Y-115872952D01*
X163208880Y-115920571D01*
X162875547Y-115920571D01*
X164066023Y-115968190D02*
X164066023Y-116444380D01*
X163732690Y-115444380D02*
X164066023Y-115968190D01*
X164399357Y-115444380D01*
X154685071Y-118054380D02*
X154685071Y-117054380D01*
X154923166Y-117054380D01*
X155066023Y-117102000D01*
X155161261Y-117197238D01*
X155208880Y-117292476D01*
X155256500Y-117482952D01*
X155256500Y-117625809D01*
X155208880Y-117816285D01*
X155161261Y-117911523D01*
X155066023Y-118006761D01*
X154923166Y-118054380D01*
X154685071Y-118054380D01*
X155637452Y-117768666D02*
X156113642Y-117768666D01*
X155542214Y-118054380D02*
X155875547Y-117054380D01*
X156208880Y-118054380D01*
X156542214Y-118054380D02*
X156542214Y-117054380D01*
X157113642Y-118054380D01*
X157113642Y-117054380D01*
X157589833Y-118054380D02*
X157589833Y-117054380D01*
X158066023Y-117530571D02*
X158399357Y-117530571D01*
X158542214Y-118054380D02*
X158066023Y-118054380D01*
X158066023Y-117054380D01*
X158542214Y-117054380D01*
X159446976Y-118054380D02*
X158970785Y-118054380D01*
X158970785Y-117054380D01*
X160542214Y-118054380D02*
X160542214Y-117054380D01*
X160875547Y-117768666D01*
X161208880Y-117054380D01*
X161208880Y-118054380D01*
X161637452Y-117768666D02*
X162113642Y-117768666D01*
X161542214Y-118054380D02*
X161875547Y-117054380D01*
X162208880Y-118054380D01*
X163113642Y-118054380D02*
X162780309Y-117578190D01*
X162542214Y-118054380D02*
X162542214Y-117054380D01*
X162923166Y-117054380D01*
X163018404Y-117102000D01*
X163066023Y-117149619D01*
X163113642Y-117244857D01*
X163113642Y-117387714D01*
X163066023Y-117482952D01*
X163018404Y-117530571D01*
X162923166Y-117578190D01*
X162542214Y-117578190D01*
X163542214Y-118054380D02*
X163542214Y-117054380D01*
X164113642Y-118054380D02*
X163685071Y-117482952D01*
X164113642Y-117054380D02*
X163542214Y-117625809D01*
X164494595Y-118006761D02*
X164637452Y-118054380D01*
X164875547Y-118054380D01*
X164970785Y-118006761D01*
X165018404Y-117959142D01*
X165066023Y-117863904D01*
X165066023Y-117768666D01*
X165018404Y-117673428D01*
X164970785Y-117625809D01*
X164875547Y-117578190D01*
X164685071Y-117530571D01*
X164589833Y-117482952D01*
X164542214Y-117435333D01*
X164494595Y-117340095D01*
X164494595Y-117244857D01*
X164542214Y-117149619D01*
X164589833Y-117102000D01*
X164685071Y-117054380D01*
X164923166Y-117054380D01*
X165066023Y-117102000D01*
X154780309Y-119569142D02*
X154732690Y-119616761D01*
X154589833Y-119664380D01*
X154494595Y-119664380D01*
X154351738Y-119616761D01*
X154256500Y-119521523D01*
X154208880Y-119426285D01*
X154161261Y-119235809D01*
X154161261Y-119092952D01*
X154208880Y-118902476D01*
X154256500Y-118807238D01*
X154351738Y-118712000D01*
X154494595Y-118664380D01*
X154589833Y-118664380D01*
X154732690Y-118712000D01*
X154780309Y-118759619D01*
X155780309Y-119569142D02*
X155732690Y-119616761D01*
X155589833Y-119664380D01*
X155494595Y-119664380D01*
X155351738Y-119616761D01*
X155256500Y-119521523D01*
X155208880Y-119426285D01*
X155161261Y-119235809D01*
X155161261Y-119092952D01*
X155208880Y-118902476D01*
X155256500Y-118807238D01*
X155351738Y-118712000D01*
X155494595Y-118664380D01*
X155589833Y-118664380D01*
X155732690Y-118712000D01*
X155780309Y-118759619D01*
X156208880Y-119283428D02*
X156970785Y-119283428D01*
X157780309Y-119140571D02*
X157923166Y-119188190D01*
X157970785Y-119235809D01*
X158018404Y-119331047D01*
X158018404Y-119473904D01*
X157970785Y-119569142D01*
X157923166Y-119616761D01*
X157827928Y-119664380D01*
X157446976Y-119664380D01*
X157446976Y-118664380D01*
X157780309Y-118664380D01*
X157875547Y-118712000D01*
X157923166Y-118759619D01*
X157970785Y-118854857D01*
X157970785Y-118950095D01*
X157923166Y-119045333D01*
X157875547Y-119092952D01*
X157780309Y-119140571D01*
X157446976Y-119140571D01*
X158637452Y-119188190D02*
X158637452Y-119664380D01*
X158304119Y-118664380D02*
X158637452Y-119188190D01*
X158970785Y-118664380D01*
X159304119Y-119283428D02*
X160066023Y-119283428D01*
X160494595Y-119616761D02*
X160637452Y-119664380D01*
X160875547Y-119664380D01*
X160970785Y-119616761D01*
X161018404Y-119569142D01*
X161066023Y-119473904D01*
X161066023Y-119378666D01*
X161018404Y-119283428D01*
X160970785Y-119235809D01*
X160875547Y-119188190D01*
X160685071Y-119140571D01*
X160589833Y-119092952D01*
X160542214Y-119045333D01*
X160494595Y-118950095D01*
X160494595Y-118854857D01*
X160542214Y-118759619D01*
X160589833Y-118712000D01*
X160685071Y-118664380D01*
X160923166Y-118664380D01*
X161066023Y-118712000D01*
X161446976Y-119378666D02*
X161923166Y-119378666D01*
X161351738Y-119664380D02*
X161685071Y-118664380D01*
X162018404Y-119664380D01*
X163542214Y-118997714D02*
X163542214Y-119664380D01*
X163304119Y-118616761D02*
X163066023Y-119331047D01*
X163685071Y-119331047D01*
X164066023Y-119569142D02*
X164113642Y-119616761D01*
X164066023Y-119664380D01*
X164018404Y-119616761D01*
X164066023Y-119569142D01*
X164066023Y-119664380D01*
X164732690Y-118664380D02*
X164827928Y-118664380D01*
X164923166Y-118712000D01*
X164970785Y-118759619D01*
X165018404Y-118854857D01*
X165066023Y-119045333D01*
X165066023Y-119283428D01*
X165018404Y-119473904D01*
X164970785Y-119569142D01*
X164923166Y-119616761D01*
X164827928Y-119664380D01*
X164732690Y-119664380D01*
X164637452Y-119616761D01*
X164589833Y-119569142D01*
X164542214Y-119473904D01*
X164494595Y-119283428D01*
X164494595Y-119045333D01*
X164542214Y-118854857D01*
X164589833Y-118759619D01*
X164637452Y-118712000D01*
X164732690Y-118664380D01*
X150161261Y-121655333D02*
X150113642Y-121607714D01*
X150018404Y-121464857D01*
X149970785Y-121369619D01*
X149923166Y-121226761D01*
X149875547Y-120988666D01*
X149875547Y-120798190D01*
X149923166Y-120560095D01*
X149970785Y-120417238D01*
X150018404Y-120322000D01*
X150113642Y-120179142D01*
X150161261Y-120131523D01*
X150399357Y-120274380D02*
X150732690Y-121274380D01*
X151066023Y-120274380D01*
X151923166Y-120322000D02*
X151827928Y-120274380D01*
X151685071Y-120274380D01*
X151542214Y-120322000D01*
X151446976Y-120417238D01*
X151399357Y-120512476D01*
X151351738Y-120702952D01*
X151351738Y-120845809D01*
X151399357Y-121036285D01*
X151446976Y-121131523D01*
X151542214Y-121226761D01*
X151685071Y-121274380D01*
X151780309Y-121274380D01*
X151923166Y-121226761D01*
X151970785Y-121179142D01*
X151970785Y-120845809D01*
X151780309Y-120845809D01*
X152351738Y-120988666D02*
X152827928Y-120988666D01*
X152256500Y-121274380D02*
X152589833Y-120274380D01*
X152923166Y-121274380D01*
X154018404Y-121274380D02*
X154018404Y-120274380D01*
X154351738Y-120988666D01*
X154685071Y-120274380D01*
X154685071Y-121274380D01*
X155161261Y-120274380D02*
X155161261Y-121083904D01*
X155208880Y-121179142D01*
X155256500Y-121226761D01*
X155351738Y-121274380D01*
X155542214Y-121274380D01*
X155637452Y-121226761D01*
X155685071Y-121179142D01*
X155732690Y-121083904D01*
X155732690Y-120274380D01*
X156161261Y-121226761D02*
X156304119Y-121274380D01*
X156542214Y-121274380D01*
X156637452Y-121226761D01*
X156685071Y-121179142D01*
X156732690Y-121083904D01*
X156732690Y-120988666D01*
X156685071Y-120893428D01*
X156637452Y-120845809D01*
X156542214Y-120798190D01*
X156351738Y-120750571D01*
X156256500Y-120702952D01*
X156208880Y-120655333D01*
X156161261Y-120560095D01*
X156161261Y-120464857D01*
X156208880Y-120369619D01*
X156256500Y-120322000D01*
X156351738Y-120274380D01*
X156589833Y-120274380D01*
X156732690Y-120322000D01*
X157018404Y-120274380D02*
X157589833Y-120274380D01*
X157304119Y-121274380D02*
X157304119Y-120274380D01*
X158637452Y-121226761D02*
X158780309Y-121274380D01*
X159018404Y-121274380D01*
X159113642Y-121226761D01*
X159161261Y-121179142D01*
X159208880Y-121083904D01*
X159208880Y-120988666D01*
X159161261Y-120893428D01*
X159113642Y-120845809D01*
X159018404Y-120798190D01*
X158827928Y-120750571D01*
X158732690Y-120702952D01*
X158685071Y-120655333D01*
X158637452Y-120560095D01*
X158637452Y-120464857D01*
X158685071Y-120369619D01*
X158732690Y-120322000D01*
X158827928Y-120274380D01*
X159066023Y-120274380D01*
X159208880Y-120322000D01*
X159637452Y-120274380D02*
X159637452Y-121083904D01*
X159685071Y-121179142D01*
X159732690Y-121226761D01*
X159827928Y-121274380D01*
X160018404Y-121274380D01*
X160113642Y-121226761D01*
X160161261Y-121179142D01*
X160208880Y-121083904D01*
X160208880Y-120274380D01*
X160685071Y-121274380D02*
X160685071Y-120274380D01*
X161066023Y-120274380D01*
X161161261Y-120322000D01*
X161208880Y-120369619D01*
X161256500Y-120464857D01*
X161256500Y-120607714D01*
X161208880Y-120702952D01*
X161161261Y-120750571D01*
X161066023Y-120798190D01*
X160685071Y-120798190D01*
X161685071Y-121274380D02*
X161685071Y-120274380D01*
X162066023Y-120274380D01*
X162161261Y-120322000D01*
X162208880Y-120369619D01*
X162256500Y-120464857D01*
X162256500Y-120607714D01*
X162208880Y-120702952D01*
X162161261Y-120750571D01*
X162066023Y-120798190D01*
X161685071Y-120798190D01*
X162875547Y-120274380D02*
X163066023Y-120274380D01*
X163161261Y-120322000D01*
X163256500Y-120417238D01*
X163304119Y-120607714D01*
X163304119Y-120941047D01*
X163256500Y-121131523D01*
X163161261Y-121226761D01*
X163066023Y-121274380D01*
X162875547Y-121274380D01*
X162780309Y-121226761D01*
X162685071Y-121131523D01*
X162637452Y-120941047D01*
X162637452Y-120607714D01*
X162685071Y-120417238D01*
X162780309Y-120322000D01*
X162875547Y-120274380D01*
X164304119Y-121274380D02*
X163970785Y-120798190D01*
X163732690Y-121274380D02*
X163732690Y-120274380D01*
X164113642Y-120274380D01*
X164208880Y-120322000D01*
X164256500Y-120369619D01*
X164304119Y-120464857D01*
X164304119Y-120607714D01*
X164256500Y-120702952D01*
X164208880Y-120750571D01*
X164113642Y-120798190D01*
X163732690Y-120798190D01*
X164589833Y-120274380D02*
X165161261Y-120274380D01*
X164875547Y-121274380D02*
X164875547Y-120274380D01*
X151018404Y-122884380D02*
X150446976Y-122884380D01*
X150732690Y-122884380D02*
X150732690Y-121884380D01*
X150637452Y-122027238D01*
X150542214Y-122122476D01*
X150446976Y-122170095D01*
X151923166Y-121884380D02*
X151446976Y-121884380D01*
X151399357Y-122360571D01*
X151446976Y-122312952D01*
X151542214Y-122265333D01*
X151780309Y-122265333D01*
X151875547Y-122312952D01*
X151923166Y-122360571D01*
X151970785Y-122455809D01*
X151970785Y-122693904D01*
X151923166Y-122789142D01*
X151875547Y-122836761D01*
X151780309Y-122884380D01*
X151542214Y-122884380D01*
X151446976Y-122836761D01*
X151399357Y-122789142D01*
X153161261Y-122884380D02*
X153161261Y-121884380D01*
X153732690Y-122884380D02*
X153304119Y-122312952D01*
X153732690Y-121884380D02*
X153161261Y-122455809D01*
X154161261Y-122884380D02*
X154161261Y-121884380D01*
X154161261Y-122360571D02*
X154732690Y-122360571D01*
X154732690Y-122884380D02*
X154732690Y-121884380D01*
X155113642Y-121884380D02*
X155780309Y-121884380D01*
X155113642Y-122884380D01*
X155780309Y-122884380D01*
X156875547Y-121836761D02*
X156018404Y-123122476D01*
X157208880Y-122884380D02*
X157208880Y-121884380D01*
X157589833Y-121884380D01*
X157685071Y-121932000D01*
X157732690Y-121979619D01*
X157780309Y-122074857D01*
X157780309Y-122217714D01*
X157732690Y-122312952D01*
X157685071Y-122360571D01*
X157589833Y-122408190D01*
X157208880Y-122408190D01*
X158399357Y-121884380D02*
X158589833Y-121884380D01*
X158685071Y-121932000D01*
X158780309Y-122027238D01*
X158827928Y-122217714D01*
X158827928Y-122551047D01*
X158780309Y-122741523D01*
X158685071Y-122836761D01*
X158589833Y-122884380D01*
X158399357Y-122884380D01*
X158304119Y-122836761D01*
X158208880Y-122741523D01*
X158161261Y-122551047D01*
X158161261Y-122217714D01*
X158208880Y-122027238D01*
X158304119Y-121932000D01*
X158399357Y-121884380D01*
X159208880Y-122836761D02*
X159351738Y-122884380D01*
X159589833Y-122884380D01*
X159685071Y-122836761D01*
X159732690Y-122789142D01*
X159780309Y-122693904D01*
X159780309Y-122598666D01*
X159732690Y-122503428D01*
X159685071Y-122455809D01*
X159589833Y-122408190D01*
X159399357Y-122360571D01*
X159304119Y-122312952D01*
X159256500Y-122265333D01*
X159208880Y-122170095D01*
X159208880Y-122074857D01*
X159256500Y-121979619D01*
X159304119Y-121932000D01*
X159399357Y-121884380D01*
X159637452Y-121884380D01*
X159780309Y-121932000D01*
X160923166Y-122836761D02*
X161066023Y-122884380D01*
X161304119Y-122884380D01*
X161399357Y-122836761D01*
X161446976Y-122789142D01*
X161494595Y-122693904D01*
X161494595Y-122598666D01*
X161446976Y-122503428D01*
X161399357Y-122455809D01*
X161304119Y-122408190D01*
X161113642Y-122360571D01*
X161018404Y-122312952D01*
X160970785Y-122265333D01*
X160923166Y-122170095D01*
X160923166Y-122074857D01*
X160970785Y-121979619D01*
X161018404Y-121932000D01*
X161113642Y-121884380D01*
X161351738Y-121884380D01*
X161494595Y-121932000D01*
X162113642Y-122408190D02*
X162113642Y-122884380D01*
X161780309Y-121884380D02*
X162113642Y-122408190D01*
X162446976Y-121884380D01*
X162780309Y-122884380D02*
X162780309Y-121884380D01*
X163351738Y-122884380D01*
X163351738Y-121884380D01*
X164399357Y-122789142D02*
X164351738Y-122836761D01*
X164208880Y-122884380D01*
X164113642Y-122884380D01*
X163970785Y-122836761D01*
X163875547Y-122741523D01*
X163827928Y-122646285D01*
X163780309Y-122455809D01*
X163780309Y-122312952D01*
X163827928Y-122122476D01*
X163875547Y-122027238D01*
X163970785Y-121932000D01*
X164113642Y-121884380D01*
X164208880Y-121884380D01*
X164351738Y-121932000D01*
X164399357Y-121979619D01*
X164732690Y-123265333D02*
X164780309Y-123217714D01*
X164875547Y-123074857D01*
X164923166Y-122979619D01*
X164970785Y-122836761D01*
X165018404Y-122598666D01*
X165018404Y-122408190D01*
X164970785Y-122170095D01*
X164923166Y-122027238D01*
X164875547Y-121932000D01*
X164780309Y-121789142D01*
X164732690Y-121741523D01*
X122234285Y-105382380D02*
X122900952Y-105382380D01*
X122472380Y-106382380D01*
X123710476Y-105715714D02*
X123710476Y-106382380D01*
X123472380Y-105334761D02*
X123234285Y-106049047D01*
X123853333Y-106049047D01*
X124234285Y-106382380D02*
X124234285Y-105382380D01*
X124234285Y-105858571D02*
X124805714Y-105858571D01*
X124805714Y-106382380D02*
X124805714Y-105382380D01*
X125853333Y-106287142D02*
X125805714Y-106334761D01*
X125662857Y-106382380D01*
X125567619Y-106382380D01*
X125424761Y-106334761D01*
X125329523Y-106239523D01*
X125281904Y-106144285D01*
X125234285Y-105953809D01*
X125234285Y-105810952D01*
X125281904Y-105620476D01*
X125329523Y-105525238D01*
X125424761Y-105430000D01*
X125567619Y-105382380D01*
X125662857Y-105382380D01*
X125805714Y-105430000D01*
X125853333Y-105477619D01*
X126424761Y-105810952D02*
X126329523Y-105763333D01*
X126281904Y-105715714D01*
X126234285Y-105620476D01*
X126234285Y-105572857D01*
X126281904Y-105477619D01*
X126329523Y-105430000D01*
X126424761Y-105382380D01*
X126615238Y-105382380D01*
X126710476Y-105430000D01*
X126758095Y-105477619D01*
X126805714Y-105572857D01*
X126805714Y-105620476D01*
X126758095Y-105715714D01*
X126710476Y-105763333D01*
X126615238Y-105810952D01*
X126424761Y-105810952D01*
X126329523Y-105858571D01*
X126281904Y-105906190D01*
X126234285Y-106001428D01*
X126234285Y-106191904D01*
X126281904Y-106287142D01*
X126329523Y-106334761D01*
X126424761Y-106382380D01*
X126615238Y-106382380D01*
X126710476Y-106334761D01*
X126758095Y-106287142D01*
X126805714Y-106191904D01*
X126805714Y-106001428D01*
X126758095Y-105906190D01*
X126710476Y-105858571D01*
X126615238Y-105810952D01*
X127662857Y-105382380D02*
X127472380Y-105382380D01*
X127377142Y-105430000D01*
X127329523Y-105477619D01*
X127234285Y-105620476D01*
X127186666Y-105810952D01*
X127186666Y-106191904D01*
X127234285Y-106287142D01*
X127281904Y-106334761D01*
X127377142Y-106382380D01*
X127567619Y-106382380D01*
X127662857Y-106334761D01*
X127710476Y-106287142D01*
X127758095Y-106191904D01*
X127758095Y-105953809D01*
X127710476Y-105858571D01*
X127662857Y-105810952D01*
X127567619Y-105763333D01*
X127377142Y-105763333D01*
X127281904Y-105810952D01*
X127234285Y-105858571D01*
X127186666Y-105953809D01*
X155110476Y-93842380D02*
X154920000Y-93842380D01*
X154824761Y-93890000D01*
X154777142Y-93937619D01*
X154681904Y-94080476D01*
X154634285Y-94270952D01*
X154634285Y-94651904D01*
X154681904Y-94747142D01*
X154729523Y-94794761D01*
X154824761Y-94842380D01*
X155015238Y-94842380D01*
X155110476Y-94794761D01*
X155158095Y-94747142D01*
X155205714Y-94651904D01*
X155205714Y-94413809D01*
X155158095Y-94318571D01*
X155110476Y-94270952D01*
X155015238Y-94223333D01*
X154824761Y-94223333D01*
X154729523Y-94270952D01*
X154681904Y-94318571D01*
X154634285Y-94413809D01*
X111863142Y-82216190D02*
X111910761Y-82263809D01*
X111958380Y-82406666D01*
X111958380Y-82501904D01*
X111910761Y-82644761D01*
X111815523Y-82740000D01*
X111720285Y-82787619D01*
X111529809Y-82835238D01*
X111386952Y-82835238D01*
X111196476Y-82787619D01*
X111101238Y-82740000D01*
X111006000Y-82644761D01*
X110958380Y-82501904D01*
X110958380Y-82406666D01*
X111006000Y-82263809D01*
X111053619Y-82216190D01*
X111006000Y-81263809D02*
X110958380Y-81359047D01*
X110958380Y-81501904D01*
X111006000Y-81644761D01*
X111101238Y-81740000D01*
X111196476Y-81787619D01*
X111386952Y-81835238D01*
X111529809Y-81835238D01*
X111720285Y-81787619D01*
X111815523Y-81740000D01*
X111910761Y-81644761D01*
X111958380Y-81501904D01*
X111958380Y-81406666D01*
X111910761Y-81263809D01*
X111863142Y-81216190D01*
X111529809Y-81216190D01*
X111529809Y-81406666D01*
X111672666Y-80835238D02*
X111672666Y-80359047D01*
X111958380Y-80930476D02*
X110958380Y-80597142D01*
X111958380Y-80263809D01*
X110910761Y-79216190D02*
X112196476Y-80073333D01*
X111434571Y-78882857D02*
X111434571Y-78549523D01*
X111958380Y-78406666D02*
X111958380Y-78882857D01*
X110958380Y-78882857D01*
X110958380Y-78406666D01*
X111006000Y-77454285D02*
X110958380Y-77549523D01*
X110958380Y-77692380D01*
X111006000Y-77835238D01*
X111101238Y-77930476D01*
X111196476Y-77978095D01*
X111386952Y-78025714D01*
X111529809Y-78025714D01*
X111720285Y-77978095D01*
X111815523Y-77930476D01*
X111910761Y-77835238D01*
X111958380Y-77692380D01*
X111958380Y-77597142D01*
X111910761Y-77454285D01*
X111863142Y-77406666D01*
X111529809Y-77406666D01*
X111529809Y-77597142D01*
X111672666Y-77025714D02*
X111672666Y-76549523D01*
X111958380Y-77120952D02*
X110958380Y-76787619D01*
X111958380Y-76454285D01*
X111958380Y-75359047D02*
X110958380Y-75359047D01*
X111672666Y-75025714D01*
X110958380Y-74692380D01*
X111958380Y-74692380D01*
X133488571Y-80243809D02*
X133488571Y-79910476D01*
X134012380Y-79767619D02*
X134012380Y-80243809D01*
X133012380Y-80243809D01*
X133012380Y-79767619D01*
X133060000Y-78815238D02*
X133012380Y-78910476D01*
X133012380Y-79053333D01*
X133060000Y-79196190D01*
X133155238Y-79291428D01*
X133250476Y-79339047D01*
X133440952Y-79386666D01*
X133583809Y-79386666D01*
X133774285Y-79339047D01*
X133869523Y-79291428D01*
X133964761Y-79196190D01*
X134012380Y-79053333D01*
X134012380Y-78958095D01*
X133964761Y-78815238D01*
X133917142Y-78767619D01*
X133583809Y-78767619D01*
X133583809Y-78958095D01*
X133726666Y-78386666D02*
X133726666Y-77910476D01*
X134012380Y-78481904D02*
X133012380Y-78148571D01*
X134012380Y-77815238D01*
X133488571Y-77148571D02*
X133536190Y-77005714D01*
X133583809Y-76958095D01*
X133679047Y-76910476D01*
X133821904Y-76910476D01*
X133917142Y-76958095D01*
X133964761Y-77005714D01*
X134012380Y-77100952D01*
X134012380Y-77481904D01*
X133012380Y-77481904D01*
X133012380Y-77148571D01*
X133060000Y-77053333D01*
X133107619Y-77005714D01*
X133202857Y-76958095D01*
X133298095Y-76958095D01*
X133393333Y-77005714D01*
X133440952Y-77053333D01*
X133488571Y-77148571D01*
X133488571Y-77481904D01*
X134012380Y-76005714D02*
X134012380Y-76481904D01*
X133012380Y-76481904D01*
X133012380Y-75672380D02*
X133821904Y-75672380D01*
X133917142Y-75624761D01*
X133964761Y-75577142D01*
X134012380Y-75481904D01*
X134012380Y-75291428D01*
X133964761Y-75196190D01*
X133917142Y-75148571D01*
X133821904Y-75100952D01*
X133012380Y-75100952D01*
X133488571Y-74624761D02*
X133488571Y-74291428D01*
X134012380Y-74148571D02*
X134012380Y-74624761D01*
X133012380Y-74624761D01*
X133012380Y-74148571D01*
X148502666Y-121776476D02*
X148502666Y-121300285D01*
X148788380Y-121871714D02*
X147788380Y-121538380D01*
X148788380Y-121205047D01*
X147788380Y-120871714D02*
X148597904Y-120871714D01*
X148693142Y-120824095D01*
X148740761Y-120776476D01*
X148788380Y-120681238D01*
X148788380Y-120490761D01*
X148740761Y-120395523D01*
X148693142Y-120347904D01*
X148597904Y-120300285D01*
X147788380Y-120300285D01*
X148788380Y-119824095D02*
X147788380Y-119824095D01*
X147788380Y-119586000D01*
X147836000Y-119443142D01*
X147931238Y-119347904D01*
X148026476Y-119300285D01*
X148216952Y-119252666D01*
X148359809Y-119252666D01*
X148550285Y-119300285D01*
X148645523Y-119347904D01*
X148740761Y-119443142D01*
X148788380Y-119586000D01*
X148788380Y-119824095D01*
X148788380Y-118824095D02*
X147788380Y-118824095D01*
X147788380Y-118157428D02*
X147788380Y-117966952D01*
X147836000Y-117871714D01*
X147931238Y-117776476D01*
X148121714Y-117728857D01*
X148455047Y-117728857D01*
X148645523Y-117776476D01*
X148740761Y-117871714D01*
X148788380Y-117966952D01*
X148788380Y-118157428D01*
X148740761Y-118252666D01*
X148645523Y-118347904D01*
X148455047Y-118395523D01*
X148121714Y-118395523D01*
X147931238Y-118347904D01*
X147836000Y-118252666D01*
X147788380Y-118157428D01*
X148740761Y-116586000D02*
X148788380Y-116443142D01*
X148788380Y-116205047D01*
X148740761Y-116109809D01*
X148693142Y-116062190D01*
X148597904Y-116014571D01*
X148502666Y-116014571D01*
X148407428Y-116062190D01*
X148359809Y-116109809D01*
X148312190Y-116205047D01*
X148264571Y-116395523D01*
X148216952Y-116490761D01*
X148169333Y-116538380D01*
X148074095Y-116586000D01*
X147978857Y-116586000D01*
X147883619Y-116538380D01*
X147836000Y-116490761D01*
X147788380Y-116395523D01*
X147788380Y-116157428D01*
X147836000Y-116014571D01*
X147788380Y-115728857D02*
X147788380Y-115157428D01*
X148788380Y-115443142D02*
X147788380Y-115443142D01*
X148264571Y-114824095D02*
X148264571Y-114490761D01*
X148788380Y-114347904D02*
X148788380Y-114824095D01*
X147788380Y-114824095D01*
X147788380Y-114347904D01*
X148788380Y-113347904D02*
X148312190Y-113681238D01*
X148788380Y-113919333D02*
X147788380Y-113919333D01*
X147788380Y-113538380D01*
X147836000Y-113443142D01*
X147883619Y-113395523D01*
X147978857Y-113347904D01*
X148121714Y-113347904D01*
X148216952Y-113395523D01*
X148264571Y-113443142D01*
X148312190Y-113538380D01*
X148312190Y-113919333D01*
X148264571Y-112919333D02*
X148264571Y-112586000D01*
X148788380Y-112443142D02*
X148788380Y-112919333D01*
X147788380Y-112919333D01*
X147788380Y-112443142D01*
X147788380Y-111824095D02*
X147788380Y-111633619D01*
X147836000Y-111538380D01*
X147931238Y-111443142D01*
X148121714Y-111395523D01*
X148455047Y-111395523D01*
X148645523Y-111443142D01*
X148740761Y-111538380D01*
X148788380Y-111633619D01*
X148788380Y-111824095D01*
X148740761Y-111919333D01*
X148645523Y-112014571D01*
X148455047Y-112062190D01*
X148121714Y-112062190D01*
X147931238Y-112014571D01*
X147836000Y-111919333D01*
X147788380Y-111824095D01*
X140222380Y-88737142D02*
X139222380Y-88737142D01*
X140222380Y-88260952D02*
X139222380Y-88260952D01*
X140222380Y-87689523D01*
X139222380Y-87689523D01*
X139222380Y-87356190D02*
X139222380Y-86784761D01*
X140222380Y-87070476D02*
X139222380Y-87070476D01*
X139698571Y-86451428D02*
X139698571Y-86118095D01*
X140222380Y-85975238D02*
X140222380Y-86451428D01*
X139222380Y-86451428D01*
X139222380Y-85975238D01*
X140222380Y-85546666D02*
X139222380Y-85546666D01*
X140222380Y-84975238D01*
X139222380Y-84975238D01*
X140174761Y-84546666D02*
X140222380Y-84403809D01*
X140222380Y-84165714D01*
X140174761Y-84070476D01*
X140127142Y-84022857D01*
X140031904Y-83975238D01*
X139936666Y-83975238D01*
X139841428Y-84022857D01*
X139793809Y-84070476D01*
X139746190Y-84165714D01*
X139698571Y-84356190D01*
X139650952Y-84451428D01*
X139603333Y-84499047D01*
X139508095Y-84546666D01*
X139412857Y-84546666D01*
X139317619Y-84499047D01*
X139270000Y-84451428D01*
X139222380Y-84356190D01*
X139222380Y-84118095D01*
X139270000Y-83975238D01*
X120173333Y-117882380D02*
X119697142Y-117882380D01*
X119697142Y-116882380D01*
X120506666Y-117882380D02*
X120506666Y-116882380D01*
X120840000Y-117596666D01*
X121173333Y-116882380D01*
X121173333Y-117882380D01*
X121554285Y-116882380D02*
X122220952Y-116882380D01*
X121792380Y-117882380D01*
X122744761Y-117310952D02*
X122649523Y-117263333D01*
X122601904Y-117215714D01*
X122554285Y-117120476D01*
X122554285Y-117072857D01*
X122601904Y-116977619D01*
X122649523Y-116930000D01*
X122744761Y-116882380D01*
X122935238Y-116882380D01*
X123030476Y-116930000D01*
X123078095Y-116977619D01*
X123125714Y-117072857D01*
X123125714Y-117120476D01*
X123078095Y-117215714D01*
X123030476Y-117263333D01*
X122935238Y-117310952D01*
X122744761Y-117310952D01*
X122649523Y-117358571D01*
X122601904Y-117406190D01*
X122554285Y-117501428D01*
X122554285Y-117691904D01*
X122601904Y-117787142D01*
X122649523Y-117834761D01*
X122744761Y-117882380D01*
X122935238Y-117882380D01*
X123030476Y-117834761D01*
X123078095Y-117787142D01*
X123125714Y-117691904D01*
X123125714Y-117501428D01*
X123078095Y-117406190D01*
X123030476Y-117358571D01*
X122935238Y-117310952D01*
X123744761Y-116882380D02*
X123840000Y-116882380D01*
X123935238Y-116930000D01*
X123982857Y-116977619D01*
X124030476Y-117072857D01*
X124078095Y-117263333D01*
X124078095Y-117501428D01*
X124030476Y-117691904D01*
X123982857Y-117787142D01*
X123935238Y-117834761D01*
X123840000Y-117882380D01*
X123744761Y-117882380D01*
X123649523Y-117834761D01*
X123601904Y-117787142D01*
X123554285Y-117691904D01*
X123506666Y-117501428D01*
X123506666Y-117263333D01*
X123554285Y-117072857D01*
X123601904Y-116977619D01*
X123649523Y-116930000D01*
X123744761Y-116882380D01*
X124982857Y-116882380D02*
X124506666Y-116882380D01*
X124459047Y-117358571D01*
X124506666Y-117310952D01*
X124601904Y-117263333D01*
X124840000Y-117263333D01*
X124935238Y-117310952D01*
X124982857Y-117358571D01*
X125030476Y-117453809D01*
X125030476Y-117691904D01*
X124982857Y-117787142D01*
X124935238Y-117834761D01*
X124840000Y-117882380D01*
X124601904Y-117882380D01*
X124506666Y-117834761D01*
X124459047Y-117787142D01*
X121475619Y-112720380D02*
X121475619Y-111720380D01*
X121951809Y-112720380D02*
X121951809Y-111720380D01*
X122523238Y-112720380D01*
X122523238Y-111720380D01*
X122856571Y-111720380D02*
X123189904Y-112720380D01*
X123523238Y-111720380D01*
X164655523Y-81478380D02*
X164084095Y-81478380D01*
X164369809Y-81478380D02*
X164369809Y-80478380D01*
X164274571Y-80621238D01*
X164179333Y-80716476D01*
X164084095Y-80764095D01*
X164988857Y-80478380D02*
X165607904Y-80478380D01*
X165274571Y-80859333D01*
X165417428Y-80859333D01*
X165512666Y-80906952D01*
X165560285Y-80954571D01*
X165607904Y-81049809D01*
X165607904Y-81287904D01*
X165560285Y-81383142D01*
X165512666Y-81430761D01*
X165417428Y-81478380D01*
X165131714Y-81478380D01*
X165036476Y-81430761D01*
X164988857Y-81383142D01*
%TO.C,JP9*%
X138046666Y-90712380D02*
X138046666Y-91426666D01*
X137999047Y-91569523D01*
X137903809Y-91664761D01*
X137760952Y-91712380D01*
X137665714Y-91712380D01*
X138522857Y-91712380D02*
X138522857Y-90712380D01*
X138903809Y-90712380D01*
X138999047Y-90760000D01*
X139046666Y-90807619D01*
X139094285Y-90902857D01*
X139094285Y-91045714D01*
X139046666Y-91140952D01*
X138999047Y-91188571D01*
X138903809Y-91236190D01*
X138522857Y-91236190D01*
X139570476Y-91712380D02*
X139760952Y-91712380D01*
X139856190Y-91664761D01*
X139903809Y-91617142D01*
X139999047Y-91474285D01*
X140046666Y-91283809D01*
X140046666Y-90902857D01*
X139999047Y-90807619D01*
X139951428Y-90760000D01*
X139856190Y-90712380D01*
X139665714Y-90712380D01*
X139570476Y-90760000D01*
X139522857Y-90807619D01*
X139475238Y-90902857D01*
X139475238Y-91140952D01*
X139522857Y-91236190D01*
X139570476Y-91283809D01*
X139665714Y-91331428D01*
X139856190Y-91331428D01*
X139951428Y-91283809D01*
X139999047Y-91236190D01*
X140046666Y-91140952D01*
%TO.C,C5*%
X113387142Y-101806666D02*
X113434761Y-101854285D01*
X113482380Y-101997142D01*
X113482380Y-102092380D01*
X113434761Y-102235238D01*
X113339523Y-102330476D01*
X113244285Y-102378095D01*
X113053809Y-102425714D01*
X112910952Y-102425714D01*
X112720476Y-102378095D01*
X112625238Y-102330476D01*
X112530000Y-102235238D01*
X112482380Y-102092380D01*
X112482380Y-101997142D01*
X112530000Y-101854285D01*
X112577619Y-101806666D01*
X112482380Y-100901904D02*
X112482380Y-101378095D01*
X112958571Y-101425714D01*
X112910952Y-101378095D01*
X112863333Y-101282857D01*
X112863333Y-101044761D01*
X112910952Y-100949523D01*
X112958571Y-100901904D01*
X113053809Y-100854285D01*
X113291904Y-100854285D01*
X113387142Y-100901904D01*
X113434761Y-100949523D01*
X113482380Y-101044761D01*
X113482380Y-101282857D01*
X113434761Y-101378095D01*
X113387142Y-101425714D01*
%TO.C,R22*%
X133294380Y-117482857D02*
X132818190Y-117816190D01*
X133294380Y-118054285D02*
X132294380Y-118054285D01*
X132294380Y-117673333D01*
X132342000Y-117578095D01*
X132389619Y-117530476D01*
X132484857Y-117482857D01*
X132627714Y-117482857D01*
X132722952Y-117530476D01*
X132770571Y-117578095D01*
X132818190Y-117673333D01*
X132818190Y-118054285D01*
X132389619Y-117101904D02*
X132342000Y-117054285D01*
X132294380Y-116959047D01*
X132294380Y-116720952D01*
X132342000Y-116625714D01*
X132389619Y-116578095D01*
X132484857Y-116530476D01*
X132580095Y-116530476D01*
X132722952Y-116578095D01*
X133294380Y-117149523D01*
X133294380Y-116530476D01*
X132389619Y-116149523D02*
X132342000Y-116101904D01*
X132294380Y-116006666D01*
X132294380Y-115768571D01*
X132342000Y-115673333D01*
X132389619Y-115625714D01*
X132484857Y-115578095D01*
X132580095Y-115578095D01*
X132722952Y-115625714D01*
X133294380Y-116197142D01*
X133294380Y-115578095D01*
%TO.C,C2*%
X113355333Y-123801142D02*
X113307714Y-123848761D01*
X113164857Y-123896380D01*
X113069619Y-123896380D01*
X112926761Y-123848761D01*
X112831523Y-123753523D01*
X112783904Y-123658285D01*
X112736285Y-123467809D01*
X112736285Y-123324952D01*
X112783904Y-123134476D01*
X112831523Y-123039238D01*
X112926761Y-122944000D01*
X113069619Y-122896380D01*
X113164857Y-122896380D01*
X113307714Y-122944000D01*
X113355333Y-122991619D01*
X113736285Y-122991619D02*
X113783904Y-122944000D01*
X113879142Y-122896380D01*
X114117238Y-122896380D01*
X114212476Y-122944000D01*
X114260095Y-122991619D01*
X114307714Y-123086857D01*
X114307714Y-123182095D01*
X114260095Y-123324952D01*
X113688666Y-123896380D01*
X114307714Y-123896380D01*
%TO.C,R18*%
X145294380Y-74192857D02*
X144818190Y-74526190D01*
X145294380Y-74764285D02*
X144294380Y-74764285D01*
X144294380Y-74383333D01*
X144342000Y-74288095D01*
X144389619Y-74240476D01*
X144484857Y-74192857D01*
X144627714Y-74192857D01*
X144722952Y-74240476D01*
X144770571Y-74288095D01*
X144818190Y-74383333D01*
X144818190Y-74764285D01*
X145294380Y-73240476D02*
X145294380Y-73811904D01*
X145294380Y-73526190D02*
X144294380Y-73526190D01*
X144437238Y-73621428D01*
X144532476Y-73716666D01*
X144580095Y-73811904D01*
X144722952Y-72669047D02*
X144675333Y-72764285D01*
X144627714Y-72811904D01*
X144532476Y-72859523D01*
X144484857Y-72859523D01*
X144389619Y-72811904D01*
X144342000Y-72764285D01*
X144294380Y-72669047D01*
X144294380Y-72478571D01*
X144342000Y-72383333D01*
X144389619Y-72335714D01*
X144484857Y-72288095D01*
X144532476Y-72288095D01*
X144627714Y-72335714D01*
X144675333Y-72383333D01*
X144722952Y-72478571D01*
X144722952Y-72669047D01*
X144770571Y-72764285D01*
X144818190Y-72811904D01*
X144913428Y-72859523D01*
X145103904Y-72859523D01*
X145199142Y-72811904D01*
X145246761Y-72764285D01*
X145294380Y-72669047D01*
X145294380Y-72478571D01*
X145246761Y-72383333D01*
X145199142Y-72335714D01*
X145103904Y-72288095D01*
X144913428Y-72288095D01*
X144818190Y-72335714D01*
X144770571Y-72383333D01*
X144722952Y-72478571D01*
%TO.C,R17*%
X127422380Y-75592857D02*
X126946190Y-75926190D01*
X127422380Y-76164285D02*
X126422380Y-76164285D01*
X126422380Y-75783333D01*
X126470000Y-75688095D01*
X126517619Y-75640476D01*
X126612857Y-75592857D01*
X126755714Y-75592857D01*
X126850952Y-75640476D01*
X126898571Y-75688095D01*
X126946190Y-75783333D01*
X126946190Y-76164285D01*
X127422380Y-74640476D02*
X127422380Y-75211904D01*
X127422380Y-74926190D02*
X126422380Y-74926190D01*
X126565238Y-75021428D01*
X126660476Y-75116666D01*
X126708095Y-75211904D01*
X126422380Y-74307142D02*
X126422380Y-73640476D01*
X127422380Y-74069047D01*
%TO.C,R7*%
X117943333Y-85288380D02*
X117610000Y-84812190D01*
X117371904Y-85288380D02*
X117371904Y-84288380D01*
X117752857Y-84288380D01*
X117848095Y-84336000D01*
X117895714Y-84383619D01*
X117943333Y-84478857D01*
X117943333Y-84621714D01*
X117895714Y-84716952D01*
X117848095Y-84764571D01*
X117752857Y-84812190D01*
X117371904Y-84812190D01*
X118276666Y-84288380D02*
X118943333Y-84288380D01*
X118514761Y-85288380D01*
%TO.C,U2*%
X121920095Y-123427380D02*
X121920095Y-124236904D01*
X121967714Y-124332142D01*
X122015333Y-124379761D01*
X122110571Y-124427380D01*
X122301047Y-124427380D01*
X122396285Y-124379761D01*
X122443904Y-124332142D01*
X122491523Y-124236904D01*
X122491523Y-123427380D01*
X122920095Y-123522619D02*
X122967714Y-123475000D01*
X123062952Y-123427380D01*
X123301047Y-123427380D01*
X123396285Y-123475000D01*
X123443904Y-123522619D01*
X123491523Y-123617857D01*
X123491523Y-123713095D01*
X123443904Y-123855952D01*
X122872476Y-124427380D01*
X123491523Y-124427380D01*
%TO.C,D2*%
X106703904Y-62682380D02*
X106703904Y-61682380D01*
X106942000Y-61682380D01*
X107084857Y-61730000D01*
X107180095Y-61825238D01*
X107227714Y-61920476D01*
X107275333Y-62110952D01*
X107275333Y-62253809D01*
X107227714Y-62444285D01*
X107180095Y-62539523D01*
X107084857Y-62634761D01*
X106942000Y-62682380D01*
X106703904Y-62682380D01*
X107656285Y-61777619D02*
X107703904Y-61730000D01*
X107799142Y-61682380D01*
X108037238Y-61682380D01*
X108132476Y-61730000D01*
X108180095Y-61777619D01*
X108227714Y-61872857D01*
X108227714Y-61968095D01*
X108180095Y-62110952D01*
X107608666Y-62682380D01*
X108227714Y-62682380D01*
%TO.C,R16*%
X142266380Y-74192857D02*
X141790190Y-74526190D01*
X142266380Y-74764285D02*
X141266380Y-74764285D01*
X141266380Y-74383333D01*
X141314000Y-74288095D01*
X141361619Y-74240476D01*
X141456857Y-74192857D01*
X141599714Y-74192857D01*
X141694952Y-74240476D01*
X141742571Y-74288095D01*
X141790190Y-74383333D01*
X141790190Y-74764285D01*
X142266380Y-73240476D02*
X142266380Y-73811904D01*
X142266380Y-73526190D02*
X141266380Y-73526190D01*
X141409238Y-73621428D01*
X141504476Y-73716666D01*
X141552095Y-73811904D01*
X141266380Y-72383333D02*
X141266380Y-72573809D01*
X141314000Y-72669047D01*
X141361619Y-72716666D01*
X141504476Y-72811904D01*
X141694952Y-72859523D01*
X142075904Y-72859523D01*
X142171142Y-72811904D01*
X142218761Y-72764285D01*
X142266380Y-72669047D01*
X142266380Y-72478571D01*
X142218761Y-72383333D01*
X142171142Y-72335714D01*
X142075904Y-72288095D01*
X141837809Y-72288095D01*
X141742571Y-72335714D01*
X141694952Y-72383333D01*
X141647333Y-72478571D01*
X141647333Y-72669047D01*
X141694952Y-72764285D01*
X141742571Y-72811904D01*
X141837809Y-72859523D01*
%TO.C,JP2*%
X136326666Y-73252380D02*
X136326666Y-73966666D01*
X136279047Y-74109523D01*
X136183809Y-74204761D01*
X136040952Y-74252380D01*
X135945714Y-74252380D01*
X136802857Y-74252380D02*
X136802857Y-73252380D01*
X137183809Y-73252380D01*
X137279047Y-73300000D01*
X137326666Y-73347619D01*
X137374285Y-73442857D01*
X137374285Y-73585714D01*
X137326666Y-73680952D01*
X137279047Y-73728571D01*
X137183809Y-73776190D01*
X136802857Y-73776190D01*
X137755238Y-73347619D02*
X137802857Y-73300000D01*
X137898095Y-73252380D01*
X138136190Y-73252380D01*
X138231428Y-73300000D01*
X138279047Y-73347619D01*
X138326666Y-73442857D01*
X138326666Y-73538095D01*
X138279047Y-73680952D01*
X137707619Y-74252380D01*
X138326666Y-74252380D01*
%TO.C,R21*%
X139565142Y-104592380D02*
X139231809Y-104116190D01*
X138993714Y-104592380D02*
X138993714Y-103592380D01*
X139374666Y-103592380D01*
X139469904Y-103640000D01*
X139517523Y-103687619D01*
X139565142Y-103782857D01*
X139565142Y-103925714D01*
X139517523Y-104020952D01*
X139469904Y-104068571D01*
X139374666Y-104116190D01*
X138993714Y-104116190D01*
X139946095Y-103687619D02*
X139993714Y-103640000D01*
X140088952Y-103592380D01*
X140327047Y-103592380D01*
X140422285Y-103640000D01*
X140469904Y-103687619D01*
X140517523Y-103782857D01*
X140517523Y-103878095D01*
X140469904Y-104020952D01*
X139898476Y-104592380D01*
X140517523Y-104592380D01*
X141469904Y-104592380D02*
X140898476Y-104592380D01*
X141184190Y-104592380D02*
X141184190Y-103592380D01*
X141088952Y-103735238D01*
X140993714Y-103830476D01*
X140898476Y-103878095D01*
%TO.C,R8*%
X117943333Y-77922380D02*
X117610000Y-77446190D01*
X117371904Y-77922380D02*
X117371904Y-76922380D01*
X117752857Y-76922380D01*
X117848095Y-76970000D01*
X117895714Y-77017619D01*
X117943333Y-77112857D01*
X117943333Y-77255714D01*
X117895714Y-77350952D01*
X117848095Y-77398571D01*
X117752857Y-77446190D01*
X117371904Y-77446190D01*
X118514761Y-77350952D02*
X118419523Y-77303333D01*
X118371904Y-77255714D01*
X118324285Y-77160476D01*
X118324285Y-77112857D01*
X118371904Y-77017619D01*
X118419523Y-76970000D01*
X118514761Y-76922380D01*
X118705238Y-76922380D01*
X118800476Y-76970000D01*
X118848095Y-77017619D01*
X118895714Y-77112857D01*
X118895714Y-77160476D01*
X118848095Y-77255714D01*
X118800476Y-77303333D01*
X118705238Y-77350952D01*
X118514761Y-77350952D01*
X118419523Y-77398571D01*
X118371904Y-77446190D01*
X118324285Y-77541428D01*
X118324285Y-77731904D01*
X118371904Y-77827142D01*
X118419523Y-77874761D01*
X118514761Y-77922380D01*
X118705238Y-77922380D01*
X118800476Y-77874761D01*
X118848095Y-77827142D01*
X118895714Y-77731904D01*
X118895714Y-77541428D01*
X118848095Y-77446190D01*
X118800476Y-77398571D01*
X118705238Y-77350952D01*
%TO.C,R13*%
X117467142Y-70302380D02*
X117133809Y-69826190D01*
X116895714Y-70302380D02*
X116895714Y-69302380D01*
X117276666Y-69302380D01*
X117371904Y-69350000D01*
X117419523Y-69397619D01*
X117467142Y-69492857D01*
X117467142Y-69635714D01*
X117419523Y-69730952D01*
X117371904Y-69778571D01*
X117276666Y-69826190D01*
X116895714Y-69826190D01*
X118419523Y-70302380D02*
X117848095Y-70302380D01*
X118133809Y-70302380D02*
X118133809Y-69302380D01*
X118038571Y-69445238D01*
X117943333Y-69540476D01*
X117848095Y-69588095D01*
X118752857Y-69302380D02*
X119371904Y-69302380D01*
X119038571Y-69683333D01*
X119181428Y-69683333D01*
X119276666Y-69730952D01*
X119324285Y-69778571D01*
X119371904Y-69873809D01*
X119371904Y-70111904D01*
X119324285Y-70207142D01*
X119276666Y-70254761D01*
X119181428Y-70302380D01*
X118895714Y-70302380D01*
X118800476Y-70254761D01*
X118752857Y-70207142D01*
%TO.C,C4*%
X113133142Y-114466666D02*
X113180761Y-114514285D01*
X113228380Y-114657142D01*
X113228380Y-114752380D01*
X113180761Y-114895238D01*
X113085523Y-114990476D01*
X112990285Y-115038095D01*
X112799809Y-115085714D01*
X112656952Y-115085714D01*
X112466476Y-115038095D01*
X112371238Y-114990476D01*
X112276000Y-114895238D01*
X112228380Y-114752380D01*
X112228380Y-114657142D01*
X112276000Y-114514285D01*
X112323619Y-114466666D01*
X112561714Y-113609523D02*
X113228380Y-113609523D01*
X112180761Y-113847619D02*
X112895047Y-114085714D01*
X112895047Y-113466666D01*
%TO.C,C1*%
X137009142Y-97448666D02*
X137056761Y-97496285D01*
X137104380Y-97639142D01*
X137104380Y-97734380D01*
X137056761Y-97877238D01*
X136961523Y-97972476D01*
X136866285Y-98020095D01*
X136675809Y-98067714D01*
X136532952Y-98067714D01*
X136342476Y-98020095D01*
X136247238Y-97972476D01*
X136152000Y-97877238D01*
X136104380Y-97734380D01*
X136104380Y-97639142D01*
X136152000Y-97496285D01*
X136199619Y-97448666D01*
X137104380Y-96496285D02*
X137104380Y-97067714D01*
X137104380Y-96782000D02*
X136104380Y-96782000D01*
X136247238Y-96877238D01*
X136342476Y-96972476D01*
X136390095Y-97067714D01*
%TO.C,D3*%
X106703904Y-69286380D02*
X106703904Y-68286380D01*
X106942000Y-68286380D01*
X107084857Y-68334000D01*
X107180095Y-68429238D01*
X107227714Y-68524476D01*
X107275333Y-68714952D01*
X107275333Y-68857809D01*
X107227714Y-69048285D01*
X107180095Y-69143523D01*
X107084857Y-69238761D01*
X106942000Y-69286380D01*
X106703904Y-69286380D01*
X107608666Y-68286380D02*
X108227714Y-68286380D01*
X107894380Y-68667333D01*
X108037238Y-68667333D01*
X108132476Y-68714952D01*
X108180095Y-68762571D01*
X108227714Y-68857809D01*
X108227714Y-69095904D01*
X108180095Y-69191142D01*
X108132476Y-69238761D01*
X108037238Y-69286380D01*
X107751523Y-69286380D01*
X107656285Y-69238761D01*
X107608666Y-69191142D01*
%TO.C,U1*%
X114719380Y-106669904D02*
X115528904Y-106669904D01*
X115624142Y-106622285D01*
X115671761Y-106574666D01*
X115719380Y-106479428D01*
X115719380Y-106288952D01*
X115671761Y-106193714D01*
X115624142Y-106146095D01*
X115528904Y-106098476D01*
X114719380Y-106098476D01*
X115719380Y-105098476D02*
X115719380Y-105669904D01*
X115719380Y-105384190D02*
X114719380Y-105384190D01*
X114862238Y-105479428D01*
X114957476Y-105574666D01*
X115005095Y-105669904D01*
D11*
%TO.C,J1*%
X149005108Y-85344000D02*
X150093680Y-85344000D01*
X150311394Y-85416571D01*
X150456537Y-85561714D01*
X150529108Y-85779428D01*
X150529108Y-85924571D01*
X150529108Y-83820000D02*
X150529108Y-84690857D01*
X150529108Y-84255428D02*
X149005108Y-84255428D01*
X149222822Y-84400571D01*
X149367965Y-84545714D01*
X149440537Y-84690857D01*
X155556857Y-89625714D02*
X155629428Y-89408000D01*
X155629428Y-89045142D01*
X155556857Y-88900000D01*
X155484285Y-88827428D01*
X155339142Y-88754857D01*
X155194000Y-88754857D01*
X155048857Y-88827428D01*
X154976285Y-88900000D01*
X154903714Y-89045142D01*
X154831142Y-89335428D01*
X154758571Y-89480571D01*
X154686000Y-89553142D01*
X154540857Y-89625714D01*
X154395714Y-89625714D01*
X154250571Y-89553142D01*
X154178000Y-89480571D01*
X154105428Y-89335428D01*
X154105428Y-88972571D01*
X154178000Y-88754857D01*
X155484285Y-87230857D02*
X155556857Y-87303428D01*
X155629428Y-87521142D01*
X155629428Y-87666285D01*
X155556857Y-87884000D01*
X155411714Y-88029142D01*
X155266571Y-88101714D01*
X154976285Y-88174285D01*
X154758571Y-88174285D01*
X154468285Y-88101714D01*
X154323142Y-88029142D01*
X154178000Y-87884000D01*
X154105428Y-87666285D01*
X154105428Y-87521142D01*
X154178000Y-87303428D01*
X154250571Y-87230857D01*
X155194000Y-86650285D02*
X155194000Y-85924571D01*
X155629428Y-86795428D02*
X154105428Y-86287428D01*
X155629428Y-85779428D01*
X155629428Y-84400571D02*
X154903714Y-84908571D01*
X155629428Y-85271428D02*
X154105428Y-85271428D01*
X154105428Y-84690857D01*
X154178000Y-84545714D01*
X154250571Y-84473142D01*
X154395714Y-84400571D01*
X154613428Y-84400571D01*
X154758571Y-84473142D01*
X154831142Y-84545714D01*
X154903714Y-84690857D01*
X154903714Y-85271428D01*
X154105428Y-83965142D02*
X154105428Y-83094285D01*
X155629428Y-83529714D02*
X154105428Y-83529714D01*
X155048857Y-82586285D02*
X155048857Y-81425142D01*
X154831142Y-80191428D02*
X154831142Y-80699428D01*
X155629428Y-80699428D02*
X154105428Y-80699428D01*
X154105428Y-79973714D01*
D10*
%TO.C,JP3*%
X136326666Y-82082380D02*
X136326666Y-82796666D01*
X136279047Y-82939523D01*
X136183809Y-83034761D01*
X136040952Y-83082380D01*
X135945714Y-83082380D01*
X136802857Y-83082380D02*
X136802857Y-82082380D01*
X137183809Y-82082380D01*
X137279047Y-82130000D01*
X137326666Y-82177619D01*
X137374285Y-82272857D01*
X137374285Y-82415714D01*
X137326666Y-82510952D01*
X137279047Y-82558571D01*
X137183809Y-82606190D01*
X136802857Y-82606190D01*
X137707619Y-82082380D02*
X138326666Y-82082380D01*
X137993333Y-82463333D01*
X138136190Y-82463333D01*
X138231428Y-82510952D01*
X138279047Y-82558571D01*
X138326666Y-82653809D01*
X138326666Y-82891904D01*
X138279047Y-82987142D01*
X138231428Y-83034761D01*
X138136190Y-83082380D01*
X137850476Y-83082380D01*
X137755238Y-83034761D01*
X137707619Y-82987142D01*
%TO.C,C3*%
X130344254Y-93892666D02*
X130391873Y-93940285D01*
X130439492Y-94083142D01*
X130439492Y-94178380D01*
X130391873Y-94321238D01*
X130296635Y-94416476D01*
X130201397Y-94464095D01*
X130010921Y-94511714D01*
X129868064Y-94511714D01*
X129677588Y-94464095D01*
X129582350Y-94416476D01*
X129487112Y-94321238D01*
X129439492Y-94178380D01*
X129439492Y-94083142D01*
X129487112Y-93940285D01*
X129534731Y-93892666D01*
X129439492Y-93559333D02*
X129439492Y-92940285D01*
X129820445Y-93273619D01*
X129820445Y-93130761D01*
X129868064Y-93035523D01*
X129915683Y-92987904D01*
X130010921Y-92940285D01*
X130249016Y-92940285D01*
X130344254Y-92987904D01*
X130391873Y-93035523D01*
X130439492Y-93130761D01*
X130439492Y-93416476D01*
X130391873Y-93511714D01*
X130344254Y-93559333D01*
%TO.C,JP6*%
X130146666Y-64502380D02*
X130146666Y-65216666D01*
X130099047Y-65359523D01*
X130003809Y-65454761D01*
X129860952Y-65502380D01*
X129765714Y-65502380D01*
X130622857Y-65502380D02*
X130622857Y-64502380D01*
X131003809Y-64502380D01*
X131099047Y-64550000D01*
X131146666Y-64597619D01*
X131194285Y-64692857D01*
X131194285Y-64835714D01*
X131146666Y-64930952D01*
X131099047Y-64978571D01*
X131003809Y-65026190D01*
X130622857Y-65026190D01*
X132051428Y-64502380D02*
X131860952Y-64502380D01*
X131765714Y-64550000D01*
X131718095Y-64597619D01*
X131622857Y-64740476D01*
X131575238Y-64930952D01*
X131575238Y-65311904D01*
X131622857Y-65407142D01*
X131670476Y-65454761D01*
X131765714Y-65502380D01*
X131956190Y-65502380D01*
X132051428Y-65454761D01*
X132099047Y-65407142D01*
X132146666Y-65311904D01*
X132146666Y-65073809D01*
X132099047Y-64978571D01*
X132051428Y-64930952D01*
X131956190Y-64883333D01*
X131765714Y-64883333D01*
X131670476Y-64930952D01*
X131622857Y-64978571D01*
X131575238Y-65073809D01*
%TO.C,R19*%
X111523142Y-49954380D02*
X111189809Y-49478190D01*
X110951714Y-49954380D02*
X110951714Y-48954380D01*
X111332666Y-48954380D01*
X111427904Y-49002000D01*
X111475523Y-49049619D01*
X111523142Y-49144857D01*
X111523142Y-49287714D01*
X111475523Y-49382952D01*
X111427904Y-49430571D01*
X111332666Y-49478190D01*
X110951714Y-49478190D01*
X112475523Y-49954380D02*
X111904095Y-49954380D01*
X112189809Y-49954380D02*
X112189809Y-48954380D01*
X112094571Y-49097238D01*
X111999333Y-49192476D01*
X111904095Y-49240095D01*
X112951714Y-49954380D02*
X113142190Y-49954380D01*
X113237428Y-49906761D01*
X113285047Y-49859142D01*
X113380285Y-49716285D01*
X113427904Y-49525809D01*
X113427904Y-49144857D01*
X113380285Y-49049619D01*
X113332666Y-49002000D01*
X113237428Y-48954380D01*
X113046952Y-48954380D01*
X112951714Y-49002000D01*
X112904095Y-49049619D01*
X112856476Y-49144857D01*
X112856476Y-49382952D01*
X112904095Y-49478190D01*
X112951714Y-49525809D01*
X113046952Y-49573428D01*
X113237428Y-49573428D01*
X113332666Y-49525809D01*
X113380285Y-49478190D01*
X113427904Y-49382952D01*
%TO.C,R11*%
X117467142Y-66492380D02*
X117133809Y-66016190D01*
X116895714Y-66492380D02*
X116895714Y-65492380D01*
X117276666Y-65492380D01*
X117371904Y-65540000D01*
X117419523Y-65587619D01*
X117467142Y-65682857D01*
X117467142Y-65825714D01*
X117419523Y-65920952D01*
X117371904Y-65968571D01*
X117276666Y-66016190D01*
X116895714Y-66016190D01*
X118419523Y-66492380D02*
X117848095Y-66492380D01*
X118133809Y-66492380D02*
X118133809Y-65492380D01*
X118038571Y-65635238D01*
X117943333Y-65730476D01*
X117848095Y-65778095D01*
X119371904Y-66492380D02*
X118800476Y-66492380D01*
X119086190Y-66492380D02*
X119086190Y-65492380D01*
X118990952Y-65635238D01*
X118895714Y-65730476D01*
X118800476Y-65778095D01*
%TO.C,R4*%
X107275333Y-65984380D02*
X106942000Y-65508190D01*
X106703904Y-65984380D02*
X106703904Y-64984380D01*
X107084857Y-64984380D01*
X107180095Y-65032000D01*
X107227714Y-65079619D01*
X107275333Y-65174857D01*
X107275333Y-65317714D01*
X107227714Y-65412952D01*
X107180095Y-65460571D01*
X107084857Y-65508190D01*
X106703904Y-65508190D01*
X108132476Y-65317714D02*
X108132476Y-65984380D01*
X107894380Y-64936761D02*
X107656285Y-65651047D01*
X108275333Y-65651047D01*
%TO.C,R2*%
X159345333Y-53792380D02*
X159012000Y-53316190D01*
X158773904Y-53792380D02*
X158773904Y-52792380D01*
X159154857Y-52792380D01*
X159250095Y-52840000D01*
X159297714Y-52887619D01*
X159345333Y-52982857D01*
X159345333Y-53125714D01*
X159297714Y-53220952D01*
X159250095Y-53268571D01*
X159154857Y-53316190D01*
X158773904Y-53316190D01*
X159726285Y-52887619D02*
X159773904Y-52840000D01*
X159869142Y-52792380D01*
X160107238Y-52792380D01*
X160202476Y-52840000D01*
X160250095Y-52887619D01*
X160297714Y-52982857D01*
X160297714Y-53078095D01*
X160250095Y-53220952D01*
X159678666Y-53792380D01*
X160297714Y-53792380D01*
%TO.C,R5*%
X107275333Y-72334380D02*
X106942000Y-71858190D01*
X106703904Y-72334380D02*
X106703904Y-71334380D01*
X107084857Y-71334380D01*
X107180095Y-71382000D01*
X107227714Y-71429619D01*
X107275333Y-71524857D01*
X107275333Y-71667714D01*
X107227714Y-71762952D01*
X107180095Y-71810571D01*
X107084857Y-71858190D01*
X106703904Y-71858190D01*
X108180095Y-71334380D02*
X107703904Y-71334380D01*
X107656285Y-71810571D01*
X107703904Y-71762952D01*
X107799142Y-71715333D01*
X108037238Y-71715333D01*
X108132476Y-71762952D01*
X108180095Y-71810571D01*
X108227714Y-71905809D01*
X108227714Y-72143904D01*
X108180095Y-72239142D01*
X108132476Y-72286761D01*
X108037238Y-72334380D01*
X107799142Y-72334380D01*
X107703904Y-72286761D01*
X107656285Y-72239142D01*
%TO.C,JP7*%
X130146666Y-89522380D02*
X130146666Y-90236666D01*
X130099047Y-90379523D01*
X130003809Y-90474761D01*
X129860952Y-90522380D01*
X129765714Y-90522380D01*
X130622857Y-90522380D02*
X130622857Y-89522380D01*
X131003809Y-89522380D01*
X131099047Y-89570000D01*
X131146666Y-89617619D01*
X131194285Y-89712857D01*
X131194285Y-89855714D01*
X131146666Y-89950952D01*
X131099047Y-89998571D01*
X131003809Y-90046190D01*
X130622857Y-90046190D01*
X131527619Y-89522380D02*
X132194285Y-89522380D01*
X131765714Y-90522380D01*
%TO.C,D1*%
X106703904Y-56078380D02*
X106703904Y-55078380D01*
X106942000Y-55078380D01*
X107084857Y-55126000D01*
X107180095Y-55221238D01*
X107227714Y-55316476D01*
X107275333Y-55506952D01*
X107275333Y-55649809D01*
X107227714Y-55840285D01*
X107180095Y-55935523D01*
X107084857Y-56030761D01*
X106942000Y-56078380D01*
X106703904Y-56078380D01*
X108227714Y-56078380D02*
X107656285Y-56078380D01*
X107942000Y-56078380D02*
X107942000Y-55078380D01*
X107846761Y-55221238D01*
X107751523Y-55316476D01*
X107656285Y-55364095D01*
%TO.C,J2*%
X110594380Y-90455333D02*
X111308666Y-90455333D01*
X111451523Y-90502952D01*
X111546761Y-90598190D01*
X111594380Y-90741047D01*
X111594380Y-90836285D01*
X110689619Y-90026761D02*
X110642000Y-89979142D01*
X110594380Y-89883904D01*
X110594380Y-89645809D01*
X110642000Y-89550571D01*
X110689619Y-89502952D01*
X110784857Y-89455333D01*
X110880095Y-89455333D01*
X111022952Y-89502952D01*
X111594380Y-90074380D01*
X111594380Y-89455333D01*
%TO.C,JP5*%
X130106666Y-80462380D02*
X130106666Y-81176666D01*
X130059047Y-81319523D01*
X129963809Y-81414761D01*
X129820952Y-81462380D01*
X129725714Y-81462380D01*
X130582857Y-81462380D02*
X130582857Y-80462380D01*
X130963809Y-80462380D01*
X131059047Y-80510000D01*
X131106666Y-80557619D01*
X131154285Y-80652857D01*
X131154285Y-80795714D01*
X131106666Y-80890952D01*
X131059047Y-80938571D01*
X130963809Y-80986190D01*
X130582857Y-80986190D01*
X132059047Y-80462380D02*
X131582857Y-80462380D01*
X131535238Y-80938571D01*
X131582857Y-80890952D01*
X131678095Y-80843333D01*
X131916190Y-80843333D01*
X132011428Y-80890952D01*
X132059047Y-80938571D01*
X132106666Y-81033809D01*
X132106666Y-81271904D01*
X132059047Y-81367142D01*
X132011428Y-81414761D01*
X131916190Y-81462380D01*
X131678095Y-81462380D01*
X131582857Y-81414761D01*
X131535238Y-81367142D01*
%TO.C,J4*%
X134029666Y-57942380D02*
X134029666Y-58656666D01*
X133982047Y-58799523D01*
X133886809Y-58894761D01*
X133743952Y-58942380D01*
X133648714Y-58942380D01*
X134934428Y-58275714D02*
X134934428Y-58942380D01*
X134696333Y-57894761D02*
X134458238Y-58609047D01*
X135077285Y-58609047D01*
%TO.C,R12*%
X117467142Y-74112380D02*
X117133809Y-73636190D01*
X116895714Y-74112380D02*
X116895714Y-73112380D01*
X117276666Y-73112380D01*
X117371904Y-73160000D01*
X117419523Y-73207619D01*
X117467142Y-73302857D01*
X117467142Y-73445714D01*
X117419523Y-73540952D01*
X117371904Y-73588571D01*
X117276666Y-73636190D01*
X116895714Y-73636190D01*
X118419523Y-74112380D02*
X117848095Y-74112380D01*
X118133809Y-74112380D02*
X118133809Y-73112380D01*
X118038571Y-73255238D01*
X117943333Y-73350476D01*
X117848095Y-73398095D01*
X118800476Y-73207619D02*
X118848095Y-73160000D01*
X118943333Y-73112380D01*
X119181428Y-73112380D01*
X119276666Y-73160000D01*
X119324285Y-73207619D01*
X119371904Y-73302857D01*
X119371904Y-73398095D01*
X119324285Y-73540952D01*
X118752857Y-74112380D01*
X119371904Y-74112380D01*
%TO.C,R9*%
X117689333Y-92908380D02*
X117356000Y-92432190D01*
X117117904Y-92908380D02*
X117117904Y-91908380D01*
X117498857Y-91908380D01*
X117594095Y-91956000D01*
X117641714Y-92003619D01*
X117689333Y-92098857D01*
X117689333Y-92241714D01*
X117641714Y-92336952D01*
X117594095Y-92384571D01*
X117498857Y-92432190D01*
X117117904Y-92432190D01*
X118165523Y-92908380D02*
X118356000Y-92908380D01*
X118451238Y-92860761D01*
X118498857Y-92813142D01*
X118594095Y-92670285D01*
X118641714Y-92479809D01*
X118641714Y-92098857D01*
X118594095Y-92003619D01*
X118546476Y-91956000D01*
X118451238Y-91908380D01*
X118260761Y-91908380D01*
X118165523Y-91956000D01*
X118117904Y-92003619D01*
X118070285Y-92098857D01*
X118070285Y-92336952D01*
X118117904Y-92432190D01*
X118165523Y-92479809D01*
X118260761Y-92527428D01*
X118451238Y-92527428D01*
X118546476Y-92479809D01*
X118594095Y-92432190D01*
X118641714Y-92336952D01*
%TO.C,JP4*%
X136416666Y-64422380D02*
X136416666Y-65136666D01*
X136369047Y-65279523D01*
X136273809Y-65374761D01*
X136130952Y-65422380D01*
X136035714Y-65422380D01*
X136892857Y-65422380D02*
X136892857Y-64422380D01*
X137273809Y-64422380D01*
X137369047Y-64470000D01*
X137416666Y-64517619D01*
X137464285Y-64612857D01*
X137464285Y-64755714D01*
X137416666Y-64850952D01*
X137369047Y-64898571D01*
X137273809Y-64946190D01*
X136892857Y-64946190D01*
X138321428Y-64755714D02*
X138321428Y-65422380D01*
X138083333Y-64374761D02*
X137845238Y-65089047D01*
X138464285Y-65089047D01*
%TO.C,JP8*%
X129544380Y-115133333D02*
X130258666Y-115133333D01*
X130401523Y-115180952D01*
X130496761Y-115276190D01*
X130544380Y-115419047D01*
X130544380Y-115514285D01*
X130544380Y-114657142D02*
X129544380Y-114657142D01*
X129544380Y-114276190D01*
X129592000Y-114180952D01*
X129639619Y-114133333D01*
X129734857Y-114085714D01*
X129877714Y-114085714D01*
X129972952Y-114133333D01*
X130020571Y-114180952D01*
X130068190Y-114276190D01*
X130068190Y-114657142D01*
X129972952Y-113514285D02*
X129925333Y-113609523D01*
X129877714Y-113657142D01*
X129782476Y-113704761D01*
X129734857Y-113704761D01*
X129639619Y-113657142D01*
X129592000Y-113609523D01*
X129544380Y-113514285D01*
X129544380Y-113323809D01*
X129592000Y-113228571D01*
X129639619Y-113180952D01*
X129734857Y-113133333D01*
X129782476Y-113133333D01*
X129877714Y-113180952D01*
X129925333Y-113228571D01*
X129972952Y-113323809D01*
X129972952Y-113514285D01*
X130020571Y-113609523D01*
X130068190Y-113657142D01*
X130163428Y-113704761D01*
X130353904Y-113704761D01*
X130449142Y-113657142D01*
X130496761Y-113609523D01*
X130544380Y-113514285D01*
X130544380Y-113323809D01*
X130496761Y-113228571D01*
X130449142Y-113180952D01*
X130353904Y-113133333D01*
X130163428Y-113133333D01*
X130068190Y-113180952D01*
X130020571Y-113228571D01*
X129972952Y-113323809D01*
%TO.C,R6*%
X117923333Y-81612380D02*
X117590000Y-81136190D01*
X117351904Y-81612380D02*
X117351904Y-80612380D01*
X117732857Y-80612380D01*
X117828095Y-80660000D01*
X117875714Y-80707619D01*
X117923333Y-80802857D01*
X117923333Y-80945714D01*
X117875714Y-81040952D01*
X117828095Y-81088571D01*
X117732857Y-81136190D01*
X117351904Y-81136190D01*
X118780476Y-80612380D02*
X118590000Y-80612380D01*
X118494761Y-80660000D01*
X118447142Y-80707619D01*
X118351904Y-80850476D01*
X118304285Y-81040952D01*
X118304285Y-81421904D01*
X118351904Y-81517142D01*
X118399523Y-81564761D01*
X118494761Y-81612380D01*
X118685238Y-81612380D01*
X118780476Y-81564761D01*
X118828095Y-81517142D01*
X118875714Y-81421904D01*
X118875714Y-81183809D01*
X118828095Y-81088571D01*
X118780476Y-81040952D01*
X118685238Y-80993333D01*
X118494761Y-80993333D01*
X118399523Y-81040952D01*
X118351904Y-81088571D01*
X118304285Y-81183809D01*
%TO.C,J3*%
X140890666Y-118096380D02*
X140890666Y-118810666D01*
X140843047Y-118953523D01*
X140747809Y-119048761D01*
X140604952Y-119096380D01*
X140509714Y-119096380D01*
X141271619Y-118096380D02*
X141890666Y-118096380D01*
X141557333Y-118477333D01*
X141700190Y-118477333D01*
X141795428Y-118524952D01*
X141843047Y-118572571D01*
X141890666Y-118667809D01*
X141890666Y-118905904D01*
X141843047Y-119001142D01*
X141795428Y-119048761D01*
X141700190Y-119096380D01*
X141414476Y-119096380D01*
X141319238Y-119048761D01*
X141271619Y-119001142D01*
%TO.C,R15*%
X129405142Y-62428380D02*
X129071809Y-61952190D01*
X128833714Y-62428380D02*
X128833714Y-61428380D01*
X129214666Y-61428380D01*
X129309904Y-61476000D01*
X129357523Y-61523619D01*
X129405142Y-61618857D01*
X129405142Y-61761714D01*
X129357523Y-61856952D01*
X129309904Y-61904571D01*
X129214666Y-61952190D01*
X128833714Y-61952190D01*
X130357523Y-62428380D02*
X129786095Y-62428380D01*
X130071809Y-62428380D02*
X130071809Y-61428380D01*
X129976571Y-61571238D01*
X129881333Y-61666476D01*
X129786095Y-61714095D01*
X131262285Y-61428380D02*
X130786095Y-61428380D01*
X130738476Y-61904571D01*
X130786095Y-61856952D01*
X130881333Y-61809333D01*
X131119428Y-61809333D01*
X131214666Y-61856952D01*
X131262285Y-61904571D01*
X131309904Y-61999809D01*
X131309904Y-62237904D01*
X131262285Y-62333142D01*
X131214666Y-62380761D01*
X131119428Y-62428380D01*
X130881333Y-62428380D01*
X130786095Y-62380761D01*
X130738476Y-62333142D01*
%TO.C,JP1*%
X114050380Y-110307333D02*
X114764666Y-110307333D01*
X114907523Y-110354952D01*
X115002761Y-110450190D01*
X115050380Y-110593047D01*
X115050380Y-110688285D01*
X115050380Y-109831142D02*
X114050380Y-109831142D01*
X114050380Y-109450190D01*
X114098000Y-109354952D01*
X114145619Y-109307333D01*
X114240857Y-109259714D01*
X114383714Y-109259714D01*
X114478952Y-109307333D01*
X114526571Y-109354952D01*
X114574190Y-109450190D01*
X114574190Y-109831142D01*
X115050380Y-108307333D02*
X115050380Y-108878761D01*
X115050380Y-108593047D02*
X114050380Y-108593047D01*
X114193238Y-108688285D01*
X114288476Y-108783523D01*
X114336095Y-108878761D01*
%TO.C,R1*%
X117435333Y-96464380D02*
X117102000Y-95988190D01*
X116863904Y-96464380D02*
X116863904Y-95464380D01*
X117244857Y-95464380D01*
X117340095Y-95512000D01*
X117387714Y-95559619D01*
X117435333Y-95654857D01*
X117435333Y-95797714D01*
X117387714Y-95892952D01*
X117340095Y-95940571D01*
X117244857Y-95988190D01*
X116863904Y-95988190D01*
X118387714Y-96464380D02*
X117816285Y-96464380D01*
X118102000Y-96464380D02*
X118102000Y-95464380D01*
X118006761Y-95607238D01*
X117911523Y-95702476D01*
X117816285Y-95750095D01*
%TO.C,R20*%
X139565142Y-107894380D02*
X139231809Y-107418190D01*
X138993714Y-107894380D02*
X138993714Y-106894380D01*
X139374666Y-106894380D01*
X139469904Y-106942000D01*
X139517523Y-106989619D01*
X139565142Y-107084857D01*
X139565142Y-107227714D01*
X139517523Y-107322952D01*
X139469904Y-107370571D01*
X139374666Y-107418190D01*
X138993714Y-107418190D01*
X139946095Y-106989619D02*
X139993714Y-106942000D01*
X140088952Y-106894380D01*
X140327047Y-106894380D01*
X140422285Y-106942000D01*
X140469904Y-106989619D01*
X140517523Y-107084857D01*
X140517523Y-107180095D01*
X140469904Y-107322952D01*
X139898476Y-107894380D01*
X140517523Y-107894380D01*
X141136571Y-106894380D02*
X141231809Y-106894380D01*
X141327047Y-106942000D01*
X141374666Y-106989619D01*
X141422285Y-107084857D01*
X141469904Y-107275333D01*
X141469904Y-107513428D01*
X141422285Y-107703904D01*
X141374666Y-107799142D01*
X141327047Y-107846761D01*
X141231809Y-107894380D01*
X141136571Y-107894380D01*
X141041333Y-107846761D01*
X140993714Y-107799142D01*
X140946095Y-107703904D01*
X140898476Y-107513428D01*
X140898476Y-107275333D01*
X140946095Y-107084857D01*
X140993714Y-106989619D01*
X141041333Y-106942000D01*
X141136571Y-106894380D01*
%TO.C,J5*%
X100758666Y-122296380D02*
X100758666Y-123010666D01*
X100711047Y-123153523D01*
X100615809Y-123248761D01*
X100472952Y-123296380D01*
X100377714Y-123296380D01*
X101711047Y-122296380D02*
X101234857Y-122296380D01*
X101187238Y-122772571D01*
X101234857Y-122724952D01*
X101330095Y-122677333D01*
X101568190Y-122677333D01*
X101663428Y-122724952D01*
X101711047Y-122772571D01*
X101758666Y-122867809D01*
X101758666Y-123105904D01*
X101711047Y-123201142D01*
X101663428Y-123248761D01*
X101568190Y-123296380D01*
X101330095Y-123296380D01*
X101234857Y-123248761D01*
X101187238Y-123201142D01*
%TO.C,R3*%
X107275333Y-59380380D02*
X106942000Y-58904190D01*
X106703904Y-59380380D02*
X106703904Y-58380380D01*
X107084857Y-58380380D01*
X107180095Y-58428000D01*
X107227714Y-58475619D01*
X107275333Y-58570857D01*
X107275333Y-58713714D01*
X107227714Y-58808952D01*
X107180095Y-58856571D01*
X107084857Y-58904190D01*
X106703904Y-58904190D01*
X107608666Y-58380380D02*
X108227714Y-58380380D01*
X107894380Y-58761333D01*
X108037238Y-58761333D01*
X108132476Y-58808952D01*
X108180095Y-58856571D01*
X108227714Y-58951809D01*
X108227714Y-59189904D01*
X108180095Y-59285142D01*
X108132476Y-59332761D01*
X108037238Y-59380380D01*
X107751523Y-59380380D01*
X107656285Y-59332761D01*
X107608666Y-59285142D01*
D12*
%TO.C,JP9*%
X137550000Y-100000000D02*
X140210000Y-100000000D01*
X137550000Y-94860000D02*
X137550000Y-100000000D01*
X137550000Y-93590000D02*
X137550000Y-92260000D01*
X140210000Y-94860000D02*
X140210000Y-100000000D01*
X137550000Y-92260000D02*
X138880000Y-92260000D01*
X137550000Y-94860000D02*
X140210000Y-94860000D01*
%TO.C,C5*%
X114085000Y-104260000D02*
X114400000Y-104260000D01*
X111660000Y-99020000D02*
X111975000Y-99020000D01*
X114085000Y-99020000D02*
X114400000Y-99020000D01*
X111660000Y-104260000D02*
X111975000Y-104260000D01*
X111660000Y-104260000D02*
X111660000Y-99020000D01*
X114400000Y-104260000D02*
X114400000Y-99020000D01*
%TO.C,R22*%
X131472000Y-113570000D02*
X131472000Y-120110000D01*
X131802000Y-113570000D02*
X131472000Y-113570000D01*
X134212000Y-113570000D02*
X134212000Y-120110000D01*
X131472000Y-120110000D02*
X131802000Y-120110000D01*
X133882000Y-113570000D02*
X134212000Y-113570000D01*
X134212000Y-120110000D02*
X133882000Y-120110000D01*
%TO.C,C2*%
X114122000Y-120928000D02*
X114122000Y-122399000D01*
X114963000Y-120928000D02*
X114963000Y-122037000D01*
X114202000Y-117397000D02*
X114202000Y-118848000D01*
X113922000Y-120928000D02*
X113922000Y-122438000D01*
X115323000Y-120928000D02*
X115323000Y-121752000D01*
X114843000Y-117664000D02*
X114843000Y-118848000D01*
X115923000Y-118877000D02*
X115923000Y-120899000D01*
X113562000Y-120928000D02*
X113562000Y-122468000D01*
X114803000Y-120928000D02*
X114803000Y-122135000D01*
X114643000Y-120928000D02*
X114643000Y-122217000D01*
X114323000Y-120928000D02*
X114323000Y-122343000D01*
X115363000Y-120928000D02*
X115363000Y-121714000D01*
X115243000Y-117951000D02*
X115243000Y-118848000D01*
X115403000Y-118103000D02*
X115403000Y-118848000D01*
X115963000Y-118973000D02*
X115963000Y-120803000D01*
X114042000Y-120928000D02*
X114042000Y-122416000D01*
X114723000Y-117598000D02*
X114723000Y-118848000D01*
X114963000Y-117739000D02*
X114963000Y-118848000D01*
X113562000Y-117308000D02*
X113562000Y-118848000D01*
X114122000Y-117377000D02*
X114122000Y-118848000D01*
X110967225Y-118163000D02*
X110967225Y-118663000D01*
X113842000Y-120928000D02*
X113842000Y-122449000D01*
X115323000Y-118024000D02*
X115323000Y-118848000D01*
X116043000Y-119211000D02*
X116043000Y-120565000D01*
X115403000Y-120928000D02*
X115403000Y-121673000D01*
X114523000Y-120928000D02*
X114523000Y-122270000D01*
X115043000Y-120928000D02*
X115043000Y-121983000D01*
X114363000Y-120928000D02*
X114363000Y-122330000D01*
X115283000Y-117987000D02*
X115283000Y-118848000D01*
X115563000Y-118283000D02*
X115563000Y-121493000D01*
X115123000Y-120928000D02*
X115123000Y-121923000D01*
X113522000Y-120928000D02*
X113522000Y-122468000D01*
X113682000Y-120928000D02*
X113682000Y-122464000D01*
X114162000Y-120928000D02*
X114162000Y-122389000D01*
X114883000Y-117688000D02*
X114883000Y-118848000D01*
X114763000Y-117620000D02*
X114763000Y-118848000D01*
X115203000Y-120928000D02*
X115203000Y-121859000D01*
X114843000Y-120928000D02*
X114843000Y-122112000D01*
X115043000Y-117793000D02*
X115043000Y-118848000D01*
X110717225Y-118413000D02*
X111217225Y-118413000D01*
X115163000Y-120928000D02*
X115163000Y-121892000D01*
X115003000Y-120928000D02*
X115003000Y-122010000D01*
X115083000Y-120928000D02*
X115083000Y-121953000D01*
X114483000Y-120928000D02*
X114483000Y-122286000D01*
X114603000Y-120928000D02*
X114603000Y-122236000D01*
X115843000Y-118710000D02*
X115843000Y-121066000D01*
X114042000Y-117360000D02*
X114042000Y-118848000D01*
X115803000Y-118637000D02*
X115803000Y-121139000D01*
X114202000Y-120928000D02*
X114202000Y-122379000D01*
X115683000Y-118445000D02*
X115683000Y-121331000D01*
X113882000Y-120928000D02*
X113882000Y-122444000D01*
X116123000Y-119604000D02*
X116123000Y-120172000D01*
X113722000Y-120928000D02*
X113722000Y-122461000D01*
X114923000Y-120928000D02*
X114923000Y-122063000D01*
X114763000Y-120928000D02*
X114763000Y-122156000D01*
X114483000Y-117490000D02*
X114483000Y-118848000D01*
X114923000Y-117713000D02*
X114923000Y-118848000D01*
X115603000Y-118334000D02*
X115603000Y-121442000D01*
X114403000Y-120928000D02*
X114403000Y-122316000D01*
X113522000Y-117308000D02*
X113522000Y-118848000D01*
X113682000Y-117312000D02*
X113682000Y-118848000D01*
X113642000Y-120928000D02*
X113642000Y-122466000D01*
X116003000Y-119083000D02*
X116003000Y-120693000D01*
X114683000Y-117578000D02*
X114683000Y-118848000D01*
X114283000Y-120928000D02*
X114283000Y-122356000D01*
X114162000Y-117387000D02*
X114162000Y-118848000D01*
X115163000Y-117884000D02*
X115163000Y-118848000D01*
X114243000Y-117408000D02*
X114243000Y-118848000D01*
X115483000Y-120928000D02*
X115483000Y-121587000D01*
X115283000Y-120928000D02*
X115283000Y-121789000D01*
X115203000Y-117917000D02*
X115203000Y-118848000D01*
X114563000Y-117523000D02*
X114563000Y-118848000D01*
X115083000Y-117823000D02*
X115083000Y-118848000D01*
X114443000Y-120928000D02*
X114443000Y-122302000D01*
X115483000Y-118189000D02*
X115483000Y-118848000D01*
X114082000Y-120928000D02*
X114082000Y-122408000D01*
X115443000Y-120928000D02*
X115443000Y-121631000D01*
X115523000Y-120928000D02*
X115523000Y-121541000D01*
X113602000Y-117309000D02*
X113602000Y-118848000D01*
X114523000Y-117506000D02*
X114523000Y-118848000D01*
X115763000Y-118569000D02*
X115763000Y-121207000D01*
X115723000Y-118505000D02*
X115723000Y-121271000D01*
X115883000Y-118790000D02*
X115883000Y-120986000D01*
X114443000Y-117474000D02*
X114443000Y-118848000D01*
X114403000Y-117460000D02*
X114403000Y-118848000D01*
X113602000Y-120928000D02*
X113602000Y-122467000D01*
X114803000Y-117641000D02*
X114803000Y-118848000D01*
X114643000Y-117559000D02*
X114643000Y-118848000D01*
X114323000Y-117433000D02*
X114323000Y-118848000D01*
X113762000Y-117319000D02*
X113762000Y-118848000D01*
X114883000Y-120928000D02*
X114883000Y-122088000D01*
X113722000Y-117315000D02*
X113722000Y-118848000D01*
X115003000Y-117766000D02*
X115003000Y-118848000D01*
X115363000Y-118062000D02*
X115363000Y-118848000D01*
X113642000Y-117310000D02*
X113642000Y-118848000D01*
X114243000Y-120928000D02*
X114243000Y-122368000D01*
X113802000Y-117323000D02*
X113802000Y-118848000D01*
X113962000Y-120928000D02*
X113962000Y-122431000D01*
X113802000Y-120928000D02*
X113802000Y-122453000D01*
X115643000Y-118388000D02*
X115643000Y-121388000D01*
X113842000Y-117327000D02*
X113842000Y-118848000D01*
X115123000Y-117853000D02*
X115123000Y-118848000D01*
X114603000Y-117540000D02*
X114603000Y-118848000D01*
X114683000Y-120928000D02*
X114683000Y-122198000D01*
X114283000Y-117420000D02*
X114283000Y-118848000D01*
X113922000Y-117338000D02*
X113922000Y-118848000D01*
X114082000Y-117368000D02*
X114082000Y-118848000D01*
X113882000Y-117332000D02*
X113882000Y-118848000D01*
X114002000Y-120928000D02*
X114002000Y-122424000D01*
X113962000Y-117345000D02*
X113962000Y-118848000D01*
X114563000Y-120928000D02*
X114563000Y-122253000D01*
X113762000Y-120928000D02*
X113762000Y-122457000D01*
X114002000Y-117352000D02*
X114002000Y-118848000D01*
X114723000Y-120928000D02*
X114723000Y-122178000D01*
X116083000Y-119370000D02*
X116083000Y-120406000D01*
X115243000Y-120928000D02*
X115243000Y-121825000D01*
X114363000Y-117446000D02*
X114363000Y-118848000D01*
X115443000Y-118145000D02*
X115443000Y-118848000D01*
X115523000Y-118235000D02*
X115523000Y-118848000D01*
X116142000Y-119888000D02*
G75*
G03*
X116142000Y-119888000I-2620000J0D01*
G01*
%TO.C,R18*%
X146240000Y-70280000D02*
X145910000Y-70280000D01*
X143830000Y-76820000D02*
X143500000Y-76820000D01*
X143500000Y-76820000D02*
X143500000Y-70280000D01*
X143500000Y-70280000D02*
X143830000Y-70280000D01*
X145910000Y-76820000D02*
X146240000Y-76820000D01*
X146240000Y-76820000D02*
X146240000Y-70280000D01*
%TO.C,R17*%
X125600000Y-78220000D02*
X125930000Y-78220000D01*
X125930000Y-71680000D02*
X125600000Y-71680000D01*
X128340000Y-78220000D02*
X128010000Y-78220000D01*
X125600000Y-71680000D02*
X125600000Y-78220000D01*
X128340000Y-71680000D02*
X128340000Y-78220000D01*
X128010000Y-71680000D02*
X128340000Y-71680000D01*
%TO.C,R7*%
X114840000Y-83466000D02*
X121380000Y-83466000D01*
X121380000Y-83466000D02*
X121380000Y-83796000D01*
X114840000Y-85876000D02*
X114840000Y-86206000D01*
X114840000Y-86206000D02*
X121380000Y-86206000D01*
X114840000Y-83796000D02*
X114840000Y-83466000D01*
X121380000Y-86206000D02*
X121380000Y-85876000D01*
%TO.C,U2*%
X127802000Y-122975000D02*
X127802000Y-118334000D01*
X127802000Y-121465000D02*
X117562000Y-121465000D01*
X120831000Y-122975000D02*
X120831000Y-121465000D01*
X127802000Y-118334000D02*
X117562000Y-118334000D01*
X117562000Y-122975000D02*
X117562000Y-118334000D01*
X127802000Y-122975000D02*
X117562000Y-122975000D01*
X124532000Y-122975000D02*
X124532000Y-121465000D01*
%TO.C,D2*%
X108962000Y-63350000D02*
X108962000Y-61110000D01*
X109562000Y-61110000D02*
X105322000Y-61110000D01*
X109562000Y-63350000D02*
X109562000Y-61110000D01*
X105322000Y-63350000D02*
X109562000Y-63350000D01*
X108722000Y-63350000D02*
X108722000Y-61110000D01*
X108842000Y-63350000D02*
X108842000Y-61110000D01*
X104672000Y-62230000D02*
X105322000Y-62230000D01*
X105322000Y-61110000D02*
X105322000Y-63350000D01*
X110212000Y-62230000D02*
X109562000Y-62230000D01*
%TO.C,R16*%
X143170000Y-70280000D02*
X143170000Y-76820000D01*
X140430000Y-70280000D02*
X140430000Y-76820000D01*
X142840000Y-70280000D02*
X143170000Y-70280000D01*
X140430000Y-76820000D02*
X140760000Y-76820000D01*
X140760000Y-70280000D02*
X140430000Y-70280000D01*
X143170000Y-76820000D02*
X142840000Y-76820000D01*
%TO.C,JP2*%
X135830000Y-74800000D02*
X137160000Y-74800000D01*
X135830000Y-80000000D02*
X138490000Y-80000000D01*
X135830000Y-77400000D02*
X135830000Y-80000000D01*
X138490000Y-77400000D02*
X138490000Y-80000000D01*
X135830000Y-76130000D02*
X135830000Y-74800000D01*
X135830000Y-77400000D02*
X138490000Y-77400000D01*
%TO.C,R21*%
X136938000Y-105510000D02*
X136938000Y-105180000D01*
X143478000Y-105510000D02*
X136938000Y-105510000D01*
X143478000Y-103100000D02*
X143478000Y-102770000D01*
X143478000Y-102770000D02*
X136938000Y-102770000D01*
X143478000Y-105180000D02*
X143478000Y-105510000D01*
X136938000Y-102770000D02*
X136938000Y-103100000D01*
%TO.C,R8*%
X114840000Y-76100000D02*
X121380000Y-76100000D01*
X114840000Y-78840000D02*
X121380000Y-78840000D01*
X114840000Y-78510000D02*
X114840000Y-78840000D01*
X114840000Y-76430000D02*
X114840000Y-76100000D01*
X121380000Y-76100000D02*
X121380000Y-76430000D01*
X121380000Y-78840000D02*
X121380000Y-78510000D01*
%TO.C,R13*%
X114840000Y-68480000D02*
X121380000Y-68480000D01*
X121380000Y-68480000D02*
X121380000Y-68810000D01*
X114840000Y-68810000D02*
X114840000Y-68480000D01*
X114840000Y-70890000D02*
X114840000Y-71220000D01*
X121380000Y-71220000D02*
X121380000Y-70890000D01*
X114840000Y-71220000D02*
X121380000Y-71220000D01*
%TO.C,C4*%
X113787000Y-115072000D02*
X113787000Y-114036000D01*
X114867000Y-116676000D02*
X114867000Y-115594000D01*
X116148000Y-117127000D02*
X116148000Y-115594000D01*
X116348000Y-117134000D02*
X116348000Y-115594000D01*
X119152775Y-116029000D02*
X118652775Y-116029000D01*
X115948000Y-113514000D02*
X115948000Y-112004000D01*
X114107000Y-115873000D02*
X114107000Y-113235000D01*
X115828000Y-117082000D02*
X115828000Y-115594000D01*
X116308000Y-117134000D02*
X116308000Y-115594000D01*
X115347000Y-116936000D02*
X115347000Y-115594000D01*
X115107000Y-116822000D02*
X115107000Y-115594000D01*
X116028000Y-117115000D02*
X116028000Y-115594000D01*
X115267000Y-113514000D02*
X115267000Y-112206000D01*
X115547000Y-113514000D02*
X115547000Y-112099000D01*
X116028000Y-113514000D02*
X116028000Y-111993000D01*
X115227000Y-116883000D02*
X115227000Y-115594000D01*
X113947000Y-115565000D02*
X113947000Y-113543000D01*
X114587000Y-113514000D02*
X114587000Y-112653000D01*
X115387000Y-116952000D02*
X115387000Y-115594000D01*
X115948000Y-117104000D02*
X115948000Y-115594000D01*
X114907000Y-113514000D02*
X114907000Y-112405000D01*
X115187000Y-113514000D02*
X115187000Y-112244000D01*
X115307000Y-113514000D02*
X115307000Y-112189000D01*
X115267000Y-116902000D02*
X115267000Y-115594000D01*
X115828000Y-113514000D02*
X115828000Y-112026000D01*
X114747000Y-116589000D02*
X114747000Y-115594000D01*
X115427000Y-116968000D02*
X115427000Y-115594000D01*
X116148000Y-113514000D02*
X116148000Y-111981000D01*
X115147000Y-116844000D02*
X115147000Y-115594000D01*
X115988000Y-113514000D02*
X115988000Y-111998000D01*
X114987000Y-116754000D02*
X114987000Y-115594000D01*
X115547000Y-117009000D02*
X115547000Y-115594000D01*
X116108000Y-117123000D02*
X116108000Y-115594000D01*
X114427000Y-116297000D02*
X114427000Y-115594000D01*
X114187000Y-115997000D02*
X114187000Y-113111000D01*
X114827000Y-116649000D02*
X114827000Y-115594000D01*
X116228000Y-117132000D02*
X116228000Y-115594000D01*
X115788000Y-113514000D02*
X115788000Y-112034000D01*
X115708000Y-113514000D02*
X115708000Y-112053000D01*
X114427000Y-113514000D02*
X114427000Y-112811000D01*
X114507000Y-116380000D02*
X114507000Y-115594000D01*
X118902775Y-116279000D02*
X118902775Y-115779000D01*
X114627000Y-113514000D02*
X114627000Y-112617000D01*
X114947000Y-113514000D02*
X114947000Y-112379000D01*
X115467000Y-113514000D02*
X115467000Y-112126000D01*
X115868000Y-113514000D02*
X115868000Y-112018000D01*
X114787000Y-113514000D02*
X114787000Y-112489000D01*
X114627000Y-116491000D02*
X114627000Y-115594000D01*
X114707000Y-113514000D02*
X114707000Y-112550000D01*
X115147000Y-113514000D02*
X115147000Y-112264000D01*
X115347000Y-113514000D02*
X115347000Y-112172000D01*
X115988000Y-117110000D02*
X115988000Y-115594000D01*
X115067000Y-113514000D02*
X115067000Y-112307000D01*
X114667000Y-116525000D02*
X114667000Y-115594000D01*
X113907000Y-115469000D02*
X113907000Y-113639000D01*
X116108000Y-113514000D02*
X116108000Y-111985000D01*
X115507000Y-113514000D02*
X115507000Y-112112000D01*
X114707000Y-116558000D02*
X114707000Y-115594000D01*
X115467000Y-116982000D02*
X115467000Y-115594000D01*
X114867000Y-113514000D02*
X114867000Y-112432000D01*
X115027000Y-113514000D02*
X115027000Y-112330000D01*
X115067000Y-116801000D02*
X115067000Y-115594000D01*
X115187000Y-116864000D02*
X115187000Y-115594000D01*
X114267000Y-116108000D02*
X114267000Y-113000000D01*
X114547000Y-113514000D02*
X114547000Y-112690000D01*
X114027000Y-115732000D02*
X114027000Y-113376000D01*
X115507000Y-116996000D02*
X115507000Y-115594000D01*
X115427000Y-113514000D02*
X115427000Y-112140000D01*
X114987000Y-113514000D02*
X114987000Y-112354000D01*
X114387000Y-116253000D02*
X114387000Y-115594000D01*
X114907000Y-116703000D02*
X114907000Y-115594000D01*
X114747000Y-113514000D02*
X114747000Y-112519000D01*
X115868000Y-117090000D02*
X115868000Y-115594000D01*
X116268000Y-117133000D02*
X116268000Y-115594000D01*
X116348000Y-113514000D02*
X116348000Y-111974000D01*
X115668000Y-113514000D02*
X115668000Y-112063000D01*
X115387000Y-113514000D02*
X115387000Y-112156000D01*
X116068000Y-117119000D02*
X116068000Y-115594000D01*
X115708000Y-117055000D02*
X115708000Y-115594000D01*
X115748000Y-117065000D02*
X115748000Y-115594000D01*
X114227000Y-116054000D02*
X114227000Y-113054000D01*
X114827000Y-113514000D02*
X114827000Y-112459000D01*
X114667000Y-113514000D02*
X114667000Y-112583000D01*
X115788000Y-117074000D02*
X115788000Y-115594000D01*
X114387000Y-113514000D02*
X114387000Y-112855000D01*
X113987000Y-115652000D02*
X113987000Y-113456000D01*
X114547000Y-116418000D02*
X114547000Y-115594000D01*
X115748000Y-113514000D02*
X115748000Y-112043000D01*
X115227000Y-113514000D02*
X115227000Y-112225000D01*
X114587000Y-116455000D02*
X114587000Y-115594000D01*
X116228000Y-113514000D02*
X116228000Y-111976000D01*
X115668000Y-117045000D02*
X115668000Y-115594000D01*
X113747000Y-114838000D02*
X113747000Y-114270000D01*
X115908000Y-113514000D02*
X115908000Y-112011000D01*
X115307000Y-116919000D02*
X115307000Y-115594000D01*
X114307000Y-116159000D02*
X114307000Y-112949000D01*
X114147000Y-115937000D02*
X114147000Y-113171000D01*
X115027000Y-116778000D02*
X115027000Y-115594000D01*
X116188000Y-113514000D02*
X116188000Y-111978000D01*
X114947000Y-116729000D02*
X114947000Y-115594000D01*
X115627000Y-113514000D02*
X115627000Y-112074000D01*
X116068000Y-113514000D02*
X116068000Y-111989000D01*
X114347000Y-116207000D02*
X114347000Y-115594000D01*
X113867000Y-115359000D02*
X113867000Y-113749000D01*
X114507000Y-113514000D02*
X114507000Y-112728000D01*
X115908000Y-117097000D02*
X115908000Y-115594000D01*
X113827000Y-115231000D02*
X113827000Y-113877000D01*
X115627000Y-117034000D02*
X115627000Y-115594000D01*
X114467000Y-113514000D02*
X114467000Y-112769000D01*
X115107000Y-113514000D02*
X115107000Y-112286000D01*
X116268000Y-113514000D02*
X116268000Y-111975000D01*
X114067000Y-115805000D02*
X114067000Y-113303000D01*
X114467000Y-116339000D02*
X114467000Y-115594000D01*
X114787000Y-116619000D02*
X114787000Y-115594000D01*
X116308000Y-113514000D02*
X116308000Y-111974000D01*
X115587000Y-113514000D02*
X115587000Y-112086000D01*
X116188000Y-117130000D02*
X116188000Y-115594000D01*
X114347000Y-113514000D02*
X114347000Y-112901000D01*
X115587000Y-117022000D02*
X115587000Y-115594000D01*
X118968000Y-114554000D02*
G75*
G03*
X118968000Y-114554000I-2620000J0D01*
G01*
%TO.C,C1*%
X130513000Y-96177000D02*
X131802000Y-96177000D01*
X133882000Y-96337000D02*
X135240000Y-96337000D01*
X131927000Y-94857000D02*
X133757000Y-94857000D01*
X131744000Y-94937000D02*
X133940000Y-94937000D01*
X130414000Y-96417000D02*
X131802000Y-96417000D01*
X130720000Y-95817000D02*
X131802000Y-95817000D01*
X133882000Y-97218000D02*
X135421000Y-97218000D01*
X133882000Y-95977000D02*
X135066000Y-95977000D01*
X130532000Y-96137000D02*
X131802000Y-96137000D01*
X130574000Y-96057000D02*
X131802000Y-96057000D01*
X133882000Y-96658000D02*
X135343000Y-96658000D01*
X133882000Y-95857000D02*
X134991000Y-95857000D01*
X133882000Y-96577000D02*
X135322000Y-96577000D01*
X133882000Y-95737000D02*
X134907000Y-95737000D01*
X131117000Y-99852775D02*
X131617000Y-99852775D01*
X130387000Y-96497000D02*
X131802000Y-96497000D01*
X133882000Y-96537000D02*
X135310000Y-96537000D01*
X131016000Y-95457000D02*
X131802000Y-95457000D01*
X130618000Y-95977000D02*
X131802000Y-95977000D01*
X130269000Y-97098000D02*
X131802000Y-97098000D01*
X130444000Y-96337000D02*
X131802000Y-96337000D01*
X133882000Y-97098000D02*
X135415000Y-97098000D01*
X133882000Y-97018000D02*
X135407000Y-97018000D01*
X130642000Y-95937000D02*
X131802000Y-95937000D01*
X133882000Y-95377000D02*
X134585000Y-95377000D01*
X132324000Y-94737000D02*
X133360000Y-94737000D01*
X131367000Y-100102775D02*
X131367000Y-99602775D01*
X130871000Y-95617000D02*
X131802000Y-95617000D01*
X130262000Y-97258000D02*
X131802000Y-97258000D01*
X130262000Y-97298000D02*
X131802000Y-97298000D01*
X131288000Y-95217000D02*
X134396000Y-95217000D01*
X133882000Y-96618000D02*
X135333000Y-96618000D01*
X133882000Y-97298000D02*
X135422000Y-97298000D01*
X133882000Y-95497000D02*
X134706000Y-95497000D01*
X133882000Y-96457000D02*
X135284000Y-96457000D01*
X133882000Y-96417000D02*
X135270000Y-96417000D01*
X133882000Y-95777000D02*
X134937000Y-95777000D01*
X133882000Y-96137000D02*
X135152000Y-96137000D01*
X133882000Y-95937000D02*
X135042000Y-95937000D01*
X131189000Y-95297000D02*
X131802000Y-95297000D01*
X133882000Y-96377000D02*
X135256000Y-96377000D01*
X130428000Y-96377000D02*
X131802000Y-96377000D01*
X130341000Y-96658000D02*
X131802000Y-96658000D01*
X130281000Y-96978000D02*
X131802000Y-96978000D01*
X130905000Y-95577000D02*
X131802000Y-95577000D01*
X130286000Y-96938000D02*
X131802000Y-96938000D01*
X133882000Y-95897000D02*
X135017000Y-95897000D01*
X133882000Y-96017000D02*
X135089000Y-96017000D01*
X130374000Y-96537000D02*
X131802000Y-96537000D01*
X133882000Y-96938000D02*
X135398000Y-96938000D01*
X133882000Y-95617000D02*
X134813000Y-95617000D01*
X130978000Y-95497000D02*
X131802000Y-95497000D01*
X131459000Y-95097000D02*
X134225000Y-95097000D01*
X133882000Y-96898000D02*
X135392000Y-96898000D01*
X130460000Y-96297000D02*
X131802000Y-96297000D01*
X130941000Y-95537000D02*
X131802000Y-95537000D01*
X133882000Y-95697000D02*
X134877000Y-95697000D01*
X133882000Y-97058000D02*
X135411000Y-97058000D01*
X131831000Y-94897000D02*
X133853000Y-94897000D01*
X131664000Y-94977000D02*
X134020000Y-94977000D01*
X130277000Y-97018000D02*
X131802000Y-97018000D01*
X131057000Y-95417000D02*
X131802000Y-95417000D01*
X131237000Y-95257000D02*
X134447000Y-95257000D01*
X131342000Y-95177000D02*
X134342000Y-95177000D01*
X133882000Y-95577000D02*
X134779000Y-95577000D01*
X133882000Y-96257000D02*
X135207000Y-96257000D01*
X130693000Y-95857000D02*
X131802000Y-95857000D01*
X133882000Y-96177000D02*
X135171000Y-96177000D01*
X130299000Y-96858000D02*
X131802000Y-96858000D01*
X130292000Y-96898000D02*
X131802000Y-96898000D01*
X130266000Y-97138000D02*
X131802000Y-97138000D01*
X133882000Y-96738000D02*
X135362000Y-96738000D01*
X130494000Y-96217000D02*
X131802000Y-96217000D01*
X133882000Y-95417000D02*
X134627000Y-95417000D01*
X133882000Y-96497000D02*
X135297000Y-96497000D01*
X130552000Y-96097000D02*
X131802000Y-96097000D01*
X133882000Y-95297000D02*
X134495000Y-95297000D01*
X130747000Y-95777000D02*
X131802000Y-95777000D01*
X133882000Y-97258000D02*
X135422000Y-97258000D01*
X131591000Y-95017000D02*
X134093000Y-95017000D01*
X133882000Y-96698000D02*
X135353000Y-96698000D01*
X133882000Y-97138000D02*
X135418000Y-97138000D01*
X133882000Y-96858000D02*
X135385000Y-96858000D01*
X132558000Y-94697000D02*
X133126000Y-94697000D01*
X133882000Y-96778000D02*
X135370000Y-96778000D01*
X130362000Y-96577000D02*
X131802000Y-96577000D01*
X133882000Y-95337000D02*
X134541000Y-95337000D01*
X133882000Y-96818000D02*
X135378000Y-96818000D01*
X133882000Y-96297000D02*
X135224000Y-96297000D01*
X133882000Y-96057000D02*
X135110000Y-96057000D01*
X131523000Y-95057000D02*
X134161000Y-95057000D01*
X130400000Y-96457000D02*
X131802000Y-96457000D01*
X130595000Y-96017000D02*
X131802000Y-96017000D01*
X130322000Y-96738000D02*
X131802000Y-96738000D01*
X130807000Y-95697000D02*
X131802000Y-95697000D01*
X133882000Y-96097000D02*
X135132000Y-96097000D01*
X130351000Y-96618000D02*
X131802000Y-96618000D01*
X132165000Y-94777000D02*
X133519000Y-94777000D01*
X130263000Y-97218000D02*
X131802000Y-97218000D01*
X130838000Y-95657000D02*
X131802000Y-95657000D01*
X133882000Y-97178000D02*
X135420000Y-97178000D01*
X130777000Y-95737000D02*
X131802000Y-95737000D01*
X130273000Y-97058000D02*
X131802000Y-97058000D01*
X130314000Y-96778000D02*
X131802000Y-96778000D01*
X133882000Y-95817000D02*
X134964000Y-95817000D01*
X131099000Y-95377000D02*
X131802000Y-95377000D01*
X133882000Y-95537000D02*
X134743000Y-95537000D01*
X133882000Y-96978000D02*
X135403000Y-96978000D01*
X133882000Y-96217000D02*
X135190000Y-96217000D01*
X130667000Y-95897000D02*
X131802000Y-95897000D01*
X130306000Y-96818000D02*
X131802000Y-96818000D01*
X133882000Y-95657000D02*
X134846000Y-95657000D01*
X130331000Y-96698000D02*
X131802000Y-96698000D01*
X133882000Y-95457000D02*
X134668000Y-95457000D01*
X130264000Y-97178000D02*
X131802000Y-97178000D01*
X130477000Y-96257000D02*
X131802000Y-96257000D01*
X131143000Y-95337000D02*
X131802000Y-95337000D01*
X132037000Y-94817000D02*
X133647000Y-94817000D01*
X131399000Y-95137000D02*
X134285000Y-95137000D01*
X135462000Y-97298000D02*
G75*
G03*
X135462000Y-97298000I-2620000J0D01*
G01*
%TO.C,D3*%
X108962000Y-69954000D02*
X108962000Y-67714000D01*
X109562000Y-69954000D02*
X109562000Y-67714000D01*
X104672000Y-68834000D02*
X105322000Y-68834000D01*
X105322000Y-67714000D02*
X105322000Y-69954000D01*
X105322000Y-69954000D02*
X109562000Y-69954000D01*
X108722000Y-69954000D02*
X108722000Y-67714000D01*
X109562000Y-67714000D02*
X105322000Y-67714000D01*
X110212000Y-68834000D02*
X109562000Y-68834000D01*
X108842000Y-69954000D02*
X108842000Y-67714000D01*
%TO.C,U1*%
X134167000Y-108558000D02*
X134167000Y-103258000D01*
X134227000Y-111048000D02*
X134227000Y-100768000D01*
X134227000Y-100768000D02*
X116207000Y-100768000D01*
X116267000Y-103258000D02*
X116267000Y-104908000D01*
X116267000Y-106908000D02*
X116267000Y-108558000D01*
X116267000Y-108558000D02*
X134167000Y-108558000D01*
X134167000Y-103258000D02*
X116267000Y-103258000D01*
X116207000Y-111048000D02*
X134227000Y-111048000D01*
X116207000Y-100768000D02*
X116207000Y-111048000D01*
X116267000Y-106908000D02*
G75*
G03*
X116267000Y-104908000I0J1000000D01*
G01*
D13*
%TO.C,J1*%
X146431000Y-61468000D02*
X153289000Y-61468000D01*
X163449000Y-61468000D02*
X163449000Y-108712000D01*
X146431000Y-61468000D02*
X146431000Y-108712000D01*
X156337000Y-111887000D02*
X153289000Y-111887000D01*
X156337000Y-59436000D02*
X153289000Y-59436000D01*
X146431000Y-108712000D02*
X153289000Y-108712000D01*
X156337000Y-57785000D02*
X153289000Y-57785000D01*
X163449000Y-108712000D02*
X156337000Y-108712000D01*
X156337000Y-110236000D02*
X153289000Y-110236000D01*
X153289000Y-111887000D02*
X153289000Y-57785000D01*
X156337000Y-57785000D02*
X156337000Y-111887000D01*
X156337000Y-61468000D02*
X163449000Y-61468000D01*
D12*
%TO.C,JP3*%
X138490000Y-86440000D02*
X138490000Y-83840000D01*
X138490000Y-86440000D02*
X135830000Y-86440000D01*
X138490000Y-83840000D02*
X135830000Y-83840000D01*
X138490000Y-87710000D02*
X138490000Y-89040000D01*
X135830000Y-86440000D02*
X135830000Y-83840000D01*
X138490000Y-89040000D02*
X137160000Y-89040000D01*
%TO.C,C3*%
X126502000Y-95020000D02*
X126502000Y-96545000D01*
X127223000Y-95020000D02*
X127223000Y-96362000D01*
X127863000Y-95020000D02*
X127863000Y-95984000D01*
X127383000Y-95020000D02*
X127383000Y-96290000D01*
X126902000Y-91489000D02*
X126902000Y-92940000D01*
X127383000Y-91670000D02*
X127383000Y-92940000D01*
X127623000Y-91805000D02*
X127623000Y-92940000D01*
X127143000Y-91566000D02*
X127143000Y-92940000D01*
X127583000Y-91780000D02*
X127583000Y-92940000D01*
X126862000Y-91479000D02*
X126862000Y-92940000D01*
X126702000Y-91444000D02*
X126702000Y-92940000D01*
X127463000Y-91712000D02*
X127463000Y-92940000D01*
X126983000Y-95020000D02*
X126983000Y-96448000D01*
X128303000Y-92426000D02*
X128303000Y-95534000D01*
X127743000Y-91885000D02*
X127743000Y-92940000D01*
X126542000Y-91419000D02*
X126542000Y-92940000D01*
X127023000Y-91525000D02*
X127023000Y-92940000D01*
X127143000Y-95020000D02*
X127143000Y-96394000D01*
X126542000Y-95020000D02*
X126542000Y-96541000D01*
X127983000Y-95020000D02*
X127983000Y-95881000D01*
X127303000Y-91632000D02*
X127303000Y-92940000D01*
X127343000Y-95020000D02*
X127343000Y-96309000D01*
X123667225Y-92255000D02*
X123667225Y-92755000D01*
X127063000Y-95020000D02*
X127063000Y-96422000D01*
X126902000Y-95020000D02*
X126902000Y-96471000D01*
X128023000Y-92116000D02*
X128023000Y-92940000D01*
X128583000Y-92882000D02*
X128583000Y-95078000D01*
X127183000Y-91582000D02*
X127183000Y-92940000D01*
X126782000Y-91460000D02*
X126782000Y-92940000D01*
X128703000Y-93175000D02*
X128703000Y-94785000D01*
X128463000Y-92661000D02*
X128463000Y-95299000D01*
X128503000Y-92729000D02*
X128503000Y-95231000D01*
X127783000Y-91915000D02*
X127783000Y-92940000D01*
X128063000Y-92154000D02*
X128063000Y-92940000D01*
X123417225Y-92505000D02*
X123917225Y-92505000D01*
X127423000Y-91690000D02*
X127423000Y-92940000D01*
X128183000Y-92281000D02*
X128183000Y-92940000D01*
X127263000Y-91615000D02*
X127263000Y-92940000D01*
X127663000Y-95020000D02*
X127663000Y-96129000D01*
X128823000Y-93696000D02*
X128823000Y-94264000D01*
X127063000Y-91538000D02*
X127063000Y-92940000D01*
X126502000Y-91415000D02*
X126502000Y-92940000D01*
X126382000Y-95020000D02*
X126382000Y-96556000D01*
X127543000Y-91756000D02*
X127543000Y-92940000D01*
X127983000Y-92079000D02*
X127983000Y-92940000D01*
X128103000Y-95020000D02*
X128103000Y-95765000D01*
X127423000Y-95020000D02*
X127423000Y-96270000D01*
X126622000Y-91430000D02*
X126622000Y-92940000D01*
X126782000Y-95020000D02*
X126782000Y-96500000D01*
X128343000Y-92480000D02*
X128343000Y-95480000D01*
X126222000Y-95020000D02*
X126222000Y-96560000D01*
X126382000Y-91404000D02*
X126382000Y-92940000D01*
X128543000Y-92802000D02*
X128543000Y-95158000D01*
X127783000Y-95020000D02*
X127783000Y-96045000D01*
X128223000Y-95020000D02*
X128223000Y-95633000D01*
X127183000Y-95020000D02*
X127183000Y-96378000D01*
X127703000Y-91858000D02*
X127703000Y-92940000D01*
X127823000Y-91945000D02*
X127823000Y-92940000D01*
X126983000Y-91512000D02*
X126983000Y-92940000D01*
X126422000Y-91407000D02*
X126422000Y-92940000D01*
X126262000Y-91400000D02*
X126262000Y-92940000D01*
X128103000Y-92195000D02*
X128103000Y-92940000D01*
X126742000Y-95020000D02*
X126742000Y-96508000D01*
X126702000Y-95020000D02*
X126702000Y-96516000D01*
X127503000Y-91733000D02*
X127503000Y-92940000D01*
X126302000Y-91401000D02*
X126302000Y-92940000D01*
X127103000Y-91552000D02*
X127103000Y-92940000D01*
X127543000Y-95020000D02*
X127543000Y-96204000D01*
X127943000Y-92043000D02*
X127943000Y-92940000D01*
X126582000Y-91424000D02*
X126582000Y-92940000D01*
X126943000Y-91500000D02*
X126943000Y-92940000D01*
X126262000Y-95020000D02*
X126262000Y-96560000D01*
X127823000Y-95020000D02*
X127823000Y-96015000D01*
X128143000Y-92237000D02*
X128143000Y-92940000D01*
X127343000Y-91651000D02*
X127343000Y-92940000D01*
X127903000Y-95020000D02*
X127903000Y-95951000D01*
X126462000Y-91411000D02*
X126462000Y-92940000D01*
X127463000Y-95020000D02*
X127463000Y-96248000D01*
X126422000Y-95020000D02*
X126422000Y-96553000D01*
X127943000Y-95020000D02*
X127943000Y-95917000D01*
X128743000Y-93303000D02*
X128743000Y-94657000D01*
X127743000Y-95020000D02*
X127743000Y-96075000D01*
X126822000Y-95020000D02*
X126822000Y-96491000D01*
X128663000Y-93065000D02*
X128663000Y-94895000D01*
X127623000Y-95020000D02*
X127623000Y-96155000D01*
X127223000Y-91598000D02*
X127223000Y-92940000D01*
X127103000Y-95020000D02*
X127103000Y-96408000D01*
X128063000Y-95020000D02*
X128063000Y-95806000D01*
X126622000Y-95020000D02*
X126622000Y-96530000D01*
X128223000Y-92327000D02*
X128223000Y-92940000D01*
X126222000Y-91400000D02*
X126222000Y-92940000D01*
X126302000Y-95020000D02*
X126302000Y-96559000D01*
X127503000Y-95020000D02*
X127503000Y-96227000D01*
X128783000Y-93462000D02*
X128783000Y-94498000D01*
X126742000Y-91452000D02*
X126742000Y-92940000D01*
X128263000Y-92375000D02*
X128263000Y-95585000D01*
X128383000Y-92537000D02*
X128383000Y-95423000D01*
X126862000Y-95020000D02*
X126862000Y-96481000D01*
X128023000Y-95020000D02*
X128023000Y-95844000D01*
X127263000Y-95020000D02*
X127263000Y-96345000D01*
X127303000Y-95020000D02*
X127303000Y-96328000D01*
X128423000Y-92597000D02*
X128423000Y-95363000D01*
X127663000Y-91831000D02*
X127663000Y-92940000D01*
X126342000Y-95020000D02*
X126342000Y-96558000D01*
X128143000Y-95020000D02*
X128143000Y-95723000D01*
X127703000Y-95020000D02*
X127703000Y-96102000D01*
X126662000Y-95020000D02*
X126662000Y-96523000D01*
X127863000Y-91976000D02*
X127863000Y-92940000D01*
X128623000Y-92969000D02*
X128623000Y-94991000D01*
X126582000Y-95020000D02*
X126582000Y-96536000D01*
X127903000Y-92009000D02*
X127903000Y-92940000D01*
X126943000Y-95020000D02*
X126943000Y-96460000D01*
X127023000Y-95020000D02*
X127023000Y-96435000D01*
X126662000Y-91437000D02*
X126662000Y-92940000D01*
X126822000Y-91469000D02*
X126822000Y-92940000D01*
X126462000Y-95020000D02*
X126462000Y-96549000D01*
X128183000Y-95020000D02*
X128183000Y-95679000D01*
X127583000Y-95020000D02*
X127583000Y-96180000D01*
X126342000Y-91402000D02*
X126342000Y-92940000D01*
X128842000Y-93980000D02*
G75*
G03*
X128842000Y-93980000I-2620000J0D01*
G01*
%TO.C,JP6*%
X129650000Y-68650000D02*
X132310000Y-68650000D01*
X129650000Y-71250000D02*
X132310000Y-71250000D01*
X129650000Y-68650000D02*
X129650000Y-71250000D01*
X129650000Y-66050000D02*
X130980000Y-66050000D01*
X129650000Y-67380000D02*
X129650000Y-66050000D01*
X132310000Y-68650000D02*
X132310000Y-71250000D01*
%TO.C,R19*%
X115284000Y-50900000D02*
X115284000Y-50570000D01*
X115284000Y-48160000D02*
X115284000Y-48490000D01*
X108744000Y-50570000D02*
X108744000Y-50900000D01*
X108744000Y-48160000D02*
X115284000Y-48160000D01*
X108744000Y-50900000D02*
X115284000Y-50900000D01*
X108744000Y-48490000D02*
X108744000Y-48160000D01*
%TO.C,R11*%
X114840000Y-65000000D02*
X114840000Y-64670000D01*
X121380000Y-64670000D02*
X121380000Y-65000000D01*
X121380000Y-67410000D02*
X121380000Y-67080000D01*
X114840000Y-64670000D02*
X121380000Y-64670000D01*
X114840000Y-67080000D02*
X114840000Y-67410000D01*
X114840000Y-67410000D02*
X121380000Y-67410000D01*
%TO.C,R4*%
X104172000Y-66902000D02*
X104172000Y-66572000D01*
X110712000Y-64162000D02*
X104172000Y-64162000D01*
X110712000Y-64492000D02*
X110712000Y-64162000D01*
X110712000Y-66902000D02*
X104172000Y-66902000D01*
X104172000Y-64162000D02*
X104172000Y-64492000D01*
X110712000Y-66572000D02*
X110712000Y-66902000D01*
%TO.C,R2*%
X156242000Y-54710000D02*
X162782000Y-54710000D01*
X156242000Y-54380000D02*
X156242000Y-54710000D01*
X162782000Y-54710000D02*
X162782000Y-54380000D01*
X162782000Y-51970000D02*
X162782000Y-52300000D01*
X156242000Y-52300000D02*
X156242000Y-51970000D01*
X156242000Y-51970000D02*
X162782000Y-51970000D01*
%TO.C,R5*%
X110712000Y-70512000D02*
X104172000Y-70512000D01*
X104172000Y-70512000D02*
X104172000Y-70842000D01*
X110712000Y-72922000D02*
X110712000Y-73252000D01*
X104172000Y-73252000D02*
X104172000Y-72922000D01*
X110712000Y-73252000D02*
X104172000Y-73252000D01*
X110712000Y-70842000D02*
X110712000Y-70512000D01*
%TO.C,JP7*%
X132310000Y-88860000D02*
X130980000Y-88860000D01*
X132310000Y-87530000D02*
X132310000Y-88860000D01*
X129650000Y-86260000D02*
X129650000Y-83660000D01*
X132310000Y-86260000D02*
X132310000Y-83660000D01*
X132310000Y-83660000D02*
X129650000Y-83660000D01*
X132310000Y-86260000D02*
X129650000Y-86260000D01*
%TO.C,D1*%
X110212000Y-55626000D02*
X109562000Y-55626000D01*
X108962000Y-56746000D02*
X108962000Y-54506000D01*
X109562000Y-54506000D02*
X105322000Y-54506000D01*
X108842000Y-56746000D02*
X108842000Y-54506000D01*
X109562000Y-56746000D02*
X109562000Y-54506000D01*
X105322000Y-56746000D02*
X109562000Y-56746000D01*
X108722000Y-56746000D02*
X108722000Y-54506000D01*
X105322000Y-54506000D02*
X105322000Y-56746000D01*
X104672000Y-55626000D02*
X105322000Y-55626000D01*
%TO.C,J2*%
X111096338Y-84832000D02*
X110663325Y-84582000D01*
X110202000Y-74637000D02*
X110202000Y-105607000D01*
X110202000Y-105607000D02*
X99722000Y-105607000D01*
X110663325Y-84582000D02*
X111096338Y-84332000D01*
X111096338Y-84332000D02*
X111096338Y-84832000D01*
X99722000Y-74637000D02*
X110202000Y-74637000D01*
%TO.C,JP5*%
X129610000Y-77200000D02*
X132270000Y-77200000D01*
X129610000Y-75930000D02*
X129610000Y-74600000D01*
X132270000Y-77200000D02*
X132270000Y-79800000D01*
X129610000Y-79800000D02*
X132270000Y-79800000D01*
X129610000Y-74600000D02*
X130940000Y-74600000D01*
X129610000Y-77200000D02*
X129610000Y-79800000D01*
%TO.C,J4*%
X149848000Y-48950000D02*
X149848000Y-57550000D01*
X130048000Y-58011325D02*
X130298000Y-58444338D01*
X149848000Y-57550000D02*
X118878000Y-57550000D01*
X118878000Y-57550000D02*
X118878000Y-48950000D01*
X130298000Y-58444338D02*
X129798000Y-58444338D01*
X129798000Y-58444338D02*
X130048000Y-58011325D01*
%TO.C,R12*%
X114840000Y-75030000D02*
X121380000Y-75030000D01*
X114840000Y-72620000D02*
X114840000Y-72290000D01*
X114840000Y-74700000D02*
X114840000Y-75030000D01*
X121380000Y-75030000D02*
X121380000Y-74700000D01*
X121380000Y-72290000D02*
X121380000Y-72620000D01*
X114840000Y-72290000D02*
X121380000Y-72290000D01*
%TO.C,R9*%
X114586000Y-93826000D02*
X121126000Y-93826000D01*
X121126000Y-93826000D02*
X121126000Y-93496000D01*
X114586000Y-91416000D02*
X114586000Y-91086000D01*
X114586000Y-93496000D02*
X114586000Y-93826000D01*
X114586000Y-91086000D02*
X121126000Y-91086000D01*
X121126000Y-91086000D02*
X121126000Y-91416000D01*
%TO.C,JP4*%
X135920000Y-65970000D02*
X137250000Y-65970000D01*
X135920000Y-71170000D02*
X138580000Y-71170000D01*
X135920000Y-68570000D02*
X138580000Y-68570000D01*
X138580000Y-68570000D02*
X138580000Y-71170000D01*
X135920000Y-67300000D02*
X135920000Y-65970000D01*
X135920000Y-68570000D02*
X135920000Y-71170000D01*
%TO.C,JP8*%
X129092000Y-112970000D02*
X129092000Y-114300000D01*
X126492000Y-115630000D02*
X121352000Y-115630000D01*
X126492000Y-112970000D02*
X121352000Y-112970000D01*
X126492000Y-112970000D02*
X126492000Y-115630000D01*
X121352000Y-112970000D02*
X121352000Y-115630000D01*
X127762000Y-112970000D02*
X129092000Y-112970000D01*
%TO.C,R6*%
X114820000Y-80120000D02*
X114820000Y-79790000D01*
X114820000Y-79790000D02*
X121360000Y-79790000D01*
X114820000Y-82200000D02*
X114820000Y-82530000D01*
X114820000Y-82530000D02*
X121360000Y-82530000D01*
X121360000Y-79790000D02*
X121360000Y-80120000D01*
X121360000Y-82530000D02*
X121360000Y-82200000D01*
D14*
%TO.C,J3*%
X137624000Y-127044000D02*
X137624000Y-123444000D01*
X144824000Y-127044000D02*
X137624000Y-127044000D01*
X141224000Y-123444000D02*
X147224000Y-123444000D01*
X144824000Y-123644000D02*
X144824000Y-127044000D01*
X135224000Y-123444000D02*
X141224000Y-123444000D01*
X135224000Y-109244000D02*
X135224000Y-123444000D01*
X147224000Y-109244000D02*
X135224000Y-109244000D01*
X147224000Y-123444000D02*
X147224000Y-109244000D01*
D12*
%TO.C,R15*%
X126778000Y-60606000D02*
X133318000Y-60606000D01*
X133318000Y-60606000D02*
X133318000Y-60936000D01*
X133318000Y-63346000D02*
X133318000Y-63016000D01*
X126778000Y-63016000D02*
X126778000Y-63346000D01*
X126778000Y-63346000D02*
X133318000Y-63346000D01*
X126778000Y-60936000D02*
X126778000Y-60606000D01*
%TO.C,JP1*%
X110998000Y-108144000D02*
X105858000Y-108144000D01*
X105858000Y-108144000D02*
X105858000Y-110804000D01*
X112268000Y-108144000D02*
X113598000Y-108144000D01*
X110998000Y-108144000D02*
X110998000Y-110804000D01*
X113598000Y-108144000D02*
X113598000Y-109474000D01*
X110998000Y-110804000D02*
X105858000Y-110804000D01*
%TO.C,R1*%
X120872000Y-94642000D02*
X120872000Y-94972000D01*
X114332000Y-97052000D02*
X114332000Y-97382000D01*
X114332000Y-94642000D02*
X120872000Y-94642000D01*
X114332000Y-97382000D02*
X120872000Y-97382000D01*
X114332000Y-94972000D02*
X114332000Y-94642000D01*
X120872000Y-97382000D02*
X120872000Y-97052000D01*
%TO.C,R20*%
X143478000Y-108812000D02*
X143478000Y-108482000D01*
X136938000Y-108482000D02*
X136938000Y-108812000D01*
X143478000Y-106072000D02*
X143478000Y-106402000D01*
X136938000Y-108812000D02*
X143478000Y-108812000D01*
X136938000Y-106072000D02*
X143478000Y-106072000D01*
X136938000Y-106402000D02*
X136938000Y-106072000D01*
%TO.C,J5*%
X108796000Y-113344000D02*
X108796000Y-112294000D01*
X108596000Y-112494000D02*
X108596000Y-115094000D01*
X107746000Y-112294000D02*
X108796000Y-112294000D01*
X108596000Y-121694000D02*
X106696000Y-121694000D01*
X93896000Y-112494000D02*
X108596000Y-112494000D01*
X108596000Y-118994000D02*
X108596000Y-121694000D01*
X102696000Y-121694000D02*
X93896000Y-121694000D01*
X93896000Y-121694000D02*
X93896000Y-112494000D01*
%TO.C,R3*%
X110712000Y-57558000D02*
X104172000Y-57558000D01*
X110712000Y-60298000D02*
X104172000Y-60298000D01*
X110712000Y-59968000D02*
X110712000Y-60298000D01*
X104172000Y-60298000D02*
X104172000Y-59968000D01*
X110712000Y-57888000D02*
X110712000Y-57558000D01*
X104172000Y-57558000D02*
X104172000Y-57888000D01*
%TD*%
D15*
%TO.C,J1*%
X155140660Y-58336180D03*
X155140660Y-111335820D03*
%TD*%
M02*
