M48
; DRILL file {KiCad (6.0.2)} date Sun Sep 11 15:54:14 2022
; FORMAT={-:-/ absolute / inch / decimal}
; #@! TF.CreationDate,2022-09-11T15:54:14-05:00
; #@! TF.GenerationSoftware,Kicad,Pcbnew,(6.0.2)
; #@! TF.FileFunction,Plated,1,2,PTH
FMAT,2
INCH
; #@! TA.AperFunction,Plated,PTH,ViaDrill
T1C0.0157
; #@! TA.AperFunction,Plated,PTH,ComponentDrill
T2C0.0295
; #@! TA.AperFunction,Plated,PTH,ComponentDrill
T3C0.0315
; #@! TA.AperFunction,Plated,PTH,ComponentDrill
T4C0.0394
; #@! TA.AperFunction,Plated,PTH,ComponentDrill
T5C0.0472
; #@! TA.AperFunction,Plated,PTH,ComponentDrill
T6C0.1260
%
G90
G05
T1
X4.0508Y-3.0866
X5.6189Y-3.8378
X5.6303Y-3.8988
X5.7193Y-3.6594
X5.7224Y-3.7988
X5.9827Y-3.3969
T3
X4.45Y-2.0
X4.45Y-2.15
X4.45Y-2.3
X4.45Y-2.45
X4.5Y-2.6
X4.5Y-2.75
X4.5Y-2.9
X4.5Y-3.05
X4.5Y-3.2
X4.5Y-3.35
X4.5Y-3.5
X4.5Y-3.65
X4.6Y-3.8
X4.75Y-2.0
X4.75Y-2.15
X4.75Y-2.3
X4.75Y-2.45
X4.8Y-2.6
X4.8Y-2.75
X4.8Y-2.9
X4.8Y-3.05
X4.8Y-3.2
X4.8Y-3.35
X4.8Y-3.5
X4.8Y-3.65
X4.8732Y-2.0504
X4.8732Y-2.3504
X4.9Y-3.8
X5.0Y-2.05
X5.0Y-2.35
X5.05Y-3.65
X5.05Y-3.75
X5.05Y-3.85
X5.3Y-3.75
X5.3Y-4.05
X5.6Y-3.75
X5.6Y-4.05
T4
X4.1382Y-2.9545
X4.1382Y-3.0636
X4.1382Y-3.1726
X4.1382Y-3.2817
X4.25Y-2.9
X4.25Y-3.0091
X4.25Y-3.1181
X4.25Y-3.2272
X4.25Y-3.3362
X4.3Y-3.9
X4.4Y-3.9
X5.0394Y-4.2
X5.0394Y-4.3559
X5.05Y-2.65
X5.05Y-2.75
X5.05Y-3.0
X5.05Y-3.1
X5.05Y-3.35
X5.05Y-3.45
X5.0844Y-4.278
X5.1295Y-4.2
X5.1295Y-4.3559
X5.1746Y-4.278
X5.2197Y-4.2
X5.2197Y-4.3559
X5.2648Y-4.278
X5.3098Y-4.2
X5.3098Y-4.3559
X5.35Y-2.65
X5.35Y-2.75
X5.35Y-3.0
X5.35Y-3.1
X5.35Y-3.35
X5.35Y-3.45
X5.3549Y-4.278
X5.4Y-4.2
X5.4Y-4.3559
X5.4451Y-4.278
T5
X5.8134Y-2.35
X5.8134Y-2.5
X5.8134Y-2.65
X5.8134Y-2.8
X5.8134Y-2.95
X5.8134Y-3.1
X5.8134Y-3.25
X5.8134Y-3.4
X5.8134Y-3.55
X5.8134Y-3.7
X5.8134Y-3.85
X6.0134Y-2.425
X6.0134Y-2.575
X6.0134Y-2.725
X6.0134Y-2.875
X6.0134Y-3.025
X6.0134Y-3.175
X6.0134Y-3.325
X6.0134Y-3.475
X6.0134Y-3.625
X6.0134Y-3.775
T6
X4.2382Y-2.626
X4.2382Y-3.6102
X4.738Y-4.2807
X5.7222Y-4.2807
T2
G00X5.161Y-2.1254
M15
G01X5.161Y-2.1549
M16
G05
G00X5.3352Y-1.9669
M15
G01X5.3648Y-1.9669
M16
G05
G00X5.5547Y-2.2632
M15
G01X5.5547Y-2.2927
M16
G05
T4
G00X5.1709Y-2.4118
M15
G01X5.1906Y-2.4118
M16
G05
G00X5.4524Y-2.2287
M15
G01X5.4524Y-2.2484
M16
G05
T0
M30
