%TF.GenerationSoftware,KiCad,Pcbnew,(6.0.2)*%
%TF.CreationDate,2022-10-21T21:19:25-05:00*%
%TF.ProjectId,CGA2SCart,43474132-5343-4617-9274-2e6b69636164,rev?*%
%TF.SameCoordinates,Original*%
%TF.FileFunction,Soldermask,Top*%
%TF.FilePolarity,Negative*%
%FSLAX46Y46*%
G04 Gerber Fmt 4.6, Leading zero omitted, Abs format (unit mm)*
G04 Created by KiCad (PCBNEW (6.0.2)) date 2022-10-21 21:19:25*
%MOMM*%
%LPD*%
G01*
G04 APERTURE LIST*
%ADD10C,1.998980*%
%ADD11O,4.100000X3.100000*%
%ADD12C,1.600000*%
%ADD13O,1.600000X1.600000*%
%ADD14R,1.600000X1.600000*%
%ADD15R,1.700000X1.700000*%
%ADD16O,1.700000X1.700000*%
%ADD17C,4.000000*%
%ADD18R,1.500000X1.500000*%
%ADD19C,1.500000*%
%ADD20O,1.500000X2.000000*%
%ADD21O,2.000000X1.500000*%
%ADD22O,2.000000X1.000000*%
%ADD23O,1.000000X2.000000*%
G04 APERTURE END LIST*
D10*
%TO.C,J1*%
X162219640Y-65786000D03*
X157139640Y-67691000D03*
X162219640Y-69596000D03*
X157139640Y-71501000D03*
X162219640Y-73406000D03*
X157139640Y-75311000D03*
X162219640Y-77216000D03*
X157139640Y-79121000D03*
X162219640Y-81026000D03*
X157139640Y-82931000D03*
X162219640Y-84836000D03*
X157139640Y-86741000D03*
X162219640Y-88646000D03*
X157139640Y-90551000D03*
X162219640Y-92456000D03*
X157139640Y-94361000D03*
X162219640Y-96266000D03*
X157139640Y-98171000D03*
X162219640Y-100076000D03*
X157139640Y-101981000D03*
X162219640Y-103886000D03*
D11*
X155140660Y-111335820D03*
X155140660Y-58336180D03*
%TD*%
D12*
%TO.C,R14*%
X124460000Y-96520000D03*
D13*
X116840000Y-96520000D03*
%TD*%
D12*
%TO.C,R10*%
X121920000Y-92710000D03*
D13*
X114300000Y-92710000D03*
%TD*%
D12*
%TO.C,R7*%
X114300000Y-85090000D03*
D13*
X121920000Y-85090000D03*
%TD*%
D14*
%TO.C,D2*%
X113310000Y-59410000D03*
D13*
X113310000Y-51790000D03*
%TD*%
D15*
%TO.C,JP2*%
X135890000Y-76200000D03*
D16*
X135890000Y-78740000D03*
%TD*%
D12*
%TO.C,R8*%
X114300000Y-77470000D03*
D13*
X121920000Y-77470000D03*
%TD*%
D12*
%TO.C,R13*%
X114300000Y-69850000D03*
D13*
X121920000Y-69850000D03*
%TD*%
D14*
%TO.C,D3*%
X110490000Y-51562000D03*
D13*
X102870000Y-51562000D03*
%TD*%
D15*
%TO.C,JP3*%
X135890000Y-87630000D03*
D16*
X135890000Y-85090000D03*
%TD*%
D15*
%TO.C,JP6*%
X128270000Y-67310000D03*
D16*
X128270000Y-69850000D03*
%TD*%
D12*
%TO.C,R11*%
X121920000Y-66040000D03*
D13*
X114300000Y-66040000D03*
%TD*%
D12*
%TO.C,R4*%
X102870000Y-58520000D03*
D13*
X110490000Y-58520000D03*
%TD*%
D12*
%TO.C,R2*%
X142090000Y-96774000D03*
D13*
X134470000Y-96774000D03*
%TD*%
D12*
%TO.C,R5*%
X102870000Y-55030000D03*
D13*
X110490000Y-55030000D03*
%TD*%
D15*
%TO.C,JP7*%
X128270000Y-85090000D03*
D16*
X128270000Y-87630000D03*
%TD*%
D14*
%TO.C,D1*%
X116070000Y-59410000D03*
D13*
X116070000Y-51790000D03*
%TD*%
D17*
%TO.C,J2*%
X107650000Y-66700000D03*
X107650000Y-91700000D03*
D14*
X107950000Y-73660000D03*
D12*
X107950000Y-76430000D03*
X107950000Y-79200000D03*
X107950000Y-81970000D03*
X107950000Y-84740000D03*
X105110000Y-75045000D03*
X105110000Y-77815000D03*
X105110000Y-80585000D03*
X105110000Y-83355000D03*
%TD*%
D15*
%TO.C,JP5*%
X128270000Y-78740000D03*
D16*
X128270000Y-76200000D03*
%TD*%
D17*
%TO.C,J4*%
X121863000Y-53830000D03*
X146863000Y-53830000D03*
D14*
X130048000Y-55880000D03*
D12*
X132338000Y-55880000D03*
X134628000Y-55880000D03*
X136918000Y-55880000D03*
X139208000Y-55880000D03*
X128903000Y-53900000D03*
X131193000Y-53900000D03*
X133483000Y-53900000D03*
X135773000Y-53900000D03*
X138063000Y-53900000D03*
X130048000Y-51920000D03*
X132338000Y-51920000D03*
X134628000Y-51920000D03*
X136918000Y-51920000D03*
X139208000Y-51920000D03*
%TD*%
%TO.C,R12*%
X114300000Y-73660000D03*
D13*
X121920000Y-73660000D03*
%TD*%
D12*
%TO.C,R9*%
X121920000Y-81280000D03*
D13*
X114300000Y-81280000D03*
%TD*%
D15*
%TO.C,JP4*%
X135890000Y-67310000D03*
D16*
X135890000Y-69850000D03*
%TD*%
D18*
%TO.C,Q1*%
X128270000Y-92710000D03*
D19*
X128270000Y-95250000D03*
X128270000Y-97790000D03*
%TD*%
D12*
%TO.C,R6*%
X114300000Y-88900000D03*
D13*
X121920000Y-88900000D03*
%TD*%
D20*
%TO.C,J3*%
X126178000Y-104938000D03*
D21*
X133078000Y-100538000D03*
D22*
X128778000Y-111838000D03*
D23*
X123578000Y-103938000D03*
X133578000Y-107438000D03*
%TD*%
D15*
%TO.C,JP1*%
X111760000Y-99060000D03*
D16*
X109220000Y-99060000D03*
%TD*%
D12*
%TO.C,R1*%
X142000000Y-92000000D03*
D13*
X134380000Y-92000000D03*
%TD*%
D12*
%TO.C,R3*%
X113030000Y-62230000D03*
D13*
X120650000Y-62230000D03*
%TD*%
M02*
