%TF.GenerationSoftware,KiCad,Pcbnew,(6.0.2)*%
%TF.CreationDate,2022-12-12T00:50:53-06:00*%
%TF.ProjectId,CGA2SCart,43474132-5343-4617-9274-2e6b69636164,rev?*%
%TF.SameCoordinates,Original*%
%TF.FileFunction,Soldermask,Top*%
%TF.FilePolarity,Negative*%
%FSLAX46Y46*%
G04 Gerber Fmt 4.6, Leading zero omitted, Abs format (unit mm)*
G04 Created by KiCad (PCBNEW (6.0.2)) date 2022-12-12 00:50:53*
%MOMM*%
%LPD*%
G01*
G04 APERTURE LIST*
G04 Aperture macros list*
%AMRoundRect*
0 Rectangle with rounded corners*
0 $1 Rounding radius*
0 $2 $3 $4 $5 $6 $7 $8 $9 X,Y pos of 4 corners*
0 Add a 4 corners polygon primitive as box body*
4,1,4,$2,$3,$4,$5,$6,$7,$8,$9,$2,$3,0*
0 Add four circle primitives for the rounded corners*
1,1,$1+$1,$2,$3*
1,1,$1+$1,$4,$5*
1,1,$1+$1,$6,$7*
1,1,$1+$1,$8,$9*
0 Add four rect primitives between the rounded corners*
20,1,$1+$1,$2,$3,$4,$5,0*
20,1,$1+$1,$4,$5,$6,$7,0*
20,1,$1+$1,$6,$7,$8,$9,0*
20,1,$1+$1,$8,$9,$2,$3,0*%
G04 Aperture macros list end*
%ADD10C,1.600000*%
%ADD11O,1.600000X1.600000*%
%ADD12R,1.600000X1.600000*%
%ADD13R,1.905000X2.000000*%
%ADD14O,1.905000X2.000000*%
%ADD15R,1.700000X1.700000*%
%ADD16O,1.700000X1.700000*%
%ADD17O,4.100000X3.100000*%
%ADD18C,1.998980*%
%ADD19C,4.000000*%
%ADD20O,1.000000X2.000000*%
%ADD21O,2.000000X1.000000*%
%ADD22O,2.000000X1.500000*%
%ADD23O,1.500000X2.000000*%
%ADD24R,3.500000X3.500000*%
%ADD25RoundRect,0.750000X-0.750000X-1.000000X0.750000X-1.000000X0.750000X1.000000X-0.750000X1.000000X0*%
%ADD26RoundRect,0.875000X-0.875000X-0.875000X0.875000X-0.875000X0.875000X0.875000X-0.875000X0.875000X0*%
G04 APERTURE END LIST*
D10*
%TO.C,C5*%
X113030000Y-104140000D03*
X113030000Y-99140000D03*
%TD*%
%TO.C,R22*%
X132842000Y-113030000D03*
D11*
X132842000Y-120650000D03*
%TD*%
D12*
%TO.C,C2*%
X112522000Y-119888000D03*
D10*
X114522000Y-119888000D03*
%TD*%
%TO.C,R18*%
X108204000Y-52578000D03*
D11*
X115824000Y-52578000D03*
%TD*%
D10*
%TO.C,R17*%
X128016000Y-70358000D03*
D11*
X128016000Y-77978000D03*
%TD*%
D10*
%TO.C,R7*%
X114300000Y-84836000D03*
D11*
X121920000Y-84836000D03*
%TD*%
D13*
%TO.C,U2*%
X125222000Y-119705000D03*
D14*
X122682000Y-119705000D03*
X120142000Y-119705000D03*
%TD*%
D12*
%TO.C,D2*%
X111252000Y-62230000D03*
D11*
X103632000Y-62230000D03*
%TD*%
D10*
%TO.C,R16*%
X143764000Y-69596000D03*
D11*
X143764000Y-77216000D03*
%TD*%
D15*
%TO.C,JP2*%
X138684000Y-76200000D03*
D16*
X138684000Y-78740000D03*
%TD*%
D10*
%TO.C,R21*%
X144018000Y-104140000D03*
D11*
X136398000Y-104140000D03*
%TD*%
D10*
%TO.C,R8*%
X114300000Y-77470000D03*
D11*
X121920000Y-77470000D03*
%TD*%
D10*
%TO.C,R13*%
X114300000Y-69850000D03*
D11*
X121920000Y-69850000D03*
%TD*%
D12*
%TO.C,C4*%
X117348000Y-114554000D03*
D10*
X115348000Y-114554000D03*
%TD*%
D12*
%TO.C,C1*%
X132842000Y-98298000D03*
D10*
X132842000Y-96298000D03*
%TD*%
D12*
%TO.C,D3*%
X111252000Y-68834000D03*
D11*
X103632000Y-68834000D03*
%TD*%
D12*
%TO.C,U1*%
X117597000Y-109718000D03*
D11*
X120137000Y-109718000D03*
X122677000Y-109718000D03*
X125217000Y-109718000D03*
X127757000Y-109718000D03*
X130297000Y-109718000D03*
X132837000Y-109718000D03*
X132837000Y-102098000D03*
X130297000Y-102098000D03*
X127757000Y-102098000D03*
X125217000Y-102098000D03*
X122677000Y-102098000D03*
X120137000Y-102098000D03*
X117597000Y-102098000D03*
%TD*%
D17*
%TO.C,J1*%
X155140660Y-58336180D03*
X155140660Y-111335820D03*
D18*
X162219640Y-103886000D03*
X157139640Y-101981000D03*
X162219640Y-100076000D03*
X157139640Y-98171000D03*
X162219640Y-96266000D03*
X157139640Y-94361000D03*
X162219640Y-92456000D03*
X157139640Y-90551000D03*
X162219640Y-88646000D03*
X157139640Y-86741000D03*
X162219640Y-84836000D03*
X157139640Y-82931000D03*
X162219640Y-81026000D03*
X157139640Y-79121000D03*
X162219640Y-77216000D03*
X157139640Y-75311000D03*
X162219640Y-73406000D03*
X157139640Y-71501000D03*
X162219640Y-69596000D03*
X157139640Y-67691000D03*
X162219640Y-65786000D03*
%TD*%
D15*
%TO.C,JP3*%
X138684000Y-87630000D03*
D16*
X138684000Y-85090000D03*
%TD*%
D12*
%TO.C,C3*%
X125222000Y-93980000D03*
D10*
X127222000Y-93980000D03*
%TD*%
D15*
%TO.C,JP6*%
X132334000Y-67310000D03*
D16*
X132334000Y-69850000D03*
%TD*%
D10*
%TO.C,R19*%
X108204000Y-49530000D03*
D11*
X115824000Y-49530000D03*
%TD*%
D10*
%TO.C,R11*%
X114300000Y-66040000D03*
D11*
X121920000Y-66040000D03*
%TD*%
D10*
%TO.C,R4*%
X111252000Y-65532000D03*
D11*
X103632000Y-65532000D03*
%TD*%
D10*
%TO.C,R2*%
X155702000Y-53340000D03*
D11*
X163322000Y-53340000D03*
%TD*%
D10*
%TO.C,R5*%
X111252000Y-71882000D03*
D11*
X103632000Y-71882000D03*
%TD*%
D15*
%TO.C,JP7*%
X132334000Y-87630000D03*
D16*
X132334000Y-85090000D03*
%TD*%
D12*
%TO.C,D1*%
X111252000Y-55626000D03*
D11*
X103632000Y-55626000D03*
%TD*%
D19*
%TO.C,J2*%
X107142000Y-77622000D03*
X107142000Y-102622000D03*
D12*
X107442000Y-84582000D03*
D10*
X107442000Y-87352000D03*
X107442000Y-90122000D03*
X107442000Y-92892000D03*
X107442000Y-95662000D03*
X104602000Y-85967000D03*
X104602000Y-88737000D03*
X104602000Y-91507000D03*
X104602000Y-94277000D03*
%TD*%
D15*
%TO.C,JP5*%
X132334000Y-76190000D03*
D16*
X132334000Y-78730000D03*
%TD*%
D19*
%TO.C,J4*%
X121863000Y-53830000D03*
X146863000Y-53830000D03*
D12*
X130048000Y-55880000D03*
D10*
X132338000Y-55880000D03*
X134628000Y-55880000D03*
X136918000Y-55880000D03*
X139208000Y-55880000D03*
X128903000Y-53900000D03*
X131193000Y-53900000D03*
X133483000Y-53900000D03*
X135773000Y-53900000D03*
X138063000Y-53900000D03*
X130048000Y-51920000D03*
X132338000Y-51920000D03*
X134628000Y-51920000D03*
X136918000Y-51920000D03*
X139208000Y-51920000D03*
%TD*%
%TO.C,R12*%
X114300000Y-73660000D03*
D11*
X121920000Y-73660000D03*
%TD*%
%TO.C,R9*%
X121666000Y-92456000D03*
D10*
X114046000Y-92456000D03*
%TD*%
D15*
%TO.C,JP4*%
X138684000Y-67310000D03*
D16*
X138684000Y-69850000D03*
%TD*%
D15*
%TO.C,JP8*%
X127762000Y-114300000D03*
D16*
X125222000Y-114300000D03*
X122682000Y-114300000D03*
%TD*%
D10*
%TO.C,R6*%
X114280000Y-81160000D03*
D11*
X121900000Y-81160000D03*
%TD*%
D20*
%TO.C,J3*%
X146024000Y-117344000D03*
X136024000Y-113844000D03*
D21*
X141224000Y-121744000D03*
D22*
X145524000Y-110444000D03*
D23*
X138624000Y-114844000D03*
%TD*%
D10*
%TO.C,R15*%
X126238000Y-61976000D03*
D11*
X133858000Y-61976000D03*
%TD*%
D15*
%TO.C,JP1*%
X112268000Y-109474000D03*
D16*
X109728000Y-109474000D03*
X107188000Y-109474000D03*
%TD*%
D10*
%TO.C,R1*%
X113792000Y-96012000D03*
D11*
X121412000Y-96012000D03*
%TD*%
D10*
%TO.C,R20*%
X136398000Y-107442000D03*
D11*
X144018000Y-107442000D03*
%TD*%
D24*
%TO.C,J5*%
X107696000Y-117094000D03*
D25*
X101696000Y-117094000D03*
D26*
X104696000Y-121794000D03*
%TD*%
D10*
%TO.C,R3*%
X111252000Y-58928000D03*
D11*
X103632000Y-58928000D03*
%TD*%
M02*
