M48
; DRILL file {KiCad (6.0.2)} date Sat Nov 12 18:16:01 2022
; FORMAT={-:-/ absolute / inch / decimal}
; #@! TF.CreationDate,2022-11-12T18:16:01-06:00
; #@! TF.GenerationSoftware,Kicad,Pcbnew,(6.0.2)
; #@! TF.FileFunction,Plated,1,2,PTH
FMAT,2
INCH
; #@! TA.AperFunction,Plated,PTH,ViaDrill
T1C0.0157
; #@! TA.AperFunction,Plated,PTH,ComponentDrill
T2C0.0295
; #@! TA.AperFunction,Plated,PTH,ComponentDrill
T3C0.0315
; #@! TA.AperFunction,Plated,PTH,ComponentDrill
T4C0.0394
; #@! TA.AperFunction,Plated,PTH,ComponentDrill
T5C0.0472
; #@! TA.AperFunction,Plated,PTH,ComponentDrill
T6C0.1260
%
G90
G05
T1
X4.17Y-3.86
X5.3Y-2.31
T3
X4.08Y-2.19
X4.08Y-2.32
X4.08Y-2.45
X4.08Y-2.58
X4.08Y-2.71
X4.08Y-2.83
X4.26Y-1.95
X4.26Y-2.07
X4.38Y-2.19
X4.38Y-2.32
X4.38Y-2.45
X4.38Y-2.58
X4.38Y-2.71
X4.38Y-2.83
X4.5Y-2.6
X4.5Y-2.75
X4.5Y-2.9
X4.5Y-3.05
X4.5Y-3.2
X4.5Y-3.35
X4.5Y-3.5
X4.5Y-3.65
X4.56Y-1.95
X4.56Y-2.07
X4.65Y-3.8
X4.8Y-2.6
X4.8Y-2.75
X4.8Y-2.9
X4.8Y-3.05
X4.8Y-3.2
X4.8Y-3.35
X4.8Y-3.5
X4.8Y-3.65
X4.95Y-3.8
X4.97Y-2.44
X5.04Y-2.77
X5.04Y-3.07
X5.07Y-3.72
X5.17Y-3.72
X5.27Y-2.44
X5.27Y-3.72
X5.39Y-4.06
X5.43Y-3.64
X5.43Y-3.94
X5.67Y-2.97
X5.67Y-3.27
X5.69Y-4.06
T4
X4.1182Y-3.3845
X4.1182Y-3.4936
X4.1182Y-3.6026
X4.1182Y-3.7117
X4.23Y-3.33
X4.23Y-3.4391
X4.23Y-3.5481
X4.23Y-3.6572
X4.23Y-3.7662
X4.58Y-4.09
X4.68Y-4.09
X5.0749Y-2.122
X5.12Y-2.0441
X5.12Y-2.2
X5.1651Y-2.122
X5.21Y-2.65
X5.21Y-2.75
X5.21Y-2.9996
X5.21Y-3.0996
X5.21Y-3.35
X5.21Y-3.45
X5.2102Y-2.0441
X5.2102Y-2.2
X5.2552Y-2.122
X5.3003Y-2.0441
X5.3003Y-2.2
X5.3454Y-2.122
X5.3905Y-2.0441
X5.3905Y-2.2
X5.4356Y-2.122
X5.46Y-2.65
X5.46Y-2.75
X5.46Y-3.0
X5.46Y-3.1
X5.46Y-3.35
X5.46Y-3.45
X5.4806Y-2.0441
X5.4806Y-2.2
T5
X6.1866Y-2.665
X6.1866Y-2.815
X6.1866Y-2.965
X6.1866Y-3.115
X6.1866Y-3.265
X6.1866Y-3.415
X6.1866Y-3.565
X6.1866Y-3.715
X6.1866Y-3.865
X6.1866Y-4.015
X6.3866Y-2.59
X6.3866Y-2.74
X6.3866Y-2.89
X6.3866Y-3.04
X6.3866Y-3.19
X6.3866Y-3.34
X6.3866Y-3.49
X6.3866Y-3.64
X6.3866Y-3.79
X6.3866Y-3.94
X6.3866Y-4.09
T6
X4.2182Y-3.056
X4.2182Y-4.0402
X4.7978Y-2.1193
X5.782Y-2.1193
T2
G00X4.8653Y-4.1068
M15
G01X4.8653Y-4.0773
M16
G05
G00X5.0848Y-4.4031
M15
G01X5.0552Y-4.4031
M16
G05
G00X5.259Y-4.2446
M15
G01X5.259Y-4.2151
M16
G05
T4
G00X4.9676Y-4.1413
M15
G01X4.9676Y-4.1216
M16
G05
G00X5.2491Y-3.9582
M15
G01X5.2294Y-3.9582
M16
G05
T0
M30
