%TF.GenerationSoftware,KiCad,Pcbnew,(6.0.2)*%
%TF.CreationDate,2022-12-12T00:50:53-06:00*%
%TF.ProjectId,CGA2SCart,43474132-5343-4617-9274-2e6b69636164,rev?*%
%TF.SameCoordinates,Original*%
%TF.FileFunction,Copper,L2,Bot*%
%TF.FilePolarity,Positive*%
%FSLAX46Y46*%
G04 Gerber Fmt 4.6, Leading zero omitted, Abs format (unit mm)*
G04 Created by KiCad (PCBNEW (6.0.2)) date 2022-12-12 00:50:53*
%MOMM*%
%LPD*%
G01*
G04 APERTURE LIST*
G04 Aperture macros list*
%AMRoundRect*
0 Rectangle with rounded corners*
0 $1 Rounding radius*
0 $2 $3 $4 $5 $6 $7 $8 $9 X,Y pos of 4 corners*
0 Add a 4 corners polygon primitive as box body*
4,1,4,$2,$3,$4,$5,$6,$7,$8,$9,$2,$3,0*
0 Add four circle primitives for the rounded corners*
1,1,$1+$1,$2,$3*
1,1,$1+$1,$4,$5*
1,1,$1+$1,$6,$7*
1,1,$1+$1,$8,$9*
0 Add four rect primitives between the rounded corners*
20,1,$1+$1,$2,$3,$4,$5,0*
20,1,$1+$1,$4,$5,$6,$7,0*
20,1,$1+$1,$6,$7,$8,$9,0*
20,1,$1+$1,$8,$9,$2,$3,0*%
G04 Aperture macros list end*
%TA.AperFunction,ComponentPad*%
%ADD10C,1.600000*%
%TD*%
%TA.AperFunction,ComponentPad*%
%ADD11O,1.600000X1.600000*%
%TD*%
%TA.AperFunction,ComponentPad*%
%ADD12R,1.600000X1.600000*%
%TD*%
%TA.AperFunction,ComponentPad*%
%ADD13R,1.905000X2.000000*%
%TD*%
%TA.AperFunction,ComponentPad*%
%ADD14O,1.905000X2.000000*%
%TD*%
%TA.AperFunction,ComponentPad*%
%ADD15R,1.700000X1.700000*%
%TD*%
%TA.AperFunction,ComponentPad*%
%ADD16O,1.700000X1.700000*%
%TD*%
%TA.AperFunction,WasherPad*%
%ADD17O,4.100000X3.100000*%
%TD*%
%TA.AperFunction,ComponentPad*%
%ADD18C,1.998980*%
%TD*%
%TA.AperFunction,ComponentPad*%
%ADD19C,4.000000*%
%TD*%
%TA.AperFunction,ComponentPad*%
%ADD20O,1.000000X2.000000*%
%TD*%
%TA.AperFunction,ComponentPad*%
%ADD21O,2.000000X1.000000*%
%TD*%
%TA.AperFunction,ComponentPad*%
%ADD22O,2.000000X1.500000*%
%TD*%
%TA.AperFunction,ComponentPad*%
%ADD23O,1.500000X2.000000*%
%TD*%
%TA.AperFunction,ComponentPad*%
%ADD24R,3.500000X3.500000*%
%TD*%
%TA.AperFunction,ComponentPad*%
%ADD25RoundRect,0.750000X-0.750000X-1.000000X0.750000X-1.000000X0.750000X1.000000X-0.750000X1.000000X0*%
%TD*%
%TA.AperFunction,ComponentPad*%
%ADD26RoundRect,0.875000X-0.875000X-0.875000X0.875000X-0.875000X0.875000X0.875000X-0.875000X0.875000X0*%
%TD*%
%TA.AperFunction,ViaPad*%
%ADD27C,0.800000*%
%TD*%
%TA.AperFunction,Conductor*%
%ADD28C,0.350000*%
%TD*%
G04 APERTURE END LIST*
D10*
%TO.P,C5,1*%
%TO.N,+5V*%
X113030000Y-104140000D03*
%TO.P,C5,2*%
%TO.N,GND*%
X113030000Y-99140000D03*
%TD*%
%TO.P,R22,1*%
%TO.N,Net-(J1-Pad8)*%
X132842000Y-113030000D03*
D11*
%TO.P,R22,2*%
%TO.N,+12V*%
X132842000Y-120650000D03*
%TD*%
D12*
%TO.P,C2,1*%
%TO.N,+12V*%
X112522000Y-119888000D03*
D10*
%TO.P,C2,2*%
%TO.N,GND*%
X114522000Y-119888000D03*
%TD*%
%TO.P,R18,1*%
%TO.N,CGA_HSYNC*%
X108204000Y-52578000D03*
D11*
%TO.P,R18,2*%
%TO.N,VGA_HSYNC*%
X115824000Y-52578000D03*
%TD*%
D10*
%TO.P,R17,1*%
%TO.N,VGA_BLUE*%
X128016000Y-70358000D03*
D11*
%TO.P,R17,2*%
%TO.N,Net-(J1-Pad7)*%
X128016000Y-77978000D03*
%TD*%
D10*
%TO.P,R7,1*%
%TO.N,CGA_GREEN*%
X114300000Y-84836000D03*
D11*
%TO.P,R7,2*%
%TO.N,Net-(J1-Pad11)*%
X121920000Y-84836000D03*
%TD*%
D13*
%TO.P,U2,1,VI*%
%TO.N,+12V*%
X125222000Y-119705000D03*
D14*
%TO.P,U2,2,GND*%
%TO.N,GND*%
X122682000Y-119705000D03*
%TO.P,U2,3,VO*%
%TO.N,+5V*%
X120142000Y-119705000D03*
%TD*%
D12*
%TO.P,D2,1,K*%
%TO.N,Net-(D2-Pad1)*%
X111252000Y-62230000D03*
D11*
%TO.P,D2,2,A*%
%TO.N,Net-(D2-Pad2)*%
X103632000Y-62230000D03*
%TD*%
D10*
%TO.P,R16,1*%
%TO.N,VGA_GREEN*%
X143764000Y-69596000D03*
D11*
%TO.P,R16,2*%
%TO.N,Net-(J1-Pad11)*%
X143764000Y-77216000D03*
%TD*%
D15*
%TO.P,JP2,1,A*%
%TO.N,Net-(D1-Pad1)*%
X138684000Y-76200000D03*
D16*
%TO.P,JP2,2,B*%
%TO.N,Net-(J1-Pad7)*%
X138684000Y-78740000D03*
%TD*%
D10*
%TO.P,R21,1*%
%TO.N,Net-(J1-Pad20)*%
X144018000Y-104140000D03*
D11*
%TO.P,R21,2*%
%TO.N,Net-(R21-Pad2)*%
X136398000Y-104140000D03*
%TD*%
D10*
%TO.P,R8,1*%
%TO.N,CGA_RED*%
X114300000Y-77470000D03*
D11*
%TO.P,R8,2*%
%TO.N,Net-(J1-Pad15)*%
X121920000Y-77470000D03*
%TD*%
D10*
%TO.P,R13,1*%
%TO.N,EGA_RED*%
X114300000Y-69850000D03*
D11*
%TO.P,R13,2*%
%TO.N,Net-(JP6-Pad1)*%
X121920000Y-69850000D03*
%TD*%
D12*
%TO.P,C4,1*%
%TO.N,+5V*%
X117348000Y-114554000D03*
D10*
%TO.P,C4,2*%
%TO.N,GND*%
X115348000Y-114554000D03*
%TD*%
D12*
%TO.P,C1,1*%
%TO.N,Net-(C1-Pad1)*%
X132842000Y-98298000D03*
D10*
%TO.P,C1,2*%
%TO.N,GND*%
X132842000Y-96298000D03*
%TD*%
D12*
%TO.P,D3,1,K*%
%TO.N,Net-(D3-Pad1)*%
X111252000Y-68834000D03*
D11*
%TO.P,D3,2,A*%
%TO.N,Net-(D3-Pad2)*%
X103632000Y-68834000D03*
%TD*%
D12*
%TO.P,U1,1*%
%TO.N,Net-(JP1-Pad2)*%
X117597000Y-109718000D03*
D11*
%TO.P,U1,2*%
%TO.N,Net-(U1-Pad11)*%
X120137000Y-109718000D03*
%TO.P,U1,3*%
%TO.N,Net-(U1-Pad3)*%
X122677000Y-109718000D03*
%TO.P,U1,4*%
X125217000Y-109718000D03*
%TO.P,U1,5*%
%TO.N,Net-(JP8-Pad2)*%
X127757000Y-109718000D03*
%TO.P,U1,6*%
%TO.N,Net-(R21-Pad2)*%
X130297000Y-109718000D03*
%TO.P,U1,7,GND*%
%TO.N,GND*%
X132837000Y-109718000D03*
%TO.P,U1,8*%
%TO.N,Net-(JP1-Pad1)*%
X132837000Y-102098000D03*
%TO.P,U1,9*%
%TO.N,Net-(C1-Pad1)*%
X130297000Y-102098000D03*
%TO.P,U1,10*%
%TO.N,CGA_VSYNC*%
X127757000Y-102098000D03*
%TO.P,U1,11*%
%TO.N,Net-(U1-Pad11)*%
X125217000Y-102098000D03*
%TO.P,U1,12*%
%TO.N,Net-(C3-Pad1)*%
X122677000Y-102098000D03*
%TO.P,U1,13*%
%TO.N,CGA_HSYNC*%
X120137000Y-102098000D03*
%TO.P,U1,14,VCC*%
%TO.N,+5V*%
X117597000Y-102098000D03*
%TD*%
D17*
%TO.P,J1,*%
%TO.N,*%
X155140660Y-58336180D03*
X155140660Y-111335820D03*
D18*
%TO.P,J1,1,P1*%
%TO.N,unconnected-(J1-Pad1)*%
X162219640Y-103886000D03*
%TO.P,J1,2,P2*%
%TO.N,Net-(J1-Pad2)*%
X157139640Y-101981000D03*
%TO.P,J1,3,P3*%
%TO.N,unconnected-(J1-Pad3)*%
X162219640Y-100076000D03*
%TO.P,J1,4,P4*%
%TO.N,GND*%
X157139640Y-98171000D03*
%TO.P,J1,5,P5*%
X162219640Y-96266000D03*
%TO.P,J1,6,P6*%
%TO.N,Net-(J1-Pad6)*%
X157139640Y-94361000D03*
%TO.P,J1,7,P7*%
%TO.N,Net-(J1-Pad7)*%
X162219640Y-92456000D03*
%TO.P,J1,8,P8*%
%TO.N,Net-(J1-Pad8)*%
X157139640Y-90551000D03*
%TO.P,J1,9,P9*%
%TO.N,GND*%
X162219640Y-88646000D03*
%TO.P,J1,10,P10*%
%TO.N,unconnected-(J1-Pad10)*%
X157139640Y-86741000D03*
%TO.P,J1,11,P11*%
%TO.N,Net-(J1-Pad11)*%
X162219640Y-84836000D03*
%TO.P,J1,12,P12*%
%TO.N,unconnected-(J1-Pad12)*%
X157139640Y-82931000D03*
%TO.P,J1,13,P13*%
%TO.N,GND*%
X162219640Y-81026000D03*
%TO.P,J1,14,P14*%
%TO.N,unconnected-(J1-Pad14)*%
X157139640Y-79121000D03*
%TO.P,J1,15,P15*%
%TO.N,Net-(J1-Pad15)*%
X162219640Y-77216000D03*
%TO.P,J1,16,P16*%
%TO.N,Net-(J1-Pad16)*%
X157139640Y-75311000D03*
%TO.P,J1,17,P17*%
%TO.N,unconnected-(J1-Pad17)*%
X162219640Y-73406000D03*
%TO.P,J1,18,P18*%
%TO.N,GND*%
X157139640Y-71501000D03*
%TO.P,J1,19,P19*%
%TO.N,unconnected-(J1-Pad19)*%
X162219640Y-69596000D03*
%TO.P,J1,20,P20*%
%TO.N,Net-(J1-Pad20)*%
X157139640Y-67691000D03*
%TO.P,J1,21,P21*%
%TO.N,GND*%
X162219640Y-65786000D03*
%TD*%
D15*
%TO.P,JP3,1,A*%
%TO.N,Net-(D2-Pad1)*%
X138684000Y-87630000D03*
D16*
%TO.P,JP3,2,B*%
%TO.N,Net-(J1-Pad11)*%
X138684000Y-85090000D03*
%TD*%
D12*
%TO.P,C3,1*%
%TO.N,Net-(C3-Pad1)*%
X125222000Y-93980000D03*
D10*
%TO.P,C3,2*%
%TO.N,GND*%
X127222000Y-93980000D03*
%TD*%
D15*
%TO.P,JP6,1,A*%
%TO.N,Net-(JP6-Pad1)*%
X132334000Y-67310000D03*
D16*
%TO.P,JP6,2,B*%
%TO.N,Net-(J1-Pad15)*%
X132334000Y-69850000D03*
%TD*%
D10*
%TO.P,R19,1*%
%TO.N,CGA_VSYNC*%
X108204000Y-49530000D03*
D11*
%TO.P,R19,2*%
%TO.N,VGA_VSYNC*%
X115824000Y-49530000D03*
%TD*%
D10*
%TO.P,R11,1*%
%TO.N,INTENS_EGA_GREEN*%
X114300000Y-66040000D03*
D11*
%TO.P,R11,2*%
%TO.N,Net-(JP7-Pad1)*%
X121920000Y-66040000D03*
%TD*%
D10*
%TO.P,R4,1*%
%TO.N,INTENS_EGA_GREEN*%
X111252000Y-65532000D03*
D11*
%TO.P,R4,2*%
%TO.N,Net-(D2-Pad2)*%
X103632000Y-65532000D03*
%TD*%
D10*
%TO.P,R2,1*%
%TO.N,Net-(J1-Pad16)*%
X155702000Y-53340000D03*
D11*
%TO.P,R2,2*%
%TO.N,+5V*%
X163322000Y-53340000D03*
%TD*%
D10*
%TO.P,R5,1*%
%TO.N,INTENS_EGA_GREEN*%
X111252000Y-71882000D03*
D11*
%TO.P,R5,2*%
%TO.N,Net-(D3-Pad2)*%
X103632000Y-71882000D03*
%TD*%
D15*
%TO.P,JP7,1,A*%
%TO.N,Net-(JP7-Pad1)*%
X132334000Y-87630000D03*
D16*
%TO.P,JP7,2,B*%
%TO.N,Net-(J1-Pad11)*%
X132334000Y-85090000D03*
%TD*%
D12*
%TO.P,D1,1,K*%
%TO.N,Net-(D1-Pad1)*%
X111252000Y-55626000D03*
D11*
%TO.P,D1,2,A*%
%TO.N,Net-(D1-Pad2)*%
X103632000Y-55626000D03*
%TD*%
D19*
%TO.P,J2,0*%
%TO.N,N/C*%
X107142000Y-77622000D03*
X107142000Y-102622000D03*
D12*
%TO.P,J2,1,1*%
%TO.N,GND*%
X107442000Y-84582000D03*
D10*
%TO.P,J2,2,2*%
%TO.N,EGA_RED*%
X107442000Y-87352000D03*
%TO.P,J2,3,3*%
%TO.N,CGA_RED*%
X107442000Y-90122000D03*
%TO.P,J2,4,4*%
%TO.N,CGA_GREEN*%
X107442000Y-92892000D03*
%TO.P,J2,5,5*%
%TO.N,CGA_BLUE*%
X107442000Y-95662000D03*
%TO.P,J2,6,6*%
%TO.N,INTENS_EGA_GREEN*%
X104602000Y-85967000D03*
%TO.P,J2,7,7*%
%TO.N,EGA_BLUE*%
X104602000Y-88737000D03*
%TO.P,J2,8,8*%
%TO.N,CGA_HSYNC*%
X104602000Y-91507000D03*
%TO.P,J2,9,9*%
%TO.N,CGA_VSYNC*%
X104602000Y-94277000D03*
%TD*%
D15*
%TO.P,JP5,1,A*%
%TO.N,Net-(JP5-Pad1)*%
X132334000Y-76190000D03*
D16*
%TO.P,JP5,2,B*%
%TO.N,Net-(J1-Pad7)*%
X132334000Y-78730000D03*
%TD*%
D19*
%TO.P,J4,0*%
%TO.N,N/C*%
X121863000Y-53830000D03*
X146863000Y-53830000D03*
D12*
%TO.P,J4,1*%
%TO.N,VGA_RED*%
X130048000Y-55880000D03*
D10*
%TO.P,J4,2*%
%TO.N,VGA_GREEN*%
X132338000Y-55880000D03*
%TO.P,J4,3*%
%TO.N,VGA_BLUE*%
X134628000Y-55880000D03*
%TO.P,J4,4*%
%TO.N,unconnected-(J4-Pad4)*%
X136918000Y-55880000D03*
%TO.P,J4,5*%
%TO.N,GND*%
X139208000Y-55880000D03*
%TO.P,J4,6*%
X128903000Y-53900000D03*
%TO.P,J4,7*%
X131193000Y-53900000D03*
%TO.P,J4,8*%
X133483000Y-53900000D03*
%TO.P,J4,9*%
%TO.N,unconnected-(J4-Pad9)*%
X135773000Y-53900000D03*
%TO.P,J4,10*%
%TO.N,GND*%
X138063000Y-53900000D03*
%TO.P,J4,11*%
X130048000Y-51920000D03*
%TO.P,J4,12*%
%TO.N,unconnected-(J4-Pad12)*%
X132338000Y-51920000D03*
%TO.P,J4,13*%
%TO.N,VGA_HSYNC*%
X134628000Y-51920000D03*
%TO.P,J4,14*%
%TO.N,VGA_VSYNC*%
X136918000Y-51920000D03*
%TO.P,J4,15*%
%TO.N,unconnected-(J4-Pad15)*%
X139208000Y-51920000D03*
%TD*%
%TO.P,R12,1*%
%TO.N,EGA_BLUE*%
X114300000Y-73660000D03*
D11*
%TO.P,R12,2*%
%TO.N,Net-(JP5-Pad1)*%
X121920000Y-73660000D03*
%TD*%
%TO.P,R9,2*%
%TO.N,Net-(C3-Pad1)*%
X121666000Y-92456000D03*
D10*
%TO.P,R9,1*%
%TO.N,CGA_HSYNC*%
X114046000Y-92456000D03*
%TD*%
D15*
%TO.P,JP4,1,A*%
%TO.N,Net-(D3-Pad1)*%
X138684000Y-67310000D03*
D16*
%TO.P,JP4,2,B*%
%TO.N,Net-(J1-Pad15)*%
X138684000Y-69850000D03*
%TD*%
D15*
%TO.P,JP8,1,A*%
%TO.N,GND*%
X127762000Y-114300000D03*
D16*
%TO.P,JP8,2,C*%
%TO.N,Net-(JP8-Pad2)*%
X125222000Y-114300000D03*
%TO.P,JP8,3,B*%
%TO.N,+5V*%
X122682000Y-114300000D03*
%TD*%
D10*
%TO.P,R6,1*%
%TO.N,CGA_BLUE*%
X114280000Y-81160000D03*
D11*
%TO.P,R6,2*%
%TO.N,Net-(J1-Pad7)*%
X121900000Y-81160000D03*
%TD*%
D20*
%TO.P,J3,1*%
%TO.N,Net-(J1-Pad2)*%
X146024000Y-117344000D03*
%TO.P,J3,2*%
%TO.N,Net-(J1-Pad6)*%
X136024000Y-113844000D03*
D21*
%TO.P,J3,3*%
%TO.N,GND*%
X141224000Y-121744000D03*
D22*
%TO.P,J3,4*%
%TO.N,unconnected-(J3-Pad4)*%
X145524000Y-110444000D03*
D23*
%TO.P,J3,5*%
%TO.N,unconnected-(J3-Pad5)*%
X138624000Y-114844000D03*
%TD*%
D10*
%TO.P,R15,1*%
%TO.N,VGA_RED*%
X126238000Y-61976000D03*
D11*
%TO.P,R15,2*%
%TO.N,Net-(J1-Pad15)*%
X133858000Y-61976000D03*
%TD*%
D15*
%TO.P,JP1,1,A*%
%TO.N,Net-(JP1-Pad1)*%
X112268000Y-109474000D03*
D16*
%TO.P,JP1,2,C*%
%TO.N,Net-(JP1-Pad2)*%
X109728000Y-109474000D03*
%TO.P,JP1,3,B*%
%TO.N,GND*%
X107188000Y-109474000D03*
%TD*%
D10*
%TO.P,R1,1*%
%TO.N,CGA_VSYNC*%
X113792000Y-96012000D03*
D11*
%TO.P,R1,2*%
%TO.N,Net-(C1-Pad1)*%
X121412000Y-96012000D03*
%TD*%
D10*
%TO.P,R20,1*%
%TO.N,GND*%
X136398000Y-107442000D03*
D11*
%TO.P,R20,2*%
%TO.N,Net-(J1-Pad20)*%
X144018000Y-107442000D03*
%TD*%
D24*
%TO.P,J5,1*%
%TO.N,+12V*%
X107696000Y-117094000D03*
D25*
%TO.P,J5,2*%
%TO.N,GND*%
X101696000Y-117094000D03*
D26*
%TO.P,J5,3*%
%TO.N,unconnected-(J5-Pad3)*%
X104696000Y-121794000D03*
%TD*%
D10*
%TO.P,R3,1*%
%TO.N,INTENS_EGA_GREEN*%
X111252000Y-58928000D03*
D11*
%TO.P,R3,2*%
%TO.N,Net-(D1-Pad2)*%
X103632000Y-58928000D03*
%TD*%
D27*
%TO.N,VGA_GREEN*%
X136398000Y-58674000D03*
%TD*%
D28*
%TO.N,+12V*%
X107696000Y-117094000D02*
X109728000Y-117094000D01*
X109728000Y-117094000D02*
X112522000Y-119888000D01*
%TO.N,+5V*%
X113030000Y-105410000D02*
X113030000Y-104140000D01*
X104394000Y-110236000D02*
X104394000Y-107696000D01*
X106172000Y-112014000D02*
X104394000Y-110236000D01*
X114808000Y-112014000D02*
X106172000Y-112014000D01*
X117348000Y-114554000D02*
X114808000Y-112014000D01*
X104394000Y-107696000D02*
X105410000Y-106680000D01*
X105410000Y-106680000D02*
X111760000Y-106680000D01*
X111760000Y-106680000D02*
X113030000Y-105410000D01*
%TO.N,Net-(JP1-Pad2)*%
X116078000Y-111252000D02*
X110490000Y-111252000D01*
X117597000Y-109733000D02*
X116078000Y-111252000D01*
X110490000Y-111252000D02*
X109728000Y-110490000D01*
X117597000Y-109718000D02*
X117597000Y-109733000D01*
X109728000Y-110490000D02*
X109728000Y-109474000D01*
%TO.N,Net-(C1-Pad1)*%
X124211000Y-96012000D02*
X130297000Y-102098000D01*
X121412000Y-96012000D02*
X124211000Y-96012000D01*
%TO.N,Net-(C3-Pad1)*%
X118872000Y-95250000D02*
X121666000Y-92456000D01*
X118618000Y-95250000D02*
X118872000Y-95250000D01*
X118618000Y-96520000D02*
X118618000Y-95250000D01*
X122677000Y-100579000D02*
X118618000Y-96520000D01*
X122677000Y-102098000D02*
X122677000Y-100579000D01*
X125222000Y-93980000D02*
X123190000Y-93980000D01*
X123190000Y-93980000D02*
X121666000Y-92456000D01*
%TO.N,CGA_HSYNC*%
X120137000Y-99817000D02*
X120137000Y-102098000D01*
X114046000Y-92456000D02*
X114046000Y-93726000D01*
X114046000Y-93726000D02*
X120137000Y-99817000D01*
%TO.N,CGA_VSYNC*%
X126243000Y-100584000D02*
X127757000Y-102098000D01*
X124206000Y-100584000D02*
X126243000Y-100584000D01*
X123952000Y-102870000D02*
X123952000Y-100838000D01*
X119634000Y-103886000D02*
X122936000Y-103886000D01*
X118872000Y-103124000D02*
X119634000Y-103886000D01*
X123952000Y-100838000D02*
X124206000Y-100584000D01*
X114046000Y-96012000D02*
X118872000Y-100838000D01*
X122936000Y-103886000D02*
X123952000Y-102870000D01*
X113792000Y-96012000D02*
X114046000Y-96012000D01*
X118872000Y-100838000D02*
X118872000Y-103124000D01*
%TO.N,CGA_HSYNC*%
X109220000Y-97790000D02*
X114046000Y-92964000D01*
X106934000Y-97790000D02*
X109220000Y-97790000D01*
X105918000Y-96774000D02*
X106934000Y-97790000D01*
X105918000Y-92823000D02*
X105918000Y-96774000D01*
X104602000Y-91507000D02*
X105918000Y-92823000D01*
%TO.N,CGA_VSYNC*%
X110490000Y-98806000D02*
X113284000Y-96012000D01*
X105918000Y-98806000D02*
X110490000Y-98806000D01*
X104602000Y-97490000D02*
X105918000Y-98806000D01*
X113284000Y-96012000D02*
X113792000Y-96012000D01*
X104602000Y-94277000D02*
X104602000Y-97490000D01*
%TO.N,Net-(D2-Pad1)*%
X117094000Y-66294000D02*
X113030000Y-62230000D01*
X117094000Y-83058000D02*
X117094000Y-66294000D01*
X113030000Y-62230000D02*
X111252000Y-62230000D01*
X124460000Y-90424000D02*
X117094000Y-83058000D01*
X138684000Y-87884000D02*
X136144000Y-90424000D01*
X136144000Y-90424000D02*
X124460000Y-90424000D01*
X138684000Y-87630000D02*
X138684000Y-87884000D01*
%TO.N,Net-(J1-Pad11)*%
X134112000Y-89662000D02*
X138684000Y-85090000D01*
X125222000Y-89662000D02*
X134112000Y-89662000D01*
X121920000Y-86360000D02*
X125222000Y-89662000D01*
%TO.N,CGA_GREEN*%
X114300000Y-87630000D02*
X114300000Y-84836000D01*
X109038000Y-92892000D02*
X114300000Y-87630000D01*
%TO.N,Net-(J1-Pad11)*%
X121920000Y-84836000D02*
X121920000Y-86360000D01*
%TO.N,CGA_GREEN*%
X107442000Y-92892000D02*
X109038000Y-92892000D01*
%TO.N,CGA_BLUE*%
X115824000Y-82704000D02*
X114280000Y-81160000D01*
X108046000Y-95662000D02*
X115824000Y-87884000D01*
X115824000Y-87884000D02*
X115824000Y-82704000D01*
X107442000Y-95662000D02*
X108046000Y-95662000D01*
%TO.N,Net-(JP7-Pad1)*%
X131282862Y-87630000D02*
X132334000Y-87630000D01*
X118110000Y-80640000D02*
X120274000Y-82804000D01*
X118110000Y-78157138D02*
X118110000Y-80640000D01*
X120274000Y-82804000D02*
X126456862Y-82804000D01*
X126456862Y-82804000D02*
X131282862Y-87630000D01*
X118070480Y-69889520D02*
X118070480Y-78117618D01*
X118070480Y-78117618D02*
X118110000Y-78157138D01*
X121920000Y-66040000D02*
X118070480Y-69889520D01*
%TO.N,Net-(C1-Pad1)*%
X132842000Y-98298000D02*
X130302000Y-100838000D01*
X130302000Y-102093000D02*
X130297000Y-102098000D01*
X130302000Y-100838000D02*
X130302000Y-102093000D01*
%TO.N,Net-(JP1-Pad1)*%
X132837000Y-102367000D02*
X132837000Y-102098000D01*
X131318000Y-103886000D02*
X132837000Y-102367000D01*
X129032000Y-103886000D02*
X131318000Y-103886000D01*
X122428000Y-107696000D02*
X125222000Y-107696000D01*
X121412000Y-108712000D02*
X122428000Y-107696000D01*
X121412000Y-110998000D02*
X121412000Y-108712000D01*
X120904000Y-111506000D02*
X121412000Y-110998000D01*
X119380000Y-111506000D02*
X120904000Y-111506000D01*
X118872000Y-110998000D02*
X119380000Y-111506000D01*
X118872000Y-108643978D02*
X118872000Y-110998000D01*
X118178022Y-107950000D02*
X118872000Y-108643978D01*
X125222000Y-107696000D02*
X129032000Y-103886000D01*
X113792000Y-107950000D02*
X118178022Y-107950000D01*
X112268000Y-109474000D02*
X113792000Y-107950000D01*
%TO.N,Net-(J1-Pad15)*%
X124714000Y-74422000D02*
X121920000Y-77216000D01*
X140208000Y-65278000D02*
X138176000Y-63246000D01*
X128524000Y-74422000D02*
X124714000Y-74422000D01*
X148844000Y-70866000D02*
X140208000Y-70866000D01*
X140208000Y-69088000D02*
X140208000Y-65278000D01*
X162219640Y-77216000D02*
X155194000Y-77216000D01*
X132334000Y-69850000D02*
X132334000Y-70612000D01*
X135128000Y-63246000D02*
X133858000Y-61976000D01*
X155194000Y-77216000D02*
X148844000Y-70866000D01*
X138176000Y-63246000D02*
X135128000Y-63246000D01*
X121920000Y-77216000D02*
X121920000Y-77470000D01*
X140208000Y-70866000D02*
X139192000Y-69850000D01*
X132334000Y-70612000D02*
X128524000Y-74422000D01*
X139446000Y-69850000D02*
X140208000Y-69088000D01*
X132334000Y-69850000D02*
X139446000Y-69850000D01*
%TO.N,Net-(J1-Pad7)*%
X123932000Y-80030000D02*
X125984000Y-77978000D01*
X147828000Y-73406000D02*
X155511500Y-81089500D01*
X138938000Y-78740000D02*
X144272000Y-73406000D01*
X163068000Y-82804000D02*
X164020000Y-83756000D01*
X121900000Y-81160000D02*
X123030000Y-80030000D01*
X158686500Y-81089500D02*
X160401000Y-82804000D01*
X125984000Y-77978000D02*
X128016000Y-77978000D01*
X155511500Y-81089500D02*
X158686500Y-81089500D01*
X128768000Y-78730000D02*
X128016000Y-77978000D01*
X164020000Y-91430000D02*
X162994000Y-92456000D01*
X160401000Y-82804000D02*
X163068000Y-82804000D01*
X123030000Y-80030000D02*
X123932000Y-80030000D01*
X164020000Y-83756000D02*
X164020000Y-91430000D01*
X144272000Y-73406000D02*
X147828000Y-73406000D01*
X132344000Y-78740000D02*
X132334000Y-78730000D01*
X138684000Y-78740000D02*
X138938000Y-78740000D01*
X138684000Y-78740000D02*
X132344000Y-78740000D01*
X132334000Y-78730000D02*
X128768000Y-78730000D01*
%TO.N,EGA_RED*%
X116078000Y-71628000D02*
X114300000Y-69850000D01*
X112522000Y-76454000D02*
X113538000Y-75438000D01*
X116078000Y-74676000D02*
X116078000Y-71628000D01*
X107442000Y-87352000D02*
X109081000Y-85713000D01*
X115316000Y-75438000D02*
X116078000Y-74676000D01*
X113538000Y-75438000D02*
X115316000Y-75438000D01*
X109081000Y-81649000D02*
X112522000Y-78208000D01*
X109081000Y-85713000D02*
X109081000Y-81649000D01*
X112522000Y-78208000D02*
X112522000Y-76454000D01*
%TO.N,CGA_RED*%
X109920000Y-88050000D02*
X109920000Y-81850000D01*
X107848000Y-90122000D02*
X109920000Y-88050000D01*
X107442000Y-90122000D02*
X107848000Y-90122000D01*
X109920000Y-81850000D02*
X114300000Y-77470000D01*
%TO.N,INTENS_EGA_GREEN*%
X110236000Y-74422000D02*
X111252000Y-73406000D01*
X112776000Y-67564000D02*
X114300000Y-66040000D01*
X111760000Y-66040000D02*
X111252000Y-65532000D01*
X110236000Y-78232000D02*
X110236000Y-74422000D01*
X106172000Y-81280000D02*
X107188000Y-81280000D01*
X111252000Y-71882000D02*
X112776000Y-70358000D01*
X109474000Y-63754000D02*
X111252000Y-65532000D01*
X111252000Y-58928000D02*
X110236000Y-58928000D01*
X109474000Y-59690000D02*
X109474000Y-63754000D01*
X104602000Y-82850000D02*
X106172000Y-81280000D01*
X112776000Y-70358000D02*
X112776000Y-67564000D01*
X110236000Y-58928000D02*
X109474000Y-59690000D01*
X111252000Y-73406000D02*
X111252000Y-71882000D01*
X114300000Y-66040000D02*
X111760000Y-66040000D01*
X107188000Y-81280000D02*
X110236000Y-78232000D01*
X104602000Y-85967000D02*
X104602000Y-82850000D01*
%TO.N,+12V*%
X113284000Y-122428000D02*
X123698000Y-122428000D01*
X112522000Y-121666000D02*
X113284000Y-122428000D01*
X125222000Y-119705000D02*
X131897000Y-119705000D01*
X123698000Y-122428000D02*
X125222000Y-120904000D01*
X112522000Y-119888000D02*
X112522000Y-121666000D01*
X125222000Y-120904000D02*
X125222000Y-119705000D01*
X131897000Y-119705000D02*
X132842000Y-120650000D01*
%TO.N,EGA_BLUE*%
X105918000Y-83581138D02*
X111252000Y-78247138D01*
X111252000Y-76708000D02*
X114300000Y-73660000D01*
X104602000Y-88737000D02*
X105918000Y-87421000D01*
X111252000Y-78247138D02*
X111252000Y-76708000D01*
X105918000Y-87421000D02*
X105918000Y-83581138D01*
%TO.N,CGA_HSYNC*%
X101092000Y-54356000D02*
X102870000Y-52578000D01*
X102870000Y-52578000D02*
X108204000Y-52578000D01*
X104602000Y-91507000D02*
X102429000Y-91507000D01*
X102429000Y-91507000D02*
X101092000Y-90170000D01*
X101092000Y-90170000D02*
X101092000Y-54356000D01*
%TO.N,Net-(D1-Pad1)*%
X122530000Y-67690000D02*
X123812000Y-66408000D01*
X116840000Y-64262000D02*
X112776000Y-60198000D01*
X120620000Y-75500000D02*
X122610000Y-75500000D01*
X123812000Y-64884000D02*
X123190000Y-64262000D01*
X130352000Y-73610000D02*
X128778000Y-75184000D01*
X122438000Y-78730000D02*
X120810000Y-78730000D01*
X119990000Y-76130000D02*
X120620000Y-75500000D01*
X112776000Y-60198000D02*
X112776000Y-57150000D01*
X138684000Y-76200000D02*
X138684000Y-75692000D01*
X122610000Y-75500000D02*
X123960000Y-74150000D01*
X120960000Y-71640000D02*
X120050000Y-70730000D01*
X120050000Y-70730000D02*
X120050000Y-69200000D01*
X128778000Y-75184000D02*
X125984000Y-75184000D01*
X125984000Y-75184000D02*
X122438000Y-78730000D01*
X112776000Y-57150000D02*
X111252000Y-55626000D01*
X138684000Y-75692000D02*
X136602000Y-73610000D01*
X116840000Y-64262000D02*
X123190000Y-64262000D01*
X121560000Y-67690000D02*
X122530000Y-67690000D01*
X123960000Y-72780000D02*
X122820000Y-71640000D01*
X119990000Y-77910000D02*
X119990000Y-76130000D01*
X136602000Y-73610000D02*
X130352000Y-73610000D01*
X123812000Y-66408000D02*
X123812000Y-64884000D01*
X122820000Y-71640000D02*
X120960000Y-71640000D01*
X120050000Y-69200000D02*
X121560000Y-67690000D01*
X120810000Y-78730000D02*
X119990000Y-77910000D01*
X123960000Y-74150000D02*
X123960000Y-72780000D01*
%TO.N,Net-(D1-Pad2)*%
X103632000Y-58928000D02*
X103632000Y-55626000D01*
%TO.N,CGA_VSYNC*%
X102151000Y-94277000D02*
X99822000Y-91948000D01*
X99822000Y-52832000D02*
X103124000Y-49530000D01*
X103124000Y-49530000D02*
X108204000Y-49530000D01*
X104602000Y-94277000D02*
X102151000Y-94277000D01*
X99822000Y-91948000D02*
X99822000Y-52832000D01*
%TO.N,VGA_RED*%
X130048000Y-57150000D02*
X126238000Y-60960000D01*
X130048000Y-55880000D02*
X130048000Y-57150000D01*
X126238000Y-60960000D02*
X126238000Y-61976000D01*
%TO.N,Net-(J1-Pad2)*%
X149610000Y-117344000D02*
X146024000Y-117344000D01*
X151384000Y-107736640D02*
X151384000Y-115570000D01*
X151384000Y-115570000D02*
X149610000Y-117344000D01*
X157139640Y-101981000D02*
X151384000Y-107736640D01*
%TO.N,Net-(J1-Pad6)*%
X148590000Y-112014000D02*
X149352000Y-111252000D01*
X149352000Y-111252000D02*
X149352000Y-102148640D01*
X149352000Y-102148640D02*
X157139640Y-94361000D01*
X136024000Y-113844000D02*
X136600000Y-113844000D01*
X136600000Y-113844000D02*
X138430000Y-112014000D01*
X138430000Y-112014000D02*
X148590000Y-112014000D01*
%TO.N,Net-(J1-Pad11)*%
X155448000Y-84836000D02*
X162219640Y-84836000D01*
X138684000Y-85090000D02*
X139700000Y-84074000D01*
X143764000Y-77216000D02*
X149606000Y-77216000D01*
X152908000Y-80518000D02*
X152908000Y-82296000D01*
X152908000Y-82296000D02*
X155448000Y-84836000D01*
X138684000Y-85090000D02*
X132334000Y-85090000D01*
X139700000Y-81280000D02*
X143764000Y-77216000D01*
X149606000Y-77216000D02*
X152908000Y-80518000D01*
X139700000Y-84074000D02*
X139700000Y-81280000D01*
%TO.N,Net-(J1-Pad16)*%
X157139640Y-75311000D02*
X150876000Y-69047360D01*
X150876000Y-69047360D02*
X150876000Y-56388000D01*
X150876000Y-56388000D02*
X153924000Y-53340000D01*
X153924000Y-53340000D02*
X155702000Y-53340000D01*
%TO.N,VGA_GREEN*%
X137414000Y-58674000D02*
X144018000Y-65278000D01*
X144018000Y-69342000D02*
X143764000Y-69596000D01*
X144018000Y-65278000D02*
X144018000Y-69342000D01*
X136398000Y-58674000D02*
X137414000Y-58674000D01*
%TO.N,VGA_BLUE*%
X128016000Y-70358000D02*
X128016000Y-63246000D01*
X134628000Y-56634000D02*
X134628000Y-55880000D01*
X128016000Y-63246000D02*
X134628000Y-56634000D01*
%TO.N,VGA_HSYNC*%
X132746000Y-50038000D02*
X134628000Y-51920000D01*
X115824000Y-52578000D02*
X118364000Y-50038000D01*
X118364000Y-50038000D02*
X132746000Y-50038000D01*
%TO.N,VGA_VSYNC*%
X134020000Y-49022000D02*
X136918000Y-51920000D01*
X116332000Y-49022000D02*
X134020000Y-49022000D01*
X115824000Y-49530000D02*
X116332000Y-49022000D01*
%TO.N,Net-(D2-Pad2)*%
X103632000Y-65532000D02*
X103632000Y-62230000D01*
%TO.N,Net-(D3-Pad1)*%
X108712000Y-66294000D02*
X108712000Y-55626000D01*
X113538000Y-55118000D02*
X113538000Y-59690000D01*
X110236000Y-54102000D02*
X112522000Y-54102000D01*
X129540000Y-71374000D02*
X129540000Y-66802000D01*
X138684000Y-66040000D02*
X138684000Y-67310000D01*
X131382000Y-64960000D02*
X137604000Y-64960000D01*
X123698000Y-63500000D02*
X124460000Y-64262000D01*
X117348000Y-63500000D02*
X123698000Y-63500000D01*
X124460000Y-64262000D02*
X124460000Y-70866000D01*
X126492000Y-72898000D02*
X128016000Y-72898000D01*
X129540000Y-66802000D02*
X131382000Y-64960000D01*
X137604000Y-64960000D02*
X138684000Y-66040000D01*
X113538000Y-59690000D02*
X117348000Y-63500000D01*
X124460000Y-70866000D02*
X126492000Y-72898000D01*
X112522000Y-54102000D02*
X113538000Y-55118000D01*
X108712000Y-55626000D02*
X110236000Y-54102000D01*
X128016000Y-72898000D02*
X129540000Y-71374000D01*
X111252000Y-68834000D02*
X108712000Y-66294000D01*
%TO.N,Net-(D3-Pad2)*%
X103632000Y-71882000D02*
X103632000Y-68834000D01*
%TO.N,Net-(JP6-Pad1)*%
X122174000Y-69850000D02*
X121920000Y-69850000D01*
X125984000Y-73660000D02*
X122174000Y-69850000D01*
X130302000Y-68834000D02*
X130302000Y-71755000D01*
X130302000Y-71755000D02*
X128397000Y-73660000D01*
X132334000Y-67310000D02*
X131826000Y-67310000D01*
X128397000Y-73660000D02*
X125984000Y-73660000D01*
X131826000Y-67310000D02*
X130302000Y-68834000D01*
%TO.N,Net-(JP5-Pad1)*%
X126825000Y-75946000D02*
X128524000Y-75946000D01*
X120460000Y-73660000D02*
X118620000Y-75500000D01*
X128768000Y-76190000D02*
X132334000Y-76190000D01*
X120140000Y-79410000D02*
X123361000Y-79410000D01*
X121920000Y-73660000D02*
X120460000Y-73660000D01*
X118620000Y-77890000D02*
X120140000Y-79410000D01*
X123361000Y-79410000D02*
X126825000Y-75946000D01*
X128524000Y-75946000D02*
X128768000Y-76190000D01*
X118620000Y-75500000D02*
X118620000Y-77890000D01*
%TO.N,+5V*%
X122682000Y-114300000D02*
X117602000Y-114300000D01*
X120015000Y-117221000D02*
X137287000Y-117221000D01*
X120015000Y-117221000D02*
X117348000Y-114554000D01*
X165354000Y-112014000D02*
X165354000Y-55372000D01*
X157480000Y-119888000D02*
X165354000Y-112014000D01*
X137287000Y-117221000D02*
X139954000Y-119888000D01*
X139954000Y-119888000D02*
X157480000Y-119888000D01*
X120142000Y-117348000D02*
X120015000Y-117221000D01*
X115072000Y-102098000D02*
X113030000Y-104140000D01*
X165354000Y-55372000D02*
X163322000Y-53340000D01*
X120142000Y-119705000D02*
X120142000Y-117348000D01*
X117602000Y-114300000D02*
X117348000Y-114554000D01*
X117597000Y-102098000D02*
X115072000Y-102098000D01*
%TO.N,Net-(R21-Pad2)*%
X130297000Y-108209000D02*
X134366000Y-104140000D01*
X134366000Y-104140000D02*
X136398000Y-104140000D01*
X130297000Y-109718000D02*
X130297000Y-108209000D01*
%TO.N,Net-(U1-Pad11)*%
X125217000Y-102098000D02*
X125217000Y-103383000D01*
X120137000Y-108463000D02*
X120137000Y-109718000D01*
X125217000Y-103383000D02*
X120137000Y-108463000D01*
%TO.N,Net-(U1-Pad3)*%
X125217000Y-109718000D02*
X122677000Y-109718000D01*
%TO.N,Net-(JP8-Pad2)*%
X127757000Y-111003000D02*
X125222000Y-113538000D01*
X127757000Y-109718000D02*
X127757000Y-111003000D01*
X125222000Y-113538000D02*
X125222000Y-114300000D01*
%TO.N,Net-(J1-Pad20)*%
X159766000Y-92964000D02*
X161036000Y-94234000D01*
X161036000Y-94234000D02*
X164084000Y-94234000D01*
X164640000Y-93678000D02*
X164640000Y-69390000D01*
X158242000Y-88646000D02*
X159766000Y-90170000D01*
X164640000Y-69390000D02*
X162941000Y-67691000D01*
X144018000Y-104140000D02*
X144018000Y-107442000D01*
X164084000Y-94234000D02*
X164640000Y-93678000D01*
X159766000Y-90170000D02*
X159766000Y-92964000D01*
X144018000Y-95250000D02*
X150622000Y-88646000D01*
X162941000Y-67691000D02*
X157139640Y-67691000D01*
X150622000Y-88646000D02*
X158242000Y-88646000D01*
X144018000Y-104140000D02*
X144018000Y-95250000D01*
%TO.N,Net-(J1-Pad8)*%
X151257000Y-90551000D02*
X157139640Y-90551000D01*
X133350000Y-113030000D02*
X137414000Y-108966000D01*
X146050000Y-95758000D02*
X151257000Y-90551000D01*
X132842000Y-113030000D02*
X133350000Y-113030000D01*
X146050000Y-107696000D02*
X146050000Y-95758000D01*
X137414000Y-108966000D02*
X144780000Y-108966000D01*
X144780000Y-108966000D02*
X146050000Y-107696000D01*
%TD*%
M02*
