%TF.GenerationSoftware,KiCad,Pcbnew,(6.0.2)*%
%TF.CreationDate,2022-11-11T21:19:41-06:00*%
%TF.ProjectId,CGA2SCart,43474132-5343-4617-9274-2e6b69636164,rev?*%
%TF.SameCoordinates,Original*%
%TF.FileFunction,Legend,Top*%
%TF.FilePolarity,Positive*%
%FSLAX46Y46*%
G04 Gerber Fmt 4.6, Leading zero omitted, Abs format (unit mm)*
G04 Created by KiCad (PCBNEW (6.0.2)) date 2022-11-11 21:19:41*
%MOMM*%
%LPD*%
G01*
G04 APERTURE LIST*
%ADD10C,0.150000*%
%ADD11C,0.304800*%
%ADD12C,0.120000*%
%ADD13C,0.381000*%
%ADD14C,0.100000*%
%ADD15O,4.100000X3.100000*%
G04 APERTURE END LIST*
D10*
X135056571Y-89931428D02*
X135056571Y-89598095D01*
X135580380Y-89455238D02*
X135580380Y-89931428D01*
X134580380Y-89931428D01*
X134580380Y-89455238D01*
X134628000Y-88502857D02*
X134580380Y-88598095D01*
X134580380Y-88740952D01*
X134628000Y-88883809D01*
X134723238Y-88979047D01*
X134818476Y-89026666D01*
X135008952Y-89074285D01*
X135151809Y-89074285D01*
X135342285Y-89026666D01*
X135437523Y-88979047D01*
X135532761Y-88883809D01*
X135580380Y-88740952D01*
X135580380Y-88645714D01*
X135532761Y-88502857D01*
X135485142Y-88455238D01*
X135151809Y-88455238D01*
X135151809Y-88645714D01*
X135294666Y-88074285D02*
X135294666Y-87598095D01*
X135580380Y-88169523D02*
X134580380Y-87836190D01*
X135580380Y-87502857D01*
X134628000Y-86645714D02*
X134580380Y-86740952D01*
X134580380Y-86883809D01*
X134628000Y-87026666D01*
X134723238Y-87121904D01*
X134818476Y-87169523D01*
X135008952Y-87217142D01*
X135151809Y-87217142D01*
X135342285Y-87169523D01*
X135437523Y-87121904D01*
X135532761Y-87026666D01*
X135580380Y-86883809D01*
X135580380Y-86788571D01*
X135532761Y-86645714D01*
X135485142Y-86598095D01*
X135151809Y-86598095D01*
X135151809Y-86788571D01*
X135580380Y-85598095D02*
X135104190Y-85931428D01*
X135580380Y-86169523D02*
X134580380Y-86169523D01*
X134580380Y-85788571D01*
X134628000Y-85693333D01*
X134675619Y-85645714D01*
X134770857Y-85598095D01*
X134913714Y-85598095D01*
X135008952Y-85645714D01*
X135056571Y-85693333D01*
X135104190Y-85788571D01*
X135104190Y-86169523D01*
X135056571Y-85169523D02*
X135056571Y-84836190D01*
X135580380Y-84693333D02*
X135580380Y-85169523D01*
X134580380Y-85169523D01*
X134580380Y-84693333D01*
X135056571Y-84264761D02*
X135056571Y-83931428D01*
X135580380Y-83788571D02*
X135580380Y-84264761D01*
X134580380Y-84264761D01*
X134580380Y-83788571D01*
X135580380Y-83360000D02*
X134580380Y-83360000D01*
X135580380Y-82788571D01*
X134580380Y-82788571D01*
X134802571Y-71175238D02*
X134802571Y-70841904D01*
X135326380Y-70699047D02*
X135326380Y-71175238D01*
X134326380Y-71175238D01*
X134326380Y-70699047D01*
X134374000Y-69746666D02*
X134326380Y-69841904D01*
X134326380Y-69984761D01*
X134374000Y-70127619D01*
X134469238Y-70222857D01*
X134564476Y-70270476D01*
X134754952Y-70318095D01*
X134897809Y-70318095D01*
X135088285Y-70270476D01*
X135183523Y-70222857D01*
X135278761Y-70127619D01*
X135326380Y-69984761D01*
X135326380Y-69889523D01*
X135278761Y-69746666D01*
X135231142Y-69699047D01*
X134897809Y-69699047D01*
X134897809Y-69889523D01*
X135040666Y-69318095D02*
X135040666Y-68841904D01*
X135326380Y-69413333D02*
X134326380Y-69080000D01*
X135326380Y-68746666D01*
X135326380Y-67841904D02*
X134850190Y-68175238D01*
X135326380Y-68413333D02*
X134326380Y-68413333D01*
X134326380Y-68032380D01*
X134374000Y-67937142D01*
X134421619Y-67889523D01*
X134516857Y-67841904D01*
X134659714Y-67841904D01*
X134754952Y-67889523D01*
X134802571Y-67937142D01*
X134850190Y-68032380D01*
X134850190Y-68413333D01*
X134802571Y-67413333D02*
X134802571Y-67080000D01*
X135326380Y-66937142D02*
X135326380Y-67413333D01*
X134326380Y-67413333D01*
X134326380Y-66937142D01*
X135326380Y-66508571D02*
X134326380Y-66508571D01*
X134326380Y-66270476D01*
X134374000Y-66127619D01*
X134469238Y-66032380D01*
X134564476Y-65984761D01*
X134754952Y-65937142D01*
X134897809Y-65937142D01*
X135088285Y-65984761D01*
X135183523Y-66032380D01*
X135278761Y-66127619D01*
X135326380Y-66270476D01*
X135326380Y-66508571D01*
X141930380Y-70429142D02*
X140930380Y-70429142D01*
X141930380Y-69952952D02*
X140930380Y-69952952D01*
X141930380Y-69381523D01*
X140930380Y-69381523D01*
X140930380Y-69048190D02*
X140930380Y-68476761D01*
X141930380Y-68762476D02*
X140930380Y-68762476D01*
X141406571Y-68143428D02*
X141406571Y-67810095D01*
X141930380Y-67667238D02*
X141930380Y-68143428D01*
X140930380Y-68143428D01*
X140930380Y-67667238D01*
X141930380Y-67238666D02*
X140930380Y-67238666D01*
X141930380Y-66667238D01*
X140930380Y-66667238D01*
X141882761Y-66238666D02*
X141930380Y-66095809D01*
X141930380Y-65857714D01*
X141882761Y-65762476D01*
X141835142Y-65714857D01*
X141739904Y-65667238D01*
X141644666Y-65667238D01*
X141549428Y-65714857D01*
X141501809Y-65762476D01*
X141454190Y-65857714D01*
X141406571Y-66048190D01*
X141358952Y-66143428D01*
X141311333Y-66191047D01*
X141216095Y-66238666D01*
X141120857Y-66238666D01*
X141025619Y-66191047D01*
X140978000Y-66143428D01*
X140930380Y-66048190D01*
X140930380Y-65810095D01*
X140978000Y-65667238D01*
X164238095Y-65267619D02*
X164285714Y-65220000D01*
X164380952Y-65172380D01*
X164619047Y-65172380D01*
X164714285Y-65220000D01*
X164761904Y-65267619D01*
X164809523Y-65362857D01*
X164809523Y-65458095D01*
X164761904Y-65600952D01*
X164190476Y-66172380D01*
X164809523Y-66172380D01*
X165761904Y-66172380D02*
X165190476Y-66172380D01*
X165476190Y-66172380D02*
X165476190Y-65172380D01*
X165380952Y-65315238D01*
X165285714Y-65410476D01*
X165190476Y-65458095D01*
X165163523Y-89098380D02*
X165354000Y-89098380D01*
X165449238Y-89050761D01*
X165496857Y-89003142D01*
X165592095Y-88860285D01*
X165639714Y-88669809D01*
X165639714Y-88288857D01*
X165592095Y-88193619D01*
X165544476Y-88146000D01*
X165449238Y-88098380D01*
X165258761Y-88098380D01*
X165163523Y-88146000D01*
X165115904Y-88193619D01*
X165068285Y-88288857D01*
X165068285Y-88526952D01*
X165115904Y-88622190D01*
X165163523Y-88669809D01*
X165258761Y-88717428D01*
X165449238Y-88717428D01*
X165544476Y-88669809D01*
X165592095Y-88622190D01*
X165639714Y-88526952D01*
X154449523Y-75832380D02*
X153878095Y-75832380D01*
X154163809Y-75832380D02*
X154163809Y-74832380D01*
X154068571Y-74975238D01*
X153973333Y-75070476D01*
X153878095Y-75118095D01*
X155306666Y-74832380D02*
X155116190Y-74832380D01*
X155020952Y-74880000D01*
X154973333Y-74927619D01*
X154878095Y-75070476D01*
X154830476Y-75260952D01*
X154830476Y-75641904D01*
X154878095Y-75737142D01*
X154925714Y-75784761D01*
X155020952Y-75832380D01*
X155211428Y-75832380D01*
X155306666Y-75784761D01*
X155354285Y-75737142D01*
X155401904Y-75641904D01*
X155401904Y-75403809D01*
X155354285Y-75308571D01*
X155306666Y-75260952D01*
X155211428Y-75213333D01*
X155020952Y-75213333D01*
X154925714Y-75260952D01*
X154878095Y-75308571D01*
X154830476Y-75403809D01*
X141930380Y-79827142D02*
X140930380Y-79827142D01*
X141930380Y-79350952D02*
X140930380Y-79350952D01*
X141930380Y-78779523D01*
X140930380Y-78779523D01*
X140930380Y-78446190D02*
X140930380Y-77874761D01*
X141930380Y-78160476D02*
X140930380Y-78160476D01*
X141406571Y-77541428D02*
X141406571Y-77208095D01*
X141930380Y-77065238D02*
X141930380Y-77541428D01*
X140930380Y-77541428D01*
X140930380Y-77065238D01*
X141930380Y-76636666D02*
X140930380Y-76636666D01*
X141930380Y-76065238D01*
X140930380Y-76065238D01*
X141882761Y-75636666D02*
X141930380Y-75493809D01*
X141930380Y-75255714D01*
X141882761Y-75160476D01*
X141835142Y-75112857D01*
X141739904Y-75065238D01*
X141644666Y-75065238D01*
X141549428Y-75112857D01*
X141501809Y-75160476D01*
X141454190Y-75255714D01*
X141406571Y-75446190D01*
X141358952Y-75541428D01*
X141311333Y-75589047D01*
X141216095Y-75636666D01*
X141120857Y-75636666D01*
X141025619Y-75589047D01*
X140978000Y-75541428D01*
X140930380Y-75446190D01*
X140930380Y-75208095D01*
X140978000Y-75065238D01*
X164655523Y-77562380D02*
X164084095Y-77562380D01*
X164369809Y-77562380D02*
X164369809Y-76562380D01*
X164274571Y-76705238D01*
X164179333Y-76800476D01*
X164084095Y-76848095D01*
X165560285Y-76562380D02*
X165084095Y-76562380D01*
X165036476Y-77038571D01*
X165084095Y-76990952D01*
X165179333Y-76943333D01*
X165417428Y-76943333D01*
X165512666Y-76990952D01*
X165560285Y-77038571D01*
X165607904Y-77133809D01*
X165607904Y-77371904D01*
X165560285Y-77467142D01*
X165512666Y-77514761D01*
X165417428Y-77562380D01*
X165179333Y-77562380D01*
X165084095Y-77514761D01*
X165036476Y-77467142D01*
X155110476Y-98035714D02*
X155110476Y-98702380D01*
X154872380Y-97654761D02*
X154634285Y-98369047D01*
X155253333Y-98369047D01*
X164669523Y-85262380D02*
X164098095Y-85262380D01*
X164383809Y-85262380D02*
X164383809Y-84262380D01*
X164288571Y-84405238D01*
X164193333Y-84500476D01*
X164098095Y-84548095D01*
X165621904Y-85262380D02*
X165050476Y-85262380D01*
X165336190Y-85262380D02*
X165336190Y-84262380D01*
X165240952Y-84405238D01*
X165145714Y-84500476D01*
X165050476Y-84548095D01*
X163328095Y-95542380D02*
X162851904Y-95542380D01*
X162804285Y-96018571D01*
X162851904Y-95970952D01*
X162947142Y-95923333D01*
X163185238Y-95923333D01*
X163280476Y-95970952D01*
X163328095Y-96018571D01*
X163375714Y-96113809D01*
X163375714Y-96351904D01*
X163328095Y-96447142D01*
X163280476Y-96494761D01*
X163185238Y-96542380D01*
X162947142Y-96542380D01*
X162851904Y-96494761D01*
X162804285Y-96447142D01*
X154764285Y-101577619D02*
X154811904Y-101530000D01*
X154907142Y-101482380D01*
X155145238Y-101482380D01*
X155240476Y-101530000D01*
X155288095Y-101577619D01*
X155335714Y-101672857D01*
X155335714Y-101768095D01*
X155288095Y-101910952D01*
X154716666Y-102482380D01*
X155335714Y-102482380D01*
X162676666Y-91872380D02*
X163343333Y-91872380D01*
X162914761Y-92872380D01*
X151342380Y-53191428D02*
X152342380Y-52858095D01*
X151342380Y-52524761D01*
X151390000Y-51667619D02*
X151342380Y-51762857D01*
X151342380Y-51905714D01*
X151390000Y-52048571D01*
X151485238Y-52143809D01*
X151580476Y-52191428D01*
X151770952Y-52239047D01*
X151913809Y-52239047D01*
X152104285Y-52191428D01*
X152199523Y-52143809D01*
X152294761Y-52048571D01*
X152342380Y-51905714D01*
X152342380Y-51810476D01*
X152294761Y-51667619D01*
X152247142Y-51620000D01*
X151913809Y-51620000D01*
X151913809Y-51810476D01*
X152056666Y-51239047D02*
X152056666Y-50762857D01*
X152342380Y-51334285D02*
X151342380Y-51000952D01*
X152342380Y-50667619D01*
X151818571Y-49239047D02*
X151818571Y-49572380D01*
X152342380Y-49572380D02*
X151342380Y-49572380D01*
X151342380Y-49096190D01*
X153708095Y-67257619D02*
X153755714Y-67210000D01*
X153850952Y-67162380D01*
X154089047Y-67162380D01*
X154184285Y-67210000D01*
X154231904Y-67257619D01*
X154279523Y-67352857D01*
X154279523Y-67448095D01*
X154231904Y-67590952D01*
X153660476Y-68162380D01*
X154279523Y-68162380D01*
X154898571Y-67162380D02*
X154993809Y-67162380D01*
X155089047Y-67210000D01*
X155136666Y-67257619D01*
X155184285Y-67352857D01*
X155231904Y-67543333D01*
X155231904Y-67781428D01*
X155184285Y-67971904D01*
X155136666Y-68067142D01*
X155089047Y-68114761D01*
X154993809Y-68162380D01*
X154898571Y-68162380D01*
X154803333Y-68114761D01*
X154755714Y-68067142D01*
X154708095Y-67971904D01*
X154660476Y-67781428D01*
X154660476Y-67543333D01*
X154708095Y-67352857D01*
X154755714Y-67257619D01*
X154803333Y-67210000D01*
X154898571Y-67162380D01*
X101751904Y-107924142D02*
X101704285Y-107971761D01*
X101561428Y-108019380D01*
X101466190Y-108019380D01*
X101323333Y-107971761D01*
X101228095Y-107876523D01*
X101180476Y-107781285D01*
X101132857Y-107590809D01*
X101132857Y-107447952D01*
X101180476Y-107257476D01*
X101228095Y-107162238D01*
X101323333Y-107067000D01*
X101466190Y-107019380D01*
X101561428Y-107019380D01*
X101704285Y-107067000D01*
X101751904Y-107114619D01*
X102704285Y-107067000D02*
X102609047Y-107019380D01*
X102466190Y-107019380D01*
X102323333Y-107067000D01*
X102228095Y-107162238D01*
X102180476Y-107257476D01*
X102132857Y-107447952D01*
X102132857Y-107590809D01*
X102180476Y-107781285D01*
X102228095Y-107876523D01*
X102323333Y-107971761D01*
X102466190Y-108019380D01*
X102561428Y-108019380D01*
X102704285Y-107971761D01*
X102751904Y-107924142D01*
X102751904Y-107590809D01*
X102561428Y-107590809D01*
X103132857Y-107733666D02*
X103609047Y-107733666D01*
X103037619Y-108019380D02*
X103370952Y-107019380D01*
X103704285Y-108019380D01*
X104751904Y-106971761D02*
X103894761Y-108257476D01*
X105085238Y-107495571D02*
X105418571Y-107495571D01*
X105561428Y-108019380D02*
X105085238Y-108019380D01*
X105085238Y-107019380D01*
X105561428Y-107019380D01*
X106513809Y-107067000D02*
X106418571Y-107019380D01*
X106275714Y-107019380D01*
X106132857Y-107067000D01*
X106037619Y-107162238D01*
X105990000Y-107257476D01*
X105942380Y-107447952D01*
X105942380Y-107590809D01*
X105990000Y-107781285D01*
X106037619Y-107876523D01*
X106132857Y-107971761D01*
X106275714Y-108019380D01*
X106370952Y-108019380D01*
X106513809Y-107971761D01*
X106561428Y-107924142D01*
X106561428Y-107590809D01*
X106370952Y-107590809D01*
X106942380Y-107733666D02*
X107418571Y-107733666D01*
X106847142Y-108019380D02*
X107180476Y-107019380D01*
X107513809Y-108019380D01*
X108466190Y-107019380D02*
X109037619Y-107019380D01*
X108751904Y-108019380D02*
X108751904Y-107019380D01*
X109561428Y-107019380D02*
X109751904Y-107019380D01*
X109847142Y-107067000D01*
X109942380Y-107162238D01*
X109990000Y-107352714D01*
X109990000Y-107686047D01*
X109942380Y-107876523D01*
X109847142Y-107971761D01*
X109751904Y-108019380D01*
X109561428Y-108019380D01*
X109466190Y-107971761D01*
X109370952Y-107876523D01*
X109323333Y-107686047D01*
X109323333Y-107352714D01*
X109370952Y-107162238D01*
X109466190Y-107067000D01*
X109561428Y-107019380D01*
X111132857Y-107971761D02*
X111275714Y-108019380D01*
X111513809Y-108019380D01*
X111609047Y-107971761D01*
X111656666Y-107924142D01*
X111704285Y-107828904D01*
X111704285Y-107733666D01*
X111656666Y-107638428D01*
X111609047Y-107590809D01*
X111513809Y-107543190D01*
X111323333Y-107495571D01*
X111228095Y-107447952D01*
X111180476Y-107400333D01*
X111132857Y-107305095D01*
X111132857Y-107209857D01*
X111180476Y-107114619D01*
X111228095Y-107067000D01*
X111323333Y-107019380D01*
X111561428Y-107019380D01*
X111704285Y-107067000D01*
X112704285Y-107924142D02*
X112656666Y-107971761D01*
X112513809Y-108019380D01*
X112418571Y-108019380D01*
X112275714Y-107971761D01*
X112180476Y-107876523D01*
X112132857Y-107781285D01*
X112085238Y-107590809D01*
X112085238Y-107447952D01*
X112132857Y-107257476D01*
X112180476Y-107162238D01*
X112275714Y-107067000D01*
X112418571Y-107019380D01*
X112513809Y-107019380D01*
X112656666Y-107067000D01*
X112704285Y-107114619D01*
X113085238Y-107733666D02*
X113561428Y-107733666D01*
X112990000Y-108019380D02*
X113323333Y-107019380D01*
X113656666Y-108019380D01*
X114561428Y-108019380D02*
X114228095Y-107543190D01*
X113990000Y-108019380D02*
X113990000Y-107019380D01*
X114370952Y-107019380D01*
X114466190Y-107067000D01*
X114513809Y-107114619D01*
X114561428Y-107209857D01*
X114561428Y-107352714D01*
X114513809Y-107447952D01*
X114466190Y-107495571D01*
X114370952Y-107543190D01*
X113990000Y-107543190D01*
X114847142Y-107019380D02*
X115418571Y-107019380D01*
X115132857Y-108019380D02*
X115132857Y-107019380D01*
X116466190Y-106971761D02*
X115609047Y-108257476D01*
X116656666Y-107019380D02*
X116990000Y-108019380D01*
X117323333Y-107019380D01*
X118180476Y-107067000D02*
X118085238Y-107019380D01*
X117942380Y-107019380D01*
X117799523Y-107067000D01*
X117704285Y-107162238D01*
X117656666Y-107257476D01*
X117609047Y-107447952D01*
X117609047Y-107590809D01*
X117656666Y-107781285D01*
X117704285Y-107876523D01*
X117799523Y-107971761D01*
X117942380Y-108019380D01*
X118037619Y-108019380D01*
X118180476Y-107971761D01*
X118228095Y-107924142D01*
X118228095Y-107590809D01*
X118037619Y-107590809D01*
X118609047Y-107733666D02*
X119085238Y-107733666D01*
X118513809Y-108019380D02*
X118847142Y-107019380D01*
X119180476Y-108019380D01*
X102561428Y-109343666D02*
X103037619Y-109343666D01*
X102466190Y-109629380D02*
X102799523Y-108629380D01*
X103132857Y-109629380D01*
X103466190Y-109629380D02*
X103466190Y-108629380D01*
X103704285Y-108629380D01*
X103847142Y-108677000D01*
X103942380Y-108772238D01*
X103989999Y-108867476D01*
X104037619Y-109057952D01*
X104037619Y-109200809D01*
X103989999Y-109391285D01*
X103942380Y-109486523D01*
X103847142Y-109581761D01*
X103704285Y-109629380D01*
X103466190Y-109629380D01*
X104418571Y-109343666D02*
X104894761Y-109343666D01*
X104323333Y-109629380D02*
X104656666Y-108629380D01*
X104989999Y-109629380D01*
X105323333Y-109629380D02*
X105323333Y-108629380D01*
X105704285Y-108629380D01*
X105799523Y-108677000D01*
X105847142Y-108724619D01*
X105894761Y-108819857D01*
X105894761Y-108962714D01*
X105847142Y-109057952D01*
X105799523Y-109105571D01*
X105704285Y-109153190D01*
X105323333Y-109153190D01*
X106180476Y-108629380D02*
X106751904Y-108629380D01*
X106466190Y-109629380D02*
X106466190Y-108629380D01*
X107275714Y-108629380D02*
X107466190Y-108629380D01*
X107561428Y-108677000D01*
X107656666Y-108772238D01*
X107704285Y-108962714D01*
X107704285Y-109296047D01*
X107656666Y-109486523D01*
X107561428Y-109581761D01*
X107466190Y-109629380D01*
X107275714Y-109629380D01*
X107180476Y-109581761D01*
X107085238Y-109486523D01*
X107037619Y-109296047D01*
X107037619Y-108962714D01*
X107085238Y-108772238D01*
X107180476Y-108677000D01*
X107275714Y-108629380D01*
X108704285Y-109629380D02*
X108370952Y-109153190D01*
X108132857Y-109629380D02*
X108132857Y-108629380D01*
X108513809Y-108629380D01*
X108609047Y-108677000D01*
X108656666Y-108724619D01*
X108704285Y-108819857D01*
X108704285Y-108962714D01*
X108656666Y-109057952D01*
X108609047Y-109105571D01*
X108513809Y-109153190D01*
X108132857Y-109153190D01*
X109894761Y-109629380D02*
X109894761Y-108629380D01*
X110275714Y-108629380D01*
X110370952Y-108677000D01*
X110418571Y-108724619D01*
X110466190Y-108819857D01*
X110466190Y-108962714D01*
X110418571Y-109057952D01*
X110370952Y-109105571D01*
X110275714Y-109153190D01*
X109894761Y-109153190D01*
X111466190Y-109534142D02*
X111418571Y-109581761D01*
X111275714Y-109629380D01*
X111180476Y-109629380D01*
X111037619Y-109581761D01*
X110942380Y-109486523D01*
X110894761Y-109391285D01*
X110847142Y-109200809D01*
X110847142Y-109057952D01*
X110894761Y-108867476D01*
X110942380Y-108772238D01*
X111037619Y-108677000D01*
X111180476Y-108629380D01*
X111275714Y-108629380D01*
X111418571Y-108677000D01*
X111466190Y-108724619D01*
X112228095Y-109105571D02*
X112370952Y-109153190D01*
X112418571Y-109200809D01*
X112466190Y-109296047D01*
X112466190Y-109438904D01*
X112418571Y-109534142D01*
X112370952Y-109581761D01*
X112275714Y-109629380D01*
X111894761Y-109629380D01*
X111894761Y-108629380D01*
X112228095Y-108629380D01*
X112323333Y-108677000D01*
X112370952Y-108724619D01*
X112418571Y-108819857D01*
X112418571Y-108915095D01*
X112370952Y-109010333D01*
X112323333Y-109057952D01*
X112228095Y-109105571D01*
X111894761Y-109105571D01*
X113513809Y-108629380D02*
X113847142Y-109629380D01*
X114180476Y-108629380D01*
X114466190Y-108724619D02*
X114513809Y-108677000D01*
X114609047Y-108629380D01*
X114847142Y-108629380D01*
X114942380Y-108677000D01*
X114989999Y-108724619D01*
X115037619Y-108819857D01*
X115037619Y-108915095D01*
X114989999Y-109057952D01*
X114418571Y-109629380D01*
X115037619Y-109629380D01*
X116561428Y-109105571D02*
X116704285Y-109153190D01*
X116751904Y-109200809D01*
X116799523Y-109296047D01*
X116799523Y-109438904D01*
X116751904Y-109534142D01*
X116704285Y-109581761D01*
X116609047Y-109629380D01*
X116228095Y-109629380D01*
X116228095Y-108629380D01*
X116561428Y-108629380D01*
X116656666Y-108677000D01*
X116704285Y-108724619D01*
X116751904Y-108819857D01*
X116751904Y-108915095D01*
X116704285Y-109010333D01*
X116656666Y-109057952D01*
X116561428Y-109105571D01*
X116228095Y-109105571D01*
X117418571Y-109153190D02*
X117418571Y-109629380D01*
X117085238Y-108629380D02*
X117418571Y-109153190D01*
X117751904Y-108629380D01*
X105323333Y-111239380D02*
X105323333Y-110239380D01*
X105561428Y-110239380D01*
X105704285Y-110287000D01*
X105799523Y-110382238D01*
X105847142Y-110477476D01*
X105894761Y-110667952D01*
X105894761Y-110810809D01*
X105847142Y-111001285D01*
X105799523Y-111096523D01*
X105704285Y-111191761D01*
X105561428Y-111239380D01*
X105323333Y-111239380D01*
X106275714Y-110953666D02*
X106751904Y-110953666D01*
X106180476Y-111239380D02*
X106513809Y-110239380D01*
X106847142Y-111239380D01*
X107180476Y-111239380D02*
X107180476Y-110239380D01*
X107751904Y-111239380D01*
X107751904Y-110239380D01*
X108228095Y-111239380D02*
X108228095Y-110239380D01*
X108704285Y-110715571D02*
X109037619Y-110715571D01*
X109180476Y-111239380D02*
X108704285Y-111239380D01*
X108704285Y-110239380D01*
X109180476Y-110239380D01*
X110085238Y-111239380D02*
X109609047Y-111239380D01*
X109609047Y-110239380D01*
X111180476Y-111239380D02*
X111180476Y-110239380D01*
X111513809Y-110953666D01*
X111847142Y-110239380D01*
X111847142Y-111239380D01*
X112275714Y-110953666D02*
X112751904Y-110953666D01*
X112180476Y-111239380D02*
X112513809Y-110239380D01*
X112847142Y-111239380D01*
X113751904Y-111239380D02*
X113418571Y-110763190D01*
X113180476Y-111239380D02*
X113180476Y-110239380D01*
X113561428Y-110239380D01*
X113656666Y-110287000D01*
X113704285Y-110334619D01*
X113751904Y-110429857D01*
X113751904Y-110572714D01*
X113704285Y-110667952D01*
X113656666Y-110715571D01*
X113561428Y-110763190D01*
X113180476Y-110763190D01*
X114180476Y-111239380D02*
X114180476Y-110239380D01*
X114751904Y-111239380D02*
X114323333Y-110667952D01*
X114751904Y-110239380D02*
X114180476Y-110810809D01*
X115132857Y-111191761D02*
X115275714Y-111239380D01*
X115513809Y-111239380D01*
X115609047Y-111191761D01*
X115656666Y-111144142D01*
X115704285Y-111048904D01*
X115704285Y-110953666D01*
X115656666Y-110858428D01*
X115609047Y-110810809D01*
X115513809Y-110763190D01*
X115323333Y-110715571D01*
X115228095Y-110667952D01*
X115180476Y-110620333D01*
X115132857Y-110525095D01*
X115132857Y-110429857D01*
X115180476Y-110334619D01*
X115228095Y-110287000D01*
X115323333Y-110239380D01*
X115561428Y-110239380D01*
X115704285Y-110287000D01*
X105656666Y-112754142D02*
X105609047Y-112801761D01*
X105466190Y-112849380D01*
X105370952Y-112849380D01*
X105228095Y-112801761D01*
X105132857Y-112706523D01*
X105085238Y-112611285D01*
X105037619Y-112420809D01*
X105037619Y-112277952D01*
X105085238Y-112087476D01*
X105132857Y-111992238D01*
X105228095Y-111897000D01*
X105370952Y-111849380D01*
X105466190Y-111849380D01*
X105609047Y-111897000D01*
X105656666Y-111944619D01*
X106656666Y-112754142D02*
X106609047Y-112801761D01*
X106466190Y-112849380D01*
X106370952Y-112849380D01*
X106228095Y-112801761D01*
X106132857Y-112706523D01*
X106085238Y-112611285D01*
X106037619Y-112420809D01*
X106037619Y-112277952D01*
X106085238Y-112087476D01*
X106132857Y-111992238D01*
X106228095Y-111897000D01*
X106370952Y-111849380D01*
X106466190Y-111849380D01*
X106609047Y-111897000D01*
X106656666Y-111944619D01*
X107085238Y-112468428D02*
X107847142Y-112468428D01*
X108656666Y-112325571D02*
X108799523Y-112373190D01*
X108847142Y-112420809D01*
X108894761Y-112516047D01*
X108894761Y-112658904D01*
X108847142Y-112754142D01*
X108799523Y-112801761D01*
X108704285Y-112849380D01*
X108323333Y-112849380D01*
X108323333Y-111849380D01*
X108656666Y-111849380D01*
X108751904Y-111897000D01*
X108799523Y-111944619D01*
X108847142Y-112039857D01*
X108847142Y-112135095D01*
X108799523Y-112230333D01*
X108751904Y-112277952D01*
X108656666Y-112325571D01*
X108323333Y-112325571D01*
X109513809Y-112373190D02*
X109513809Y-112849380D01*
X109180476Y-111849380D02*
X109513809Y-112373190D01*
X109847142Y-111849380D01*
X110180476Y-112468428D02*
X110942380Y-112468428D01*
X111370952Y-112801761D02*
X111513809Y-112849380D01*
X111751904Y-112849380D01*
X111847142Y-112801761D01*
X111894761Y-112754142D01*
X111942380Y-112658904D01*
X111942380Y-112563666D01*
X111894761Y-112468428D01*
X111847142Y-112420809D01*
X111751904Y-112373190D01*
X111561428Y-112325571D01*
X111466190Y-112277952D01*
X111418571Y-112230333D01*
X111370952Y-112135095D01*
X111370952Y-112039857D01*
X111418571Y-111944619D01*
X111466190Y-111897000D01*
X111561428Y-111849380D01*
X111799523Y-111849380D01*
X111942380Y-111897000D01*
X112323333Y-112563666D02*
X112799523Y-112563666D01*
X112228095Y-112849380D02*
X112561428Y-111849380D01*
X112894761Y-112849380D01*
X114418571Y-112182714D02*
X114418571Y-112849380D01*
X114180476Y-111801761D02*
X113942380Y-112516047D01*
X114561428Y-112516047D01*
X114942380Y-112754142D02*
X114990000Y-112801761D01*
X114942380Y-112849380D01*
X114894761Y-112801761D01*
X114942380Y-112754142D01*
X114942380Y-112849380D01*
X115609047Y-111849380D02*
X115704285Y-111849380D01*
X115799523Y-111897000D01*
X115847142Y-111944619D01*
X115894761Y-112039857D01*
X115942380Y-112230333D01*
X115942380Y-112468428D01*
X115894761Y-112658904D01*
X115847142Y-112754142D01*
X115799523Y-112801761D01*
X115704285Y-112849380D01*
X115609047Y-112849380D01*
X115513809Y-112801761D01*
X115466190Y-112754142D01*
X115418571Y-112658904D01*
X115370952Y-112468428D01*
X115370952Y-112230333D01*
X115418571Y-112039857D01*
X115466190Y-111944619D01*
X115513809Y-111897000D01*
X115609047Y-111849380D01*
X155110476Y-93842380D02*
X154920000Y-93842380D01*
X154824761Y-93890000D01*
X154777142Y-93937619D01*
X154681904Y-94080476D01*
X154634285Y-94270952D01*
X154634285Y-94651904D01*
X154681904Y-94747142D01*
X154729523Y-94794761D01*
X154824761Y-94842380D01*
X155015238Y-94842380D01*
X155110476Y-94794761D01*
X155158095Y-94747142D01*
X155205714Y-94651904D01*
X155205714Y-94413809D01*
X155158095Y-94318571D01*
X155110476Y-94270952D01*
X155015238Y-94223333D01*
X154824761Y-94223333D01*
X154729523Y-94270952D01*
X154681904Y-94318571D01*
X154634285Y-94413809D01*
X112117142Y-103298190D02*
X112164761Y-103345809D01*
X112212380Y-103488666D01*
X112212380Y-103583904D01*
X112164761Y-103726761D01*
X112069523Y-103822000D01*
X111974285Y-103869619D01*
X111783809Y-103917238D01*
X111640952Y-103917238D01*
X111450476Y-103869619D01*
X111355238Y-103822000D01*
X111260000Y-103726761D01*
X111212380Y-103583904D01*
X111212380Y-103488666D01*
X111260000Y-103345809D01*
X111307619Y-103298190D01*
X111260000Y-102345809D02*
X111212380Y-102441047D01*
X111212380Y-102583904D01*
X111260000Y-102726761D01*
X111355238Y-102822000D01*
X111450476Y-102869619D01*
X111640952Y-102917238D01*
X111783809Y-102917238D01*
X111974285Y-102869619D01*
X112069523Y-102822000D01*
X112164761Y-102726761D01*
X112212380Y-102583904D01*
X112212380Y-102488666D01*
X112164761Y-102345809D01*
X112117142Y-102298190D01*
X111783809Y-102298190D01*
X111783809Y-102488666D01*
X111926666Y-101917238D02*
X111926666Y-101441047D01*
X112212380Y-102012476D02*
X111212380Y-101679142D01*
X112212380Y-101345809D01*
X111164761Y-100298190D02*
X112450476Y-101155333D01*
X111688571Y-99964857D02*
X111688571Y-99631523D01*
X112212380Y-99488666D02*
X112212380Y-99964857D01*
X111212380Y-99964857D01*
X111212380Y-99488666D01*
X111260000Y-98536285D02*
X111212380Y-98631523D01*
X111212380Y-98774380D01*
X111260000Y-98917238D01*
X111355238Y-99012476D01*
X111450476Y-99060095D01*
X111640952Y-99107714D01*
X111783809Y-99107714D01*
X111974285Y-99060095D01*
X112069523Y-99012476D01*
X112164761Y-98917238D01*
X112212380Y-98774380D01*
X112212380Y-98679142D01*
X112164761Y-98536285D01*
X112117142Y-98488666D01*
X111783809Y-98488666D01*
X111783809Y-98679142D01*
X111926666Y-98107714D02*
X111926666Y-97631523D01*
X112212380Y-98202952D02*
X111212380Y-97869619D01*
X112212380Y-97536285D01*
X112212380Y-96441047D02*
X111212380Y-96441047D01*
X111926666Y-96107714D01*
X111212380Y-95774380D01*
X112212380Y-95774380D01*
X135056571Y-80239809D02*
X135056571Y-79906476D01*
X135580380Y-79763619D02*
X135580380Y-80239809D01*
X134580380Y-80239809D01*
X134580380Y-79763619D01*
X134628000Y-78811238D02*
X134580380Y-78906476D01*
X134580380Y-79049333D01*
X134628000Y-79192190D01*
X134723238Y-79287428D01*
X134818476Y-79335047D01*
X135008952Y-79382666D01*
X135151809Y-79382666D01*
X135342285Y-79335047D01*
X135437523Y-79287428D01*
X135532761Y-79192190D01*
X135580380Y-79049333D01*
X135580380Y-78954095D01*
X135532761Y-78811238D01*
X135485142Y-78763619D01*
X135151809Y-78763619D01*
X135151809Y-78954095D01*
X135294666Y-78382666D02*
X135294666Y-77906476D01*
X135580380Y-78477904D02*
X134580380Y-78144571D01*
X135580380Y-77811238D01*
X135056571Y-77144571D02*
X135104190Y-77001714D01*
X135151809Y-76954095D01*
X135247047Y-76906476D01*
X135389904Y-76906476D01*
X135485142Y-76954095D01*
X135532761Y-77001714D01*
X135580380Y-77096952D01*
X135580380Y-77477904D01*
X134580380Y-77477904D01*
X134580380Y-77144571D01*
X134628000Y-77049333D01*
X134675619Y-77001714D01*
X134770857Y-76954095D01*
X134866095Y-76954095D01*
X134961333Y-77001714D01*
X135008952Y-77049333D01*
X135056571Y-77144571D01*
X135056571Y-77477904D01*
X135580380Y-76001714D02*
X135580380Y-76477904D01*
X134580380Y-76477904D01*
X134580380Y-75668380D02*
X135389904Y-75668380D01*
X135485142Y-75620761D01*
X135532761Y-75573142D01*
X135580380Y-75477904D01*
X135580380Y-75287428D01*
X135532761Y-75192190D01*
X135485142Y-75144571D01*
X135389904Y-75096952D01*
X134580380Y-75096952D01*
X135056571Y-74620761D02*
X135056571Y-74287428D01*
X135580380Y-74144571D02*
X135580380Y-74620761D01*
X134580380Y-74620761D01*
X134580380Y-74144571D01*
X136152190Y-110867666D02*
X136628380Y-110867666D01*
X136056952Y-111153380D02*
X136390285Y-110153380D01*
X136723619Y-111153380D01*
X137056952Y-110153380D02*
X137056952Y-110962904D01*
X137104571Y-111058142D01*
X137152190Y-111105761D01*
X137247428Y-111153380D01*
X137437904Y-111153380D01*
X137533142Y-111105761D01*
X137580761Y-111058142D01*
X137628380Y-110962904D01*
X137628380Y-110153380D01*
X138104571Y-111153380D02*
X138104571Y-110153380D01*
X138342666Y-110153380D01*
X138485523Y-110201000D01*
X138580761Y-110296238D01*
X138628380Y-110391476D01*
X138676000Y-110581952D01*
X138676000Y-110724809D01*
X138628380Y-110915285D01*
X138580761Y-111010523D01*
X138485523Y-111105761D01*
X138342666Y-111153380D01*
X138104571Y-111153380D01*
X139104571Y-111153380D02*
X139104571Y-110153380D01*
X139771238Y-110153380D02*
X139961714Y-110153380D01*
X140056952Y-110201000D01*
X140152190Y-110296238D01*
X140199809Y-110486714D01*
X140199809Y-110820047D01*
X140152190Y-111010523D01*
X140056952Y-111105761D01*
X139961714Y-111153380D01*
X139771238Y-111153380D01*
X139676000Y-111105761D01*
X139580761Y-111010523D01*
X139533142Y-110820047D01*
X139533142Y-110486714D01*
X139580761Y-110296238D01*
X139676000Y-110201000D01*
X139771238Y-110153380D01*
X135580761Y-112715761D02*
X135723619Y-112763380D01*
X135961714Y-112763380D01*
X136056952Y-112715761D01*
X136104571Y-112668142D01*
X136152190Y-112572904D01*
X136152190Y-112477666D01*
X136104571Y-112382428D01*
X136056952Y-112334809D01*
X135961714Y-112287190D01*
X135771238Y-112239571D01*
X135676000Y-112191952D01*
X135628380Y-112144333D01*
X135580761Y-112049095D01*
X135580761Y-111953857D01*
X135628380Y-111858619D01*
X135676000Y-111811000D01*
X135771238Y-111763380D01*
X136009333Y-111763380D01*
X136152190Y-111811000D01*
X136437904Y-111763380D02*
X137009333Y-111763380D01*
X136723619Y-112763380D02*
X136723619Y-111763380D01*
X137342666Y-112239571D02*
X137676000Y-112239571D01*
X137818857Y-112763380D02*
X137342666Y-112763380D01*
X137342666Y-111763380D01*
X137818857Y-111763380D01*
X138818857Y-112763380D02*
X138485523Y-112287190D01*
X138247428Y-112763380D02*
X138247428Y-111763380D01*
X138628380Y-111763380D01*
X138723619Y-111811000D01*
X138771238Y-111858619D01*
X138818857Y-111953857D01*
X138818857Y-112096714D01*
X138771238Y-112191952D01*
X138723619Y-112239571D01*
X138628380Y-112287190D01*
X138247428Y-112287190D01*
X139247428Y-112239571D02*
X139580761Y-112239571D01*
X139723619Y-112763380D02*
X139247428Y-112763380D01*
X139247428Y-111763380D01*
X139723619Y-111763380D01*
X140342666Y-111763380D02*
X140533142Y-111763380D01*
X140628380Y-111811000D01*
X140723619Y-111906238D01*
X140771238Y-112096714D01*
X140771238Y-112430047D01*
X140723619Y-112620523D01*
X140628380Y-112715761D01*
X140533142Y-112763380D01*
X140342666Y-112763380D01*
X140247428Y-112715761D01*
X140152190Y-112620523D01*
X140104571Y-112430047D01*
X140104571Y-112096714D01*
X140152190Y-111906238D01*
X140247428Y-111811000D01*
X140342666Y-111763380D01*
X141930380Y-88463142D02*
X140930380Y-88463142D01*
X141930380Y-87986952D02*
X140930380Y-87986952D01*
X141930380Y-87415523D01*
X140930380Y-87415523D01*
X140930380Y-87082190D02*
X140930380Y-86510761D01*
X141930380Y-86796476D02*
X140930380Y-86796476D01*
X141406571Y-86177428D02*
X141406571Y-85844095D01*
X141930380Y-85701238D02*
X141930380Y-86177428D01*
X140930380Y-86177428D01*
X140930380Y-85701238D01*
X141930380Y-85272666D02*
X140930380Y-85272666D01*
X141930380Y-84701238D01*
X140930380Y-84701238D01*
X141882761Y-84272666D02*
X141930380Y-84129809D01*
X141930380Y-83891714D01*
X141882761Y-83796476D01*
X141835142Y-83748857D01*
X141739904Y-83701238D01*
X141644666Y-83701238D01*
X141549428Y-83748857D01*
X141501809Y-83796476D01*
X141454190Y-83891714D01*
X141406571Y-84082190D01*
X141358952Y-84177428D01*
X141311333Y-84225047D01*
X141216095Y-84272666D01*
X141120857Y-84272666D01*
X141025619Y-84225047D01*
X140978000Y-84177428D01*
X140930380Y-84082190D01*
X140930380Y-83844095D01*
X140978000Y-83701238D01*
X113863904Y-101798380D02*
X113863904Y-100798380D01*
X114244857Y-100798380D01*
X114340095Y-100846000D01*
X114387714Y-100893619D01*
X114435333Y-100988857D01*
X114435333Y-101131714D01*
X114387714Y-101226952D01*
X114340095Y-101274571D01*
X114244857Y-101322190D01*
X113863904Y-101322190D01*
X114768666Y-100798380D02*
X115006761Y-101798380D01*
X115197238Y-101084095D01*
X115387714Y-101798380D01*
X115625809Y-100798380D01*
X116578190Y-101798380D02*
X116244857Y-101322190D01*
X116006761Y-101798380D02*
X116006761Y-100798380D01*
X116387714Y-100798380D01*
X116482952Y-100846000D01*
X116530571Y-100893619D01*
X116578190Y-100988857D01*
X116578190Y-101131714D01*
X116530571Y-101226952D01*
X116482952Y-101274571D01*
X116387714Y-101322190D01*
X116006761Y-101322190D01*
X116959142Y-100893619D02*
X117006761Y-100846000D01*
X117102000Y-100798380D01*
X117340095Y-100798380D01*
X117435333Y-100846000D01*
X117482952Y-100893619D01*
X117530571Y-100988857D01*
X117530571Y-101084095D01*
X117482952Y-101226952D01*
X116911523Y-101798380D01*
X117530571Y-101798380D01*
X118292476Y-101274571D02*
X118435333Y-101322190D01*
X118482952Y-101369809D01*
X118530571Y-101465047D01*
X118530571Y-101607904D01*
X118482952Y-101703142D01*
X118435333Y-101750761D01*
X118340095Y-101798380D01*
X117959142Y-101798380D01*
X117959142Y-100798380D01*
X118292476Y-100798380D01*
X118387714Y-100846000D01*
X118435333Y-100893619D01*
X118482952Y-100988857D01*
X118482952Y-101084095D01*
X118435333Y-101179333D01*
X118387714Y-101226952D01*
X118292476Y-101274571D01*
X117959142Y-101274571D01*
X119435333Y-101798380D02*
X118959142Y-101798380D01*
X118959142Y-100798380D01*
X119768666Y-101798380D02*
X119768666Y-100798380D01*
X120340095Y-101798380D01*
X120340095Y-100798380D01*
X120816285Y-101798380D02*
X120816285Y-100798380D01*
X121387714Y-101798380D02*
X120959142Y-101226952D01*
X121387714Y-100798380D02*
X120816285Y-101369809D01*
X164655523Y-81478380D02*
X164084095Y-81478380D01*
X164369809Y-81478380D02*
X164369809Y-80478380D01*
X164274571Y-80621238D01*
X164179333Y-80716476D01*
X164084095Y-80764095D01*
X164988857Y-80478380D02*
X165607904Y-80478380D01*
X165274571Y-80859333D01*
X165417428Y-80859333D01*
X165512666Y-80906952D01*
X165560285Y-80954571D01*
X165607904Y-81049809D01*
X165607904Y-81287904D01*
X165560285Y-81383142D01*
X165512666Y-81430761D01*
X165417428Y-81478380D01*
X165131714Y-81478380D01*
X165036476Y-81430761D01*
X164988857Y-81383142D01*
%TO.C,JP2*%
X137850666Y-73322380D02*
X137850666Y-74036666D01*
X137803047Y-74179523D01*
X137707809Y-74274761D01*
X137564952Y-74322380D01*
X137469714Y-74322380D01*
X138326857Y-74322380D02*
X138326857Y-73322380D01*
X138707809Y-73322380D01*
X138803047Y-73370000D01*
X138850666Y-73417619D01*
X138898285Y-73512857D01*
X138898285Y-73655714D01*
X138850666Y-73750952D01*
X138803047Y-73798571D01*
X138707809Y-73846190D01*
X138326857Y-73846190D01*
X139279238Y-73417619D02*
X139326857Y-73370000D01*
X139422095Y-73322380D01*
X139660190Y-73322380D01*
X139755428Y-73370000D01*
X139803047Y-73417619D01*
X139850666Y-73512857D01*
X139850666Y-73608095D01*
X139803047Y-73750952D01*
X139231619Y-74322380D01*
X139850666Y-74322380D01*
%TO.C,R19*%
X111523142Y-49954380D02*
X111189809Y-49478190D01*
X110951714Y-49954380D02*
X110951714Y-48954380D01*
X111332666Y-48954380D01*
X111427904Y-49002000D01*
X111475523Y-49049619D01*
X111523142Y-49144857D01*
X111523142Y-49287714D01*
X111475523Y-49382952D01*
X111427904Y-49430571D01*
X111332666Y-49478190D01*
X110951714Y-49478190D01*
X112475523Y-49954380D02*
X111904095Y-49954380D01*
X112189809Y-49954380D02*
X112189809Y-48954380D01*
X112094571Y-49097238D01*
X111999333Y-49192476D01*
X111904095Y-49240095D01*
X112951714Y-49954380D02*
X113142190Y-49954380D01*
X113237428Y-49906761D01*
X113285047Y-49859142D01*
X113380285Y-49716285D01*
X113427904Y-49525809D01*
X113427904Y-49144857D01*
X113380285Y-49049619D01*
X113332666Y-49002000D01*
X113237428Y-48954380D01*
X113046952Y-48954380D01*
X112951714Y-49002000D01*
X112904095Y-49049619D01*
X112856476Y-49144857D01*
X112856476Y-49382952D01*
X112904095Y-49478190D01*
X112951714Y-49525809D01*
X113046952Y-49573428D01*
X113237428Y-49573428D01*
X113332666Y-49525809D01*
X113380285Y-49478190D01*
X113427904Y-49382952D01*
%TO.C,R18*%
X111371142Y-53002380D02*
X111037809Y-52526190D01*
X110799714Y-53002380D02*
X110799714Y-52002380D01*
X111180666Y-52002380D01*
X111275904Y-52050000D01*
X111323523Y-52097619D01*
X111371142Y-52192857D01*
X111371142Y-52335714D01*
X111323523Y-52430952D01*
X111275904Y-52478571D01*
X111180666Y-52526190D01*
X110799714Y-52526190D01*
X112323523Y-53002380D02*
X111752095Y-53002380D01*
X112037809Y-53002380D02*
X112037809Y-52002380D01*
X111942571Y-52145238D01*
X111847333Y-52240476D01*
X111752095Y-52288095D01*
X112894952Y-52430952D02*
X112799714Y-52383333D01*
X112752095Y-52335714D01*
X112704476Y-52240476D01*
X112704476Y-52192857D01*
X112752095Y-52097619D01*
X112799714Y-52050000D01*
X112894952Y-52002380D01*
X113085428Y-52002380D01*
X113180666Y-52050000D01*
X113228285Y-52097619D01*
X113275904Y-52192857D01*
X113275904Y-52240476D01*
X113228285Y-52335714D01*
X113180666Y-52383333D01*
X113085428Y-52430952D01*
X112894952Y-52430952D01*
X112799714Y-52478571D01*
X112752095Y-52526190D01*
X112704476Y-52621428D01*
X112704476Y-52811904D01*
X112752095Y-52907142D01*
X112799714Y-52954761D01*
X112894952Y-53002380D01*
X113085428Y-53002380D01*
X113180666Y-52954761D01*
X113228285Y-52907142D01*
X113275904Y-52811904D01*
X113275904Y-52621428D01*
X113228285Y-52526190D01*
X113180666Y-52478571D01*
X113085428Y-52430952D01*
%TO.C,R17*%
X128468380Y-74810857D02*
X127992190Y-75144190D01*
X128468380Y-75382285D02*
X127468380Y-75382285D01*
X127468380Y-75001333D01*
X127516000Y-74906095D01*
X127563619Y-74858476D01*
X127658857Y-74810857D01*
X127801714Y-74810857D01*
X127896952Y-74858476D01*
X127944571Y-74906095D01*
X127992190Y-75001333D01*
X127992190Y-75382285D01*
X128468380Y-73858476D02*
X128468380Y-74429904D01*
X128468380Y-74144190D02*
X127468380Y-74144190D01*
X127611238Y-74239428D01*
X127706476Y-74334666D01*
X127754095Y-74429904D01*
X127468380Y-73525142D02*
X127468380Y-72858476D01*
X128468380Y-73287047D01*
%TO.C,R16*%
X144484380Y-79890857D02*
X144008190Y-80224190D01*
X144484380Y-80462285D02*
X143484380Y-80462285D01*
X143484380Y-80081333D01*
X143532000Y-79986095D01*
X143579619Y-79938476D01*
X143674857Y-79890857D01*
X143817714Y-79890857D01*
X143912952Y-79938476D01*
X143960571Y-79986095D01*
X144008190Y-80081333D01*
X144008190Y-80462285D01*
X144484380Y-78938476D02*
X144484380Y-79509904D01*
X144484380Y-79224190D02*
X143484380Y-79224190D01*
X143627238Y-79319428D01*
X143722476Y-79414666D01*
X143770095Y-79509904D01*
X143484380Y-78081333D02*
X143484380Y-78271809D01*
X143532000Y-78367047D01*
X143579619Y-78414666D01*
X143722476Y-78509904D01*
X143912952Y-78557523D01*
X144293904Y-78557523D01*
X144389142Y-78509904D01*
X144436761Y-78462285D01*
X144484380Y-78367047D01*
X144484380Y-78176571D01*
X144436761Y-78081333D01*
X144389142Y-78033714D01*
X144293904Y-77986095D01*
X144055809Y-77986095D01*
X143960571Y-78033714D01*
X143912952Y-78081333D01*
X143865333Y-78176571D01*
X143865333Y-78367047D01*
X143912952Y-78462285D01*
X143960571Y-78509904D01*
X144055809Y-78557523D01*
%TO.C,R15*%
X129405142Y-62428380D02*
X129071809Y-61952190D01*
X128833714Y-62428380D02*
X128833714Y-61428380D01*
X129214666Y-61428380D01*
X129309904Y-61476000D01*
X129357523Y-61523619D01*
X129405142Y-61618857D01*
X129405142Y-61761714D01*
X129357523Y-61856952D01*
X129309904Y-61904571D01*
X129214666Y-61952190D01*
X128833714Y-61952190D01*
X130357523Y-62428380D02*
X129786095Y-62428380D01*
X130071809Y-62428380D02*
X130071809Y-61428380D01*
X129976571Y-61571238D01*
X129881333Y-61666476D01*
X129786095Y-61714095D01*
X131262285Y-61428380D02*
X130786095Y-61428380D01*
X130738476Y-61904571D01*
X130786095Y-61856952D01*
X130881333Y-61809333D01*
X131119428Y-61809333D01*
X131214666Y-61856952D01*
X131262285Y-61904571D01*
X131309904Y-61999809D01*
X131309904Y-62237904D01*
X131262285Y-62333142D01*
X131214666Y-62380761D01*
X131119428Y-62428380D01*
X130881333Y-62428380D01*
X130786095Y-62380761D01*
X130738476Y-62333142D01*
%TO.C,R14*%
X121277142Y-96972380D02*
X120943809Y-96496190D01*
X120705714Y-96972380D02*
X120705714Y-95972380D01*
X121086666Y-95972380D01*
X121181904Y-96020000D01*
X121229523Y-96067619D01*
X121277142Y-96162857D01*
X121277142Y-96305714D01*
X121229523Y-96400952D01*
X121181904Y-96448571D01*
X121086666Y-96496190D01*
X120705714Y-96496190D01*
X122229523Y-96972380D02*
X121658095Y-96972380D01*
X121943809Y-96972380D02*
X121943809Y-95972380D01*
X121848571Y-96115238D01*
X121753333Y-96210476D01*
X121658095Y-96258095D01*
X123086666Y-96305714D02*
X123086666Y-96972380D01*
X122848571Y-95924761D02*
X122610476Y-96639047D01*
X123229523Y-96639047D01*
%TO.C,R10*%
X117467142Y-93162380D02*
X117133809Y-92686190D01*
X116895714Y-93162380D02*
X116895714Y-92162380D01*
X117276666Y-92162380D01*
X117371904Y-92210000D01*
X117419523Y-92257619D01*
X117467142Y-92352857D01*
X117467142Y-92495714D01*
X117419523Y-92590952D01*
X117371904Y-92638571D01*
X117276666Y-92686190D01*
X116895714Y-92686190D01*
X118419523Y-93162380D02*
X117848095Y-93162380D01*
X118133809Y-93162380D02*
X118133809Y-92162380D01*
X118038571Y-92305238D01*
X117943333Y-92400476D01*
X117848095Y-92448095D01*
X119038571Y-92162380D02*
X119133809Y-92162380D01*
X119229047Y-92210000D01*
X119276666Y-92257619D01*
X119324285Y-92352857D01*
X119371904Y-92543333D01*
X119371904Y-92781428D01*
X119324285Y-92971904D01*
X119276666Y-93067142D01*
X119229047Y-93114761D01*
X119133809Y-93162380D01*
X119038571Y-93162380D01*
X118943333Y-93114761D01*
X118895714Y-93067142D01*
X118848095Y-92971904D01*
X118800476Y-92781428D01*
X118800476Y-92543333D01*
X118848095Y-92352857D01*
X118895714Y-92257619D01*
X118943333Y-92210000D01*
X119038571Y-92162380D01*
%TO.C,R7*%
X117943333Y-85542380D02*
X117610000Y-85066190D01*
X117371904Y-85542380D02*
X117371904Y-84542380D01*
X117752857Y-84542380D01*
X117848095Y-84590000D01*
X117895714Y-84637619D01*
X117943333Y-84732857D01*
X117943333Y-84875714D01*
X117895714Y-84970952D01*
X117848095Y-85018571D01*
X117752857Y-85066190D01*
X117371904Y-85066190D01*
X118276666Y-84542380D02*
X118943333Y-84542380D01*
X118514761Y-85542380D01*
%TO.C,D2*%
X106703904Y-62682380D02*
X106703904Y-61682380D01*
X106942000Y-61682380D01*
X107084857Y-61730000D01*
X107180095Y-61825238D01*
X107227714Y-61920476D01*
X107275333Y-62110952D01*
X107275333Y-62253809D01*
X107227714Y-62444285D01*
X107180095Y-62539523D01*
X107084857Y-62634761D01*
X106942000Y-62682380D01*
X106703904Y-62682380D01*
X107656285Y-61777619D02*
X107703904Y-61730000D01*
X107799142Y-61682380D01*
X108037238Y-61682380D01*
X108132476Y-61730000D01*
X108180095Y-61777619D01*
X108227714Y-61872857D01*
X108227714Y-61968095D01*
X108180095Y-62110952D01*
X107608666Y-62682380D01*
X108227714Y-62682380D01*
%TO.C,R8*%
X117943333Y-77922380D02*
X117610000Y-77446190D01*
X117371904Y-77922380D02*
X117371904Y-76922380D01*
X117752857Y-76922380D01*
X117848095Y-76970000D01*
X117895714Y-77017619D01*
X117943333Y-77112857D01*
X117943333Y-77255714D01*
X117895714Y-77350952D01*
X117848095Y-77398571D01*
X117752857Y-77446190D01*
X117371904Y-77446190D01*
X118514761Y-77350952D02*
X118419523Y-77303333D01*
X118371904Y-77255714D01*
X118324285Y-77160476D01*
X118324285Y-77112857D01*
X118371904Y-77017619D01*
X118419523Y-76970000D01*
X118514761Y-76922380D01*
X118705238Y-76922380D01*
X118800476Y-76970000D01*
X118848095Y-77017619D01*
X118895714Y-77112857D01*
X118895714Y-77160476D01*
X118848095Y-77255714D01*
X118800476Y-77303333D01*
X118705238Y-77350952D01*
X118514761Y-77350952D01*
X118419523Y-77398571D01*
X118371904Y-77446190D01*
X118324285Y-77541428D01*
X118324285Y-77731904D01*
X118371904Y-77827142D01*
X118419523Y-77874761D01*
X118514761Y-77922380D01*
X118705238Y-77922380D01*
X118800476Y-77874761D01*
X118848095Y-77827142D01*
X118895714Y-77731904D01*
X118895714Y-77541428D01*
X118848095Y-77446190D01*
X118800476Y-77398571D01*
X118705238Y-77350952D01*
%TO.C,R13*%
X117467142Y-70302380D02*
X117133809Y-69826190D01*
X116895714Y-70302380D02*
X116895714Y-69302380D01*
X117276666Y-69302380D01*
X117371904Y-69350000D01*
X117419523Y-69397619D01*
X117467142Y-69492857D01*
X117467142Y-69635714D01*
X117419523Y-69730952D01*
X117371904Y-69778571D01*
X117276666Y-69826190D01*
X116895714Y-69826190D01*
X118419523Y-70302380D02*
X117848095Y-70302380D01*
X118133809Y-70302380D02*
X118133809Y-69302380D01*
X118038571Y-69445238D01*
X117943333Y-69540476D01*
X117848095Y-69588095D01*
X118752857Y-69302380D02*
X119371904Y-69302380D01*
X119038571Y-69683333D01*
X119181428Y-69683333D01*
X119276666Y-69730952D01*
X119324285Y-69778571D01*
X119371904Y-69873809D01*
X119371904Y-70111904D01*
X119324285Y-70207142D01*
X119276666Y-70254761D01*
X119181428Y-70302380D01*
X118895714Y-70302380D01*
X118800476Y-70254761D01*
X118752857Y-70207142D01*
%TO.C,D3*%
X106703904Y-69286380D02*
X106703904Y-68286380D01*
X106942000Y-68286380D01*
X107084857Y-68334000D01*
X107180095Y-68429238D01*
X107227714Y-68524476D01*
X107275333Y-68714952D01*
X107275333Y-68857809D01*
X107227714Y-69048285D01*
X107180095Y-69143523D01*
X107084857Y-69238761D01*
X106942000Y-69286380D01*
X106703904Y-69286380D01*
X107608666Y-68286380D02*
X108227714Y-68286380D01*
X107894380Y-68667333D01*
X108037238Y-68667333D01*
X108132476Y-68714952D01*
X108180095Y-68762571D01*
X108227714Y-68857809D01*
X108227714Y-69095904D01*
X108180095Y-69191142D01*
X108132476Y-69238761D01*
X108037238Y-69286380D01*
X107751523Y-69286380D01*
X107656285Y-69238761D01*
X107608666Y-69191142D01*
D11*
%TO.C,J1*%
X149005108Y-85344000D02*
X150093680Y-85344000D01*
X150311394Y-85416571D01*
X150456537Y-85561714D01*
X150529108Y-85779428D01*
X150529108Y-85924571D01*
X150529108Y-83820000D02*
X150529108Y-84690857D01*
X150529108Y-84255428D02*
X149005108Y-84255428D01*
X149222822Y-84400571D01*
X149367965Y-84545714D01*
X149440537Y-84690857D01*
X155556857Y-89625714D02*
X155629428Y-89408000D01*
X155629428Y-89045142D01*
X155556857Y-88900000D01*
X155484285Y-88827428D01*
X155339142Y-88754857D01*
X155194000Y-88754857D01*
X155048857Y-88827428D01*
X154976285Y-88900000D01*
X154903714Y-89045142D01*
X154831142Y-89335428D01*
X154758571Y-89480571D01*
X154686000Y-89553142D01*
X154540857Y-89625714D01*
X154395714Y-89625714D01*
X154250571Y-89553142D01*
X154178000Y-89480571D01*
X154105428Y-89335428D01*
X154105428Y-88972571D01*
X154178000Y-88754857D01*
X155484285Y-87230857D02*
X155556857Y-87303428D01*
X155629428Y-87521142D01*
X155629428Y-87666285D01*
X155556857Y-87884000D01*
X155411714Y-88029142D01*
X155266571Y-88101714D01*
X154976285Y-88174285D01*
X154758571Y-88174285D01*
X154468285Y-88101714D01*
X154323142Y-88029142D01*
X154178000Y-87884000D01*
X154105428Y-87666285D01*
X154105428Y-87521142D01*
X154178000Y-87303428D01*
X154250571Y-87230857D01*
X155194000Y-86650285D02*
X155194000Y-85924571D01*
X155629428Y-86795428D02*
X154105428Y-86287428D01*
X155629428Y-85779428D01*
X155629428Y-84400571D02*
X154903714Y-84908571D01*
X155629428Y-85271428D02*
X154105428Y-85271428D01*
X154105428Y-84690857D01*
X154178000Y-84545714D01*
X154250571Y-84473142D01*
X154395714Y-84400571D01*
X154613428Y-84400571D01*
X154758571Y-84473142D01*
X154831142Y-84545714D01*
X154903714Y-84690857D01*
X154903714Y-85271428D01*
X154105428Y-83965142D02*
X154105428Y-83094285D01*
X155629428Y-83529714D02*
X154105428Y-83529714D01*
X155048857Y-82586285D02*
X155048857Y-81425142D01*
X154831142Y-80191428D02*
X154831142Y-80699428D01*
X155629428Y-80699428D02*
X154105428Y-80699428D01*
X154105428Y-79973714D01*
D10*
%TO.C,JP3*%
X137850666Y-82002380D02*
X137850666Y-82716666D01*
X137803047Y-82859523D01*
X137707809Y-82954761D01*
X137564952Y-83002380D01*
X137469714Y-83002380D01*
X138326857Y-83002380D02*
X138326857Y-82002380D01*
X138707809Y-82002380D01*
X138803047Y-82050000D01*
X138850666Y-82097619D01*
X138898285Y-82192857D01*
X138898285Y-82335714D01*
X138850666Y-82430952D01*
X138803047Y-82478571D01*
X138707809Y-82526190D01*
X138326857Y-82526190D01*
X139231619Y-82002380D02*
X139850666Y-82002380D01*
X139517333Y-82383333D01*
X139660190Y-82383333D01*
X139755428Y-82430952D01*
X139803047Y-82478571D01*
X139850666Y-82573809D01*
X139850666Y-82811904D01*
X139803047Y-82907142D01*
X139755428Y-82954761D01*
X139660190Y-83002380D01*
X139374476Y-83002380D01*
X139279238Y-82954761D01*
X139231619Y-82907142D01*
%TO.C,JP6*%
X131500666Y-64432380D02*
X131500666Y-65146666D01*
X131453047Y-65289523D01*
X131357809Y-65384761D01*
X131214952Y-65432380D01*
X131119714Y-65432380D01*
X131976857Y-65432380D02*
X131976857Y-64432380D01*
X132357809Y-64432380D01*
X132453047Y-64480000D01*
X132500666Y-64527619D01*
X132548285Y-64622857D01*
X132548285Y-64765714D01*
X132500666Y-64860952D01*
X132453047Y-64908571D01*
X132357809Y-64956190D01*
X131976857Y-64956190D01*
X133405428Y-64432380D02*
X133214952Y-64432380D01*
X133119714Y-64480000D01*
X133072095Y-64527619D01*
X132976857Y-64670476D01*
X132929238Y-64860952D01*
X132929238Y-65241904D01*
X132976857Y-65337142D01*
X133024476Y-65384761D01*
X133119714Y-65432380D01*
X133310190Y-65432380D01*
X133405428Y-65384761D01*
X133453047Y-65337142D01*
X133500666Y-65241904D01*
X133500666Y-65003809D01*
X133453047Y-64908571D01*
X133405428Y-64860952D01*
X133310190Y-64813333D01*
X133119714Y-64813333D01*
X133024476Y-64860952D01*
X132976857Y-64908571D01*
X132929238Y-65003809D01*
%TO.C,R11*%
X117467142Y-66492380D02*
X117133809Y-66016190D01*
X116895714Y-66492380D02*
X116895714Y-65492380D01*
X117276666Y-65492380D01*
X117371904Y-65540000D01*
X117419523Y-65587619D01*
X117467142Y-65682857D01*
X117467142Y-65825714D01*
X117419523Y-65920952D01*
X117371904Y-65968571D01*
X117276666Y-66016190D01*
X116895714Y-66016190D01*
X118419523Y-66492380D02*
X117848095Y-66492380D01*
X118133809Y-66492380D02*
X118133809Y-65492380D01*
X118038571Y-65635238D01*
X117943333Y-65730476D01*
X117848095Y-65778095D01*
X119371904Y-66492380D02*
X118800476Y-66492380D01*
X119086190Y-66492380D02*
X119086190Y-65492380D01*
X118990952Y-65635238D01*
X118895714Y-65730476D01*
X118800476Y-65778095D01*
%TO.C,R4*%
X107275333Y-65984380D02*
X106942000Y-65508190D01*
X106703904Y-65984380D02*
X106703904Y-64984380D01*
X107084857Y-64984380D01*
X107180095Y-65032000D01*
X107227714Y-65079619D01*
X107275333Y-65174857D01*
X107275333Y-65317714D01*
X107227714Y-65412952D01*
X107180095Y-65460571D01*
X107084857Y-65508190D01*
X106703904Y-65508190D01*
X108132476Y-65317714D02*
X108132476Y-65984380D01*
X107894380Y-64936761D02*
X107656285Y-65651047D01*
X108275333Y-65651047D01*
%TO.C,R2*%
X140549333Y-103576380D02*
X140216000Y-103100190D01*
X139977904Y-103576380D02*
X139977904Y-102576380D01*
X140358857Y-102576380D01*
X140454095Y-102624000D01*
X140501714Y-102671619D01*
X140549333Y-102766857D01*
X140549333Y-102909714D01*
X140501714Y-103004952D01*
X140454095Y-103052571D01*
X140358857Y-103100190D01*
X139977904Y-103100190D01*
X140930285Y-102671619D02*
X140977904Y-102624000D01*
X141073142Y-102576380D01*
X141311238Y-102576380D01*
X141406476Y-102624000D01*
X141454095Y-102671619D01*
X141501714Y-102766857D01*
X141501714Y-102862095D01*
X141454095Y-103004952D01*
X140882666Y-103576380D01*
X141501714Y-103576380D01*
%TO.C,R5*%
X107275333Y-72334380D02*
X106942000Y-71858190D01*
X106703904Y-72334380D02*
X106703904Y-71334380D01*
X107084857Y-71334380D01*
X107180095Y-71382000D01*
X107227714Y-71429619D01*
X107275333Y-71524857D01*
X107275333Y-71667714D01*
X107227714Y-71762952D01*
X107180095Y-71810571D01*
X107084857Y-71858190D01*
X106703904Y-71858190D01*
X108180095Y-71334380D02*
X107703904Y-71334380D01*
X107656285Y-71810571D01*
X107703904Y-71762952D01*
X107799142Y-71715333D01*
X108037238Y-71715333D01*
X108132476Y-71762952D01*
X108180095Y-71810571D01*
X108227714Y-71905809D01*
X108227714Y-72143904D01*
X108180095Y-72239142D01*
X108132476Y-72286761D01*
X108037238Y-72334380D01*
X107799142Y-72334380D01*
X107703904Y-72286761D01*
X107656285Y-72239142D01*
%TO.C,JP7*%
X131500666Y-82002380D02*
X131500666Y-82716666D01*
X131453047Y-82859523D01*
X131357809Y-82954761D01*
X131214952Y-83002380D01*
X131119714Y-83002380D01*
X131976857Y-83002380D02*
X131976857Y-82002380D01*
X132357809Y-82002380D01*
X132453047Y-82050000D01*
X132500666Y-82097619D01*
X132548285Y-82192857D01*
X132548285Y-82335714D01*
X132500666Y-82430952D01*
X132453047Y-82478571D01*
X132357809Y-82526190D01*
X131976857Y-82526190D01*
X132881619Y-82002380D02*
X133548285Y-82002380D01*
X133119714Y-83002380D01*
%TO.C,D1*%
X106703904Y-56078380D02*
X106703904Y-55078380D01*
X106942000Y-55078380D01*
X107084857Y-55126000D01*
X107180095Y-55221238D01*
X107227714Y-55316476D01*
X107275333Y-55506952D01*
X107275333Y-55649809D01*
X107227714Y-55840285D01*
X107180095Y-55935523D01*
X107084857Y-56030761D01*
X106942000Y-56078380D01*
X106703904Y-56078380D01*
X108227714Y-56078380D02*
X107656285Y-56078380D01*
X107942000Y-56078380D02*
X107942000Y-55078380D01*
X107846761Y-55221238D01*
X107751523Y-55316476D01*
X107656285Y-55364095D01*
%TO.C,J2*%
X110594380Y-90455333D02*
X111308666Y-90455333D01*
X111451523Y-90502952D01*
X111546761Y-90598190D01*
X111594380Y-90741047D01*
X111594380Y-90836285D01*
X110689619Y-90026761D02*
X110642000Y-89979142D01*
X110594380Y-89883904D01*
X110594380Y-89645809D01*
X110642000Y-89550571D01*
X110689619Y-89502952D01*
X110784857Y-89455333D01*
X110880095Y-89455333D01*
X111022952Y-89502952D01*
X111594380Y-90074380D01*
X111594380Y-89455333D01*
%TO.C,JP5*%
X131500666Y-73112380D02*
X131500666Y-73826666D01*
X131453047Y-73969523D01*
X131357809Y-74064761D01*
X131214952Y-74112380D01*
X131119714Y-74112380D01*
X131976857Y-74112380D02*
X131976857Y-73112380D01*
X132357809Y-73112380D01*
X132453047Y-73160000D01*
X132500666Y-73207619D01*
X132548285Y-73302857D01*
X132548285Y-73445714D01*
X132500666Y-73540952D01*
X132453047Y-73588571D01*
X132357809Y-73636190D01*
X131976857Y-73636190D01*
X133453047Y-73112380D02*
X132976857Y-73112380D01*
X132929238Y-73588571D01*
X132976857Y-73540952D01*
X133072095Y-73493333D01*
X133310190Y-73493333D01*
X133405428Y-73540952D01*
X133453047Y-73588571D01*
X133500666Y-73683809D01*
X133500666Y-73921904D01*
X133453047Y-74017142D01*
X133405428Y-74064761D01*
X133310190Y-74112380D01*
X133072095Y-74112380D01*
X132976857Y-74064761D01*
X132929238Y-74017142D01*
%TO.C,J4*%
X134029666Y-57942380D02*
X134029666Y-58656666D01*
X133982047Y-58799523D01*
X133886809Y-58894761D01*
X133743952Y-58942380D01*
X133648714Y-58942380D01*
X134934428Y-58275714D02*
X134934428Y-58942380D01*
X134696333Y-57894761D02*
X134458238Y-58609047D01*
X135077285Y-58609047D01*
%TO.C,R12*%
X117467142Y-74112380D02*
X117133809Y-73636190D01*
X116895714Y-74112380D02*
X116895714Y-73112380D01*
X117276666Y-73112380D01*
X117371904Y-73160000D01*
X117419523Y-73207619D01*
X117467142Y-73302857D01*
X117467142Y-73445714D01*
X117419523Y-73540952D01*
X117371904Y-73588571D01*
X117276666Y-73636190D01*
X116895714Y-73636190D01*
X118419523Y-74112380D02*
X117848095Y-74112380D01*
X118133809Y-74112380D02*
X118133809Y-73112380D01*
X118038571Y-73255238D01*
X117943333Y-73350476D01*
X117848095Y-73398095D01*
X118800476Y-73207619D02*
X118848095Y-73160000D01*
X118943333Y-73112380D01*
X119181428Y-73112380D01*
X119276666Y-73160000D01*
X119324285Y-73207619D01*
X119371904Y-73302857D01*
X119371904Y-73398095D01*
X119324285Y-73540952D01*
X118752857Y-74112380D01*
X119371904Y-74112380D01*
%TO.C,R9*%
X117943333Y-81732380D02*
X117610000Y-81256190D01*
X117371904Y-81732380D02*
X117371904Y-80732380D01*
X117752857Y-80732380D01*
X117848095Y-80780000D01*
X117895714Y-80827619D01*
X117943333Y-80922857D01*
X117943333Y-81065714D01*
X117895714Y-81160952D01*
X117848095Y-81208571D01*
X117752857Y-81256190D01*
X117371904Y-81256190D01*
X118419523Y-81732380D02*
X118610000Y-81732380D01*
X118705238Y-81684761D01*
X118752857Y-81637142D01*
X118848095Y-81494285D01*
X118895714Y-81303809D01*
X118895714Y-80922857D01*
X118848095Y-80827619D01*
X118800476Y-80780000D01*
X118705238Y-80732380D01*
X118514761Y-80732380D01*
X118419523Y-80780000D01*
X118371904Y-80827619D01*
X118324285Y-80922857D01*
X118324285Y-81160952D01*
X118371904Y-81256190D01*
X118419523Y-81303809D01*
X118514761Y-81351428D01*
X118705238Y-81351428D01*
X118800476Y-81303809D01*
X118848095Y-81256190D01*
X118895714Y-81160952D01*
%TO.C,JP4*%
X137850666Y-64432380D02*
X137850666Y-65146666D01*
X137803047Y-65289523D01*
X137707809Y-65384761D01*
X137564952Y-65432380D01*
X137469714Y-65432380D01*
X138326857Y-65432380D02*
X138326857Y-64432380D01*
X138707809Y-64432380D01*
X138803047Y-64480000D01*
X138850666Y-64527619D01*
X138898285Y-64622857D01*
X138898285Y-64765714D01*
X138850666Y-64860952D01*
X138803047Y-64908571D01*
X138707809Y-64956190D01*
X138326857Y-64956190D01*
X139755428Y-64765714D02*
X139755428Y-65432380D01*
X139517333Y-64384761D02*
X139279238Y-65099047D01*
X139898285Y-65099047D01*
%TO.C,Q1*%
X131222761Y-91475619D02*
X131127523Y-91428000D01*
X131032285Y-91332761D01*
X130889428Y-91189904D01*
X130794190Y-91142285D01*
X130698952Y-91142285D01*
X130746571Y-91380380D02*
X130651333Y-91332761D01*
X130556095Y-91237523D01*
X130508476Y-91047047D01*
X130508476Y-90713714D01*
X130556095Y-90523238D01*
X130651333Y-90428000D01*
X130746571Y-90380380D01*
X130937047Y-90380380D01*
X131032285Y-90428000D01*
X131127523Y-90523238D01*
X131175142Y-90713714D01*
X131175142Y-91047047D01*
X131127523Y-91237523D01*
X131032285Y-91332761D01*
X130937047Y-91380380D01*
X130746571Y-91380380D01*
X132127523Y-91380380D02*
X131556095Y-91380380D01*
X131841809Y-91380380D02*
X131841809Y-90380380D01*
X131746571Y-90523238D01*
X131651333Y-90618476D01*
X131556095Y-90666095D01*
%TO.C,R6*%
X117943333Y-89352380D02*
X117610000Y-88876190D01*
X117371904Y-89352380D02*
X117371904Y-88352380D01*
X117752857Y-88352380D01*
X117848095Y-88400000D01*
X117895714Y-88447619D01*
X117943333Y-88542857D01*
X117943333Y-88685714D01*
X117895714Y-88780952D01*
X117848095Y-88828571D01*
X117752857Y-88876190D01*
X117371904Y-88876190D01*
X118800476Y-88352380D02*
X118610000Y-88352380D01*
X118514761Y-88400000D01*
X118467142Y-88447619D01*
X118371904Y-88590476D01*
X118324285Y-88780952D01*
X118324285Y-89161904D01*
X118371904Y-89257142D01*
X118419523Y-89304761D01*
X118514761Y-89352380D01*
X118705238Y-89352380D01*
X118800476Y-89304761D01*
X118848095Y-89257142D01*
X118895714Y-89161904D01*
X118895714Y-88923809D01*
X118848095Y-88828571D01*
X118800476Y-88780952D01*
X118705238Y-88733333D01*
X118514761Y-88733333D01*
X118419523Y-88780952D01*
X118371904Y-88828571D01*
X118324285Y-88923809D01*
%TO.C,J3*%
X128444666Y-108190380D02*
X128444666Y-108904666D01*
X128397047Y-109047523D01*
X128301809Y-109142761D01*
X128158952Y-109190380D01*
X128063714Y-109190380D01*
X128825619Y-108190380D02*
X129444666Y-108190380D01*
X129111333Y-108571333D01*
X129254190Y-108571333D01*
X129349428Y-108618952D01*
X129397047Y-108666571D01*
X129444666Y-108761809D01*
X129444666Y-108999904D01*
X129397047Y-109095142D01*
X129349428Y-109142761D01*
X129254190Y-109190380D01*
X128968476Y-109190380D01*
X128873238Y-109142761D01*
X128825619Y-109095142D01*
%TO.C,JP1*%
X120654380Y-104719333D02*
X121368666Y-104719333D01*
X121511523Y-104766952D01*
X121606761Y-104862190D01*
X121654380Y-105005047D01*
X121654380Y-105100285D01*
X121654380Y-104243142D02*
X120654380Y-104243142D01*
X120654380Y-103862190D01*
X120702000Y-103766952D01*
X120749619Y-103719333D01*
X120844857Y-103671714D01*
X120987714Y-103671714D01*
X121082952Y-103719333D01*
X121130571Y-103766952D01*
X121178190Y-103862190D01*
X121178190Y-104243142D01*
X121654380Y-102719333D02*
X121654380Y-103290761D01*
X121654380Y-103005047D02*
X120654380Y-103005047D01*
X120797238Y-103100285D01*
X120892476Y-103195523D01*
X120940095Y-103290761D01*
%TO.C,R1*%
X138374380Y-96432666D02*
X137898190Y-96766000D01*
X138374380Y-97004095D02*
X137374380Y-97004095D01*
X137374380Y-96623142D01*
X137422000Y-96527904D01*
X137469619Y-96480285D01*
X137564857Y-96432666D01*
X137707714Y-96432666D01*
X137802952Y-96480285D01*
X137850571Y-96527904D01*
X137898190Y-96623142D01*
X137898190Y-97004095D01*
X138374380Y-95480285D02*
X138374380Y-96051714D01*
X138374380Y-95766000D02*
X137374380Y-95766000D01*
X137517238Y-95861238D01*
X137612476Y-95956476D01*
X137660095Y-96051714D01*
%TO.C,R3*%
X107275333Y-59380380D02*
X106942000Y-58904190D01*
X106703904Y-59380380D02*
X106703904Y-58380380D01*
X107084857Y-58380380D01*
X107180095Y-58428000D01*
X107227714Y-58475619D01*
X107275333Y-58570857D01*
X107275333Y-58713714D01*
X107227714Y-58808952D01*
X107180095Y-58856571D01*
X107084857Y-58904190D01*
X106703904Y-58904190D01*
X107608666Y-58380380D02*
X108227714Y-58380380D01*
X107894380Y-58761333D01*
X108037238Y-58761333D01*
X108132476Y-58808952D01*
X108180095Y-58856571D01*
X108227714Y-58951809D01*
X108227714Y-59189904D01*
X108180095Y-59285142D01*
X108132476Y-59332761D01*
X108037238Y-59380380D01*
X107751523Y-59380380D01*
X107656285Y-59332761D01*
X107608666Y-59285142D01*
D12*
%TO.C,JP2*%
X137354000Y-74870000D02*
X138684000Y-74870000D01*
X137354000Y-80070000D02*
X140014000Y-80070000D01*
X137354000Y-77470000D02*
X137354000Y-80070000D01*
X140014000Y-77470000D02*
X140014000Y-80070000D01*
X137354000Y-76200000D02*
X137354000Y-74870000D01*
X137354000Y-77470000D02*
X140014000Y-77470000D01*
%TO.C,R19*%
X115284000Y-48160000D02*
X115284000Y-48490000D01*
X108744000Y-48490000D02*
X108744000Y-48160000D01*
X108744000Y-50570000D02*
X108744000Y-50900000D01*
X108744000Y-50900000D02*
X115284000Y-50900000D01*
X108744000Y-48160000D02*
X115284000Y-48160000D01*
X115284000Y-50900000D02*
X115284000Y-50570000D01*
%TO.C,R18*%
X115284000Y-51208000D02*
X115284000Y-51538000D01*
X108744000Y-51538000D02*
X108744000Y-51208000D01*
X108744000Y-53618000D02*
X108744000Y-53948000D01*
X108744000Y-53948000D02*
X115284000Y-53948000D01*
X108744000Y-51208000D02*
X115284000Y-51208000D01*
X115284000Y-53948000D02*
X115284000Y-53618000D01*
%TO.C,R17*%
X129386000Y-77438000D02*
X129056000Y-77438000D01*
X129056000Y-70898000D02*
X129386000Y-70898000D01*
X126976000Y-70898000D02*
X126646000Y-70898000D01*
X126646000Y-70898000D02*
X126646000Y-77438000D01*
X129386000Y-70898000D02*
X129386000Y-77438000D01*
X126646000Y-77438000D02*
X126976000Y-77438000D01*
%TO.C,R16*%
X142648000Y-82518000D02*
X142978000Y-82518000D01*
X145388000Y-75978000D02*
X145388000Y-82518000D01*
X142648000Y-75978000D02*
X142648000Y-82518000D01*
X142978000Y-75978000D02*
X142648000Y-75978000D01*
X145058000Y-75978000D02*
X145388000Y-75978000D01*
X145388000Y-82518000D02*
X145058000Y-82518000D01*
%TO.C,R15*%
X133318000Y-63346000D02*
X133318000Y-63016000D01*
X126778000Y-60606000D02*
X133318000Y-60606000D01*
X126778000Y-63346000D02*
X133318000Y-63346000D01*
X126778000Y-63016000D02*
X126778000Y-63346000D01*
X126778000Y-60936000D02*
X126778000Y-60606000D01*
X133318000Y-60606000D02*
X133318000Y-60936000D01*
%TO.C,R14*%
X125190000Y-97560000D02*
X125190000Y-97890000D01*
X118650000Y-95150000D02*
X118650000Y-95480000D01*
X125190000Y-95480000D02*
X125190000Y-95150000D01*
X125190000Y-97890000D02*
X118650000Y-97890000D01*
X125190000Y-95150000D02*
X118650000Y-95150000D01*
X118650000Y-97890000D02*
X118650000Y-97560000D01*
%TO.C,R10*%
X114840000Y-94080000D02*
X121380000Y-94080000D01*
X114840000Y-91340000D02*
X121380000Y-91340000D01*
X114840000Y-93750000D02*
X114840000Y-94080000D01*
X114840000Y-91670000D02*
X114840000Y-91340000D01*
X121380000Y-94080000D02*
X121380000Y-93750000D01*
X121380000Y-91340000D02*
X121380000Y-91670000D01*
%TO.C,R7*%
X121380000Y-83720000D02*
X121380000Y-84050000D01*
X114840000Y-86130000D02*
X114840000Y-86460000D01*
X114840000Y-83720000D02*
X121380000Y-83720000D01*
X114840000Y-86460000D02*
X121380000Y-86460000D01*
X114840000Y-84050000D02*
X114840000Y-83720000D01*
X121380000Y-86460000D02*
X121380000Y-86130000D01*
%TO.C,D2*%
X108962000Y-63350000D02*
X108962000Y-61110000D01*
X109562000Y-61110000D02*
X105322000Y-61110000D01*
X109562000Y-63350000D02*
X109562000Y-61110000D01*
X105322000Y-63350000D02*
X109562000Y-63350000D01*
X108722000Y-63350000D02*
X108722000Y-61110000D01*
X108842000Y-63350000D02*
X108842000Y-61110000D01*
X104672000Y-62230000D02*
X105322000Y-62230000D01*
X105322000Y-61110000D02*
X105322000Y-63350000D01*
X110212000Y-62230000D02*
X109562000Y-62230000D01*
%TO.C,R8*%
X114840000Y-76100000D02*
X121380000Y-76100000D01*
X114840000Y-78840000D02*
X121380000Y-78840000D01*
X114840000Y-78510000D02*
X114840000Y-78840000D01*
X114840000Y-76430000D02*
X114840000Y-76100000D01*
X121380000Y-76100000D02*
X121380000Y-76430000D01*
X121380000Y-78840000D02*
X121380000Y-78510000D01*
%TO.C,R13*%
X114840000Y-68480000D02*
X121380000Y-68480000D01*
X121380000Y-68480000D02*
X121380000Y-68810000D01*
X114840000Y-68810000D02*
X114840000Y-68480000D01*
X114840000Y-70890000D02*
X114840000Y-71220000D01*
X121380000Y-71220000D02*
X121380000Y-70890000D01*
X114840000Y-71220000D02*
X121380000Y-71220000D01*
%TO.C,D3*%
X108962000Y-69954000D02*
X108962000Y-67714000D01*
X109562000Y-69954000D02*
X109562000Y-67714000D01*
X104672000Y-68834000D02*
X105322000Y-68834000D01*
X105322000Y-67714000D02*
X105322000Y-69954000D01*
X105322000Y-69954000D02*
X109562000Y-69954000D01*
X108722000Y-69954000D02*
X108722000Y-67714000D01*
X109562000Y-67714000D02*
X105322000Y-67714000D01*
X110212000Y-68834000D02*
X109562000Y-68834000D01*
X108842000Y-69954000D02*
X108842000Y-67714000D01*
D13*
%TO.C,J1*%
X146431000Y-61468000D02*
X153289000Y-61468000D01*
X163449000Y-61468000D02*
X163449000Y-108712000D01*
X146431000Y-61468000D02*
X146431000Y-108712000D01*
X156337000Y-111887000D02*
X153289000Y-111887000D01*
X156337000Y-59436000D02*
X153289000Y-59436000D01*
X146431000Y-108712000D02*
X153289000Y-108712000D01*
X156337000Y-57785000D02*
X153289000Y-57785000D01*
X163449000Y-108712000D02*
X156337000Y-108712000D01*
X156337000Y-110236000D02*
X153289000Y-110236000D01*
X153289000Y-111887000D02*
X153289000Y-57785000D01*
X156337000Y-57785000D02*
X156337000Y-111887000D01*
X156337000Y-61468000D02*
X163449000Y-61468000D01*
D12*
%TO.C,JP3*%
X140014000Y-86360000D02*
X140014000Y-83760000D01*
X140014000Y-86360000D02*
X137354000Y-86360000D01*
X140014000Y-83760000D02*
X137354000Y-83760000D01*
X140014000Y-87630000D02*
X140014000Y-88960000D01*
X137354000Y-86360000D02*
X137354000Y-83760000D01*
X140014000Y-88960000D02*
X138684000Y-88960000D01*
%TO.C,JP6*%
X131004000Y-68580000D02*
X133664000Y-68580000D01*
X131004000Y-71180000D02*
X133664000Y-71180000D01*
X131004000Y-68580000D02*
X131004000Y-71180000D01*
X131004000Y-65980000D02*
X132334000Y-65980000D01*
X131004000Y-67310000D02*
X131004000Y-65980000D01*
X133664000Y-68580000D02*
X133664000Y-71180000D01*
%TO.C,R11*%
X114840000Y-65000000D02*
X114840000Y-64670000D01*
X121380000Y-64670000D02*
X121380000Y-65000000D01*
X121380000Y-67410000D02*
X121380000Y-67080000D01*
X114840000Y-64670000D02*
X121380000Y-64670000D01*
X114840000Y-67080000D02*
X114840000Y-67410000D01*
X114840000Y-67410000D02*
X121380000Y-67410000D01*
%TO.C,R4*%
X104172000Y-66902000D02*
X104172000Y-66572000D01*
X110712000Y-64162000D02*
X104172000Y-64162000D01*
X110712000Y-64492000D02*
X110712000Y-64162000D01*
X110712000Y-66902000D02*
X104172000Y-66902000D01*
X104172000Y-64162000D02*
X104172000Y-64492000D01*
X110712000Y-66572000D02*
X110712000Y-66902000D01*
%TO.C,R2*%
X143986000Y-101754000D02*
X137446000Y-101754000D01*
X143986000Y-102084000D02*
X143986000Y-101754000D01*
X137446000Y-101754000D02*
X137446000Y-102084000D01*
X137446000Y-104494000D02*
X137446000Y-104164000D01*
X143986000Y-104164000D02*
X143986000Y-104494000D01*
X143986000Y-104494000D02*
X137446000Y-104494000D01*
%TO.C,R5*%
X110712000Y-70512000D02*
X104172000Y-70512000D01*
X104172000Y-70512000D02*
X104172000Y-70842000D01*
X110712000Y-72922000D02*
X110712000Y-73252000D01*
X104172000Y-73252000D02*
X104172000Y-72922000D01*
X110712000Y-73252000D02*
X104172000Y-73252000D01*
X110712000Y-70842000D02*
X110712000Y-70512000D01*
%TO.C,JP7*%
X131004000Y-83760000D02*
X132334000Y-83760000D01*
X131004000Y-85090000D02*
X131004000Y-83760000D01*
X133664000Y-86360000D02*
X133664000Y-88960000D01*
X131004000Y-86360000D02*
X131004000Y-88960000D01*
X131004000Y-88960000D02*
X133664000Y-88960000D01*
X131004000Y-86360000D02*
X133664000Y-86360000D01*
%TO.C,D1*%
X110212000Y-55626000D02*
X109562000Y-55626000D01*
X108962000Y-56746000D02*
X108962000Y-54506000D01*
X109562000Y-54506000D02*
X105322000Y-54506000D01*
X108842000Y-56746000D02*
X108842000Y-54506000D01*
X109562000Y-56746000D02*
X109562000Y-54506000D01*
X105322000Y-56746000D02*
X109562000Y-56746000D01*
X108722000Y-56746000D02*
X108722000Y-54506000D01*
X105322000Y-54506000D02*
X105322000Y-56746000D01*
X104672000Y-55626000D02*
X105322000Y-55626000D01*
%TO.C,J2*%
X111096338Y-84832000D02*
X110663325Y-84582000D01*
X110202000Y-74637000D02*
X110202000Y-105607000D01*
X110202000Y-105607000D02*
X99722000Y-105607000D01*
X110663325Y-84582000D02*
X111096338Y-84332000D01*
X111096338Y-84332000D02*
X111096338Y-84832000D01*
X99722000Y-74637000D02*
X110202000Y-74637000D01*
%TO.C,JP5*%
X133664000Y-77470000D02*
X131004000Y-77470000D01*
X133664000Y-78740000D02*
X133664000Y-80070000D01*
X131004000Y-77470000D02*
X131004000Y-74870000D01*
X133664000Y-74870000D02*
X131004000Y-74870000D01*
X133664000Y-80070000D02*
X132334000Y-80070000D01*
X133664000Y-77470000D02*
X133664000Y-74870000D01*
%TO.C,J4*%
X149848000Y-48950000D02*
X149848000Y-57550000D01*
X130048000Y-58011325D02*
X130298000Y-58444338D01*
X149848000Y-57550000D02*
X118878000Y-57550000D01*
X118878000Y-57550000D02*
X118878000Y-48950000D01*
X130298000Y-58444338D02*
X129798000Y-58444338D01*
X129798000Y-58444338D02*
X130048000Y-58011325D01*
%TO.C,R12*%
X114840000Y-75030000D02*
X121380000Y-75030000D01*
X114840000Y-72620000D02*
X114840000Y-72290000D01*
X114840000Y-74700000D02*
X114840000Y-75030000D01*
X121380000Y-75030000D02*
X121380000Y-74700000D01*
X121380000Y-72290000D02*
X121380000Y-72620000D01*
X114840000Y-72290000D02*
X121380000Y-72290000D01*
%TO.C,R9*%
X114840000Y-82650000D02*
X121380000Y-82650000D01*
X121380000Y-82650000D02*
X121380000Y-82320000D01*
X114840000Y-80240000D02*
X114840000Y-79910000D01*
X114840000Y-82320000D02*
X114840000Y-82650000D01*
X114840000Y-79910000D02*
X121380000Y-79910000D01*
X121380000Y-79910000D02*
X121380000Y-80240000D01*
%TO.C,JP4*%
X137354000Y-65980000D02*
X138684000Y-65980000D01*
X137354000Y-71180000D02*
X140014000Y-71180000D01*
X137354000Y-68580000D02*
X140014000Y-68580000D01*
X140014000Y-68580000D02*
X140014000Y-71180000D01*
X137354000Y-67310000D02*
X137354000Y-65980000D01*
X137354000Y-68580000D02*
X137354000Y-71180000D01*
%TO.C,Q1*%
X128993816Y-95610795D02*
G75*
G03*
X129518000Y-96338000I2324175J1122789D01*
G01*
X131318000Y-91888000D02*
G75*
G03*
X128961600Y-93389193I2J-2600002D01*
G01*
X133118000Y-96338000D02*
G75*
G03*
X133642184Y-95610795I-1799991J1849994D01*
G01*
X133674400Y-93389193D02*
G75*
G03*
X131318000Y-91888000I-2356399J-1098804D01*
G01*
X129518000Y-96338000D02*
X133118000Y-96338000D01*
%TO.C,R6*%
X114840000Y-87860000D02*
X114840000Y-87530000D01*
X114840000Y-87530000D02*
X121380000Y-87530000D01*
X114840000Y-89940000D02*
X114840000Y-90270000D01*
X114840000Y-90270000D02*
X121380000Y-90270000D01*
X121380000Y-87530000D02*
X121380000Y-87860000D01*
X121380000Y-90270000D02*
X121380000Y-89940000D01*
D14*
%TO.C,J3*%
X125178000Y-117138000D02*
X125178000Y-113538000D01*
X132378000Y-117138000D02*
X125178000Y-117138000D01*
X128778000Y-113538000D02*
X134778000Y-113538000D01*
X132378000Y-113738000D02*
X132378000Y-117138000D01*
X122778000Y-113538000D02*
X128778000Y-113538000D01*
X122778000Y-99338000D02*
X122778000Y-113538000D01*
X134778000Y-99338000D02*
X122778000Y-99338000D01*
X134778000Y-113538000D02*
X134778000Y-99338000D01*
D12*
%TO.C,JP1*%
X117602000Y-105216000D02*
X115002000Y-105216000D01*
X115002000Y-102556000D02*
X115002000Y-105216000D01*
X117602000Y-102556000D02*
X115002000Y-102556000D01*
X118872000Y-102556000D02*
X120202000Y-102556000D01*
X117602000Y-102556000D02*
X117602000Y-105216000D01*
X120202000Y-102556000D02*
X120202000Y-103886000D01*
%TO.C,R1*%
X136552000Y-92996000D02*
X136882000Y-92996000D01*
X138962000Y-99536000D02*
X139292000Y-99536000D01*
X136552000Y-99536000D02*
X136552000Y-92996000D01*
X139292000Y-99536000D02*
X139292000Y-92996000D01*
X136882000Y-99536000D02*
X136552000Y-99536000D01*
X139292000Y-92996000D02*
X138962000Y-92996000D01*
%TO.C,R3*%
X110712000Y-57558000D02*
X104172000Y-57558000D01*
X110712000Y-60298000D02*
X104172000Y-60298000D01*
X110712000Y-59968000D02*
X110712000Y-60298000D01*
X104172000Y-60298000D02*
X104172000Y-59968000D01*
X110712000Y-57888000D02*
X110712000Y-57558000D01*
X104172000Y-57558000D02*
X104172000Y-57888000D01*
%TD*%
D15*
%TO.C,J1*%
X155140660Y-58336180D03*
X155140660Y-111335820D03*
%TD*%
M02*
