%TF.GenerationSoftware,KiCad,Pcbnew,(6.0.2)*%
%TF.CreationDate,2022-09-10T23:33:55-05:00*%
%TF.ProjectId,CGA2SCart,43474132-5343-4617-9274-2e6b69636164,rev?*%
%TF.SameCoordinates,Original*%
%TF.FileFunction,Copper,L2,Bot*%
%TF.FilePolarity,Positive*%
%FSLAX46Y46*%
G04 Gerber Fmt 4.6, Leading zero omitted, Abs format (unit mm)*
G04 Created by KiCad (PCBNEW (6.0.2)) date 2022-09-10 23:33:55*
%MOMM*%
%LPD*%
G01*
G04 APERTURE LIST*
%TA.AperFunction,ComponentPad*%
%ADD10O,2.000000X1.000000*%
%TD*%
%TA.AperFunction,ComponentPad*%
%ADD11O,1.000000X2.000000*%
%TD*%
%TA.AperFunction,ComponentPad*%
%ADD12O,2.000000X1.500000*%
%TD*%
%TA.AperFunction,ComponentPad*%
%ADD13O,1.500000X2.000000*%
%TD*%
%TA.AperFunction,ComponentPad*%
%ADD14C,1.600000*%
%TD*%
%TA.AperFunction,ComponentPad*%
%ADD15O,1.600000X1.600000*%
%TD*%
%TA.AperFunction,ComponentPad*%
%ADD16R,1.700000X1.700000*%
%TD*%
%TA.AperFunction,ComponentPad*%
%ADD17O,1.700000X1.700000*%
%TD*%
%TA.AperFunction,ComponentPad*%
%ADD18R,1.500000X1.500000*%
%TD*%
%TA.AperFunction,ComponentPad*%
%ADD19C,1.500000*%
%TD*%
%TA.AperFunction,ComponentPad*%
%ADD20C,4.000000*%
%TD*%
%TA.AperFunction,ComponentPad*%
%ADD21R,1.600000X1.600000*%
%TD*%
%TA.AperFunction,ComponentPad*%
%ADD22C,1.998980*%
%TD*%
%TA.AperFunction,WasherPad*%
%ADD23O,4.100000X3.100000*%
%TD*%
%TA.AperFunction,Conductor*%
%ADD24C,0.350000*%
%TD*%
G04 APERTURE END LIST*
D10*
%TO.P,J3,3*%
%TO.N,GND*%
X135890000Y-49740000D03*
D11*
%TO.P,J3,1*%
%TO.N,Net-(J1-Pad2)*%
X131090000Y-54140000D03*
%TO.P,J3,2*%
%TO.N,Net-(J1-Pad6)*%
X141090000Y-57640000D03*
D12*
%TO.P,J3,4*%
%TO.N,unconnected-(J3-Pad4)*%
X131590000Y-61040000D03*
D13*
%TO.P,J3,5*%
%TO.N,unconnected-(J3-Pad5)*%
X138490000Y-56640000D03*
%TD*%
D14*
%TO.P,R14,1*%
%TO.N,Net-(Q1-Pad2)*%
X124460000Y-96520000D03*
D15*
%TO.P,R14,2*%
%TO.N,GND*%
X116840000Y-96520000D03*
%TD*%
%TO.P,R6,2*%
%TO.N,Net-(R6-Pad2)*%
X121920000Y-88900000D03*
D14*
%TO.P,R6,1*%
%TO.N,Net-(J2-Pad5)*%
X114300000Y-88900000D03*
%TD*%
%TO.P,R13,1*%
%TO.N,Net-(J2-Pad2)*%
X114300000Y-69850000D03*
D15*
%TO.P,R13,2*%
%TO.N,Net-(JP6-Pad1)*%
X121920000Y-69850000D03*
%TD*%
%TO.P,R12,2*%
%TO.N,Net-(JP5-Pad2)*%
X121920000Y-73660000D03*
D14*
%TO.P,R12,1*%
%TO.N,Net-(J2-Pad7)*%
X114300000Y-73660000D03*
%TD*%
D15*
%TO.P,R11,2*%
%TO.N,Net-(J2-Pad6)*%
X114300000Y-66040000D03*
D14*
%TO.P,R11,1*%
%TO.N,Net-(JP7-Pad2)*%
X121920000Y-66040000D03*
%TD*%
D16*
%TO.P,JP7,1,A*%
%TO.N,Net-(J1-Pad11)*%
X128270000Y-85090000D03*
D17*
%TO.P,JP7,2,B*%
%TO.N,Net-(JP7-Pad2)*%
X128270000Y-87630000D03*
%TD*%
%TO.P,JP6,2,B*%
%TO.N,Net-(J1-Pad15)*%
X128270000Y-69850000D03*
D16*
%TO.P,JP6,1,A*%
%TO.N,Net-(JP6-Pad1)*%
X128270000Y-67310000D03*
%TD*%
%TO.P,JP5,1,A*%
%TO.N,Net-(R6-Pad2)*%
X128270000Y-78740000D03*
D17*
%TO.P,JP5,2,B*%
%TO.N,Net-(JP5-Pad2)*%
X128270000Y-76200000D03*
%TD*%
D16*
%TO.P,JP4,1,A*%
%TO.N,Net-(R5-Pad2)*%
X135890000Y-67310000D03*
D17*
%TO.P,JP4,2,B*%
%TO.N,Net-(J1-Pad15)*%
X135890000Y-69850000D03*
%TD*%
D16*
%TO.P,JP3,1,A*%
%TO.N,Net-(R4-Pad2)*%
X135890000Y-87630000D03*
D17*
%TO.P,JP3,2,B*%
%TO.N,Net-(J1-Pad11)*%
X135890000Y-85090000D03*
%TD*%
%TO.P,JP2,2,B*%
%TO.N,Net-(R6-Pad2)*%
X135890000Y-78740000D03*
D16*
%TO.P,JP2,1,A*%
%TO.N,Net-(R3-Pad2)*%
X135890000Y-76200000D03*
%TD*%
%TO.P,JP1,1,A*%
%TO.N,Net-(R1-Pad1)*%
X111760000Y-102870000D03*
D17*
%TO.P,JP1,2,B*%
%TO.N,Net-(J2-Pad7)*%
X109220000Y-102870000D03*
%TD*%
D15*
%TO.P,R10,2*%
%TO.N,Net-(J2-Pad9)*%
X114300000Y-92710000D03*
D14*
%TO.P,R10,1*%
%TO.N,Net-(Q1-Pad2)*%
X121920000Y-92710000D03*
%TD*%
%TO.P,R9,1*%
%TO.N,Net-(Q1-Pad2)*%
X121920000Y-81280000D03*
D15*
%TO.P,R9,2*%
%TO.N,Net-(J2-Pad8)*%
X114300000Y-81280000D03*
%TD*%
%TO.P,R8,2*%
%TO.N,Net-(J1-Pad15)*%
X121920000Y-77470000D03*
D14*
%TO.P,R8,1*%
%TO.N,Net-(J2-Pad3)*%
X114300000Y-77470000D03*
%TD*%
%TO.P,R7,1*%
%TO.N,Net-(J2-Pad4)*%
X114300000Y-85090000D03*
D15*
%TO.P,R7,2*%
%TO.N,Net-(J1-Pad11)*%
X121920000Y-85090000D03*
%TD*%
D14*
%TO.P,R5,1*%
%TO.N,Net-(J2-Pad6)*%
X114300000Y-54610000D03*
D15*
%TO.P,R5,2*%
%TO.N,Net-(R5-Pad2)*%
X121920000Y-54610000D03*
%TD*%
D14*
%TO.P,R4,1*%
%TO.N,Net-(J2-Pad6)*%
X114300000Y-58420000D03*
D15*
%TO.P,R4,2*%
%TO.N,Net-(R4-Pad2)*%
X121920000Y-58420000D03*
%TD*%
%TO.P,R3,2*%
%TO.N,Net-(R3-Pad2)*%
X121920000Y-62230000D03*
D14*
%TO.P,R3,1*%
%TO.N,Net-(J2-Pad6)*%
X114300000Y-62230000D03*
%TD*%
%TO.P,R2,1*%
%TO.N,Net-(J1-Pad8)*%
X142240000Y-102870000D03*
D15*
%TO.P,R2,2*%
%TO.N,Net-(R1-Pad1)*%
X134620000Y-102870000D03*
%TD*%
D14*
%TO.P,R1,1*%
%TO.N,Net-(R1-Pad1)*%
X142240000Y-95250000D03*
D15*
%TO.P,R1,2*%
%TO.N,Net-(Q1-Pad3)*%
X134620000Y-95250000D03*
%TD*%
D18*
%TO.P,Q1,1,S*%
%TO.N,GND*%
X128270000Y-92710000D03*
D19*
%TO.P,Q1,2,G*%
%TO.N,Net-(Q1-Pad2)*%
X128270000Y-95250000D03*
%TO.P,Q1,3,D*%
%TO.N,Net-(Q1-Pad3)*%
X128270000Y-97790000D03*
%TD*%
D20*
%TO.P,J2,0*%
%TO.N,N/C*%
X106805331Y-59880000D03*
X106805331Y-84880000D03*
D21*
%TO.P,J2,1,1*%
%TO.N,GND*%
X107105331Y-66840000D03*
D14*
%TO.P,J2,2,2*%
%TO.N,Net-(J2-Pad2)*%
X107105331Y-69610000D03*
%TO.P,J2,3,3*%
%TO.N,Net-(J2-Pad3)*%
X107105331Y-72380000D03*
%TO.P,J2,4,4*%
%TO.N,Net-(J2-Pad4)*%
X107105331Y-75150000D03*
%TO.P,J2,5,5*%
%TO.N,Net-(J2-Pad5)*%
X107105331Y-77920000D03*
%TO.P,J2,6,6*%
%TO.N,Net-(J2-Pad6)*%
X104265331Y-68225000D03*
%TO.P,J2,7,7*%
%TO.N,Net-(J2-Pad7)*%
X104265331Y-70995000D03*
%TO.P,J2,8,8*%
%TO.N,Net-(J2-Pad8)*%
X104265331Y-73765000D03*
%TO.P,J2,9,9*%
%TO.N,Net-(J2-Pad9)*%
X104265331Y-76535000D03*
%TD*%
D22*
%TO.P,J1,1,P1*%
%TO.N,unconnected-(J1-Pad1)*%
X147660360Y-62230000D03*
%TO.P,J1,2,P2*%
%TO.N,Net-(J1-Pad2)*%
X152740360Y-64135000D03*
%TO.P,J1,3,P3*%
%TO.N,unconnected-(J1-Pad3)*%
X147660360Y-66040000D03*
%TO.P,J1,4,P4*%
%TO.N,GND*%
X152740360Y-67945000D03*
%TO.P,J1,5,P5*%
X147660360Y-69850000D03*
%TO.P,J1,6,P6*%
%TO.N,Net-(J1-Pad6)*%
X152740360Y-71755000D03*
%TO.P,J1,7,P7*%
%TO.N,Net-(R6-Pad2)*%
X147660360Y-73660000D03*
%TO.P,J1,8,P8*%
%TO.N,Net-(J1-Pad8)*%
X152740360Y-75565000D03*
%TO.P,J1,9,P9*%
%TO.N,GND*%
X147660360Y-77470000D03*
%TO.P,J1,10,P10*%
%TO.N,unconnected-(J1-Pad10)*%
X152740360Y-79375000D03*
%TO.P,J1,11,P11*%
%TO.N,Net-(J1-Pad11)*%
X147660360Y-81280000D03*
%TO.P,J1,12,P12*%
%TO.N,unconnected-(J1-Pad12)*%
X152740360Y-83185000D03*
%TO.P,J1,13,P13*%
%TO.N,GND*%
X147660360Y-85090000D03*
%TO.P,J1,14,P14*%
%TO.N,unconnected-(J1-Pad14)*%
X152740360Y-86995000D03*
%TO.P,J1,15,P15*%
%TO.N,Net-(J1-Pad15)*%
X147660360Y-88900000D03*
%TO.P,J1,16,P16*%
%TO.N,unconnected-(J1-Pad16)*%
X152740360Y-90805000D03*
%TO.P,J1,17,P17*%
%TO.N,unconnected-(J1-Pad17)*%
X147660360Y-92710000D03*
%TO.P,J1,18,P18*%
%TO.N,unconnected-(J1-Pad18)*%
X152740360Y-94615000D03*
%TO.P,J1,19,P19*%
%TO.N,unconnected-(J1-Pad19)*%
X147660360Y-96520000D03*
%TO.P,J1,20,P20*%
%TO.N,unconnected-(J1-Pad20)*%
X152740360Y-98425000D03*
%TO.P,J1,21,P21*%
%TO.N,unconnected-(J1-Pad21)*%
X147660360Y-100330000D03*
D23*
%TO.P,J1,*%
%TO.N,*%
X154739340Y-54780180D03*
X154739340Y-107779820D03*
%TD*%
D24*
%TO.N,Net-(J1-Pad6)*%
X150600000Y-60900000D02*
X150600000Y-69614640D01*
X147340000Y-57640000D02*
X150600000Y-60900000D01*
X150600000Y-69614640D02*
X152740360Y-71755000D01*
X141090000Y-57640000D02*
X147340000Y-57640000D01*
%TO.N,Net-(J1-Pad2)*%
X133300000Y-52100000D02*
X144800000Y-52100000D01*
X131260000Y-54140000D02*
X133300000Y-52100000D01*
X131090000Y-54140000D02*
X131260000Y-54140000D01*
X144800000Y-52100000D02*
X152740360Y-60040360D01*
X152740360Y-60040360D02*
X152740360Y-64135000D01*
%TO.N,Net-(R5-Pad2)*%
X123970000Y-56660000D02*
X121920000Y-54610000D01*
X123970000Y-59910000D02*
X123970000Y-56660000D01*
X135890000Y-67310000D02*
X131370000Y-67310000D01*
X131370000Y-67310000D02*
X123970000Y-59910000D01*
%TO.N,Net-(J1-Pad11)*%
X150790000Y-82845000D02*
X149225000Y-81280000D01*
X150790000Y-93050000D02*
X150790000Y-82845000D01*
X149225000Y-94615000D02*
X150790000Y-93050000D01*
X145415000Y-94615000D02*
X149225000Y-94615000D01*
X135890000Y-85090000D02*
X145415000Y-94615000D01*
X149225000Y-81280000D02*
X147660360Y-81280000D01*
%TO.N,Net-(R6-Pad2)*%
X146390360Y-74930000D02*
X147660360Y-73660000D01*
X145415000Y-74930000D02*
X146390360Y-74930000D01*
X144780000Y-75565000D02*
X145415000Y-74930000D01*
X144780000Y-82550000D02*
X144780000Y-75565000D01*
X148535000Y-83185000D02*
X145415000Y-83185000D01*
X143510000Y-90805000D02*
X148590000Y-90805000D01*
X145415000Y-83185000D02*
X144780000Y-82550000D01*
X149670000Y-89725000D02*
X149670000Y-84320000D01*
X141605000Y-88900000D02*
X143510000Y-90805000D01*
X141605000Y-84455000D02*
X141605000Y-88900000D01*
X148590000Y-90805000D02*
X149670000Y-89725000D01*
X149670000Y-84320000D02*
X148535000Y-83185000D01*
X135890000Y-78740000D02*
X141605000Y-84455000D01*
X119360000Y-87500000D02*
X120760000Y-88900000D01*
X119360000Y-81340000D02*
X119360000Y-87500000D01*
X120760000Y-88900000D02*
X121920000Y-88900000D01*
X120670000Y-80030000D02*
X119360000Y-81340000D01*
X128270000Y-78740000D02*
X126980000Y-80030000D01*
X126980000Y-80030000D02*
X120670000Y-80030000D01*
%TO.N,Net-(JP5-Pad2)*%
X127770000Y-76350000D02*
X128120000Y-76350000D01*
X120140000Y-79410000D02*
X124710000Y-79410000D01*
X124710000Y-79410000D02*
X127770000Y-76350000D01*
X128120000Y-76350000D02*
X128270000Y-76200000D01*
X118620000Y-77890000D02*
X120140000Y-79410000D01*
X118620000Y-75500000D02*
X118620000Y-77890000D01*
X121920000Y-73660000D02*
X120460000Y-73660000D01*
X120460000Y-73660000D02*
X118620000Y-75500000D01*
%TO.N,Net-(R3-Pad2)*%
X121920000Y-63370000D02*
X121920000Y-62230000D01*
X123650000Y-65100000D02*
X121920000Y-63370000D01*
X123650000Y-66570000D02*
X123650000Y-65100000D01*
X122530000Y-67690000D02*
X123650000Y-66570000D01*
X120050000Y-70730000D02*
X120050000Y-69200000D01*
X120960000Y-71640000D02*
X120050000Y-70730000D01*
X122820000Y-71640000D02*
X120960000Y-71640000D01*
X123960000Y-72780000D02*
X122820000Y-71640000D01*
X123960000Y-74150000D02*
X123960000Y-72780000D01*
X122610000Y-75500000D02*
X123960000Y-74150000D01*
X120620000Y-75500000D02*
X122610000Y-75500000D01*
X119990000Y-76130000D02*
X120620000Y-75500000D01*
X120810000Y-78730000D02*
X119990000Y-77910000D01*
X128000000Y-73610000D02*
X122880000Y-78730000D01*
X122880000Y-78730000D02*
X120810000Y-78730000D01*
X121560000Y-67690000D02*
X122530000Y-67690000D01*
X132020000Y-73610000D02*
X128000000Y-73610000D01*
X119990000Y-77910000D02*
X119990000Y-76130000D01*
X120050000Y-69200000D02*
X121560000Y-67690000D01*
X134610000Y-76200000D02*
X132020000Y-73610000D01*
X135890000Y-76200000D02*
X134610000Y-76200000D01*
%TO.N,Net-(J1-Pad15)*%
X125450000Y-73940000D02*
X121920000Y-77470000D01*
X125450000Y-72670000D02*
X125450000Y-73940000D01*
X128270000Y-69850000D02*
X125450000Y-72670000D01*
%TO.N,Net-(JP7-Pad2)*%
X130920000Y-87630000D02*
X128270000Y-87630000D01*
X136600000Y-93310000D02*
X130920000Y-87630000D01*
X136600000Y-95840000D02*
X136600000Y-93310000D01*
X132760000Y-99680000D02*
X136600000Y-95840000D01*
X115030000Y-97720000D02*
X116990000Y-99680000D01*
X115030000Y-95410000D02*
X115030000Y-97720000D01*
X116980000Y-93460000D02*
X115030000Y-95410000D01*
X116980000Y-69430000D02*
X116980000Y-93460000D01*
X116990000Y-99680000D02*
X132760000Y-99680000D01*
X121920000Y-66040000D02*
X120370000Y-66040000D01*
X120370000Y-66040000D02*
X116980000Y-69430000D01*
%TO.N,Net-(Q1-Pad2)*%
X123800000Y-88540000D02*
X123800000Y-90590000D01*
X121350000Y-87100000D02*
X122360000Y-87100000D01*
X120280000Y-86030000D02*
X121350000Y-87100000D01*
X122360000Y-87100000D02*
X123800000Y-88540000D01*
X120280000Y-82920000D02*
X120280000Y-86030000D01*
X121920000Y-81280000D02*
X120280000Y-82920000D01*
%TO.N,Net-(Q1-Pad3)*%
X128950000Y-97790000D02*
X128270000Y-97790000D01*
X131490000Y-95250000D02*
X128950000Y-97790000D01*
X134620000Y-95250000D02*
X131490000Y-95250000D01*
%TO.N,Net-(R4-Pad2)*%
X118740000Y-58420000D02*
X121920000Y-58420000D01*
X115860000Y-61300000D02*
X118740000Y-58420000D01*
X113660000Y-95470000D02*
X115860000Y-93270000D01*
X113660000Y-99830000D02*
X113660000Y-95470000D01*
X115860000Y-93270000D02*
X115860000Y-61300000D01*
X116800000Y-102970000D02*
X113660000Y-99830000D01*
X131410000Y-102970000D02*
X116800000Y-102970000D01*
X137880000Y-96500000D02*
X131410000Y-102970000D01*
X137880000Y-89620000D02*
X137880000Y-96500000D01*
X135890000Y-87630000D02*
X137880000Y-89620000D01*
%TO.N,GND*%
X121640000Y-96520000D02*
X116840000Y-96520000D01*
X125450000Y-92710000D02*
X121640000Y-96520000D01*
X128270000Y-92710000D02*
X125450000Y-92710000D01*
%TO.N,Net-(Q1-Pad2)*%
X125730000Y-95250000D02*
X124460000Y-96520000D01*
X128270000Y-95250000D02*
X125730000Y-95250000D01*
X129050000Y-90590000D02*
X123800000Y-90590000D01*
X130810000Y-92400000D02*
X129050000Y-90640000D01*
X129050000Y-90640000D02*
X129050000Y-90590000D01*
X129300000Y-95250000D02*
X130810000Y-93740000D01*
X128270000Y-95250000D02*
X129300000Y-95250000D01*
X130810000Y-93740000D02*
X130810000Y-92400000D01*
%TO.N,Net-(R1-Pad1)*%
X133650000Y-103840000D02*
X112730000Y-103840000D01*
X134620000Y-102870000D02*
X133650000Y-103840000D01*
X112730000Y-103840000D02*
X111760000Y-102870000D01*
X139700000Y-97790000D02*
X134620000Y-102870000D01*
X142240000Y-95250000D02*
X139700000Y-97790000D01*
%TO.N,Net-(Q1-Pad2)*%
X123800000Y-90590000D02*
X123800000Y-90830000D01*
%TO.N,Net-(J1-Pad11)*%
X121920000Y-85090000D02*
X128270000Y-85090000D01*
X128270000Y-85090000D02*
X135890000Y-85090000D01*
%TO.N,Net-(R6-Pad2)*%
X135890000Y-78740000D02*
X128270000Y-78740000D01*
%TO.N,Net-(J1-Pad15)*%
X145225000Y-88900000D02*
X147660360Y-88900000D01*
X143125000Y-86800000D02*
X145225000Y-88900000D01*
X143125000Y-77085000D02*
X143125000Y-86800000D01*
X135890000Y-69850000D02*
X143125000Y-77085000D01*
X135890000Y-69850000D02*
X128270000Y-69850000D01*
%TO.N,Net-(JP6-Pad1)*%
X124460000Y-67310000D02*
X128270000Y-67310000D01*
X121920000Y-69850000D02*
X124460000Y-67310000D01*
%TO.N,Net-(J2-Pad7)*%
X109220000Y-102235000D02*
X109220000Y-102870000D01*
X102235000Y-95250000D02*
X109220000Y-102235000D01*
X102235000Y-71755000D02*
X102235000Y-95250000D01*
X102995000Y-70995000D02*
X102235000Y-71755000D01*
X104265331Y-70995000D02*
X102995000Y-70995000D01*
%TO.N,Net-(J1-Pad8)*%
X154940000Y-77764640D02*
X152740360Y-75565000D01*
X154940000Y-101600000D02*
X154940000Y-77764640D01*
X153670000Y-102870000D02*
X154940000Y-101600000D01*
X142240000Y-102870000D02*
X153670000Y-102870000D01*
%TO.N,Net-(Q1-Pad2)*%
X123800000Y-90830000D02*
X121920000Y-92710000D01*
%TO.N,Net-(J2-Pad9)*%
X110000000Y-87270000D02*
X114300000Y-91570000D01*
X104265331Y-77315331D02*
X110000000Y-83050000D01*
X110000000Y-83050000D02*
X110000000Y-87270000D01*
X114300000Y-91570000D02*
X114300000Y-92710000D01*
X104265331Y-76535000D02*
X104265331Y-77315331D01*
%TO.N,Net-(J2-Pad5)*%
X111010000Y-84620000D02*
X114300000Y-87910000D01*
X111010000Y-81824669D02*
X111010000Y-84620000D01*
X114300000Y-87910000D02*
X114300000Y-88900000D01*
X107105331Y-77920000D02*
X111010000Y-81824669D01*
%TO.N,Net-(J2-Pad4)*%
X112330000Y-80374669D02*
X112330000Y-83120000D01*
X107105331Y-75150000D02*
X112330000Y-80374669D01*
X112330000Y-83120000D02*
X114300000Y-85090000D01*
%TO.N,Net-(J2-Pad8)*%
X109600000Y-75380000D02*
X114300000Y-80080000D01*
X109600000Y-75320000D02*
X109600000Y-75380000D01*
X108045000Y-73765000D02*
X109600000Y-75320000D01*
X114300000Y-80080000D02*
X114300000Y-81280000D01*
X104265331Y-73765000D02*
X108045000Y-73765000D01*
%TO.N,Net-(J2-Pad3)*%
X109210000Y-72380000D02*
X114300000Y-77470000D01*
X107105331Y-72380000D02*
X109210000Y-72380000D01*
%TO.N,Net-(J2-Pad7)*%
X104265331Y-70995000D02*
X111635000Y-70995000D01*
X111635000Y-70995000D02*
X114300000Y-73660000D01*
%TO.N,Net-(J2-Pad2)*%
X114060000Y-69610000D02*
X114300000Y-69850000D01*
X107105331Y-69610000D02*
X114060000Y-69610000D01*
%TO.N,Net-(J2-Pad6)*%
X114300000Y-58420000D02*
X114300000Y-54610000D01*
X114300000Y-62230000D02*
X114300000Y-58420000D01*
X114300000Y-66040000D02*
X114300000Y-62230000D01*
X112760000Y-66040000D02*
X114300000Y-66040000D01*
X111700000Y-64980000D02*
X112760000Y-66040000D01*
X104265331Y-66424669D02*
X105710000Y-64980000D01*
X105710000Y-64980000D02*
X111700000Y-64980000D01*
X104265331Y-68225000D02*
X104265331Y-66424669D01*
%TD*%
M02*
