%TF.GenerationSoftware,KiCad,Pcbnew,(6.0.2)*%
%TF.CreationDate,2022-11-12T18:16:00-06:00*%
%TF.ProjectId,CGA2SCart,43474132-5343-4617-9274-2e6b69636164,rev?*%
%TF.SameCoordinates,Original*%
%TF.FileFunction,Soldermask,Top*%
%TF.FilePolarity,Negative*%
%FSLAX46Y46*%
G04 Gerber Fmt 4.6, Leading zero omitted, Abs format (unit mm)*
G04 Created by KiCad (PCBNEW (6.0.2)) date 2022-11-12 18:16:00*
%MOMM*%
%LPD*%
G01*
G04 APERTURE LIST*
%ADD10C,1.600000*%
%ADD11O,1.600000X1.600000*%
%ADD12R,1.600000X1.600000*%
%ADD13R,1.700000X1.700000*%
%ADD14O,1.700000X1.700000*%
%ADD15O,4.100000X3.100000*%
%ADD16C,1.998980*%
%ADD17C,4.000000*%
%ADD18R,1.500000X1.500000*%
%ADD19C,1.500000*%
%ADD20O,1.000000X2.000000*%
%ADD21O,2.000000X1.000000*%
%ADD22O,2.000000X1.500000*%
%ADD23O,1.500000X2.000000*%
G04 APERTURE END LIST*
D10*
%TO.C,R14*%
X125730000Y-96520000D03*
D11*
X118110000Y-96520000D03*
%TD*%
D10*
%TO.C,R10*%
X114300000Y-92710000D03*
D11*
X121920000Y-92710000D03*
%TD*%
D10*
%TO.C,R18*%
X108204000Y-52578000D03*
D11*
X115824000Y-52578000D03*
%TD*%
D10*
%TO.C,R17*%
X128016000Y-70358000D03*
D11*
X128016000Y-77978000D03*
%TD*%
D10*
%TO.C,R7*%
X114300000Y-85090000D03*
D11*
X121920000Y-85090000D03*
%TD*%
D12*
%TO.C,D2*%
X111252000Y-62230000D03*
D11*
X103632000Y-62230000D03*
%TD*%
D10*
%TO.C,R16*%
X144018000Y-75438000D03*
D11*
X144018000Y-83058000D03*
%TD*%
D13*
%TO.C,JP2*%
X138684000Y-76200000D03*
D14*
X138684000Y-78740000D03*
%TD*%
D10*
%TO.C,R8*%
X114300000Y-77470000D03*
D11*
X121920000Y-77470000D03*
%TD*%
D10*
%TO.C,R13*%
X114300000Y-69850000D03*
D11*
X121920000Y-69850000D03*
%TD*%
D12*
%TO.C,D3*%
X111252000Y-68834000D03*
D11*
X103632000Y-68834000D03*
%TD*%
D15*
%TO.C,J1*%
X155140660Y-58336180D03*
X155140660Y-111335820D03*
D16*
X162219640Y-103886000D03*
X157139640Y-101981000D03*
X162219640Y-100076000D03*
X157139640Y-98171000D03*
X162219640Y-96266000D03*
X157139640Y-94361000D03*
X162219640Y-92456000D03*
X157139640Y-90551000D03*
X162219640Y-88646000D03*
X157139640Y-86741000D03*
X162219640Y-84836000D03*
X157139640Y-82931000D03*
X162219640Y-81026000D03*
X157139640Y-79121000D03*
X162219640Y-77216000D03*
X157139640Y-75311000D03*
X162219640Y-73406000D03*
X157139640Y-71501000D03*
X162219640Y-69596000D03*
X157139640Y-67691000D03*
X162219640Y-65786000D03*
%TD*%
D13*
%TO.C,JP3*%
X138684000Y-87630000D03*
D14*
X138684000Y-85090000D03*
%TD*%
D13*
%TO.C,JP6*%
X132334000Y-67310000D03*
D14*
X132334000Y-69850000D03*
%TD*%
D10*
%TO.C,R19*%
X108204000Y-49530000D03*
D11*
X115824000Y-49530000D03*
%TD*%
D10*
%TO.C,R11*%
X114300000Y-66040000D03*
D11*
X121920000Y-66040000D03*
%TD*%
D10*
%TO.C,R4*%
X111252000Y-65532000D03*
D11*
X103632000Y-65532000D03*
%TD*%
D10*
%TO.C,R2*%
X144526000Y-103124000D03*
D11*
X136906000Y-103124000D03*
%TD*%
D10*
%TO.C,R5*%
X111252000Y-71882000D03*
D11*
X103632000Y-71882000D03*
%TD*%
D14*
%TO.C,JP7*%
X132334000Y-85090000D03*
D13*
X132334000Y-87630000D03*
%TD*%
D12*
%TO.C,D1*%
X111252000Y-55626000D03*
D11*
X103632000Y-55626000D03*
%TD*%
D17*
%TO.C,J2*%
X107142000Y-77622000D03*
X107142000Y-102622000D03*
D12*
X107442000Y-84582000D03*
D10*
X107442000Y-87352000D03*
X107442000Y-90122000D03*
X107442000Y-92892000D03*
X107442000Y-95662000D03*
X104602000Y-85967000D03*
X104602000Y-88737000D03*
X104602000Y-91507000D03*
X104602000Y-94277000D03*
%TD*%
D13*
%TO.C,JP5*%
X132334000Y-76190000D03*
D14*
X132334000Y-78730000D03*
%TD*%
D17*
%TO.C,J4*%
X121863000Y-53830000D03*
X146863000Y-53830000D03*
D12*
X130048000Y-55880000D03*
D10*
X132338000Y-55880000D03*
X134628000Y-55880000D03*
X136918000Y-55880000D03*
X139208000Y-55880000D03*
X128903000Y-53900000D03*
X131193000Y-53900000D03*
X133483000Y-53900000D03*
X135773000Y-53900000D03*
X138063000Y-53900000D03*
X130048000Y-51920000D03*
X132338000Y-51920000D03*
X134628000Y-51920000D03*
X136918000Y-51920000D03*
X139208000Y-51920000D03*
%TD*%
%TO.C,R12*%
X114300000Y-73660000D03*
D11*
X121920000Y-73660000D03*
%TD*%
D10*
%TO.C,R9*%
X114300000Y-81280000D03*
D11*
X121920000Y-81280000D03*
%TD*%
D13*
%TO.C,JP4*%
X138684000Y-67310000D03*
D14*
X138684000Y-69850000D03*
%TD*%
D18*
%TO.C,Q1*%
X128778000Y-94488000D03*
D19*
X131318000Y-94488000D03*
X133858000Y-94488000D03*
%TD*%
D10*
%TO.C,R6*%
X114300000Y-88900000D03*
D11*
X121920000Y-88900000D03*
%TD*%
D20*
%TO.C,J3*%
X133578000Y-107438000D03*
X123578000Y-103938000D03*
D21*
X128778000Y-111838000D03*
D22*
X133078000Y-100538000D03*
D23*
X126178000Y-104938000D03*
%TD*%
D10*
%TO.C,R15*%
X126238000Y-61976000D03*
D11*
X133858000Y-61976000D03*
%TD*%
D13*
%TO.C,JP1*%
X118872000Y-103886000D03*
D14*
X116332000Y-103886000D03*
%TD*%
D10*
%TO.C,R1*%
X137922000Y-100076000D03*
D11*
X137922000Y-92456000D03*
%TD*%
D10*
%TO.C,R3*%
X111252000Y-58928000D03*
D11*
X103632000Y-58928000D03*
%TD*%
M02*
