M48
; DRILL file {KiCad (6.0.2)} date Sun Dec  4 18:43:20 2022
; FORMAT={-:-/ absolute / inch / decimal}
; #@! TF.CreationDate,2022-12-04T18:43:20-06:00
; #@! TF.GenerationSoftware,Kicad,Pcbnew,(6.0.2)
; #@! TF.FileFunction,Plated,1,2,PTH
FMAT,2
INCH
; #@! TA.AperFunction,Plated,PTH,ViaDrill
T1C0.0157
; #@! TA.AperFunction,Plated,PTH,ComponentDrill
T2C0.0295
; #@! TA.AperFunction,Plated,PTH,ComponentDrill
T3C0.0315
; #@! TA.AperFunction,Plated,PTH,ComponentDrill
T4C0.0394
; #@! TA.AperFunction,Plated,PTH,ComponentDrill
T5C0.0433
; #@! TA.AperFunction,Plated,PTH,ComponentDrill
T6C0.0472
; #@! TA.AperFunction,Plated,PTH,ComponentDrill
T7C0.1260
%
G90
G05
T1
X5.37Y-2.31
T3
X4.08Y-2.19
X4.08Y-2.32
X4.08Y-2.45
X4.08Y-2.58
X4.08Y-2.71
X4.08Y-2.83
X4.26Y-1.95
X4.26Y-2.07
X4.38Y-2.19
X4.38Y-2.32
X4.38Y-2.45
X4.38Y-2.58
X4.38Y-2.71
X4.38Y-2.83
X4.43Y-4.72
X4.45Y-3.9031
X4.45Y-4.1
X4.49Y-3.59
X4.49Y-3.78
X4.4992Y-3.1953
X4.5Y-2.6
X4.5Y-2.75
X4.5Y-2.9
X4.5Y-3.05
X4.5087Y-4.72
X4.5413Y-4.51
X4.56Y-1.95
X4.56Y-2.07
X4.62Y-4.51
X4.6298Y-4.0196
X4.6298Y-4.3196
X4.7298Y-4.0196
X4.7298Y-4.3196
X4.79Y-3.59
X4.79Y-3.78
X4.7992Y-3.1953
X4.8Y-2.6
X4.8Y-2.75
X4.8Y-2.9
X4.8Y-3.05
X4.8298Y-4.0196
X4.8298Y-4.3196
X4.91Y-3.66
X4.91Y-3.81
X4.9298Y-4.0196
X4.9298Y-4.3196
X4.93Y-3.21
X4.93Y-3.51
X4.97Y-2.44
X5.0298Y-4.0196
X5.0298Y-4.3196
X5.04Y-2.77
X5.04Y-3.07
X5.1298Y-4.0196
X5.1298Y-4.3196
X5.21Y-3.66
X5.21Y-3.81
X5.2298Y-4.0196
X5.2298Y-4.3196
X5.23Y-4.45
X5.23Y-4.75
X5.27Y-2.44
X5.37Y-4.1
X5.37Y-4.23
X5.4324Y-3.91
X5.4424Y-3.68
X5.5111Y-3.91
X5.5211Y-3.68
X5.66Y-2.74
X5.66Y-3.04
X5.67Y-4.1
X5.67Y-4.23
X6.13Y-2.1
X6.43Y-2.1
T4
X4.1182Y-3.3845
X4.1182Y-3.4936
X4.1182Y-3.6026
X4.1182Y-3.7117
X4.22Y-4.31
X4.23Y-3.33
X4.23Y-3.4391
X4.23Y-3.5481
X4.23Y-3.6572
X4.23Y-3.7662
X4.32Y-4.31
X4.42Y-4.31
X4.83Y-4.5
X4.93Y-4.5
X5.03Y-4.5
X5.0749Y-2.122
X5.12Y-2.0441
X5.12Y-2.2
X5.1651Y-2.122
X5.21Y-2.65
X5.21Y-2.75
X5.21Y-2.9996
X5.21Y-3.0996
X5.21Y-3.35
X5.21Y-3.45
X5.2102Y-2.0441
X5.2102Y-2.2
X5.2552Y-2.122
X5.3003Y-2.0441
X5.3003Y-2.2
X5.3454Y-2.122
X5.3905Y-2.0441
X5.3905Y-2.2
X5.4356Y-2.122
X5.46Y-2.65
X5.46Y-2.75
X5.46Y-3.0
X5.46Y-3.1
X5.46Y-3.35
X5.46Y-3.45
X5.4806Y-2.0441
X5.4806Y-2.2
T5
X4.73Y-4.7128
X4.83Y-4.7128
X4.93Y-4.7128
T6
X6.1866Y-2.665
X6.1866Y-2.815
X6.1866Y-2.965
X6.1866Y-3.115
X6.1866Y-3.265
X6.1866Y-3.415
X6.1866Y-3.565
X6.1866Y-3.715
X6.1866Y-3.865
X6.1866Y-4.015
X6.3866Y-2.59
X6.3866Y-2.74
X6.3866Y-2.89
X6.3866Y-3.04
X6.3866Y-3.19
X6.3866Y-3.34
X6.3866Y-3.49
X6.3866Y-3.64
X6.3866Y-3.79
X6.3866Y-3.94
X6.3866Y-4.09
T7
X4.2182Y-3.056
X4.2182Y-4.0402
X4.7978Y-2.1193
X5.782Y-2.1193
T2
G00X5.3553Y-4.4968
M15
G01X5.3553Y-4.4673
M16
G05
G00X5.5748Y-4.7931
M15
G01X5.5452Y-4.7931
M16
G05
G00X5.749Y-4.6346
M15
G01X5.749Y-4.6051
M16
G05
T4
G00X4.0038Y-4.6006
M15
G01X4.0038Y-4.6794
M16
G05
G00X4.0825Y-4.825
M15
G01X4.1613Y-4.825
M16
G05
G00X4.24Y-4.6006
M15
G01X4.24Y-4.6794
M16
G05
G00X5.4576Y-4.5313
M15
G01X5.4576Y-4.5116
M16
G05
G00X5.7391Y-4.3482
M15
G01X5.7194Y-4.3482
M16
G05
T0
M30
