%TF.GenerationSoftware,KiCad,Pcbnew,(6.0.2)*%
%TF.CreationDate,2022-09-10T23:33:55-05:00*%
%TF.ProjectId,CGA2SCart,43474132-5343-4617-9274-2e6b69636164,rev?*%
%TF.SameCoordinates,Original*%
%TF.FileFunction,Soldermask,Top*%
%TF.FilePolarity,Negative*%
%FSLAX46Y46*%
G04 Gerber Fmt 4.6, Leading zero omitted, Abs format (unit mm)*
G04 Created by KiCad (PCBNEW (6.0.2)) date 2022-09-10 23:33:55*
%MOMM*%
%LPD*%
G01*
G04 APERTURE LIST*
%ADD10O,2.000000X1.000000*%
%ADD11O,1.000000X2.000000*%
%ADD12O,2.000000X1.500000*%
%ADD13O,1.500000X2.000000*%
%ADD14C,1.600000*%
%ADD15O,1.600000X1.600000*%
%ADD16R,1.700000X1.700000*%
%ADD17O,1.700000X1.700000*%
%ADD18R,1.500000X1.500000*%
%ADD19C,1.500000*%
%ADD20C,4.000000*%
%ADD21R,1.600000X1.600000*%
%ADD22C,1.998980*%
%ADD23O,4.100000X3.100000*%
G04 APERTURE END LIST*
D10*
%TO.C,J3*%
X135890000Y-49740000D03*
D11*
X131090000Y-54140000D03*
X141090000Y-57640000D03*
D12*
X131590000Y-61040000D03*
D13*
X138490000Y-56640000D03*
%TD*%
D14*
%TO.C,R14*%
X124460000Y-96520000D03*
D15*
X116840000Y-96520000D03*
%TD*%
%TO.C,R6*%
X121920000Y-88900000D03*
D14*
X114300000Y-88900000D03*
%TD*%
%TO.C,R13*%
X114300000Y-69850000D03*
D15*
X121920000Y-69850000D03*
%TD*%
%TO.C,R12*%
X121920000Y-73660000D03*
D14*
X114300000Y-73660000D03*
%TD*%
D15*
%TO.C,R11*%
X114300000Y-66040000D03*
D14*
X121920000Y-66040000D03*
%TD*%
D16*
%TO.C,JP7*%
X128270000Y-85090000D03*
D17*
X128270000Y-87630000D03*
%TD*%
%TO.C,JP6*%
X128270000Y-69850000D03*
D16*
X128270000Y-67310000D03*
%TD*%
%TO.C,JP5*%
X128270000Y-78740000D03*
D17*
X128270000Y-76200000D03*
%TD*%
D16*
%TO.C,JP4*%
X135890000Y-67310000D03*
D17*
X135890000Y-69850000D03*
%TD*%
D16*
%TO.C,JP3*%
X135890000Y-87630000D03*
D17*
X135890000Y-85090000D03*
%TD*%
%TO.C,JP2*%
X135890000Y-78740000D03*
D16*
X135890000Y-76200000D03*
%TD*%
%TO.C,JP1*%
X111760000Y-102870000D03*
D17*
X109220000Y-102870000D03*
%TD*%
D15*
%TO.C,R10*%
X114300000Y-92710000D03*
D14*
X121920000Y-92710000D03*
%TD*%
%TO.C,R9*%
X121920000Y-81280000D03*
D15*
X114300000Y-81280000D03*
%TD*%
%TO.C,R8*%
X121920000Y-77470000D03*
D14*
X114300000Y-77470000D03*
%TD*%
%TO.C,R7*%
X114300000Y-85090000D03*
D15*
X121920000Y-85090000D03*
%TD*%
D14*
%TO.C,R5*%
X114300000Y-54610000D03*
D15*
X121920000Y-54610000D03*
%TD*%
D14*
%TO.C,R4*%
X114300000Y-58420000D03*
D15*
X121920000Y-58420000D03*
%TD*%
%TO.C,R3*%
X121920000Y-62230000D03*
D14*
X114300000Y-62230000D03*
%TD*%
%TO.C,R2*%
X142240000Y-102870000D03*
D15*
X134620000Y-102870000D03*
%TD*%
D14*
%TO.C,R1*%
X142240000Y-95250000D03*
D15*
X134620000Y-95250000D03*
%TD*%
D18*
%TO.C,Q1*%
X128270000Y-92710000D03*
D19*
X128270000Y-95250000D03*
X128270000Y-97790000D03*
%TD*%
D20*
%TO.C,J2*%
X106805331Y-59880000D03*
X106805331Y-84880000D03*
D21*
X107105331Y-66840000D03*
D14*
X107105331Y-69610000D03*
X107105331Y-72380000D03*
X107105331Y-75150000D03*
X107105331Y-77920000D03*
X104265331Y-68225000D03*
X104265331Y-70995000D03*
X104265331Y-73765000D03*
X104265331Y-76535000D03*
%TD*%
D22*
%TO.C,J1*%
X147660360Y-62230000D03*
X152740360Y-64135000D03*
X147660360Y-66040000D03*
X152740360Y-67945000D03*
X147660360Y-69850000D03*
X152740360Y-71755000D03*
X147660360Y-73660000D03*
X152740360Y-75565000D03*
X147660360Y-77470000D03*
X152740360Y-79375000D03*
X147660360Y-81280000D03*
X152740360Y-83185000D03*
X147660360Y-85090000D03*
X152740360Y-86995000D03*
X147660360Y-88900000D03*
X152740360Y-90805000D03*
X147660360Y-92710000D03*
X152740360Y-94615000D03*
X147660360Y-96520000D03*
X152740360Y-98425000D03*
X147660360Y-100330000D03*
D23*
X154739340Y-54780180D03*
X154739340Y-107779820D03*
%TD*%
M02*
