%TF.GenerationSoftware,KiCad,Pcbnew,(6.0.2)*%
%TF.CreationDate,2022-09-11T15:54:13-05:00*%
%TF.ProjectId,CGA2SCart,43474132-5343-4617-9274-2e6b69636164,rev?*%
%TF.SameCoordinates,Original*%
%TF.FileFunction,Soldermask,Bot*%
%TF.FilePolarity,Negative*%
%FSLAX46Y46*%
G04 Gerber Fmt 4.6, Leading zero omitted, Abs format (unit mm)*
G04 Created by KiCad (PCBNEW (6.0.2)) date 2022-09-11 15:54:13*
%MOMM*%
%LPD*%
G01*
G04 APERTURE LIST*
%ADD10C,1.600000*%
%ADD11R,1.600000X1.600000*%
%ADD12C,4.000000*%
%ADD13O,1.600000X1.600000*%
%ADD14R,1.700000X1.700000*%
%ADD15O,1.700000X1.700000*%
%ADD16C,1.998980*%
%ADD17O,4.100000X3.100000*%
%ADD18R,1.500000X1.500000*%
%ADD19C,1.500000*%
%ADD20O,1.000000X2.000000*%
%ADD21O,2.000000X1.000000*%
%ADD22O,2.000000X1.500000*%
%ADD23O,1.500000X2.000000*%
G04 APERTURE END LIST*
D10*
%TO.C,J2*%
X105110000Y-83355000D03*
X105110000Y-80585000D03*
X105110000Y-77815000D03*
X105110000Y-75045000D03*
X107950000Y-84740000D03*
X107950000Y-81970000D03*
X107950000Y-79200000D03*
X107950000Y-76430000D03*
D11*
X107950000Y-73660000D03*
D12*
X107650000Y-91700000D03*
X107650000Y-66700000D03*
%TD*%
D11*
%TO.C,D3*%
X120650000Y-50800000D03*
D13*
X113030000Y-50800000D03*
%TD*%
D11*
%TO.C,D2*%
X123780000Y-59700000D03*
D13*
X123780000Y-52080000D03*
%TD*%
%TO.C,D1*%
X127000000Y-52070000D03*
D11*
X127000000Y-59690000D03*
%TD*%
D12*
%TO.C,J4*%
X145345000Y-108730000D03*
X120345000Y-108730000D03*
D11*
X137160000Y-106680000D03*
D10*
X134870000Y-106680000D03*
X132580000Y-106680000D03*
X130290000Y-106680000D03*
X128000000Y-106680000D03*
X138305000Y-108660000D03*
X136015000Y-108660000D03*
X133725000Y-108660000D03*
X131435000Y-108660000D03*
X129145000Y-108660000D03*
X137160000Y-110640000D03*
X134870000Y-110640000D03*
X132580000Y-110640000D03*
X130290000Y-110640000D03*
X128000000Y-110640000D03*
%TD*%
%TO.C,R14*%
X124460000Y-96520000D03*
D13*
X116840000Y-96520000D03*
%TD*%
D10*
%TO.C,R10*%
X121920000Y-92710000D03*
D13*
X114300000Y-92710000D03*
%TD*%
D10*
%TO.C,R7*%
X114300000Y-85090000D03*
D13*
X121920000Y-85090000D03*
%TD*%
D14*
%TO.C,JP2*%
X135890000Y-76200000D03*
D15*
X135890000Y-78740000D03*
%TD*%
D10*
%TO.C,R8*%
X114300000Y-77470000D03*
D13*
X121920000Y-77470000D03*
%TD*%
D10*
%TO.C,R13*%
X114300000Y-69850000D03*
D13*
X121920000Y-69850000D03*
%TD*%
D16*
%TO.C,J1*%
X147660360Y-97790000D03*
X152740360Y-95885000D03*
X147660360Y-93980000D03*
X152740360Y-92075000D03*
X147660360Y-90170000D03*
X152740360Y-88265000D03*
X147660360Y-86360000D03*
X152740360Y-84455000D03*
X147660360Y-82550000D03*
X152740360Y-80645000D03*
X147660360Y-78740000D03*
X152740360Y-76835000D03*
X147660360Y-74930000D03*
X152740360Y-73025000D03*
X147660360Y-71120000D03*
X152740360Y-69215000D03*
X147660360Y-67310000D03*
X152740360Y-65405000D03*
X147660360Y-63500000D03*
X152740360Y-61595000D03*
X147660360Y-59690000D03*
D17*
X154739340Y-52240180D03*
X154739340Y-105239820D03*
%TD*%
D14*
%TO.C,JP3*%
X135890000Y-87630000D03*
D15*
X135890000Y-85090000D03*
%TD*%
D14*
%TO.C,JP6*%
X128270000Y-67310000D03*
D15*
X128270000Y-69850000D03*
%TD*%
D10*
%TO.C,R11*%
X121920000Y-66040000D03*
D13*
X114300000Y-66040000D03*
%TD*%
D10*
%TO.C,R4*%
X113030000Y-58420000D03*
D13*
X120650000Y-58420000D03*
%TD*%
D10*
%TO.C,R2*%
X142240000Y-102870000D03*
D13*
X134620000Y-102870000D03*
%TD*%
D10*
%TO.C,R5*%
X113030000Y-54610000D03*
D13*
X120650000Y-54610000D03*
%TD*%
D14*
%TO.C,JP7*%
X128270000Y-85090000D03*
D15*
X128270000Y-87630000D03*
%TD*%
D14*
%TO.C,JP5*%
X128270000Y-78740000D03*
D15*
X128270000Y-76200000D03*
%TD*%
D10*
%TO.C,R12*%
X114300000Y-73660000D03*
D13*
X121920000Y-73660000D03*
%TD*%
D10*
%TO.C,R9*%
X121920000Y-81280000D03*
D13*
X114300000Y-81280000D03*
%TD*%
D14*
%TO.C,JP4*%
X135890000Y-67310000D03*
D15*
X135890000Y-69850000D03*
%TD*%
D18*
%TO.C,Q1*%
X128270000Y-92710000D03*
D19*
X128270000Y-95250000D03*
X128270000Y-97790000D03*
%TD*%
D13*
%TO.C,R6*%
X121920000Y-88900000D03*
D10*
X114300000Y-88900000D03*
%TD*%
D20*
%TO.C,J3*%
X131090000Y-54360000D03*
X141090000Y-57860000D03*
D21*
X135890000Y-49960000D03*
D22*
X131590000Y-61260000D03*
D23*
X138490000Y-56860000D03*
%TD*%
D15*
%TO.C,JP1*%
X109220000Y-99060000D03*
D14*
X111760000Y-99060000D03*
%TD*%
D10*
%TO.C,R1*%
X142240000Y-95250000D03*
D13*
X134620000Y-95250000D03*
%TD*%
D10*
%TO.C,R3*%
X113030000Y-62230000D03*
D13*
X120650000Y-62230000D03*
%TD*%
M02*
