M48
; DRILL file {KiCad (6.0.2)} date Sun Sep 11 00:33:23 2022
; FORMAT={-:-/ absolute / inch / decimal}
; #@! TF.CreationDate,2022-09-11T00:33:23-05:00
; #@! TF.GenerationSoftware,Kicad,Pcbnew,(6.0.2)
; #@! TF.FileFunction,Plated,1,2,PTH
FMAT,2
INCH
; #@! TA.AperFunction,Plated,PTH,ComponentDrill
T1C0.0295
; #@! TA.AperFunction,Plated,PTH,ComponentDrill
T2C0.0315
; #@! TA.AperFunction,Plated,PTH,ComponentDrill
T3C0.0394
; #@! TA.AperFunction,Plated,PTH,ComponentDrill
T4C0.0472
; #@! TA.AperFunction,Plated,PTH,ComponentDrill
T5C0.1260
%
G90
G05
T2
X4.5Y-2.15
X4.5Y-2.3
X4.5Y-2.45
X4.5Y-2.6
X4.5Y-2.75
X4.5Y-2.9
X4.5Y-3.05
X4.5Y-3.2
X4.5Y-3.35
X4.5Y-3.5
X4.5Y-3.65
X4.6Y-3.8
X4.8Y-2.15
X4.8Y-2.3
X4.8Y-2.45
X4.8Y-2.6
X4.8Y-2.75
X4.8Y-2.9
X4.8Y-3.05
X4.8Y-3.2
X4.8Y-3.35
X4.8Y-3.5
X4.8Y-3.65
X4.9Y-3.8
X5.05Y-3.65
X5.05Y-3.75
X5.05Y-3.85
X5.3Y-3.75
X5.3Y-4.05
X5.6Y-3.75
X5.6Y-4.05
T3
X4.1049Y-2.686
X4.1049Y-2.7951
X4.1049Y-2.9041
X4.1049Y-3.0132
X4.2167Y-2.6315
X4.2167Y-2.7406
X4.2167Y-2.8496
X4.2167Y-2.9587
X4.2167Y-3.0677
X4.3Y-4.05
X4.4Y-4.05
X5.05Y-2.65
X5.05Y-2.75
X5.05Y-3.0
X5.05Y-3.1
X5.05Y-3.35
X5.05Y-3.45
X5.35Y-2.65
X5.35Y-2.75
X5.35Y-3.0
X5.35Y-3.1
X5.35Y-3.35
X5.35Y-3.45
T4
X5.8134Y-2.45
X5.8134Y-2.6
X5.8134Y-2.75
X5.8134Y-2.9
X5.8134Y-3.05
X5.8134Y-3.2
X5.8134Y-3.35
X5.8134Y-3.5
X5.8134Y-3.65
X5.8134Y-3.8
X5.8134Y-3.95
X6.0134Y-2.525
X6.0134Y-2.675
X6.0134Y-2.825
X6.0134Y-2.975
X6.0134Y-3.125
X6.0134Y-3.275
X6.0134Y-3.425
X6.0134Y-3.575
X6.0134Y-3.725
X6.0134Y-3.875
T5
X4.2049Y-2.3575
X4.2049Y-3.3417
T1
G00X5.161Y-2.1167
M15
G01X5.161Y-2.1463
M16
G05
G00X5.3352Y-1.9583
M15
G01X5.3648Y-1.9583
M16
G05
G00X5.5547Y-2.2545
M15
G01X5.5547Y-2.2841
M16
G05
T3
G00X5.1709Y-2.4031
M15
G01X5.1906Y-2.4031
M16
G05
G00X5.4524Y-2.2201
M15
G01X5.4524Y-2.2398
M16
G05
T0
M30
