M48
; DRILL file {KiCad (6.0.2)} date Fri Oct 21 21:19:26 2022
; FORMAT={-:-/ absolute / inch / decimal}
; #@! TF.CreationDate,2022-10-21T21:19:26-05:00
; #@! TF.GenerationSoftware,Kicad,Pcbnew,(6.0.2)
; #@! TF.FileFunction,Plated,1,2,PTH
FMAT,2
INCH
; #@! TA.AperFunction,Plated,PTH,ViaDrill
T1C0.0157
; #@! TA.AperFunction,Plated,PTH,ComponentDrill
T2C0.0295
; #@! TA.AperFunction,Plated,PTH,ComponentDrill
T3C0.0315
; #@! TA.AperFunction,Plated,PTH,ComponentDrill
T4C0.0394
; #@! TA.AperFunction,Plated,PTH,ComponentDrill
T5C0.0472
; #@! TA.AperFunction,Plated,PTH,ComponentDrill
T6C0.1260
%
G90
G05
T1
X3.99Y-3.28
X4.0276Y-3.1799
X5.1756Y-2.5839
X5.237Y-2.5854
X5.4878Y-2.9354
T3
X4.05Y-2.03
X4.05Y-2.1665
X4.05Y-2.3039
X4.35Y-2.03
X4.35Y-2.1665
X4.35Y-2.3039
X4.45Y-2.45
X4.461Y-2.039
X4.461Y-2.339
X4.5Y-2.6
X4.5Y-2.75
X4.5Y-2.9
X4.5Y-3.05
X4.5Y-3.2
X4.5Y-3.35
X4.5Y-3.5
X4.5Y-3.65
X4.5697Y-2.039
X4.5697Y-2.339
X4.6Y-3.8
X4.75Y-2.45
X4.8Y-2.6
X4.8Y-2.75
X4.8Y-2.9
X4.8Y-3.05
X4.8Y-3.2
X4.8Y-3.35
X4.8Y-3.5
X4.8Y-3.65
X4.9Y-3.8
X5.05Y-3.65
X5.05Y-3.75
X5.05Y-3.85
X5.2906Y-3.622
X5.2941Y-3.81
X5.5906Y-3.622
X5.5941Y-3.81
T4
X4.1382Y-2.9545
X4.1382Y-3.0636
X4.1382Y-3.1726
X4.1382Y-3.2817
X4.25Y-2.9
X4.25Y-3.0091
X4.25Y-3.1181
X4.25Y-3.2272
X4.25Y-3.3362
X4.3Y-3.9
X4.4Y-3.9
X5.05Y-2.65
X5.05Y-2.75
X5.05Y-3.0
X5.05Y-3.1
X5.05Y-3.35
X5.05Y-3.45
X5.0749Y-2.122
X5.12Y-2.0441
X5.12Y-2.2
X5.1651Y-2.122
X5.2102Y-2.0441
X5.2102Y-2.2
X5.2552Y-2.122
X5.3003Y-2.0441
X5.3003Y-2.2
X5.3454Y-2.122
X5.35Y-2.65
X5.35Y-2.75
X5.35Y-3.0
X5.35Y-3.1
X5.35Y-3.35
X5.35Y-3.45
X5.3905Y-2.0441
X5.3905Y-2.2
X5.4356Y-2.122
X5.4806Y-2.0441
X5.4806Y-2.2
T5
X6.1866Y-2.665
X6.1866Y-2.815
X6.1866Y-2.965
X6.1866Y-3.115
X6.1866Y-3.265
X6.1866Y-3.415
X6.1866Y-3.565
X6.1866Y-3.715
X6.1866Y-3.865
X6.1866Y-4.015
X6.3866Y-2.59
X6.3866Y-2.74
X6.3866Y-2.89
X6.3866Y-3.04
X6.3866Y-3.19
X6.3866Y-3.34
X6.3866Y-3.49
X6.3866Y-3.64
X6.3866Y-3.79
X6.3866Y-3.94
X6.3866Y-4.09
T6
X4.2382Y-2.626
X4.2382Y-3.6102
X4.7978Y-2.1193
X5.782Y-2.1193
T2
G00X4.8653Y-4.1068
M15
G01X4.8653Y-4.0773
M16
G05
G00X5.0848Y-4.4031
M15
G01X5.0552Y-4.4031
M16
G05
G00X5.259Y-4.2446
M15
G01X5.259Y-4.2151
M16
G05
T4
G00X4.9676Y-4.1413
M15
G01X4.9676Y-4.1216
M16
G05
G00X5.2491Y-3.9582
M15
G01X5.2294Y-3.9582
M16
G05
T0
M30
