%TF.GenerationSoftware,KiCad,Pcbnew,(6.0.2)*%
%TF.CreationDate,2022-09-11T15:54:13-05:00*%
%TF.ProjectId,CGA2SCart,43474132-5343-4617-9274-2e6b69636164,rev?*%
%TF.SameCoordinates,Original*%
%TF.FileFunction,Legend,Top*%
%TF.FilePolarity,Positive*%
%FSLAX46Y46*%
G04 Gerber Fmt 4.6, Leading zero omitted, Abs format (unit mm)*
G04 Created by KiCad (PCBNEW (6.0.2)) date 2022-09-11 15:54:13*
%MOMM*%
%LPD*%
G01*
G04 APERTURE LIST*
%ADD10C,0.150000*%
%ADD11C,0.304800*%
%ADD12C,0.120000*%
%ADD13C,0.381000*%
%ADD14C,0.100000*%
%ADD15O,4.100000X3.100000*%
G04 APERTURE END LIST*
D10*
X143436190Y-49951666D02*
X143912380Y-49951666D01*
X143340952Y-50237380D02*
X143674285Y-49237380D01*
X144007619Y-50237380D01*
X144340952Y-49237380D02*
X144340952Y-50046904D01*
X144388571Y-50142142D01*
X144436190Y-50189761D01*
X144531428Y-50237380D01*
X144721904Y-50237380D01*
X144817142Y-50189761D01*
X144864761Y-50142142D01*
X144912380Y-50046904D01*
X144912380Y-49237380D01*
X145388571Y-50237380D02*
X145388571Y-49237380D01*
X145626666Y-49237380D01*
X145769523Y-49285000D01*
X145864761Y-49380238D01*
X145912380Y-49475476D01*
X145960000Y-49665952D01*
X145960000Y-49808809D01*
X145912380Y-49999285D01*
X145864761Y-50094523D01*
X145769523Y-50189761D01*
X145626666Y-50237380D01*
X145388571Y-50237380D01*
X146388571Y-50237380D02*
X146388571Y-49237380D01*
X147055238Y-49237380D02*
X147245714Y-49237380D01*
X147340952Y-49285000D01*
X147436190Y-49380238D01*
X147483809Y-49570714D01*
X147483809Y-49904047D01*
X147436190Y-50094523D01*
X147340952Y-50189761D01*
X147245714Y-50237380D01*
X147055238Y-50237380D01*
X146960000Y-50189761D01*
X146864761Y-50094523D01*
X146817142Y-49904047D01*
X146817142Y-49570714D01*
X146864761Y-49380238D01*
X146960000Y-49285000D01*
X147055238Y-49237380D01*
X142864761Y-51799761D02*
X143007619Y-51847380D01*
X143245714Y-51847380D01*
X143340952Y-51799761D01*
X143388571Y-51752142D01*
X143436190Y-51656904D01*
X143436190Y-51561666D01*
X143388571Y-51466428D01*
X143340952Y-51418809D01*
X143245714Y-51371190D01*
X143055238Y-51323571D01*
X142960000Y-51275952D01*
X142912380Y-51228333D01*
X142864761Y-51133095D01*
X142864761Y-51037857D01*
X142912380Y-50942619D01*
X142960000Y-50895000D01*
X143055238Y-50847380D01*
X143293333Y-50847380D01*
X143436190Y-50895000D01*
X143721904Y-50847380D02*
X144293333Y-50847380D01*
X144007619Y-51847380D02*
X144007619Y-50847380D01*
X144626666Y-51323571D02*
X144960000Y-51323571D01*
X145102857Y-51847380D02*
X144626666Y-51847380D01*
X144626666Y-50847380D01*
X145102857Y-50847380D01*
X146102857Y-51847380D02*
X145769523Y-51371190D01*
X145531428Y-51847380D02*
X145531428Y-50847380D01*
X145912380Y-50847380D01*
X146007619Y-50895000D01*
X146055238Y-50942619D01*
X146102857Y-51037857D01*
X146102857Y-51180714D01*
X146055238Y-51275952D01*
X146007619Y-51323571D01*
X145912380Y-51371190D01*
X145531428Y-51371190D01*
X146531428Y-51323571D02*
X146864761Y-51323571D01*
X147007619Y-51847380D02*
X146531428Y-51847380D01*
X146531428Y-50847380D01*
X147007619Y-50847380D01*
X147626666Y-50847380D02*
X147817142Y-50847380D01*
X147912380Y-50895000D01*
X148007619Y-50990238D01*
X148055238Y-51180714D01*
X148055238Y-51514047D01*
X148007619Y-51704523D01*
X147912380Y-51799761D01*
X147817142Y-51847380D01*
X147626666Y-51847380D01*
X147531428Y-51799761D01*
X147436190Y-51704523D01*
X147388571Y-51514047D01*
X147388571Y-51180714D01*
X147436190Y-50990238D01*
X147531428Y-50895000D01*
X147626666Y-50847380D01*
X102863809Y-62297142D02*
X102816190Y-62344761D01*
X102673333Y-62392380D01*
X102578095Y-62392380D01*
X102435238Y-62344761D01*
X102340000Y-62249523D01*
X102292380Y-62154285D01*
X102244761Y-61963809D01*
X102244761Y-61820952D01*
X102292380Y-61630476D01*
X102340000Y-61535238D01*
X102435238Y-61440000D01*
X102578095Y-61392380D01*
X102673333Y-61392380D01*
X102816190Y-61440000D01*
X102863809Y-61487619D01*
X103816190Y-61440000D02*
X103720952Y-61392380D01*
X103578095Y-61392380D01*
X103435238Y-61440000D01*
X103340000Y-61535238D01*
X103292380Y-61630476D01*
X103244761Y-61820952D01*
X103244761Y-61963809D01*
X103292380Y-62154285D01*
X103340000Y-62249523D01*
X103435238Y-62344761D01*
X103578095Y-62392380D01*
X103673333Y-62392380D01*
X103816190Y-62344761D01*
X103863809Y-62297142D01*
X103863809Y-61963809D01*
X103673333Y-61963809D01*
X104244761Y-62106666D02*
X104720952Y-62106666D01*
X104149523Y-62392380D02*
X104482857Y-61392380D01*
X104816190Y-62392380D01*
X105863809Y-61344761D02*
X105006666Y-62630476D01*
X106197142Y-61868571D02*
X106530476Y-61868571D01*
X106673333Y-62392380D02*
X106197142Y-62392380D01*
X106197142Y-61392380D01*
X106673333Y-61392380D01*
X107625714Y-61440000D02*
X107530476Y-61392380D01*
X107387619Y-61392380D01*
X107244761Y-61440000D01*
X107149523Y-61535238D01*
X107101904Y-61630476D01*
X107054285Y-61820952D01*
X107054285Y-61963809D01*
X107101904Y-62154285D01*
X107149523Y-62249523D01*
X107244761Y-62344761D01*
X107387619Y-62392380D01*
X107482857Y-62392380D01*
X107625714Y-62344761D01*
X107673333Y-62297142D01*
X107673333Y-61963809D01*
X107482857Y-61963809D01*
X108054285Y-62106666D02*
X108530476Y-62106666D01*
X107959047Y-62392380D02*
X108292380Y-61392380D01*
X108625714Y-62392380D01*
X109720952Y-62392380D02*
X109720952Y-61392380D01*
X110054285Y-62106666D01*
X110387619Y-61392380D01*
X110387619Y-62392380D01*
X125598571Y-102912380D02*
X125931904Y-103912380D01*
X126265238Y-102912380D01*
X127122380Y-102960000D02*
X127027142Y-102912380D01*
X126884285Y-102912380D01*
X126741428Y-102960000D01*
X126646190Y-103055238D01*
X126598571Y-103150476D01*
X126550952Y-103340952D01*
X126550952Y-103483809D01*
X126598571Y-103674285D01*
X126646190Y-103769523D01*
X126741428Y-103864761D01*
X126884285Y-103912380D01*
X126979523Y-103912380D01*
X127122380Y-103864761D01*
X127170000Y-103817142D01*
X127170000Y-103483809D01*
X126979523Y-103483809D01*
X127550952Y-103626666D02*
X128027142Y-103626666D01*
X127455714Y-103912380D02*
X127789047Y-102912380D01*
X128122380Y-103912380D01*
X129550952Y-103388571D02*
X129217619Y-103388571D01*
X129217619Y-103912380D02*
X129217619Y-102912380D01*
X129693809Y-102912380D01*
X130738571Y-89931428D02*
X130738571Y-89598095D01*
X131262380Y-89455238D02*
X131262380Y-89931428D01*
X130262380Y-89931428D01*
X130262380Y-89455238D01*
X130310000Y-88502857D02*
X130262380Y-88598095D01*
X130262380Y-88740952D01*
X130310000Y-88883809D01*
X130405238Y-88979047D01*
X130500476Y-89026666D01*
X130690952Y-89074285D01*
X130833809Y-89074285D01*
X131024285Y-89026666D01*
X131119523Y-88979047D01*
X131214761Y-88883809D01*
X131262380Y-88740952D01*
X131262380Y-88645714D01*
X131214761Y-88502857D01*
X131167142Y-88455238D01*
X130833809Y-88455238D01*
X130833809Y-88645714D01*
X130976666Y-88074285D02*
X130976666Y-87598095D01*
X131262380Y-88169523D02*
X130262380Y-87836190D01*
X131262380Y-87502857D01*
X130310000Y-86645714D02*
X130262380Y-86740952D01*
X130262380Y-86883809D01*
X130310000Y-87026666D01*
X130405238Y-87121904D01*
X130500476Y-87169523D01*
X130690952Y-87217142D01*
X130833809Y-87217142D01*
X131024285Y-87169523D01*
X131119523Y-87121904D01*
X131214761Y-87026666D01*
X131262380Y-86883809D01*
X131262380Y-86788571D01*
X131214761Y-86645714D01*
X131167142Y-86598095D01*
X130833809Y-86598095D01*
X130833809Y-86788571D01*
X131262380Y-85598095D02*
X130786190Y-85931428D01*
X131262380Y-86169523D02*
X130262380Y-86169523D01*
X130262380Y-85788571D01*
X130310000Y-85693333D01*
X130357619Y-85645714D01*
X130452857Y-85598095D01*
X130595714Y-85598095D01*
X130690952Y-85645714D01*
X130738571Y-85693333D01*
X130786190Y-85788571D01*
X130786190Y-86169523D01*
X130738571Y-85169523D02*
X130738571Y-84836190D01*
X131262380Y-84693333D02*
X131262380Y-85169523D01*
X130262380Y-85169523D01*
X130262380Y-84693333D01*
X130738571Y-84264761D02*
X130738571Y-83931428D01*
X131262380Y-83788571D02*
X131262380Y-84264761D01*
X130262380Y-84264761D01*
X130262380Y-83788571D01*
X131262380Y-83360000D02*
X130262380Y-83360000D01*
X131262380Y-82788571D01*
X130262380Y-82788571D01*
X130738571Y-71175238D02*
X130738571Y-70841904D01*
X131262380Y-70699047D02*
X131262380Y-71175238D01*
X130262380Y-71175238D01*
X130262380Y-70699047D01*
X130310000Y-69746666D02*
X130262380Y-69841904D01*
X130262380Y-69984761D01*
X130310000Y-70127619D01*
X130405238Y-70222857D01*
X130500476Y-70270476D01*
X130690952Y-70318095D01*
X130833809Y-70318095D01*
X131024285Y-70270476D01*
X131119523Y-70222857D01*
X131214761Y-70127619D01*
X131262380Y-69984761D01*
X131262380Y-69889523D01*
X131214761Y-69746666D01*
X131167142Y-69699047D01*
X130833809Y-69699047D01*
X130833809Y-69889523D01*
X130976666Y-69318095D02*
X130976666Y-68841904D01*
X131262380Y-69413333D02*
X130262380Y-69080000D01*
X131262380Y-68746666D01*
X131262380Y-67841904D02*
X130786190Y-68175238D01*
X131262380Y-68413333D02*
X130262380Y-68413333D01*
X130262380Y-68032380D01*
X130310000Y-67937142D01*
X130357619Y-67889523D01*
X130452857Y-67841904D01*
X130595714Y-67841904D01*
X130690952Y-67889523D01*
X130738571Y-67937142D01*
X130786190Y-68032380D01*
X130786190Y-68413333D01*
X130738571Y-67413333D02*
X130738571Y-67080000D01*
X131262380Y-66937142D02*
X131262380Y-67413333D01*
X130262380Y-67413333D01*
X130262380Y-66937142D01*
X131262380Y-66508571D02*
X130262380Y-66508571D01*
X130262380Y-66270476D01*
X130310000Y-66127619D01*
X130405238Y-66032380D01*
X130500476Y-65984761D01*
X130690952Y-65937142D01*
X130833809Y-65937142D01*
X131024285Y-65984761D01*
X131119523Y-66032380D01*
X131214761Y-66127619D01*
X131262380Y-66270476D01*
X131262380Y-66508571D01*
X138882380Y-70937142D02*
X137882380Y-70937142D01*
X138882380Y-70460952D02*
X137882380Y-70460952D01*
X138882380Y-69889523D01*
X137882380Y-69889523D01*
X137882380Y-69556190D02*
X137882380Y-68984761D01*
X138882380Y-69270476D02*
X137882380Y-69270476D01*
X138358571Y-68651428D02*
X138358571Y-68318095D01*
X138882380Y-68175238D02*
X138882380Y-68651428D01*
X137882380Y-68651428D01*
X137882380Y-68175238D01*
X138882380Y-67746666D02*
X137882380Y-67746666D01*
X138882380Y-67175238D01*
X137882380Y-67175238D01*
X138834761Y-66746666D02*
X138882380Y-66603809D01*
X138882380Y-66365714D01*
X138834761Y-66270476D01*
X138787142Y-66222857D01*
X138691904Y-66175238D01*
X138596666Y-66175238D01*
X138501428Y-66222857D01*
X138453809Y-66270476D01*
X138406190Y-66365714D01*
X138358571Y-66556190D01*
X138310952Y-66651428D01*
X138263333Y-66699047D01*
X138168095Y-66746666D01*
X138072857Y-66746666D01*
X137977619Y-66699047D01*
X137930000Y-66651428D01*
X137882380Y-66556190D01*
X137882380Y-66318095D01*
X137930000Y-66175238D01*
X144328095Y-97127619D02*
X144375714Y-97080000D01*
X144470952Y-97032380D01*
X144709047Y-97032380D01*
X144804285Y-97080000D01*
X144851904Y-97127619D01*
X144899523Y-97222857D01*
X144899523Y-97318095D01*
X144851904Y-97460952D01*
X144280476Y-98032380D01*
X144899523Y-98032380D01*
X145851904Y-98032380D02*
X145280476Y-98032380D01*
X145566190Y-98032380D02*
X145566190Y-97032380D01*
X145470952Y-97175238D01*
X145375714Y-97270476D01*
X145280476Y-97318095D01*
X144619523Y-75252380D02*
X144810000Y-75252380D01*
X144905238Y-75204761D01*
X144952857Y-75157142D01*
X145048095Y-75014285D01*
X145095714Y-74823809D01*
X145095714Y-74442857D01*
X145048095Y-74347619D01*
X145000476Y-74300000D01*
X144905238Y-74252380D01*
X144714761Y-74252380D01*
X144619523Y-74300000D01*
X144571904Y-74347619D01*
X144524285Y-74442857D01*
X144524285Y-74680952D01*
X144571904Y-74776190D01*
X144619523Y-74823809D01*
X144714761Y-74871428D01*
X144905238Y-74871428D01*
X145000476Y-74823809D01*
X145048095Y-74776190D01*
X145095714Y-74680952D01*
X155169523Y-88562380D02*
X154598095Y-88562380D01*
X154883809Y-88562380D02*
X154883809Y-87562380D01*
X154788571Y-87705238D01*
X154693333Y-87800476D01*
X154598095Y-87848095D01*
X156026666Y-87562380D02*
X155836190Y-87562380D01*
X155740952Y-87610000D01*
X155693333Y-87657619D01*
X155598095Y-87800476D01*
X155550476Y-87990952D01*
X155550476Y-88371904D01*
X155598095Y-88467142D01*
X155645714Y-88514761D01*
X155740952Y-88562380D01*
X155931428Y-88562380D01*
X156026666Y-88514761D01*
X156074285Y-88467142D01*
X156121904Y-88371904D01*
X156121904Y-88133809D01*
X156074285Y-88038571D01*
X156026666Y-87990952D01*
X155931428Y-87943333D01*
X155740952Y-87943333D01*
X155645714Y-87990952D01*
X155598095Y-88038571D01*
X155550476Y-88133809D01*
X138882380Y-79827142D02*
X137882380Y-79827142D01*
X138882380Y-79350952D02*
X137882380Y-79350952D01*
X138882380Y-78779523D01*
X137882380Y-78779523D01*
X137882380Y-78446190D02*
X137882380Y-77874761D01*
X138882380Y-78160476D02*
X137882380Y-78160476D01*
X138358571Y-77541428D02*
X138358571Y-77208095D01*
X138882380Y-77065238D02*
X138882380Y-77541428D01*
X137882380Y-77541428D01*
X137882380Y-77065238D01*
X138882380Y-76636666D02*
X137882380Y-76636666D01*
X138882380Y-76065238D01*
X137882380Y-76065238D01*
X138834761Y-75636666D02*
X138882380Y-75493809D01*
X138882380Y-75255714D01*
X138834761Y-75160476D01*
X138787142Y-75112857D01*
X138691904Y-75065238D01*
X138596666Y-75065238D01*
X138501428Y-75112857D01*
X138453809Y-75160476D01*
X138406190Y-75255714D01*
X138358571Y-75446190D01*
X138310952Y-75541428D01*
X138263333Y-75589047D01*
X138168095Y-75636666D01*
X138072857Y-75636666D01*
X137977619Y-75589047D01*
X137930000Y-75541428D01*
X137882380Y-75446190D01*
X137882380Y-75208095D01*
X137930000Y-75065238D01*
X144379523Y-86612380D02*
X143808095Y-86612380D01*
X144093809Y-86612380D02*
X144093809Y-85612380D01*
X143998571Y-85755238D01*
X143903333Y-85850476D01*
X143808095Y-85898095D01*
X145284285Y-85612380D02*
X144808095Y-85612380D01*
X144760476Y-86088571D01*
X144808095Y-86040952D01*
X144903333Y-85993333D01*
X145141428Y-85993333D01*
X145236666Y-86040952D01*
X145284285Y-86088571D01*
X145331904Y-86183809D01*
X145331904Y-86421904D01*
X145284285Y-86517142D01*
X145236666Y-86564761D01*
X145141428Y-86612380D01*
X144903333Y-86612380D01*
X144808095Y-86564761D01*
X144760476Y-86517142D01*
X155240476Y-65115714D02*
X155240476Y-65782380D01*
X155002380Y-64734761D02*
X154764285Y-65449047D01*
X155383333Y-65449047D01*
X144729523Y-78982380D02*
X144158095Y-78982380D01*
X144443809Y-78982380D02*
X144443809Y-77982380D01*
X144348571Y-78125238D01*
X144253333Y-78220476D01*
X144158095Y-78268095D01*
X145681904Y-78982380D02*
X145110476Y-78982380D01*
X145396190Y-78982380D02*
X145396190Y-77982380D01*
X145300952Y-78125238D01*
X145205714Y-78220476D01*
X145110476Y-78268095D01*
X145048095Y-66742380D02*
X144571904Y-66742380D01*
X144524285Y-67218571D01*
X144571904Y-67170952D01*
X144667142Y-67123333D01*
X144905238Y-67123333D01*
X145000476Y-67170952D01*
X145048095Y-67218571D01*
X145095714Y-67313809D01*
X145095714Y-67551904D01*
X145048095Y-67647142D01*
X145000476Y-67694761D01*
X144905238Y-67742380D01*
X144667142Y-67742380D01*
X144571904Y-67694761D01*
X144524285Y-67647142D01*
X154874285Y-61007619D02*
X154921904Y-60960000D01*
X155017142Y-60912380D01*
X155255238Y-60912380D01*
X155350476Y-60960000D01*
X155398095Y-61007619D01*
X155445714Y-61102857D01*
X155445714Y-61198095D01*
X155398095Y-61340952D01*
X154826666Y-61912380D01*
X155445714Y-61912380D01*
X144446666Y-70512380D02*
X145113333Y-70512380D01*
X144684761Y-71512380D01*
X154758095Y-95317619D02*
X154805714Y-95270000D01*
X154900952Y-95222380D01*
X155139047Y-95222380D01*
X155234285Y-95270000D01*
X155281904Y-95317619D01*
X155329523Y-95412857D01*
X155329523Y-95508095D01*
X155281904Y-95650952D01*
X154710476Y-96222380D01*
X155329523Y-96222380D01*
X155948571Y-95222380D02*
X156043809Y-95222380D01*
X156139047Y-95270000D01*
X156186666Y-95317619D01*
X156234285Y-95412857D01*
X156281904Y-95603333D01*
X156281904Y-95841428D01*
X156234285Y-96031904D01*
X156186666Y-96127142D01*
X156139047Y-96174761D01*
X156043809Y-96222380D01*
X155948571Y-96222380D01*
X155853333Y-96174761D01*
X155805714Y-96127142D01*
X155758095Y-96031904D01*
X155710476Y-95841428D01*
X155710476Y-95603333D01*
X155758095Y-95412857D01*
X155805714Y-95317619D01*
X155853333Y-95270000D01*
X155948571Y-95222380D01*
X104394523Y-104917142D02*
X104346904Y-104964761D01*
X104204047Y-105012380D01*
X104108809Y-105012380D01*
X103965952Y-104964761D01*
X103870714Y-104869523D01*
X103823095Y-104774285D01*
X103775476Y-104583809D01*
X103775476Y-104440952D01*
X103823095Y-104250476D01*
X103870714Y-104155238D01*
X103965952Y-104060000D01*
X104108809Y-104012380D01*
X104204047Y-104012380D01*
X104346904Y-104060000D01*
X104394523Y-104107619D01*
X105346904Y-104060000D02*
X105251666Y-104012380D01*
X105108809Y-104012380D01*
X104965952Y-104060000D01*
X104870714Y-104155238D01*
X104823095Y-104250476D01*
X104775476Y-104440952D01*
X104775476Y-104583809D01*
X104823095Y-104774285D01*
X104870714Y-104869523D01*
X104965952Y-104964761D01*
X105108809Y-105012380D01*
X105204047Y-105012380D01*
X105346904Y-104964761D01*
X105394523Y-104917142D01*
X105394523Y-104583809D01*
X105204047Y-104583809D01*
X105775476Y-104726666D02*
X106251666Y-104726666D01*
X105680238Y-105012380D02*
X106013571Y-104012380D01*
X106346904Y-105012380D01*
X107394523Y-103964761D02*
X106537380Y-105250476D01*
X107727857Y-104488571D02*
X108061190Y-104488571D01*
X108204047Y-105012380D02*
X107727857Y-105012380D01*
X107727857Y-104012380D01*
X108204047Y-104012380D01*
X109156428Y-104060000D02*
X109061190Y-104012380D01*
X108918333Y-104012380D01*
X108775476Y-104060000D01*
X108680238Y-104155238D01*
X108632619Y-104250476D01*
X108585000Y-104440952D01*
X108585000Y-104583809D01*
X108632619Y-104774285D01*
X108680238Y-104869523D01*
X108775476Y-104964761D01*
X108918333Y-105012380D01*
X109013571Y-105012380D01*
X109156428Y-104964761D01*
X109204047Y-104917142D01*
X109204047Y-104583809D01*
X109013571Y-104583809D01*
X109585000Y-104726666D02*
X110061190Y-104726666D01*
X109489761Y-105012380D02*
X109823095Y-104012380D01*
X110156428Y-105012380D01*
X111108809Y-104012380D02*
X111680238Y-104012380D01*
X111394523Y-105012380D02*
X111394523Y-104012380D01*
X112204047Y-104012380D02*
X112394523Y-104012380D01*
X112489761Y-104060000D01*
X112585000Y-104155238D01*
X112632619Y-104345714D01*
X112632619Y-104679047D01*
X112585000Y-104869523D01*
X112489761Y-104964761D01*
X112394523Y-105012380D01*
X112204047Y-105012380D01*
X112108809Y-104964761D01*
X112013571Y-104869523D01*
X111965952Y-104679047D01*
X111965952Y-104345714D01*
X112013571Y-104155238D01*
X112108809Y-104060000D01*
X112204047Y-104012380D01*
X104227857Y-106574761D02*
X104370714Y-106622380D01*
X104608809Y-106622380D01*
X104704047Y-106574761D01*
X104751666Y-106527142D01*
X104799285Y-106431904D01*
X104799285Y-106336666D01*
X104751666Y-106241428D01*
X104704047Y-106193809D01*
X104608809Y-106146190D01*
X104418333Y-106098571D01*
X104323095Y-106050952D01*
X104275476Y-106003333D01*
X104227857Y-105908095D01*
X104227857Y-105812857D01*
X104275476Y-105717619D01*
X104323095Y-105670000D01*
X104418333Y-105622380D01*
X104656428Y-105622380D01*
X104799285Y-105670000D01*
X105799285Y-106527142D02*
X105751666Y-106574761D01*
X105608809Y-106622380D01*
X105513571Y-106622380D01*
X105370714Y-106574761D01*
X105275476Y-106479523D01*
X105227857Y-106384285D01*
X105180238Y-106193809D01*
X105180238Y-106050952D01*
X105227857Y-105860476D01*
X105275476Y-105765238D01*
X105370714Y-105670000D01*
X105513571Y-105622380D01*
X105608809Y-105622380D01*
X105751666Y-105670000D01*
X105799285Y-105717619D01*
X106180238Y-106336666D02*
X106656428Y-106336666D01*
X106085000Y-106622380D02*
X106418333Y-105622380D01*
X106751666Y-106622380D01*
X107656428Y-106622380D02*
X107323095Y-106146190D01*
X107085000Y-106622380D02*
X107085000Y-105622380D01*
X107465952Y-105622380D01*
X107561190Y-105670000D01*
X107608809Y-105717619D01*
X107656428Y-105812857D01*
X107656428Y-105955714D01*
X107608809Y-106050952D01*
X107561190Y-106098571D01*
X107465952Y-106146190D01*
X107085000Y-106146190D01*
X107942142Y-105622380D02*
X108513571Y-105622380D01*
X108227857Y-106622380D02*
X108227857Y-105622380D01*
X109561190Y-105574761D02*
X108704047Y-106860476D01*
X109751666Y-105622380D02*
X110085000Y-106622380D01*
X110418333Y-105622380D01*
X111275476Y-105670000D02*
X111180238Y-105622380D01*
X111037380Y-105622380D01*
X110894523Y-105670000D01*
X110799285Y-105765238D01*
X110751666Y-105860476D01*
X110704047Y-106050952D01*
X110704047Y-106193809D01*
X110751666Y-106384285D01*
X110799285Y-106479523D01*
X110894523Y-106574761D01*
X111037380Y-106622380D01*
X111132619Y-106622380D01*
X111275476Y-106574761D01*
X111323095Y-106527142D01*
X111323095Y-106193809D01*
X111132619Y-106193809D01*
X111704047Y-106336666D02*
X112180238Y-106336666D01*
X111608809Y-106622380D02*
X111942142Y-105622380D01*
X112275476Y-106622380D01*
X105513571Y-107946666D02*
X105989761Y-107946666D01*
X105418333Y-108232380D02*
X105751666Y-107232380D01*
X106085000Y-108232380D01*
X106418333Y-108232380D02*
X106418333Y-107232380D01*
X106656428Y-107232380D01*
X106799285Y-107280000D01*
X106894523Y-107375238D01*
X106942142Y-107470476D01*
X106989761Y-107660952D01*
X106989761Y-107803809D01*
X106942142Y-107994285D01*
X106894523Y-108089523D01*
X106799285Y-108184761D01*
X106656428Y-108232380D01*
X106418333Y-108232380D01*
X107370714Y-107946666D02*
X107846904Y-107946666D01*
X107275476Y-108232380D02*
X107608809Y-107232380D01*
X107942142Y-108232380D01*
X108275476Y-108232380D02*
X108275476Y-107232380D01*
X108656428Y-107232380D01*
X108751666Y-107280000D01*
X108799285Y-107327619D01*
X108846904Y-107422857D01*
X108846904Y-107565714D01*
X108799285Y-107660952D01*
X108751666Y-107708571D01*
X108656428Y-107756190D01*
X108275476Y-107756190D01*
X109132619Y-107232380D02*
X109704047Y-107232380D01*
X109418333Y-108232380D02*
X109418333Y-107232380D01*
X110227857Y-107232380D02*
X110418333Y-107232380D01*
X110513571Y-107280000D01*
X110608809Y-107375238D01*
X110656428Y-107565714D01*
X110656428Y-107899047D01*
X110608809Y-108089523D01*
X110513571Y-108184761D01*
X110418333Y-108232380D01*
X110227857Y-108232380D01*
X110132619Y-108184761D01*
X110037380Y-108089523D01*
X109989761Y-107899047D01*
X109989761Y-107565714D01*
X110037380Y-107375238D01*
X110132619Y-107280000D01*
X110227857Y-107232380D01*
X111656428Y-108232380D02*
X111323095Y-107756190D01*
X111085000Y-108232380D02*
X111085000Y-107232380D01*
X111465952Y-107232380D01*
X111561190Y-107280000D01*
X111608809Y-107327619D01*
X111656428Y-107422857D01*
X111656428Y-107565714D01*
X111608809Y-107660952D01*
X111561190Y-107708571D01*
X111465952Y-107756190D01*
X111085000Y-107756190D01*
X105632619Y-109842380D02*
X105632619Y-108842380D01*
X106013571Y-108842380D01*
X106108809Y-108890000D01*
X106156428Y-108937619D01*
X106204047Y-109032857D01*
X106204047Y-109175714D01*
X106156428Y-109270952D01*
X106108809Y-109318571D01*
X106013571Y-109366190D01*
X105632619Y-109366190D01*
X107204047Y-109747142D02*
X107156428Y-109794761D01*
X107013571Y-109842380D01*
X106918333Y-109842380D01*
X106775476Y-109794761D01*
X106680238Y-109699523D01*
X106632619Y-109604285D01*
X106585000Y-109413809D01*
X106585000Y-109270952D01*
X106632619Y-109080476D01*
X106680238Y-108985238D01*
X106775476Y-108890000D01*
X106918333Y-108842380D01*
X107013571Y-108842380D01*
X107156428Y-108890000D01*
X107204047Y-108937619D01*
X107965952Y-109318571D02*
X108108809Y-109366190D01*
X108156428Y-109413809D01*
X108204047Y-109509047D01*
X108204047Y-109651904D01*
X108156428Y-109747142D01*
X108108809Y-109794761D01*
X108013571Y-109842380D01*
X107632619Y-109842380D01*
X107632619Y-108842380D01*
X107965952Y-108842380D01*
X108061190Y-108890000D01*
X108108809Y-108937619D01*
X108156428Y-109032857D01*
X108156428Y-109128095D01*
X108108809Y-109223333D01*
X108061190Y-109270952D01*
X107965952Y-109318571D01*
X107632619Y-109318571D01*
X109727857Y-109318571D02*
X109870714Y-109366190D01*
X109918333Y-109413809D01*
X109965952Y-109509047D01*
X109965952Y-109651904D01*
X109918333Y-109747142D01*
X109870714Y-109794761D01*
X109775476Y-109842380D01*
X109394523Y-109842380D01*
X109394523Y-108842380D01*
X109727857Y-108842380D01*
X109823095Y-108890000D01*
X109870714Y-108937619D01*
X109918333Y-109032857D01*
X109918333Y-109128095D01*
X109870714Y-109223333D01*
X109823095Y-109270952D01*
X109727857Y-109318571D01*
X109394523Y-109318571D01*
X110585000Y-109366190D02*
X110585000Y-109842380D01*
X110251666Y-108842380D02*
X110585000Y-109366190D01*
X110918333Y-108842380D01*
X103418333Y-111452380D02*
X103418333Y-110452380D01*
X103656428Y-110452380D01*
X103799285Y-110500000D01*
X103894523Y-110595238D01*
X103942142Y-110690476D01*
X103989761Y-110880952D01*
X103989761Y-111023809D01*
X103942142Y-111214285D01*
X103894523Y-111309523D01*
X103799285Y-111404761D01*
X103656428Y-111452380D01*
X103418333Y-111452380D01*
X104370714Y-111166666D02*
X104846904Y-111166666D01*
X104275476Y-111452380D02*
X104608809Y-110452380D01*
X104942142Y-111452380D01*
X105275476Y-111452380D02*
X105275476Y-110452380D01*
X105846904Y-111452380D01*
X105846904Y-110452380D01*
X106323095Y-111452380D02*
X106323095Y-110452380D01*
X106799285Y-110928571D02*
X107132619Y-110928571D01*
X107275476Y-111452380D02*
X106799285Y-111452380D01*
X106799285Y-110452380D01*
X107275476Y-110452380D01*
X108180238Y-111452380D02*
X107704047Y-111452380D01*
X107704047Y-110452380D01*
X109275476Y-111452380D02*
X109275476Y-110452380D01*
X109608809Y-111166666D01*
X109942142Y-110452380D01*
X109942142Y-111452380D01*
X110370714Y-111166666D02*
X110846904Y-111166666D01*
X110275476Y-111452380D02*
X110608809Y-110452380D01*
X110942142Y-111452380D01*
X111846904Y-111452380D02*
X111513571Y-110976190D01*
X111275476Y-111452380D02*
X111275476Y-110452380D01*
X111656428Y-110452380D01*
X111751666Y-110500000D01*
X111799285Y-110547619D01*
X111846904Y-110642857D01*
X111846904Y-110785714D01*
X111799285Y-110880952D01*
X111751666Y-110928571D01*
X111656428Y-110976190D01*
X111275476Y-110976190D01*
X112275476Y-111452380D02*
X112275476Y-110452380D01*
X112846904Y-111452380D02*
X112418333Y-110880952D01*
X112846904Y-110452380D02*
X112275476Y-111023809D01*
X113227857Y-111404761D02*
X113370714Y-111452380D01*
X113608809Y-111452380D01*
X113704047Y-111404761D01*
X113751666Y-111357142D01*
X113799285Y-111261904D01*
X113799285Y-111166666D01*
X113751666Y-111071428D01*
X113704047Y-111023809D01*
X113608809Y-110976190D01*
X113418333Y-110928571D01*
X113323095Y-110880952D01*
X113275476Y-110833333D01*
X113227857Y-110738095D01*
X113227857Y-110642857D01*
X113275476Y-110547619D01*
X113323095Y-110500000D01*
X113418333Y-110452380D01*
X113656428Y-110452380D01*
X113799285Y-110500000D01*
X103751666Y-112967142D02*
X103704047Y-113014761D01*
X103561190Y-113062380D01*
X103465952Y-113062380D01*
X103323095Y-113014761D01*
X103227857Y-112919523D01*
X103180238Y-112824285D01*
X103132619Y-112633809D01*
X103132619Y-112490952D01*
X103180238Y-112300476D01*
X103227857Y-112205238D01*
X103323095Y-112110000D01*
X103465952Y-112062380D01*
X103561190Y-112062380D01*
X103704047Y-112110000D01*
X103751666Y-112157619D01*
X104751666Y-112967142D02*
X104704047Y-113014761D01*
X104561190Y-113062380D01*
X104465952Y-113062380D01*
X104323095Y-113014761D01*
X104227857Y-112919523D01*
X104180238Y-112824285D01*
X104132619Y-112633809D01*
X104132619Y-112490952D01*
X104180238Y-112300476D01*
X104227857Y-112205238D01*
X104323095Y-112110000D01*
X104465952Y-112062380D01*
X104561190Y-112062380D01*
X104704047Y-112110000D01*
X104751666Y-112157619D01*
X105180238Y-112681428D02*
X105942142Y-112681428D01*
X106751666Y-112538571D02*
X106894523Y-112586190D01*
X106942142Y-112633809D01*
X106989761Y-112729047D01*
X106989761Y-112871904D01*
X106942142Y-112967142D01*
X106894523Y-113014761D01*
X106799285Y-113062380D01*
X106418333Y-113062380D01*
X106418333Y-112062380D01*
X106751666Y-112062380D01*
X106846904Y-112110000D01*
X106894523Y-112157619D01*
X106942142Y-112252857D01*
X106942142Y-112348095D01*
X106894523Y-112443333D01*
X106846904Y-112490952D01*
X106751666Y-112538571D01*
X106418333Y-112538571D01*
X107608809Y-112586190D02*
X107608809Y-113062380D01*
X107275476Y-112062380D02*
X107608809Y-112586190D01*
X107942142Y-112062380D01*
X108275476Y-112681428D02*
X109037380Y-112681428D01*
X109465952Y-113014761D02*
X109608809Y-113062380D01*
X109846904Y-113062380D01*
X109942142Y-113014761D01*
X109989761Y-112967142D01*
X110037380Y-112871904D01*
X110037380Y-112776666D01*
X109989761Y-112681428D01*
X109942142Y-112633809D01*
X109846904Y-112586190D01*
X109656428Y-112538571D01*
X109561190Y-112490952D01*
X109513571Y-112443333D01*
X109465952Y-112348095D01*
X109465952Y-112252857D01*
X109513571Y-112157619D01*
X109561190Y-112110000D01*
X109656428Y-112062380D01*
X109894523Y-112062380D01*
X110037380Y-112110000D01*
X110418333Y-112776666D02*
X110894523Y-112776666D01*
X110323095Y-113062380D02*
X110656428Y-112062380D01*
X110989761Y-113062380D01*
X112513571Y-112395714D02*
X112513571Y-113062380D01*
X112275476Y-112014761D02*
X112037380Y-112729047D01*
X112656428Y-112729047D01*
X113037380Y-112967142D02*
X113085000Y-113014761D01*
X113037380Y-113062380D01*
X112989761Y-113014761D01*
X113037380Y-112967142D01*
X113037380Y-113062380D01*
X113704047Y-112062380D02*
X113799285Y-112062380D01*
X113894523Y-112110000D01*
X113942142Y-112157619D01*
X113989761Y-112252857D01*
X114037380Y-112443333D01*
X114037380Y-112681428D01*
X113989761Y-112871904D01*
X113942142Y-112967142D01*
X113894523Y-113014761D01*
X113799285Y-113062380D01*
X113704047Y-113062380D01*
X113608809Y-113014761D01*
X113561190Y-112967142D01*
X113513571Y-112871904D01*
X113465952Y-112681428D01*
X113465952Y-112443333D01*
X113513571Y-112252857D01*
X113561190Y-112157619D01*
X113608809Y-112110000D01*
X113704047Y-112062380D01*
X155240476Y-68682380D02*
X155050000Y-68682380D01*
X154954761Y-68730000D01*
X154907142Y-68777619D01*
X154811904Y-68920476D01*
X154764285Y-69110952D01*
X154764285Y-69491904D01*
X154811904Y-69587142D01*
X154859523Y-69634761D01*
X154954761Y-69682380D01*
X155145238Y-69682380D01*
X155240476Y-69634761D01*
X155288095Y-69587142D01*
X155335714Y-69491904D01*
X155335714Y-69253809D01*
X155288095Y-69158571D01*
X155240476Y-69110952D01*
X155145238Y-69063333D01*
X154954761Y-69063333D01*
X154859523Y-69110952D01*
X154811904Y-69158571D01*
X154764285Y-69253809D01*
X130738571Y-80493809D02*
X130738571Y-80160476D01*
X131262380Y-80017619D02*
X131262380Y-80493809D01*
X130262380Y-80493809D01*
X130262380Y-80017619D01*
X130310000Y-79065238D02*
X130262380Y-79160476D01*
X130262380Y-79303333D01*
X130310000Y-79446190D01*
X130405238Y-79541428D01*
X130500476Y-79589047D01*
X130690952Y-79636666D01*
X130833809Y-79636666D01*
X131024285Y-79589047D01*
X131119523Y-79541428D01*
X131214761Y-79446190D01*
X131262380Y-79303333D01*
X131262380Y-79208095D01*
X131214761Y-79065238D01*
X131167142Y-79017619D01*
X130833809Y-79017619D01*
X130833809Y-79208095D01*
X130976666Y-78636666D02*
X130976666Y-78160476D01*
X131262380Y-78731904D02*
X130262380Y-78398571D01*
X131262380Y-78065238D01*
X130738571Y-77398571D02*
X130786190Y-77255714D01*
X130833809Y-77208095D01*
X130929047Y-77160476D01*
X131071904Y-77160476D01*
X131167142Y-77208095D01*
X131214761Y-77255714D01*
X131262380Y-77350952D01*
X131262380Y-77731904D01*
X130262380Y-77731904D01*
X130262380Y-77398571D01*
X130310000Y-77303333D01*
X130357619Y-77255714D01*
X130452857Y-77208095D01*
X130548095Y-77208095D01*
X130643333Y-77255714D01*
X130690952Y-77303333D01*
X130738571Y-77398571D01*
X130738571Y-77731904D01*
X131262380Y-76255714D02*
X131262380Y-76731904D01*
X130262380Y-76731904D01*
X130262380Y-75922380D02*
X131071904Y-75922380D01*
X131167142Y-75874761D01*
X131214761Y-75827142D01*
X131262380Y-75731904D01*
X131262380Y-75541428D01*
X131214761Y-75446190D01*
X131167142Y-75398571D01*
X131071904Y-75350952D01*
X130262380Y-75350952D01*
X130738571Y-74874761D02*
X130738571Y-74541428D01*
X131262380Y-74398571D02*
X131262380Y-74874761D01*
X130262380Y-74874761D01*
X130262380Y-74398571D01*
X138882380Y-88717142D02*
X137882380Y-88717142D01*
X138882380Y-88240952D02*
X137882380Y-88240952D01*
X138882380Y-87669523D01*
X137882380Y-87669523D01*
X137882380Y-87336190D02*
X137882380Y-86764761D01*
X138882380Y-87050476D02*
X137882380Y-87050476D01*
X138358571Y-86431428D02*
X138358571Y-86098095D01*
X138882380Y-85955238D02*
X138882380Y-86431428D01*
X137882380Y-86431428D01*
X137882380Y-85955238D01*
X138882380Y-85526666D02*
X137882380Y-85526666D01*
X138882380Y-84955238D01*
X137882380Y-84955238D01*
X138834761Y-84526666D02*
X138882380Y-84383809D01*
X138882380Y-84145714D01*
X138834761Y-84050476D01*
X138787142Y-84002857D01*
X138691904Y-83955238D01*
X138596666Y-83955238D01*
X138501428Y-84002857D01*
X138453809Y-84050476D01*
X138406190Y-84145714D01*
X138358571Y-84336190D01*
X138310952Y-84431428D01*
X138263333Y-84479047D01*
X138168095Y-84526666D01*
X138072857Y-84526666D01*
X137977619Y-84479047D01*
X137930000Y-84431428D01*
X137882380Y-84336190D01*
X137882380Y-84098095D01*
X137930000Y-83955238D01*
X106751904Y-96972380D02*
X106751904Y-95972380D01*
X107132857Y-95972380D01*
X107228095Y-96020000D01*
X107275714Y-96067619D01*
X107323333Y-96162857D01*
X107323333Y-96305714D01*
X107275714Y-96400952D01*
X107228095Y-96448571D01*
X107132857Y-96496190D01*
X106751904Y-96496190D01*
X107656666Y-95972380D02*
X107894761Y-96972380D01*
X108085238Y-96258095D01*
X108275714Y-96972380D01*
X108513809Y-95972380D01*
X109466190Y-96972380D02*
X109132857Y-96496190D01*
X108894761Y-96972380D02*
X108894761Y-95972380D01*
X109275714Y-95972380D01*
X109370952Y-96020000D01*
X109418571Y-96067619D01*
X109466190Y-96162857D01*
X109466190Y-96305714D01*
X109418571Y-96400952D01*
X109370952Y-96448571D01*
X109275714Y-96496190D01*
X108894761Y-96496190D01*
X109847142Y-96067619D02*
X109894761Y-96020000D01*
X109990000Y-95972380D01*
X110228095Y-95972380D01*
X110323333Y-96020000D01*
X110370952Y-96067619D01*
X110418571Y-96162857D01*
X110418571Y-96258095D01*
X110370952Y-96400952D01*
X109799523Y-96972380D01*
X110418571Y-96972380D01*
X111180476Y-96448571D02*
X111323333Y-96496190D01*
X111370952Y-96543809D01*
X111418571Y-96639047D01*
X111418571Y-96781904D01*
X111370952Y-96877142D01*
X111323333Y-96924761D01*
X111228095Y-96972380D01*
X110847142Y-96972380D01*
X110847142Y-95972380D01*
X111180476Y-95972380D01*
X111275714Y-96020000D01*
X111323333Y-96067619D01*
X111370952Y-96162857D01*
X111370952Y-96258095D01*
X111323333Y-96353333D01*
X111275714Y-96400952D01*
X111180476Y-96448571D01*
X110847142Y-96448571D01*
X112323333Y-96972380D02*
X111847142Y-96972380D01*
X111847142Y-95972380D01*
X112656666Y-96972380D02*
X112656666Y-95972380D01*
X113228095Y-96972380D01*
X113228095Y-95972380D01*
X113704285Y-96972380D02*
X113704285Y-95972380D01*
X114275714Y-96972380D02*
X113847142Y-96400952D01*
X114275714Y-95972380D02*
X113704285Y-96543809D01*
X144489523Y-83012380D02*
X143918095Y-83012380D01*
X144203809Y-83012380D02*
X144203809Y-82012380D01*
X144108571Y-82155238D01*
X144013333Y-82250476D01*
X143918095Y-82298095D01*
X144822857Y-82012380D02*
X145441904Y-82012380D01*
X145108571Y-82393333D01*
X145251428Y-82393333D01*
X145346666Y-82440952D01*
X145394285Y-82488571D01*
X145441904Y-82583809D01*
X145441904Y-82821904D01*
X145394285Y-82917142D01*
X145346666Y-82964761D01*
X145251428Y-83012380D01*
X144965714Y-83012380D01*
X144870476Y-82964761D01*
X144822857Y-82917142D01*
%TO.C,J2*%
X111102380Y-79533333D02*
X111816666Y-79533333D01*
X111959523Y-79580952D01*
X112054761Y-79676190D01*
X112102380Y-79819047D01*
X112102380Y-79914285D01*
X111197619Y-79104761D02*
X111150000Y-79057142D01*
X111102380Y-78961904D01*
X111102380Y-78723809D01*
X111150000Y-78628571D01*
X111197619Y-78580952D01*
X111292857Y-78533333D01*
X111388095Y-78533333D01*
X111530952Y-78580952D01*
X112102380Y-79152380D01*
X112102380Y-78533333D01*
%TO.C,D3*%
X116101904Y-51252380D02*
X116101904Y-50252380D01*
X116340000Y-50252380D01*
X116482857Y-50300000D01*
X116578095Y-50395238D01*
X116625714Y-50490476D01*
X116673333Y-50680952D01*
X116673333Y-50823809D01*
X116625714Y-51014285D01*
X116578095Y-51109523D01*
X116482857Y-51204761D01*
X116340000Y-51252380D01*
X116101904Y-51252380D01*
X117006666Y-50252380D02*
X117625714Y-50252380D01*
X117292380Y-50633333D01*
X117435238Y-50633333D01*
X117530476Y-50680952D01*
X117578095Y-50728571D01*
X117625714Y-50823809D01*
X117625714Y-51061904D01*
X117578095Y-51157142D01*
X117530476Y-51204761D01*
X117435238Y-51252380D01*
X117149523Y-51252380D01*
X117054285Y-51204761D01*
X117006666Y-51157142D01*
%TO.C,D2*%
X124232380Y-56628095D02*
X123232380Y-56628095D01*
X123232380Y-56390000D01*
X123280000Y-56247142D01*
X123375238Y-56151904D01*
X123470476Y-56104285D01*
X123660952Y-56056666D01*
X123803809Y-56056666D01*
X123994285Y-56104285D01*
X124089523Y-56151904D01*
X124184761Y-56247142D01*
X124232380Y-56390000D01*
X124232380Y-56628095D01*
X123327619Y-55675714D02*
X123280000Y-55628095D01*
X123232380Y-55532857D01*
X123232380Y-55294761D01*
X123280000Y-55199523D01*
X123327619Y-55151904D01*
X123422857Y-55104285D01*
X123518095Y-55104285D01*
X123660952Y-55151904D01*
X124232380Y-55723333D01*
X124232380Y-55104285D01*
%TO.C,D1*%
X127452380Y-56618095D02*
X126452380Y-56618095D01*
X126452380Y-56380000D01*
X126500000Y-56237142D01*
X126595238Y-56141904D01*
X126690476Y-56094285D01*
X126880952Y-56046666D01*
X127023809Y-56046666D01*
X127214285Y-56094285D01*
X127309523Y-56141904D01*
X127404761Y-56237142D01*
X127452380Y-56380000D01*
X127452380Y-56618095D01*
X127452380Y-55094285D02*
X127452380Y-55665714D01*
X127452380Y-55380000D02*
X126452380Y-55380000D01*
X126595238Y-55475238D01*
X126690476Y-55570476D01*
X126738095Y-55665714D01*
%TO.C,J4*%
X132511666Y-103522380D02*
X132511666Y-104236666D01*
X132464047Y-104379523D01*
X132368809Y-104474761D01*
X132225952Y-104522380D01*
X132130714Y-104522380D01*
X133416428Y-103855714D02*
X133416428Y-104522380D01*
X133178333Y-103474761D02*
X132940238Y-104189047D01*
X133559285Y-104189047D01*
%TO.C,R14*%
X120007142Y-96972380D02*
X119673809Y-96496190D01*
X119435714Y-96972380D02*
X119435714Y-95972380D01*
X119816666Y-95972380D01*
X119911904Y-96020000D01*
X119959523Y-96067619D01*
X120007142Y-96162857D01*
X120007142Y-96305714D01*
X119959523Y-96400952D01*
X119911904Y-96448571D01*
X119816666Y-96496190D01*
X119435714Y-96496190D01*
X120959523Y-96972380D02*
X120388095Y-96972380D01*
X120673809Y-96972380D02*
X120673809Y-95972380D01*
X120578571Y-96115238D01*
X120483333Y-96210476D01*
X120388095Y-96258095D01*
X121816666Y-96305714D02*
X121816666Y-96972380D01*
X121578571Y-95924761D02*
X121340476Y-96639047D01*
X121959523Y-96639047D01*
%TO.C,R10*%
X117467142Y-93162380D02*
X117133809Y-92686190D01*
X116895714Y-93162380D02*
X116895714Y-92162380D01*
X117276666Y-92162380D01*
X117371904Y-92210000D01*
X117419523Y-92257619D01*
X117467142Y-92352857D01*
X117467142Y-92495714D01*
X117419523Y-92590952D01*
X117371904Y-92638571D01*
X117276666Y-92686190D01*
X116895714Y-92686190D01*
X118419523Y-93162380D02*
X117848095Y-93162380D01*
X118133809Y-93162380D02*
X118133809Y-92162380D01*
X118038571Y-92305238D01*
X117943333Y-92400476D01*
X117848095Y-92448095D01*
X119038571Y-92162380D02*
X119133809Y-92162380D01*
X119229047Y-92210000D01*
X119276666Y-92257619D01*
X119324285Y-92352857D01*
X119371904Y-92543333D01*
X119371904Y-92781428D01*
X119324285Y-92971904D01*
X119276666Y-93067142D01*
X119229047Y-93114761D01*
X119133809Y-93162380D01*
X119038571Y-93162380D01*
X118943333Y-93114761D01*
X118895714Y-93067142D01*
X118848095Y-92971904D01*
X118800476Y-92781428D01*
X118800476Y-92543333D01*
X118848095Y-92352857D01*
X118895714Y-92257619D01*
X118943333Y-92210000D01*
X119038571Y-92162380D01*
%TO.C,R7*%
X117943333Y-85542380D02*
X117610000Y-85066190D01*
X117371904Y-85542380D02*
X117371904Y-84542380D01*
X117752857Y-84542380D01*
X117848095Y-84590000D01*
X117895714Y-84637619D01*
X117943333Y-84732857D01*
X117943333Y-84875714D01*
X117895714Y-84970952D01*
X117848095Y-85018571D01*
X117752857Y-85066190D01*
X117371904Y-85066190D01*
X118276666Y-84542380D02*
X118943333Y-84542380D01*
X118514761Y-85542380D01*
%TO.C,JP2*%
X135056666Y-73322380D02*
X135056666Y-74036666D01*
X135009047Y-74179523D01*
X134913809Y-74274761D01*
X134770952Y-74322380D01*
X134675714Y-74322380D01*
X135532857Y-74322380D02*
X135532857Y-73322380D01*
X135913809Y-73322380D01*
X136009047Y-73370000D01*
X136056666Y-73417619D01*
X136104285Y-73512857D01*
X136104285Y-73655714D01*
X136056666Y-73750952D01*
X136009047Y-73798571D01*
X135913809Y-73846190D01*
X135532857Y-73846190D01*
X136485238Y-73417619D02*
X136532857Y-73370000D01*
X136628095Y-73322380D01*
X136866190Y-73322380D01*
X136961428Y-73370000D01*
X137009047Y-73417619D01*
X137056666Y-73512857D01*
X137056666Y-73608095D01*
X137009047Y-73750952D01*
X136437619Y-74322380D01*
X137056666Y-74322380D01*
%TO.C,R8*%
X117943333Y-77922380D02*
X117610000Y-77446190D01*
X117371904Y-77922380D02*
X117371904Y-76922380D01*
X117752857Y-76922380D01*
X117848095Y-76970000D01*
X117895714Y-77017619D01*
X117943333Y-77112857D01*
X117943333Y-77255714D01*
X117895714Y-77350952D01*
X117848095Y-77398571D01*
X117752857Y-77446190D01*
X117371904Y-77446190D01*
X118514761Y-77350952D02*
X118419523Y-77303333D01*
X118371904Y-77255714D01*
X118324285Y-77160476D01*
X118324285Y-77112857D01*
X118371904Y-77017619D01*
X118419523Y-76970000D01*
X118514761Y-76922380D01*
X118705238Y-76922380D01*
X118800476Y-76970000D01*
X118848095Y-77017619D01*
X118895714Y-77112857D01*
X118895714Y-77160476D01*
X118848095Y-77255714D01*
X118800476Y-77303333D01*
X118705238Y-77350952D01*
X118514761Y-77350952D01*
X118419523Y-77398571D01*
X118371904Y-77446190D01*
X118324285Y-77541428D01*
X118324285Y-77731904D01*
X118371904Y-77827142D01*
X118419523Y-77874761D01*
X118514761Y-77922380D01*
X118705238Y-77922380D01*
X118800476Y-77874761D01*
X118848095Y-77827142D01*
X118895714Y-77731904D01*
X118895714Y-77541428D01*
X118848095Y-77446190D01*
X118800476Y-77398571D01*
X118705238Y-77350952D01*
%TO.C,R13*%
X117467142Y-70302380D02*
X117133809Y-69826190D01*
X116895714Y-70302380D02*
X116895714Y-69302380D01*
X117276666Y-69302380D01*
X117371904Y-69350000D01*
X117419523Y-69397619D01*
X117467142Y-69492857D01*
X117467142Y-69635714D01*
X117419523Y-69730952D01*
X117371904Y-69778571D01*
X117276666Y-69826190D01*
X116895714Y-69826190D01*
X118419523Y-70302380D02*
X117848095Y-70302380D01*
X118133809Y-70302380D02*
X118133809Y-69302380D01*
X118038571Y-69445238D01*
X117943333Y-69540476D01*
X117848095Y-69588095D01*
X118752857Y-69302380D02*
X119371904Y-69302380D01*
X119038571Y-69683333D01*
X119181428Y-69683333D01*
X119276666Y-69730952D01*
X119324285Y-69778571D01*
X119371904Y-69873809D01*
X119371904Y-70111904D01*
X119324285Y-70207142D01*
X119276666Y-70254761D01*
X119181428Y-70302380D01*
X118895714Y-70302380D01*
X118800476Y-70254761D01*
X118752857Y-70207142D01*
D11*
%TO.C,J1*%
X159205748Y-79248000D02*
X160294320Y-79248000D01*
X160512034Y-79320571D01*
X160657177Y-79465714D01*
X160729748Y-79683428D01*
X160729748Y-79828571D01*
X160729748Y-77724000D02*
X160729748Y-78594857D01*
X160729748Y-78159428D02*
X159205748Y-78159428D01*
X159423462Y-78304571D01*
X159568605Y-78449714D01*
X159641177Y-78594857D01*
X142856857Y-84799714D02*
X142929428Y-84582000D01*
X142929428Y-84219142D01*
X142856857Y-84074000D01*
X142784285Y-84001428D01*
X142639142Y-83928857D01*
X142494000Y-83928857D01*
X142348857Y-84001428D01*
X142276285Y-84074000D01*
X142203714Y-84219142D01*
X142131142Y-84509428D01*
X142058571Y-84654571D01*
X141986000Y-84727142D01*
X141840857Y-84799714D01*
X141695714Y-84799714D01*
X141550571Y-84727142D01*
X141478000Y-84654571D01*
X141405428Y-84509428D01*
X141405428Y-84146571D01*
X141478000Y-83928857D01*
X142784285Y-82404857D02*
X142856857Y-82477428D01*
X142929428Y-82695142D01*
X142929428Y-82840285D01*
X142856857Y-83058000D01*
X142711714Y-83203142D01*
X142566571Y-83275714D01*
X142276285Y-83348285D01*
X142058571Y-83348285D01*
X141768285Y-83275714D01*
X141623142Y-83203142D01*
X141478000Y-83058000D01*
X141405428Y-82840285D01*
X141405428Y-82695142D01*
X141478000Y-82477428D01*
X141550571Y-82404857D01*
X142494000Y-81824285D02*
X142494000Y-81098571D01*
X142929428Y-81969428D02*
X141405428Y-81461428D01*
X142929428Y-80953428D01*
X142929428Y-79574571D02*
X142203714Y-80082571D01*
X142929428Y-80445428D02*
X141405428Y-80445428D01*
X141405428Y-79864857D01*
X141478000Y-79719714D01*
X141550571Y-79647142D01*
X141695714Y-79574571D01*
X141913428Y-79574571D01*
X142058571Y-79647142D01*
X142131142Y-79719714D01*
X142203714Y-79864857D01*
X142203714Y-80445428D01*
X141405428Y-79139142D02*
X141405428Y-78268285D01*
X142929428Y-78703714D02*
X141405428Y-78703714D01*
X142348857Y-77760285D02*
X142348857Y-76599142D01*
X142131142Y-75365428D02*
X142131142Y-75873428D01*
X142929428Y-75873428D02*
X141405428Y-75873428D01*
X141405428Y-75147714D01*
D10*
%TO.C,JP3*%
X135056666Y-82002380D02*
X135056666Y-82716666D01*
X135009047Y-82859523D01*
X134913809Y-82954761D01*
X134770952Y-83002380D01*
X134675714Y-83002380D01*
X135532857Y-83002380D02*
X135532857Y-82002380D01*
X135913809Y-82002380D01*
X136009047Y-82050000D01*
X136056666Y-82097619D01*
X136104285Y-82192857D01*
X136104285Y-82335714D01*
X136056666Y-82430952D01*
X136009047Y-82478571D01*
X135913809Y-82526190D01*
X135532857Y-82526190D01*
X136437619Y-82002380D02*
X137056666Y-82002380D01*
X136723333Y-82383333D01*
X136866190Y-82383333D01*
X136961428Y-82430952D01*
X137009047Y-82478571D01*
X137056666Y-82573809D01*
X137056666Y-82811904D01*
X137009047Y-82907142D01*
X136961428Y-82954761D01*
X136866190Y-83002380D01*
X136580476Y-83002380D01*
X136485238Y-82954761D01*
X136437619Y-82907142D01*
%TO.C,JP6*%
X127436666Y-64432380D02*
X127436666Y-65146666D01*
X127389047Y-65289523D01*
X127293809Y-65384761D01*
X127150952Y-65432380D01*
X127055714Y-65432380D01*
X127912857Y-65432380D02*
X127912857Y-64432380D01*
X128293809Y-64432380D01*
X128389047Y-64480000D01*
X128436666Y-64527619D01*
X128484285Y-64622857D01*
X128484285Y-64765714D01*
X128436666Y-64860952D01*
X128389047Y-64908571D01*
X128293809Y-64956190D01*
X127912857Y-64956190D01*
X129341428Y-64432380D02*
X129150952Y-64432380D01*
X129055714Y-64480000D01*
X129008095Y-64527619D01*
X128912857Y-64670476D01*
X128865238Y-64860952D01*
X128865238Y-65241904D01*
X128912857Y-65337142D01*
X128960476Y-65384761D01*
X129055714Y-65432380D01*
X129246190Y-65432380D01*
X129341428Y-65384761D01*
X129389047Y-65337142D01*
X129436666Y-65241904D01*
X129436666Y-65003809D01*
X129389047Y-64908571D01*
X129341428Y-64860952D01*
X129246190Y-64813333D01*
X129055714Y-64813333D01*
X128960476Y-64860952D01*
X128912857Y-64908571D01*
X128865238Y-65003809D01*
%TO.C,R11*%
X117467142Y-66492380D02*
X117133809Y-66016190D01*
X116895714Y-66492380D02*
X116895714Y-65492380D01*
X117276666Y-65492380D01*
X117371904Y-65540000D01*
X117419523Y-65587619D01*
X117467142Y-65682857D01*
X117467142Y-65825714D01*
X117419523Y-65920952D01*
X117371904Y-65968571D01*
X117276666Y-66016190D01*
X116895714Y-66016190D01*
X118419523Y-66492380D02*
X117848095Y-66492380D01*
X118133809Y-66492380D02*
X118133809Y-65492380D01*
X118038571Y-65635238D01*
X117943333Y-65730476D01*
X117848095Y-65778095D01*
X119371904Y-66492380D02*
X118800476Y-66492380D01*
X119086190Y-66492380D02*
X119086190Y-65492380D01*
X118990952Y-65635238D01*
X118895714Y-65730476D01*
X118800476Y-65778095D01*
%TO.C,R4*%
X116673333Y-58872380D02*
X116340000Y-58396190D01*
X116101904Y-58872380D02*
X116101904Y-57872380D01*
X116482857Y-57872380D01*
X116578095Y-57920000D01*
X116625714Y-57967619D01*
X116673333Y-58062857D01*
X116673333Y-58205714D01*
X116625714Y-58300952D01*
X116578095Y-58348571D01*
X116482857Y-58396190D01*
X116101904Y-58396190D01*
X117530476Y-58205714D02*
X117530476Y-58872380D01*
X117292380Y-57824761D02*
X117054285Y-58539047D01*
X117673333Y-58539047D01*
%TO.C,R2*%
X138263333Y-103322380D02*
X137930000Y-102846190D01*
X137691904Y-103322380D02*
X137691904Y-102322380D01*
X138072857Y-102322380D01*
X138168095Y-102370000D01*
X138215714Y-102417619D01*
X138263333Y-102512857D01*
X138263333Y-102655714D01*
X138215714Y-102750952D01*
X138168095Y-102798571D01*
X138072857Y-102846190D01*
X137691904Y-102846190D01*
X138644285Y-102417619D02*
X138691904Y-102370000D01*
X138787142Y-102322380D01*
X139025238Y-102322380D01*
X139120476Y-102370000D01*
X139168095Y-102417619D01*
X139215714Y-102512857D01*
X139215714Y-102608095D01*
X139168095Y-102750952D01*
X138596666Y-103322380D01*
X139215714Y-103322380D01*
%TO.C,R5*%
X116673333Y-55062380D02*
X116340000Y-54586190D01*
X116101904Y-55062380D02*
X116101904Y-54062380D01*
X116482857Y-54062380D01*
X116578095Y-54110000D01*
X116625714Y-54157619D01*
X116673333Y-54252857D01*
X116673333Y-54395714D01*
X116625714Y-54490952D01*
X116578095Y-54538571D01*
X116482857Y-54586190D01*
X116101904Y-54586190D01*
X117578095Y-54062380D02*
X117101904Y-54062380D01*
X117054285Y-54538571D01*
X117101904Y-54490952D01*
X117197142Y-54443333D01*
X117435238Y-54443333D01*
X117530476Y-54490952D01*
X117578095Y-54538571D01*
X117625714Y-54633809D01*
X117625714Y-54871904D01*
X117578095Y-54967142D01*
X117530476Y-55014761D01*
X117435238Y-55062380D01*
X117197142Y-55062380D01*
X117101904Y-55014761D01*
X117054285Y-54967142D01*
%TO.C,JP7*%
X127436666Y-82002380D02*
X127436666Y-82716666D01*
X127389047Y-82859523D01*
X127293809Y-82954761D01*
X127150952Y-83002380D01*
X127055714Y-83002380D01*
X127912857Y-83002380D02*
X127912857Y-82002380D01*
X128293809Y-82002380D01*
X128389047Y-82050000D01*
X128436666Y-82097619D01*
X128484285Y-82192857D01*
X128484285Y-82335714D01*
X128436666Y-82430952D01*
X128389047Y-82478571D01*
X128293809Y-82526190D01*
X127912857Y-82526190D01*
X128817619Y-82002380D02*
X129484285Y-82002380D01*
X129055714Y-83002380D01*
%TO.C,JP5*%
X127436666Y-73112380D02*
X127436666Y-73826666D01*
X127389047Y-73969523D01*
X127293809Y-74064761D01*
X127150952Y-74112380D01*
X127055714Y-74112380D01*
X127912857Y-74112380D02*
X127912857Y-73112380D01*
X128293809Y-73112380D01*
X128389047Y-73160000D01*
X128436666Y-73207619D01*
X128484285Y-73302857D01*
X128484285Y-73445714D01*
X128436666Y-73540952D01*
X128389047Y-73588571D01*
X128293809Y-73636190D01*
X127912857Y-73636190D01*
X129389047Y-73112380D02*
X128912857Y-73112380D01*
X128865238Y-73588571D01*
X128912857Y-73540952D01*
X129008095Y-73493333D01*
X129246190Y-73493333D01*
X129341428Y-73540952D01*
X129389047Y-73588571D01*
X129436666Y-73683809D01*
X129436666Y-73921904D01*
X129389047Y-74017142D01*
X129341428Y-74064761D01*
X129246190Y-74112380D01*
X129008095Y-74112380D01*
X128912857Y-74064761D01*
X128865238Y-74017142D01*
%TO.C,R12*%
X117467142Y-74112380D02*
X117133809Y-73636190D01*
X116895714Y-74112380D02*
X116895714Y-73112380D01*
X117276666Y-73112380D01*
X117371904Y-73160000D01*
X117419523Y-73207619D01*
X117467142Y-73302857D01*
X117467142Y-73445714D01*
X117419523Y-73540952D01*
X117371904Y-73588571D01*
X117276666Y-73636190D01*
X116895714Y-73636190D01*
X118419523Y-74112380D02*
X117848095Y-74112380D01*
X118133809Y-74112380D02*
X118133809Y-73112380D01*
X118038571Y-73255238D01*
X117943333Y-73350476D01*
X117848095Y-73398095D01*
X118800476Y-73207619D02*
X118848095Y-73160000D01*
X118943333Y-73112380D01*
X119181428Y-73112380D01*
X119276666Y-73160000D01*
X119324285Y-73207619D01*
X119371904Y-73302857D01*
X119371904Y-73398095D01*
X119324285Y-73540952D01*
X118752857Y-74112380D01*
X119371904Y-74112380D01*
%TO.C,R9*%
X117943333Y-81732380D02*
X117610000Y-81256190D01*
X117371904Y-81732380D02*
X117371904Y-80732380D01*
X117752857Y-80732380D01*
X117848095Y-80780000D01*
X117895714Y-80827619D01*
X117943333Y-80922857D01*
X117943333Y-81065714D01*
X117895714Y-81160952D01*
X117848095Y-81208571D01*
X117752857Y-81256190D01*
X117371904Y-81256190D01*
X118419523Y-81732380D02*
X118610000Y-81732380D01*
X118705238Y-81684761D01*
X118752857Y-81637142D01*
X118848095Y-81494285D01*
X118895714Y-81303809D01*
X118895714Y-80922857D01*
X118848095Y-80827619D01*
X118800476Y-80780000D01*
X118705238Y-80732380D01*
X118514761Y-80732380D01*
X118419523Y-80780000D01*
X118371904Y-80827619D01*
X118324285Y-80922857D01*
X118324285Y-81160952D01*
X118371904Y-81256190D01*
X118419523Y-81303809D01*
X118514761Y-81351428D01*
X118705238Y-81351428D01*
X118800476Y-81303809D01*
X118848095Y-81256190D01*
X118895714Y-81160952D01*
%TO.C,JP4*%
X135056666Y-64432380D02*
X135056666Y-65146666D01*
X135009047Y-65289523D01*
X134913809Y-65384761D01*
X134770952Y-65432380D01*
X134675714Y-65432380D01*
X135532857Y-65432380D02*
X135532857Y-64432380D01*
X135913809Y-64432380D01*
X136009047Y-64480000D01*
X136056666Y-64527619D01*
X136104285Y-64622857D01*
X136104285Y-64765714D01*
X136056666Y-64860952D01*
X136009047Y-64908571D01*
X135913809Y-64956190D01*
X135532857Y-64956190D01*
X136961428Y-64765714D02*
X136961428Y-65432380D01*
X136723333Y-64384761D02*
X136485238Y-65099047D01*
X137104285Y-65099047D01*
%TO.C,Q1*%
X132377619Y-95345238D02*
X132330000Y-95440476D01*
X132234761Y-95535714D01*
X132091904Y-95678571D01*
X132044285Y-95773809D01*
X132044285Y-95869047D01*
X132282380Y-95821428D02*
X132234761Y-95916666D01*
X132139523Y-96011904D01*
X131949047Y-96059523D01*
X131615714Y-96059523D01*
X131425238Y-96011904D01*
X131330000Y-95916666D01*
X131282380Y-95821428D01*
X131282380Y-95630952D01*
X131330000Y-95535714D01*
X131425238Y-95440476D01*
X131615714Y-95392857D01*
X131949047Y-95392857D01*
X132139523Y-95440476D01*
X132234761Y-95535714D01*
X132282380Y-95630952D01*
X132282380Y-95821428D01*
X132282380Y-94440476D02*
X132282380Y-95011904D01*
X132282380Y-94726190D02*
X131282380Y-94726190D01*
X131425238Y-94821428D01*
X131520476Y-94916666D01*
X131568095Y-95011904D01*
%TO.C,R6*%
X117943333Y-89352380D02*
X117610000Y-88876190D01*
X117371904Y-89352380D02*
X117371904Y-88352380D01*
X117752857Y-88352380D01*
X117848095Y-88400000D01*
X117895714Y-88447619D01*
X117943333Y-88542857D01*
X117943333Y-88685714D01*
X117895714Y-88780952D01*
X117848095Y-88828571D01*
X117752857Y-88876190D01*
X117371904Y-88876190D01*
X118800476Y-88352380D02*
X118610000Y-88352380D01*
X118514761Y-88400000D01*
X118467142Y-88447619D01*
X118371904Y-88590476D01*
X118324285Y-88780952D01*
X118324285Y-89161904D01*
X118371904Y-89257142D01*
X118419523Y-89304761D01*
X118514761Y-89352380D01*
X118705238Y-89352380D01*
X118800476Y-89304761D01*
X118848095Y-89257142D01*
X118895714Y-89161904D01*
X118895714Y-88923809D01*
X118848095Y-88828571D01*
X118800476Y-88780952D01*
X118705238Y-88733333D01*
X118514761Y-88733333D01*
X118419523Y-88780952D01*
X118371904Y-88828571D01*
X118324285Y-88923809D01*
%TO.C,J3*%
X135556666Y-52512380D02*
X135556666Y-53226666D01*
X135509047Y-53369523D01*
X135413809Y-53464761D01*
X135270952Y-53512380D01*
X135175714Y-53512380D01*
X135937619Y-52512380D02*
X136556666Y-52512380D01*
X136223333Y-52893333D01*
X136366190Y-52893333D01*
X136461428Y-52940952D01*
X136509047Y-52988571D01*
X136556666Y-53083809D01*
X136556666Y-53321904D01*
X136509047Y-53417142D01*
X136461428Y-53464761D01*
X136366190Y-53512380D01*
X136080476Y-53512380D01*
X135985238Y-53464761D01*
X135937619Y-53417142D01*
%TO.C,JP1*%
X113542380Y-99893333D02*
X114256666Y-99893333D01*
X114399523Y-99940952D01*
X114494761Y-100036190D01*
X114542380Y-100179047D01*
X114542380Y-100274285D01*
X114542380Y-99417142D02*
X113542380Y-99417142D01*
X113542380Y-99036190D01*
X113590000Y-98940952D01*
X113637619Y-98893333D01*
X113732857Y-98845714D01*
X113875714Y-98845714D01*
X113970952Y-98893333D01*
X114018571Y-98940952D01*
X114066190Y-99036190D01*
X114066190Y-99417142D01*
X114542380Y-97893333D02*
X114542380Y-98464761D01*
X114542380Y-98179047D02*
X113542380Y-98179047D01*
X113685238Y-98274285D01*
X113780476Y-98369523D01*
X113828095Y-98464761D01*
%TO.C,R1*%
X138263333Y-95702380D02*
X137930000Y-95226190D01*
X137691904Y-95702380D02*
X137691904Y-94702380D01*
X138072857Y-94702380D01*
X138168095Y-94750000D01*
X138215714Y-94797619D01*
X138263333Y-94892857D01*
X138263333Y-95035714D01*
X138215714Y-95130952D01*
X138168095Y-95178571D01*
X138072857Y-95226190D01*
X137691904Y-95226190D01*
X139215714Y-95702380D02*
X138644285Y-95702380D01*
X138930000Y-95702380D02*
X138930000Y-94702380D01*
X138834761Y-94845238D01*
X138739523Y-94940476D01*
X138644285Y-94988095D01*
%TO.C,R3*%
X116673333Y-62682380D02*
X116340000Y-62206190D01*
X116101904Y-62682380D02*
X116101904Y-61682380D01*
X116482857Y-61682380D01*
X116578095Y-61730000D01*
X116625714Y-61777619D01*
X116673333Y-61872857D01*
X116673333Y-62015714D01*
X116625714Y-62110952D01*
X116578095Y-62158571D01*
X116482857Y-62206190D01*
X116101904Y-62206190D01*
X117006666Y-61682380D02*
X117625714Y-61682380D01*
X117292380Y-62063333D01*
X117435238Y-62063333D01*
X117530476Y-62110952D01*
X117578095Y-62158571D01*
X117625714Y-62253809D01*
X117625714Y-62491904D01*
X117578095Y-62587142D01*
X117530476Y-62634761D01*
X117435238Y-62682380D01*
X117149523Y-62682380D01*
X117054285Y-62634761D01*
X117006666Y-62587142D01*
D12*
%TO.C,J2*%
X100230000Y-63715000D02*
X110710000Y-63715000D01*
X111604338Y-73410000D02*
X111604338Y-73910000D01*
X111171325Y-73660000D02*
X111604338Y-73410000D01*
X110710000Y-94685000D02*
X100230000Y-94685000D01*
X110710000Y-63715000D02*
X110710000Y-94685000D01*
X111604338Y-73910000D02*
X111171325Y-73660000D01*
%TO.C,D3*%
X114720000Y-51920000D02*
X118960000Y-51920000D01*
X118240000Y-51920000D02*
X118240000Y-49680000D01*
X118360000Y-51920000D02*
X118360000Y-49680000D01*
X114720000Y-49680000D02*
X114720000Y-51920000D01*
X118120000Y-51920000D02*
X118120000Y-49680000D01*
X119610000Y-50800000D02*
X118960000Y-50800000D01*
X118960000Y-51920000D02*
X118960000Y-49680000D01*
X118960000Y-49680000D02*
X114720000Y-49680000D01*
X114070000Y-50800000D02*
X114720000Y-50800000D01*
%TO.C,D2*%
X122660000Y-53770000D02*
X122660000Y-58010000D01*
X122660000Y-57290000D02*
X124900000Y-57290000D01*
X122660000Y-57410000D02*
X124900000Y-57410000D01*
X124900000Y-53770000D02*
X122660000Y-53770000D01*
X122660000Y-57170000D02*
X124900000Y-57170000D01*
X123780000Y-58660000D02*
X123780000Y-58010000D01*
X122660000Y-58010000D02*
X124900000Y-58010000D01*
X124900000Y-58010000D02*
X124900000Y-53770000D01*
X123780000Y-53120000D02*
X123780000Y-53770000D01*
%TO.C,D1*%
X127000000Y-53110000D02*
X127000000Y-53760000D01*
X128120000Y-58000000D02*
X128120000Y-53760000D01*
X125880000Y-58000000D02*
X128120000Y-58000000D01*
X127000000Y-58650000D02*
X127000000Y-58000000D01*
X125880000Y-57160000D02*
X128120000Y-57160000D01*
X128120000Y-53760000D02*
X125880000Y-53760000D01*
X125880000Y-57400000D02*
X128120000Y-57400000D01*
X125880000Y-57280000D02*
X128120000Y-57280000D01*
X125880000Y-53760000D02*
X125880000Y-58000000D01*
%TO.C,J4*%
X137410000Y-104115662D02*
X137160000Y-104548675D01*
X136910000Y-104115662D02*
X137410000Y-104115662D01*
X137160000Y-104548675D02*
X136910000Y-104115662D01*
X117360000Y-113610000D02*
X117360000Y-105010000D01*
X148330000Y-105010000D02*
X148330000Y-113610000D01*
X117360000Y-105010000D02*
X148330000Y-105010000D01*
%TO.C,R14*%
X123920000Y-97560000D02*
X123920000Y-97890000D01*
X117380000Y-95150000D02*
X117380000Y-95480000D01*
X123920000Y-95480000D02*
X123920000Y-95150000D01*
X123920000Y-97890000D02*
X117380000Y-97890000D01*
X123920000Y-95150000D02*
X117380000Y-95150000D01*
X117380000Y-97890000D02*
X117380000Y-97560000D01*
%TO.C,R10*%
X121380000Y-91340000D02*
X114840000Y-91340000D01*
X121380000Y-94080000D02*
X114840000Y-94080000D01*
X121380000Y-91670000D02*
X121380000Y-91340000D01*
X121380000Y-93750000D02*
X121380000Y-94080000D01*
X114840000Y-91340000D02*
X114840000Y-91670000D01*
X114840000Y-94080000D02*
X114840000Y-93750000D01*
%TO.C,R7*%
X121380000Y-83720000D02*
X121380000Y-84050000D01*
X114840000Y-86130000D02*
X114840000Y-86460000D01*
X114840000Y-83720000D02*
X121380000Y-83720000D01*
X114840000Y-86460000D02*
X121380000Y-86460000D01*
X114840000Y-84050000D02*
X114840000Y-83720000D01*
X121380000Y-86460000D02*
X121380000Y-86130000D01*
%TO.C,JP2*%
X134560000Y-74870000D02*
X135890000Y-74870000D01*
X134560000Y-80070000D02*
X137220000Y-80070000D01*
X134560000Y-77470000D02*
X134560000Y-80070000D01*
X137220000Y-77470000D02*
X137220000Y-80070000D01*
X134560000Y-76200000D02*
X134560000Y-74870000D01*
X134560000Y-77470000D02*
X137220000Y-77470000D01*
%TO.C,R8*%
X114840000Y-76100000D02*
X121380000Y-76100000D01*
X114840000Y-78840000D02*
X121380000Y-78840000D01*
X114840000Y-78510000D02*
X114840000Y-78840000D01*
X114840000Y-76430000D02*
X114840000Y-76100000D01*
X121380000Y-76100000D02*
X121380000Y-76430000D01*
X121380000Y-78840000D02*
X121380000Y-78510000D01*
%TO.C,R13*%
X114840000Y-68480000D02*
X121380000Y-68480000D01*
X121380000Y-68480000D02*
X121380000Y-68810000D01*
X114840000Y-68810000D02*
X114840000Y-68480000D01*
X114840000Y-70890000D02*
X114840000Y-71220000D01*
X121380000Y-71220000D02*
X121380000Y-70890000D01*
X114840000Y-71220000D02*
X121380000Y-71220000D01*
D13*
%TO.C,J1*%
X153543000Y-102108000D02*
X146431000Y-102108000D01*
X153543000Y-105791000D02*
X153543000Y-51689000D01*
X156591000Y-51689000D02*
X156591000Y-105791000D01*
X153543000Y-53340000D02*
X156591000Y-53340000D01*
X146431000Y-54864000D02*
X153543000Y-54864000D01*
X153543000Y-105791000D02*
X156591000Y-105791000D01*
X163449000Y-54864000D02*
X156591000Y-54864000D01*
X153543000Y-104140000D02*
X156591000Y-104140000D01*
X153543000Y-51689000D02*
X156591000Y-51689000D01*
X163449000Y-102108000D02*
X163449000Y-54864000D01*
X146431000Y-102108000D02*
X146431000Y-54864000D01*
X163449000Y-102108000D02*
X156591000Y-102108000D01*
D12*
%TO.C,JP3*%
X137220000Y-86360000D02*
X137220000Y-83760000D01*
X137220000Y-86360000D02*
X134560000Y-86360000D01*
X137220000Y-83760000D02*
X134560000Y-83760000D01*
X137220000Y-87630000D02*
X137220000Y-88960000D01*
X134560000Y-86360000D02*
X134560000Y-83760000D01*
X137220000Y-88960000D02*
X135890000Y-88960000D01*
%TO.C,JP6*%
X126940000Y-68580000D02*
X129600000Y-68580000D01*
X126940000Y-71180000D02*
X129600000Y-71180000D01*
X126940000Y-68580000D02*
X126940000Y-71180000D01*
X126940000Y-65980000D02*
X128270000Y-65980000D01*
X126940000Y-67310000D02*
X126940000Y-65980000D01*
X129600000Y-68580000D02*
X129600000Y-71180000D01*
%TO.C,R11*%
X121380000Y-67080000D02*
X121380000Y-67410000D01*
X114840000Y-67410000D02*
X114840000Y-67080000D01*
X114840000Y-64670000D02*
X114840000Y-65000000D01*
X121380000Y-67410000D02*
X114840000Y-67410000D01*
X121380000Y-65000000D02*
X121380000Y-64670000D01*
X121380000Y-64670000D02*
X114840000Y-64670000D01*
%TO.C,R4*%
X120110000Y-57050000D02*
X120110000Y-57380000D01*
X113570000Y-59790000D02*
X120110000Y-59790000D01*
X113570000Y-59460000D02*
X113570000Y-59790000D01*
X113570000Y-57050000D02*
X120110000Y-57050000D01*
X120110000Y-59790000D02*
X120110000Y-59460000D01*
X113570000Y-57380000D02*
X113570000Y-57050000D01*
%TO.C,R2*%
X141700000Y-101500000D02*
X135160000Y-101500000D01*
X141700000Y-101830000D02*
X141700000Y-101500000D01*
X135160000Y-101500000D02*
X135160000Y-101830000D01*
X135160000Y-104240000D02*
X135160000Y-103910000D01*
X141700000Y-103910000D02*
X141700000Y-104240000D01*
X141700000Y-104240000D02*
X135160000Y-104240000D01*
%TO.C,R5*%
X113570000Y-55980000D02*
X120110000Y-55980000D01*
X120110000Y-55980000D02*
X120110000Y-55650000D01*
X113570000Y-53570000D02*
X113570000Y-53240000D01*
X120110000Y-53240000D02*
X120110000Y-53570000D01*
X113570000Y-53240000D02*
X120110000Y-53240000D01*
X113570000Y-55650000D02*
X113570000Y-55980000D01*
%TO.C,JP7*%
X126940000Y-83760000D02*
X128270000Y-83760000D01*
X126940000Y-85090000D02*
X126940000Y-83760000D01*
X129600000Y-86360000D02*
X129600000Y-88960000D01*
X126940000Y-86360000D02*
X126940000Y-88960000D01*
X126940000Y-88960000D02*
X129600000Y-88960000D01*
X126940000Y-86360000D02*
X129600000Y-86360000D01*
%TO.C,JP5*%
X129600000Y-77470000D02*
X126940000Y-77470000D01*
X129600000Y-78740000D02*
X129600000Y-80070000D01*
X126940000Y-77470000D02*
X126940000Y-74870000D01*
X129600000Y-74870000D02*
X126940000Y-74870000D01*
X129600000Y-80070000D02*
X128270000Y-80070000D01*
X129600000Y-77470000D02*
X129600000Y-74870000D01*
%TO.C,R12*%
X114840000Y-75030000D02*
X121380000Y-75030000D01*
X114840000Y-72620000D02*
X114840000Y-72290000D01*
X114840000Y-74700000D02*
X114840000Y-75030000D01*
X121380000Y-75030000D02*
X121380000Y-74700000D01*
X121380000Y-72290000D02*
X121380000Y-72620000D01*
X114840000Y-72290000D02*
X121380000Y-72290000D01*
%TO.C,R9*%
X121380000Y-79910000D02*
X114840000Y-79910000D01*
X114840000Y-79910000D02*
X114840000Y-80240000D01*
X121380000Y-82320000D02*
X121380000Y-82650000D01*
X121380000Y-80240000D02*
X121380000Y-79910000D01*
X121380000Y-82650000D02*
X114840000Y-82650000D01*
X114840000Y-82650000D02*
X114840000Y-82320000D01*
%TO.C,JP4*%
X134560000Y-65980000D02*
X135890000Y-65980000D01*
X134560000Y-71180000D02*
X137220000Y-71180000D01*
X134560000Y-68580000D02*
X137220000Y-68580000D01*
X137220000Y-68580000D02*
X137220000Y-71180000D01*
X134560000Y-67310000D02*
X134560000Y-65980000D01*
X134560000Y-68580000D02*
X134560000Y-71180000D01*
%TO.C,Q1*%
X126420000Y-93450000D02*
X126420000Y-97050000D01*
X129368807Y-97606400D02*
G75*
G03*
X130870000Y-95250000I-1098804J2356399D01*
G01*
X126420000Y-97050000D02*
G75*
G03*
X127147205Y-97574184I1849994J1799991D01*
G01*
X130870000Y-95250000D02*
G75*
G03*
X129368807Y-92893600I-2600002J-2D01*
G01*
X127147205Y-92925816D02*
G75*
G03*
X126420000Y-93450000I1122789J-2324175D01*
G01*
%TO.C,R6*%
X121380000Y-90270000D02*
X121380000Y-89940000D01*
X121380000Y-87530000D02*
X121380000Y-87860000D01*
X114840000Y-90270000D02*
X121380000Y-90270000D01*
X114840000Y-89940000D02*
X114840000Y-90270000D01*
X114840000Y-87530000D02*
X121380000Y-87530000D01*
X114840000Y-87860000D02*
X114840000Y-87530000D01*
D14*
%TO.C,J3*%
X139490000Y-44660000D02*
X139490000Y-48260000D01*
X132290000Y-44660000D02*
X139490000Y-44660000D01*
X135890000Y-48260000D02*
X129890000Y-48260000D01*
X132290000Y-48060000D02*
X132290000Y-44660000D01*
X141890000Y-48260000D02*
X135890000Y-48260000D01*
X141890000Y-62460000D02*
X141890000Y-48260000D01*
X129890000Y-62460000D02*
X141890000Y-62460000D01*
X129890000Y-48260000D02*
X129890000Y-62460000D01*
D12*
%TO.C,JP1*%
X113090000Y-97730000D02*
X113090000Y-99060000D01*
X110490000Y-97730000D02*
X110490000Y-100390000D01*
X111760000Y-97730000D02*
X113090000Y-97730000D01*
X110490000Y-97730000D02*
X107890000Y-97730000D01*
X107890000Y-97730000D02*
X107890000Y-100390000D01*
X110490000Y-100390000D02*
X107890000Y-100390000D01*
%TO.C,R1*%
X135160000Y-96620000D02*
X135160000Y-96290000D01*
X141700000Y-94210000D02*
X141700000Y-93880000D01*
X141700000Y-96620000D02*
X135160000Y-96620000D01*
X141700000Y-93880000D02*
X135160000Y-93880000D01*
X141700000Y-96290000D02*
X141700000Y-96620000D01*
X135160000Y-93880000D02*
X135160000Y-94210000D01*
%TO.C,R3*%
X113570000Y-63600000D02*
X120110000Y-63600000D01*
X113570000Y-60860000D02*
X120110000Y-60860000D01*
X113570000Y-61190000D02*
X113570000Y-60860000D01*
X120110000Y-60860000D02*
X120110000Y-61190000D01*
X113570000Y-63270000D02*
X113570000Y-63600000D01*
X120110000Y-63600000D02*
X120110000Y-63270000D01*
%TD*%
D15*
%TO.C,J1*%
X154739340Y-52240180D03*
X154739340Y-105239820D03*
%TD*%
M02*
