%TF.GenerationSoftware,KiCad,Pcbnew,(6.0.2)*%
%TF.CreationDate,2022-12-04T18:43:18-06:00*%
%TF.ProjectId,CGA2SCart,43474132-5343-4617-9274-2e6b69636164,rev?*%
%TF.SameCoordinates,Original*%
%TF.FileFunction,Legend,Top*%
%TF.FilePolarity,Positive*%
%FSLAX46Y46*%
G04 Gerber Fmt 4.6, Leading zero omitted, Abs format (unit mm)*
G04 Created by KiCad (PCBNEW (6.0.2)) date 2022-12-04 18:43:18*
%MOMM*%
%LPD*%
G01*
G04 APERTURE LIST*
%ADD10C,0.150000*%
%ADD11C,0.304800*%
%ADD12C,0.120000*%
%ADD13C,0.381000*%
%ADD14C,0.100000*%
%ADD15O,4.100000X3.100000*%
G04 APERTURE END LIST*
D10*
X126285809Y-112720380D02*
X126285809Y-111720380D01*
X126857238Y-112720380D01*
X126857238Y-111720380D01*
X127333428Y-112720380D02*
X127333428Y-111720380D01*
X127809619Y-112720380D02*
X127809619Y-111720380D01*
X128381047Y-112720380D01*
X128381047Y-111720380D01*
X128714380Y-111720380D02*
X129047714Y-112720380D01*
X129381047Y-111720380D01*
X121475619Y-112720380D02*
X121475619Y-111720380D01*
X121951809Y-112720380D02*
X121951809Y-111720380D01*
X122523238Y-112720380D01*
X122523238Y-111720380D01*
X122856571Y-111720380D02*
X123189904Y-112720380D01*
X123523238Y-111720380D01*
X106172095Y-106688000D02*
X106076857Y-106640380D01*
X105934000Y-106640380D01*
X105791142Y-106688000D01*
X105695904Y-106783238D01*
X105648285Y-106878476D01*
X105600666Y-107068952D01*
X105600666Y-107211809D01*
X105648285Y-107402285D01*
X105695904Y-107497523D01*
X105791142Y-107592761D01*
X105934000Y-107640380D01*
X106029238Y-107640380D01*
X106172095Y-107592761D01*
X106219714Y-107545142D01*
X106219714Y-107211809D01*
X106029238Y-107211809D01*
X106648285Y-107640380D02*
X106648285Y-106640380D01*
X107219714Y-107640380D01*
X107219714Y-106640380D01*
X107695904Y-107640380D02*
X107695904Y-106640380D01*
X107934000Y-106640380D01*
X108076857Y-106688000D01*
X108172095Y-106783238D01*
X108219714Y-106878476D01*
X108267333Y-107068952D01*
X108267333Y-107211809D01*
X108219714Y-107402285D01*
X108172095Y-107497523D01*
X108076857Y-107592761D01*
X107934000Y-107640380D01*
X107695904Y-107640380D01*
X111712476Y-106640380D02*
X112045809Y-107640380D01*
X112379142Y-106640380D01*
X112664857Y-107592761D02*
X112807714Y-107640380D01*
X113045809Y-107640380D01*
X113141047Y-107592761D01*
X113188666Y-107545142D01*
X113236285Y-107449904D01*
X113236285Y-107354666D01*
X113188666Y-107259428D01*
X113141047Y-107211809D01*
X113045809Y-107164190D01*
X112855333Y-107116571D01*
X112760095Y-107068952D01*
X112712476Y-107021333D01*
X112664857Y-106926095D01*
X112664857Y-106830857D01*
X112712476Y-106735619D01*
X112760095Y-106688000D01*
X112855333Y-106640380D01*
X113093428Y-106640380D01*
X113236285Y-106688000D01*
X122234285Y-105382380D02*
X122900952Y-105382380D01*
X122472380Y-106382380D01*
X123710476Y-105715714D02*
X123710476Y-106382380D01*
X123472380Y-105334761D02*
X123234285Y-106049047D01*
X123853333Y-106049047D01*
X124234285Y-106382380D02*
X124234285Y-105382380D01*
X124234285Y-105858571D02*
X124805714Y-105858571D01*
X124805714Y-106382380D02*
X124805714Y-105382380D01*
X125853333Y-106287142D02*
X125805714Y-106334761D01*
X125662857Y-106382380D01*
X125567619Y-106382380D01*
X125424761Y-106334761D01*
X125329523Y-106239523D01*
X125281904Y-106144285D01*
X125234285Y-105953809D01*
X125234285Y-105810952D01*
X125281904Y-105620476D01*
X125329523Y-105525238D01*
X125424761Y-105430000D01*
X125567619Y-105382380D01*
X125662857Y-105382380D01*
X125805714Y-105430000D01*
X125853333Y-105477619D01*
X126424761Y-105810952D02*
X126329523Y-105763333D01*
X126281904Y-105715714D01*
X126234285Y-105620476D01*
X126234285Y-105572857D01*
X126281904Y-105477619D01*
X126329523Y-105430000D01*
X126424761Y-105382380D01*
X126615238Y-105382380D01*
X126710476Y-105430000D01*
X126758095Y-105477619D01*
X126805714Y-105572857D01*
X126805714Y-105620476D01*
X126758095Y-105715714D01*
X126710476Y-105763333D01*
X126615238Y-105810952D01*
X126424761Y-105810952D01*
X126329523Y-105858571D01*
X126281904Y-105906190D01*
X126234285Y-106001428D01*
X126234285Y-106191904D01*
X126281904Y-106287142D01*
X126329523Y-106334761D01*
X126424761Y-106382380D01*
X126615238Y-106382380D01*
X126710476Y-106334761D01*
X126758095Y-106287142D01*
X126805714Y-106191904D01*
X126805714Y-106001428D01*
X126758095Y-105906190D01*
X126710476Y-105858571D01*
X126615238Y-105810952D01*
X127662857Y-105382380D02*
X127472380Y-105382380D01*
X127377142Y-105430000D01*
X127329523Y-105477619D01*
X127234285Y-105620476D01*
X127186666Y-105810952D01*
X127186666Y-106191904D01*
X127234285Y-106287142D01*
X127281904Y-106334761D01*
X127377142Y-106382380D01*
X127567619Y-106382380D01*
X127662857Y-106334761D01*
X127710476Y-106287142D01*
X127758095Y-106191904D01*
X127758095Y-105953809D01*
X127710476Y-105858571D01*
X127662857Y-105810952D01*
X127567619Y-105763333D01*
X127377142Y-105763333D01*
X127281904Y-105810952D01*
X127234285Y-105858571D01*
X127186666Y-105953809D01*
X120173333Y-117882380D02*
X119697142Y-117882380D01*
X119697142Y-116882380D01*
X120506666Y-117882380D02*
X120506666Y-116882380D01*
X120840000Y-117596666D01*
X121173333Y-116882380D01*
X121173333Y-117882380D01*
X121554285Y-116882380D02*
X122220952Y-116882380D01*
X121792380Y-117882380D01*
X122744761Y-117310952D02*
X122649523Y-117263333D01*
X122601904Y-117215714D01*
X122554285Y-117120476D01*
X122554285Y-117072857D01*
X122601904Y-116977619D01*
X122649523Y-116930000D01*
X122744761Y-116882380D01*
X122935238Y-116882380D01*
X123030476Y-116930000D01*
X123078095Y-116977619D01*
X123125714Y-117072857D01*
X123125714Y-117120476D01*
X123078095Y-117215714D01*
X123030476Y-117263333D01*
X122935238Y-117310952D01*
X122744761Y-117310952D01*
X122649523Y-117358571D01*
X122601904Y-117406190D01*
X122554285Y-117501428D01*
X122554285Y-117691904D01*
X122601904Y-117787142D01*
X122649523Y-117834761D01*
X122744761Y-117882380D01*
X122935238Y-117882380D01*
X123030476Y-117834761D01*
X123078095Y-117787142D01*
X123125714Y-117691904D01*
X123125714Y-117501428D01*
X123078095Y-117406190D01*
X123030476Y-117358571D01*
X122935238Y-117310952D01*
X123744761Y-116882380D02*
X123840000Y-116882380D01*
X123935238Y-116930000D01*
X123982857Y-116977619D01*
X124030476Y-117072857D01*
X124078095Y-117263333D01*
X124078095Y-117501428D01*
X124030476Y-117691904D01*
X123982857Y-117787142D01*
X123935238Y-117834761D01*
X123840000Y-117882380D01*
X123744761Y-117882380D01*
X123649523Y-117834761D01*
X123601904Y-117787142D01*
X123554285Y-117691904D01*
X123506666Y-117501428D01*
X123506666Y-117263333D01*
X123554285Y-117072857D01*
X123601904Y-116977619D01*
X123649523Y-116930000D01*
X123744761Y-116882380D01*
X124982857Y-116882380D02*
X124506666Y-116882380D01*
X124459047Y-117358571D01*
X124506666Y-117310952D01*
X124601904Y-117263333D01*
X124840000Y-117263333D01*
X124935238Y-117310952D01*
X124982857Y-117358571D01*
X125030476Y-117453809D01*
X125030476Y-117691904D01*
X124982857Y-117787142D01*
X124935238Y-117834761D01*
X124840000Y-117882380D01*
X124601904Y-117882380D01*
X124506666Y-117834761D01*
X124459047Y-117787142D01*
X100485380Y-112918476D02*
X100485380Y-112728000D01*
X100437761Y-112632761D01*
X100390142Y-112585142D01*
X100247285Y-112489904D01*
X100056809Y-112442285D01*
X99675857Y-112442285D01*
X99580619Y-112489904D01*
X99533000Y-112537523D01*
X99485380Y-112632761D01*
X99485380Y-112823238D01*
X99533000Y-112918476D01*
X99580619Y-112966095D01*
X99675857Y-113013714D01*
X99913952Y-113013714D01*
X100009190Y-112966095D01*
X100056809Y-112918476D01*
X100104428Y-112823238D01*
X100104428Y-112632761D01*
X100056809Y-112537523D01*
X100009190Y-112489904D01*
X99913952Y-112442285D01*
X100104428Y-112013714D02*
X100104428Y-111251809D01*
X100485380Y-110251809D02*
X100485380Y-110823238D01*
X100485380Y-110537523D02*
X99485380Y-110537523D01*
X99628238Y-110632761D01*
X99723476Y-110728000D01*
X99771095Y-110823238D01*
X99580619Y-109870857D02*
X99533000Y-109823238D01*
X99485380Y-109728000D01*
X99485380Y-109489904D01*
X99533000Y-109394666D01*
X99580619Y-109347047D01*
X99675857Y-109299428D01*
X99771095Y-109299428D01*
X99913952Y-109347047D01*
X100485380Y-109918476D01*
X100485380Y-109299428D01*
X99485380Y-109013714D02*
X100485380Y-108680380D01*
X99485380Y-108347047D01*
X100485380Y-108013714D02*
X99485380Y-108013714D01*
X99485380Y-107775619D01*
X99533000Y-107632761D01*
X99628238Y-107537523D01*
X99723476Y-107489904D01*
X99913952Y-107442285D01*
X100056809Y-107442285D01*
X100247285Y-107489904D01*
X100342523Y-107537523D01*
X100437761Y-107632761D01*
X100485380Y-107775619D01*
X100485380Y-108013714D01*
X100390142Y-106442285D02*
X100437761Y-106489904D01*
X100485380Y-106632761D01*
X100485380Y-106728000D01*
X100437761Y-106870857D01*
X100342523Y-106966095D01*
X100247285Y-107013714D01*
X100056809Y-107061333D01*
X99913952Y-107061333D01*
X99723476Y-107013714D01*
X99628238Y-106966095D01*
X99533000Y-106870857D01*
X99485380Y-106728000D01*
X99485380Y-106632761D01*
X99533000Y-106489904D01*
X99580619Y-106442285D01*
X102095380Y-111370857D02*
X101095380Y-111370857D01*
X101095380Y-110989904D01*
X101143000Y-110894666D01*
X101190619Y-110847047D01*
X101285857Y-110799428D01*
X101428714Y-110799428D01*
X101523952Y-110847047D01*
X101571571Y-110894666D01*
X101619190Y-110989904D01*
X101619190Y-111370857D01*
X102095380Y-110370857D02*
X101095380Y-110370857D01*
X102095380Y-109894666D02*
X101095380Y-109894666D01*
X102095380Y-109323238D01*
X101095380Y-109323238D01*
X101714428Y-108847047D02*
X101714428Y-108085142D01*
X102095380Y-108466095D02*
X101333476Y-108466095D01*
X135056571Y-89931428D02*
X135056571Y-89598095D01*
X135580380Y-89455238D02*
X135580380Y-89931428D01*
X134580380Y-89931428D01*
X134580380Y-89455238D01*
X134628000Y-88502857D02*
X134580380Y-88598095D01*
X134580380Y-88740952D01*
X134628000Y-88883809D01*
X134723238Y-88979047D01*
X134818476Y-89026666D01*
X135008952Y-89074285D01*
X135151809Y-89074285D01*
X135342285Y-89026666D01*
X135437523Y-88979047D01*
X135532761Y-88883809D01*
X135580380Y-88740952D01*
X135580380Y-88645714D01*
X135532761Y-88502857D01*
X135485142Y-88455238D01*
X135151809Y-88455238D01*
X135151809Y-88645714D01*
X135294666Y-88074285D02*
X135294666Y-87598095D01*
X135580380Y-88169523D02*
X134580380Y-87836190D01*
X135580380Y-87502857D01*
X134628000Y-86645714D02*
X134580380Y-86740952D01*
X134580380Y-86883809D01*
X134628000Y-87026666D01*
X134723238Y-87121904D01*
X134818476Y-87169523D01*
X135008952Y-87217142D01*
X135151809Y-87217142D01*
X135342285Y-87169523D01*
X135437523Y-87121904D01*
X135532761Y-87026666D01*
X135580380Y-86883809D01*
X135580380Y-86788571D01*
X135532761Y-86645714D01*
X135485142Y-86598095D01*
X135151809Y-86598095D01*
X135151809Y-86788571D01*
X135580380Y-85598095D02*
X135104190Y-85931428D01*
X135580380Y-86169523D02*
X134580380Y-86169523D01*
X134580380Y-85788571D01*
X134628000Y-85693333D01*
X134675619Y-85645714D01*
X134770857Y-85598095D01*
X134913714Y-85598095D01*
X135008952Y-85645714D01*
X135056571Y-85693333D01*
X135104190Y-85788571D01*
X135104190Y-86169523D01*
X135056571Y-85169523D02*
X135056571Y-84836190D01*
X135580380Y-84693333D02*
X135580380Y-85169523D01*
X134580380Y-85169523D01*
X134580380Y-84693333D01*
X135056571Y-84264761D02*
X135056571Y-83931428D01*
X135580380Y-83788571D02*
X135580380Y-84264761D01*
X134580380Y-84264761D01*
X134580380Y-83788571D01*
X135580380Y-83360000D02*
X134580380Y-83360000D01*
X135580380Y-82788571D01*
X134580380Y-82788571D01*
X134802571Y-71175238D02*
X134802571Y-70841904D01*
X135326380Y-70699047D02*
X135326380Y-71175238D01*
X134326380Y-71175238D01*
X134326380Y-70699047D01*
X134374000Y-69746666D02*
X134326380Y-69841904D01*
X134326380Y-69984761D01*
X134374000Y-70127619D01*
X134469238Y-70222857D01*
X134564476Y-70270476D01*
X134754952Y-70318095D01*
X134897809Y-70318095D01*
X135088285Y-70270476D01*
X135183523Y-70222857D01*
X135278761Y-70127619D01*
X135326380Y-69984761D01*
X135326380Y-69889523D01*
X135278761Y-69746666D01*
X135231142Y-69699047D01*
X134897809Y-69699047D01*
X134897809Y-69889523D01*
X135040666Y-69318095D02*
X135040666Y-68841904D01*
X135326380Y-69413333D02*
X134326380Y-69080000D01*
X135326380Y-68746666D01*
X135326380Y-67841904D02*
X134850190Y-68175238D01*
X135326380Y-68413333D02*
X134326380Y-68413333D01*
X134326380Y-68032380D01*
X134374000Y-67937142D01*
X134421619Y-67889523D01*
X134516857Y-67841904D01*
X134659714Y-67841904D01*
X134754952Y-67889523D01*
X134802571Y-67937142D01*
X134850190Y-68032380D01*
X134850190Y-68413333D01*
X134802571Y-67413333D02*
X134802571Y-67080000D01*
X135326380Y-66937142D02*
X135326380Y-67413333D01*
X134326380Y-67413333D01*
X134326380Y-66937142D01*
X135326380Y-66508571D02*
X134326380Y-66508571D01*
X134326380Y-66270476D01*
X134374000Y-66127619D01*
X134469238Y-66032380D01*
X134564476Y-65984761D01*
X134754952Y-65937142D01*
X134897809Y-65937142D01*
X135088285Y-65984761D01*
X135183523Y-66032380D01*
X135278761Y-66127619D01*
X135326380Y-66270476D01*
X135326380Y-66508571D01*
X141930380Y-70429142D02*
X140930380Y-70429142D01*
X141930380Y-69952952D02*
X140930380Y-69952952D01*
X141930380Y-69381523D01*
X140930380Y-69381523D01*
X140930380Y-69048190D02*
X140930380Y-68476761D01*
X141930380Y-68762476D02*
X140930380Y-68762476D01*
X141406571Y-68143428D02*
X141406571Y-67810095D01*
X141930380Y-67667238D02*
X141930380Y-68143428D01*
X140930380Y-68143428D01*
X140930380Y-67667238D01*
X141930380Y-67238666D02*
X140930380Y-67238666D01*
X141930380Y-66667238D01*
X140930380Y-66667238D01*
X141882761Y-66238666D02*
X141930380Y-66095809D01*
X141930380Y-65857714D01*
X141882761Y-65762476D01*
X141835142Y-65714857D01*
X141739904Y-65667238D01*
X141644666Y-65667238D01*
X141549428Y-65714857D01*
X141501809Y-65762476D01*
X141454190Y-65857714D01*
X141406571Y-66048190D01*
X141358952Y-66143428D01*
X141311333Y-66191047D01*
X141216095Y-66238666D01*
X141120857Y-66238666D01*
X141025619Y-66191047D01*
X140978000Y-66143428D01*
X140930380Y-66048190D01*
X140930380Y-65810095D01*
X140978000Y-65667238D01*
X164238095Y-65267619D02*
X164285714Y-65220000D01*
X164380952Y-65172380D01*
X164619047Y-65172380D01*
X164714285Y-65220000D01*
X164761904Y-65267619D01*
X164809523Y-65362857D01*
X164809523Y-65458095D01*
X164761904Y-65600952D01*
X164190476Y-66172380D01*
X164809523Y-66172380D01*
X165761904Y-66172380D02*
X165190476Y-66172380D01*
X165476190Y-66172380D02*
X165476190Y-65172380D01*
X165380952Y-65315238D01*
X165285714Y-65410476D01*
X165190476Y-65458095D01*
X165163523Y-89098380D02*
X165354000Y-89098380D01*
X165449238Y-89050761D01*
X165496857Y-89003142D01*
X165592095Y-88860285D01*
X165639714Y-88669809D01*
X165639714Y-88288857D01*
X165592095Y-88193619D01*
X165544476Y-88146000D01*
X165449238Y-88098380D01*
X165258761Y-88098380D01*
X165163523Y-88146000D01*
X165115904Y-88193619D01*
X165068285Y-88288857D01*
X165068285Y-88526952D01*
X165115904Y-88622190D01*
X165163523Y-88669809D01*
X165258761Y-88717428D01*
X165449238Y-88717428D01*
X165544476Y-88669809D01*
X165592095Y-88622190D01*
X165639714Y-88526952D01*
X154449523Y-75832380D02*
X153878095Y-75832380D01*
X154163809Y-75832380D02*
X154163809Y-74832380D01*
X154068571Y-74975238D01*
X153973333Y-75070476D01*
X153878095Y-75118095D01*
X155306666Y-74832380D02*
X155116190Y-74832380D01*
X155020952Y-74880000D01*
X154973333Y-74927619D01*
X154878095Y-75070476D01*
X154830476Y-75260952D01*
X154830476Y-75641904D01*
X154878095Y-75737142D01*
X154925714Y-75784761D01*
X155020952Y-75832380D01*
X155211428Y-75832380D01*
X155306666Y-75784761D01*
X155354285Y-75737142D01*
X155401904Y-75641904D01*
X155401904Y-75403809D01*
X155354285Y-75308571D01*
X155306666Y-75260952D01*
X155211428Y-75213333D01*
X155020952Y-75213333D01*
X154925714Y-75260952D01*
X154878095Y-75308571D01*
X154830476Y-75403809D01*
X141930380Y-79827142D02*
X140930380Y-79827142D01*
X141930380Y-79350952D02*
X140930380Y-79350952D01*
X141930380Y-78779523D01*
X140930380Y-78779523D01*
X140930380Y-78446190D02*
X140930380Y-77874761D01*
X141930380Y-78160476D02*
X140930380Y-78160476D01*
X141406571Y-77541428D02*
X141406571Y-77208095D01*
X141930380Y-77065238D02*
X141930380Y-77541428D01*
X140930380Y-77541428D01*
X140930380Y-77065238D01*
X141930380Y-76636666D02*
X140930380Y-76636666D01*
X141930380Y-76065238D01*
X140930380Y-76065238D01*
X141882761Y-75636666D02*
X141930380Y-75493809D01*
X141930380Y-75255714D01*
X141882761Y-75160476D01*
X141835142Y-75112857D01*
X141739904Y-75065238D01*
X141644666Y-75065238D01*
X141549428Y-75112857D01*
X141501809Y-75160476D01*
X141454190Y-75255714D01*
X141406571Y-75446190D01*
X141358952Y-75541428D01*
X141311333Y-75589047D01*
X141216095Y-75636666D01*
X141120857Y-75636666D01*
X141025619Y-75589047D01*
X140978000Y-75541428D01*
X140930380Y-75446190D01*
X140930380Y-75208095D01*
X140978000Y-75065238D01*
X164655523Y-77562380D02*
X164084095Y-77562380D01*
X164369809Y-77562380D02*
X164369809Y-76562380D01*
X164274571Y-76705238D01*
X164179333Y-76800476D01*
X164084095Y-76848095D01*
X165560285Y-76562380D02*
X165084095Y-76562380D01*
X165036476Y-77038571D01*
X165084095Y-76990952D01*
X165179333Y-76943333D01*
X165417428Y-76943333D01*
X165512666Y-76990952D01*
X165560285Y-77038571D01*
X165607904Y-77133809D01*
X165607904Y-77371904D01*
X165560285Y-77467142D01*
X165512666Y-77514761D01*
X165417428Y-77562380D01*
X165179333Y-77562380D01*
X165084095Y-77514761D01*
X165036476Y-77467142D01*
X155110476Y-98035714D02*
X155110476Y-98702380D01*
X154872380Y-97654761D02*
X154634285Y-98369047D01*
X155253333Y-98369047D01*
X164669523Y-85262380D02*
X164098095Y-85262380D01*
X164383809Y-85262380D02*
X164383809Y-84262380D01*
X164288571Y-84405238D01*
X164193333Y-84500476D01*
X164098095Y-84548095D01*
X165621904Y-85262380D02*
X165050476Y-85262380D01*
X165336190Y-85262380D02*
X165336190Y-84262380D01*
X165240952Y-84405238D01*
X165145714Y-84500476D01*
X165050476Y-84548095D01*
X163328095Y-95542380D02*
X162851904Y-95542380D01*
X162804285Y-96018571D01*
X162851904Y-95970952D01*
X162947142Y-95923333D01*
X163185238Y-95923333D01*
X163280476Y-95970952D01*
X163328095Y-96018571D01*
X163375714Y-96113809D01*
X163375714Y-96351904D01*
X163328095Y-96447142D01*
X163280476Y-96494761D01*
X163185238Y-96542380D01*
X162947142Y-96542380D01*
X162851904Y-96494761D01*
X162804285Y-96447142D01*
X154764285Y-101577619D02*
X154811904Y-101530000D01*
X154907142Y-101482380D01*
X155145238Y-101482380D01*
X155240476Y-101530000D01*
X155288095Y-101577619D01*
X155335714Y-101672857D01*
X155335714Y-101768095D01*
X155288095Y-101910952D01*
X154716666Y-102482380D01*
X155335714Y-102482380D01*
X162676666Y-91872380D02*
X163343333Y-91872380D01*
X162914761Y-92872380D01*
X151342380Y-53191428D02*
X152342380Y-52858095D01*
X151342380Y-52524761D01*
X151390000Y-51667619D02*
X151342380Y-51762857D01*
X151342380Y-51905714D01*
X151390000Y-52048571D01*
X151485238Y-52143809D01*
X151580476Y-52191428D01*
X151770952Y-52239047D01*
X151913809Y-52239047D01*
X152104285Y-52191428D01*
X152199523Y-52143809D01*
X152294761Y-52048571D01*
X152342380Y-51905714D01*
X152342380Y-51810476D01*
X152294761Y-51667619D01*
X152247142Y-51620000D01*
X151913809Y-51620000D01*
X151913809Y-51810476D01*
X152056666Y-51239047D02*
X152056666Y-50762857D01*
X152342380Y-51334285D02*
X151342380Y-51000952D01*
X152342380Y-50667619D01*
X151818571Y-49239047D02*
X151818571Y-49572380D01*
X152342380Y-49572380D02*
X151342380Y-49572380D01*
X151342380Y-49096190D01*
X153708095Y-67257619D02*
X153755714Y-67210000D01*
X153850952Y-67162380D01*
X154089047Y-67162380D01*
X154184285Y-67210000D01*
X154231904Y-67257619D01*
X154279523Y-67352857D01*
X154279523Y-67448095D01*
X154231904Y-67590952D01*
X153660476Y-68162380D01*
X154279523Y-68162380D01*
X154898571Y-67162380D02*
X154993809Y-67162380D01*
X155089047Y-67210000D01*
X155136666Y-67257619D01*
X155184285Y-67352857D01*
X155231904Y-67543333D01*
X155231904Y-67781428D01*
X155184285Y-67971904D01*
X155136666Y-68067142D01*
X155089047Y-68114761D01*
X154993809Y-68162380D01*
X154898571Y-68162380D01*
X154803333Y-68114761D01*
X154755714Y-68067142D01*
X154708095Y-67971904D01*
X154660476Y-67781428D01*
X154660476Y-67543333D01*
X154708095Y-67352857D01*
X154755714Y-67257619D01*
X154803333Y-67210000D01*
X154898571Y-67162380D01*
X159399357Y-113129142D02*
X159351738Y-113176761D01*
X159208880Y-113224380D01*
X159113642Y-113224380D01*
X158970785Y-113176761D01*
X158875547Y-113081523D01*
X158827928Y-112986285D01*
X158780309Y-112795809D01*
X158780309Y-112652952D01*
X158827928Y-112462476D01*
X158875547Y-112367238D01*
X158970785Y-112272000D01*
X159113642Y-112224380D01*
X159208880Y-112224380D01*
X159351738Y-112272000D01*
X159399357Y-112319619D01*
X160351738Y-112272000D02*
X160256500Y-112224380D01*
X160113642Y-112224380D01*
X159970785Y-112272000D01*
X159875547Y-112367238D01*
X159827928Y-112462476D01*
X159780309Y-112652952D01*
X159780309Y-112795809D01*
X159827928Y-112986285D01*
X159875547Y-113081523D01*
X159970785Y-113176761D01*
X160113642Y-113224380D01*
X160208880Y-113224380D01*
X160351738Y-113176761D01*
X160399357Y-113129142D01*
X160399357Y-112795809D01*
X160208880Y-112795809D01*
X160780309Y-112938666D02*
X161256500Y-112938666D01*
X160685071Y-113224380D02*
X161018404Y-112224380D01*
X161351738Y-113224380D01*
X162399357Y-112176761D02*
X161542214Y-113462476D01*
X162732690Y-112700571D02*
X163066023Y-112700571D01*
X163208880Y-113224380D02*
X162732690Y-113224380D01*
X162732690Y-112224380D01*
X163208880Y-112224380D01*
X164161261Y-112272000D02*
X164066023Y-112224380D01*
X163923166Y-112224380D01*
X163780309Y-112272000D01*
X163685071Y-112367238D01*
X163637452Y-112462476D01*
X163589833Y-112652952D01*
X163589833Y-112795809D01*
X163637452Y-112986285D01*
X163685071Y-113081523D01*
X163780309Y-113176761D01*
X163923166Y-113224380D01*
X164018404Y-113224380D01*
X164161261Y-113176761D01*
X164208880Y-113129142D01*
X164208880Y-112795809D01*
X164018404Y-112795809D01*
X164589833Y-112938666D02*
X165066023Y-112938666D01*
X164494595Y-113224380D02*
X164827928Y-112224380D01*
X165161261Y-113224380D01*
X154446976Y-113834380D02*
X155018404Y-113834380D01*
X154732690Y-114834380D02*
X154732690Y-113834380D01*
X155542214Y-113834380D02*
X155732690Y-113834380D01*
X155827928Y-113882000D01*
X155923166Y-113977238D01*
X155970785Y-114167714D01*
X155970785Y-114501047D01*
X155923166Y-114691523D01*
X155827928Y-114786761D01*
X155732690Y-114834380D01*
X155542214Y-114834380D01*
X155446976Y-114786761D01*
X155351738Y-114691523D01*
X155304119Y-114501047D01*
X155304119Y-114167714D01*
X155351738Y-113977238D01*
X155446976Y-113882000D01*
X155542214Y-113834380D01*
X157113642Y-114786761D02*
X157256500Y-114834380D01*
X157494595Y-114834380D01*
X157589833Y-114786761D01*
X157637452Y-114739142D01*
X157685071Y-114643904D01*
X157685071Y-114548666D01*
X157637452Y-114453428D01*
X157589833Y-114405809D01*
X157494595Y-114358190D01*
X157304119Y-114310571D01*
X157208880Y-114262952D01*
X157161261Y-114215333D01*
X157113642Y-114120095D01*
X157113642Y-114024857D01*
X157161261Y-113929619D01*
X157208880Y-113882000D01*
X157304119Y-113834380D01*
X157542214Y-113834380D01*
X157685071Y-113882000D01*
X158685071Y-114739142D02*
X158637452Y-114786761D01*
X158494595Y-114834380D01*
X158399357Y-114834380D01*
X158256500Y-114786761D01*
X158161261Y-114691523D01*
X158113642Y-114596285D01*
X158066023Y-114405809D01*
X158066023Y-114262952D01*
X158113642Y-114072476D01*
X158161261Y-113977238D01*
X158256500Y-113882000D01*
X158399357Y-113834380D01*
X158494595Y-113834380D01*
X158637452Y-113882000D01*
X158685071Y-113929619D01*
X159066023Y-114548666D02*
X159542214Y-114548666D01*
X158970785Y-114834380D02*
X159304119Y-113834380D01*
X159637452Y-114834380D01*
X160542214Y-114834380D02*
X160208880Y-114358190D01*
X159970785Y-114834380D02*
X159970785Y-113834380D01*
X160351738Y-113834380D01*
X160446976Y-113882000D01*
X160494595Y-113929619D01*
X160542214Y-114024857D01*
X160542214Y-114167714D01*
X160494595Y-114262952D01*
X160446976Y-114310571D01*
X160351738Y-114358190D01*
X159970785Y-114358190D01*
X160827928Y-113834380D02*
X161399357Y-113834380D01*
X161113642Y-114834380D02*
X161113642Y-113834380D01*
X162446976Y-113786761D02*
X161589833Y-115072476D01*
X162637452Y-113834380D02*
X162970785Y-114834380D01*
X163304119Y-113834380D01*
X164161261Y-113882000D02*
X164066023Y-113834380D01*
X163923166Y-113834380D01*
X163780309Y-113882000D01*
X163685071Y-113977238D01*
X163637452Y-114072476D01*
X163589833Y-114262952D01*
X163589833Y-114405809D01*
X163637452Y-114596285D01*
X163685071Y-114691523D01*
X163780309Y-114786761D01*
X163923166Y-114834380D01*
X164018404Y-114834380D01*
X164161261Y-114786761D01*
X164208880Y-114739142D01*
X164208880Y-114405809D01*
X164018404Y-114405809D01*
X164589833Y-114548666D02*
X165066023Y-114548666D01*
X164494595Y-114834380D02*
X164827928Y-113834380D01*
X165161261Y-114834380D01*
X156542214Y-116444380D02*
X156542214Y-115444380D01*
X156923166Y-115444380D01*
X157018404Y-115492000D01*
X157066023Y-115539619D01*
X157113642Y-115634857D01*
X157113642Y-115777714D01*
X157066023Y-115872952D01*
X157018404Y-115920571D01*
X156923166Y-115968190D01*
X156542214Y-115968190D01*
X158113642Y-116349142D02*
X158066023Y-116396761D01*
X157923166Y-116444380D01*
X157827928Y-116444380D01*
X157685071Y-116396761D01*
X157589833Y-116301523D01*
X157542214Y-116206285D01*
X157494595Y-116015809D01*
X157494595Y-115872952D01*
X157542214Y-115682476D01*
X157589833Y-115587238D01*
X157685071Y-115492000D01*
X157827928Y-115444380D01*
X157923166Y-115444380D01*
X158066023Y-115492000D01*
X158113642Y-115539619D01*
X158875547Y-115920571D02*
X159018404Y-115968190D01*
X159066023Y-116015809D01*
X159113642Y-116111047D01*
X159113642Y-116253904D01*
X159066023Y-116349142D01*
X159018404Y-116396761D01*
X158923166Y-116444380D01*
X158542214Y-116444380D01*
X158542214Y-115444380D01*
X158875547Y-115444380D01*
X158970785Y-115492000D01*
X159018404Y-115539619D01*
X159066023Y-115634857D01*
X159066023Y-115730095D01*
X159018404Y-115825333D01*
X158970785Y-115872952D01*
X158875547Y-115920571D01*
X158542214Y-115920571D01*
X160161261Y-115444380D02*
X160494595Y-116444380D01*
X160827928Y-115444380D01*
X161066023Y-115444380D02*
X161685071Y-115444380D01*
X161351738Y-115825333D01*
X161494595Y-115825333D01*
X161589833Y-115872952D01*
X161637452Y-115920571D01*
X161685071Y-116015809D01*
X161685071Y-116253904D01*
X161637452Y-116349142D01*
X161589833Y-116396761D01*
X161494595Y-116444380D01*
X161208880Y-116444380D01*
X161113642Y-116396761D01*
X161066023Y-116349142D01*
X163208880Y-115920571D02*
X163351738Y-115968190D01*
X163399357Y-116015809D01*
X163446976Y-116111047D01*
X163446976Y-116253904D01*
X163399357Y-116349142D01*
X163351738Y-116396761D01*
X163256500Y-116444380D01*
X162875547Y-116444380D01*
X162875547Y-115444380D01*
X163208880Y-115444380D01*
X163304119Y-115492000D01*
X163351738Y-115539619D01*
X163399357Y-115634857D01*
X163399357Y-115730095D01*
X163351738Y-115825333D01*
X163304119Y-115872952D01*
X163208880Y-115920571D01*
X162875547Y-115920571D01*
X164066023Y-115968190D02*
X164066023Y-116444380D01*
X163732690Y-115444380D02*
X164066023Y-115968190D01*
X164399357Y-115444380D01*
X154685071Y-118054380D02*
X154685071Y-117054380D01*
X154923166Y-117054380D01*
X155066023Y-117102000D01*
X155161261Y-117197238D01*
X155208880Y-117292476D01*
X155256500Y-117482952D01*
X155256500Y-117625809D01*
X155208880Y-117816285D01*
X155161261Y-117911523D01*
X155066023Y-118006761D01*
X154923166Y-118054380D01*
X154685071Y-118054380D01*
X155637452Y-117768666D02*
X156113642Y-117768666D01*
X155542214Y-118054380D02*
X155875547Y-117054380D01*
X156208880Y-118054380D01*
X156542214Y-118054380D02*
X156542214Y-117054380D01*
X157113642Y-118054380D01*
X157113642Y-117054380D01*
X157589833Y-118054380D02*
X157589833Y-117054380D01*
X158066023Y-117530571D02*
X158399357Y-117530571D01*
X158542214Y-118054380D02*
X158066023Y-118054380D01*
X158066023Y-117054380D01*
X158542214Y-117054380D01*
X159446976Y-118054380D02*
X158970785Y-118054380D01*
X158970785Y-117054380D01*
X160542214Y-118054380D02*
X160542214Y-117054380D01*
X160875547Y-117768666D01*
X161208880Y-117054380D01*
X161208880Y-118054380D01*
X161637452Y-117768666D02*
X162113642Y-117768666D01*
X161542214Y-118054380D02*
X161875547Y-117054380D01*
X162208880Y-118054380D01*
X163113642Y-118054380D02*
X162780309Y-117578190D01*
X162542214Y-118054380D02*
X162542214Y-117054380D01*
X162923166Y-117054380D01*
X163018404Y-117102000D01*
X163066023Y-117149619D01*
X163113642Y-117244857D01*
X163113642Y-117387714D01*
X163066023Y-117482952D01*
X163018404Y-117530571D01*
X162923166Y-117578190D01*
X162542214Y-117578190D01*
X163542214Y-118054380D02*
X163542214Y-117054380D01*
X164113642Y-118054380D02*
X163685071Y-117482952D01*
X164113642Y-117054380D02*
X163542214Y-117625809D01*
X164494595Y-118006761D02*
X164637452Y-118054380D01*
X164875547Y-118054380D01*
X164970785Y-118006761D01*
X165018404Y-117959142D01*
X165066023Y-117863904D01*
X165066023Y-117768666D01*
X165018404Y-117673428D01*
X164970785Y-117625809D01*
X164875547Y-117578190D01*
X164685071Y-117530571D01*
X164589833Y-117482952D01*
X164542214Y-117435333D01*
X164494595Y-117340095D01*
X164494595Y-117244857D01*
X164542214Y-117149619D01*
X164589833Y-117102000D01*
X164685071Y-117054380D01*
X164923166Y-117054380D01*
X165066023Y-117102000D01*
X154780309Y-119569142D02*
X154732690Y-119616761D01*
X154589833Y-119664380D01*
X154494595Y-119664380D01*
X154351738Y-119616761D01*
X154256500Y-119521523D01*
X154208880Y-119426285D01*
X154161261Y-119235809D01*
X154161261Y-119092952D01*
X154208880Y-118902476D01*
X154256500Y-118807238D01*
X154351738Y-118712000D01*
X154494595Y-118664380D01*
X154589833Y-118664380D01*
X154732690Y-118712000D01*
X154780309Y-118759619D01*
X155780309Y-119569142D02*
X155732690Y-119616761D01*
X155589833Y-119664380D01*
X155494595Y-119664380D01*
X155351738Y-119616761D01*
X155256500Y-119521523D01*
X155208880Y-119426285D01*
X155161261Y-119235809D01*
X155161261Y-119092952D01*
X155208880Y-118902476D01*
X155256500Y-118807238D01*
X155351738Y-118712000D01*
X155494595Y-118664380D01*
X155589833Y-118664380D01*
X155732690Y-118712000D01*
X155780309Y-118759619D01*
X156208880Y-119283428D02*
X156970785Y-119283428D01*
X157780309Y-119140571D02*
X157923166Y-119188190D01*
X157970785Y-119235809D01*
X158018404Y-119331047D01*
X158018404Y-119473904D01*
X157970785Y-119569142D01*
X157923166Y-119616761D01*
X157827928Y-119664380D01*
X157446976Y-119664380D01*
X157446976Y-118664380D01*
X157780309Y-118664380D01*
X157875547Y-118712000D01*
X157923166Y-118759619D01*
X157970785Y-118854857D01*
X157970785Y-118950095D01*
X157923166Y-119045333D01*
X157875547Y-119092952D01*
X157780309Y-119140571D01*
X157446976Y-119140571D01*
X158637452Y-119188190D02*
X158637452Y-119664380D01*
X158304119Y-118664380D02*
X158637452Y-119188190D01*
X158970785Y-118664380D01*
X159304119Y-119283428D02*
X160066023Y-119283428D01*
X160494595Y-119616761D02*
X160637452Y-119664380D01*
X160875547Y-119664380D01*
X160970785Y-119616761D01*
X161018404Y-119569142D01*
X161066023Y-119473904D01*
X161066023Y-119378666D01*
X161018404Y-119283428D01*
X160970785Y-119235809D01*
X160875547Y-119188190D01*
X160685071Y-119140571D01*
X160589833Y-119092952D01*
X160542214Y-119045333D01*
X160494595Y-118950095D01*
X160494595Y-118854857D01*
X160542214Y-118759619D01*
X160589833Y-118712000D01*
X160685071Y-118664380D01*
X160923166Y-118664380D01*
X161066023Y-118712000D01*
X161446976Y-119378666D02*
X161923166Y-119378666D01*
X161351738Y-119664380D02*
X161685071Y-118664380D01*
X162018404Y-119664380D01*
X163542214Y-118997714D02*
X163542214Y-119664380D01*
X163304119Y-118616761D02*
X163066023Y-119331047D01*
X163685071Y-119331047D01*
X164066023Y-119569142D02*
X164113642Y-119616761D01*
X164066023Y-119664380D01*
X164018404Y-119616761D01*
X164066023Y-119569142D01*
X164066023Y-119664380D01*
X164732690Y-118664380D02*
X164827928Y-118664380D01*
X164923166Y-118712000D01*
X164970785Y-118759619D01*
X165018404Y-118854857D01*
X165066023Y-119045333D01*
X165066023Y-119283428D01*
X165018404Y-119473904D01*
X164970785Y-119569142D01*
X164923166Y-119616761D01*
X164827928Y-119664380D01*
X164732690Y-119664380D01*
X164637452Y-119616761D01*
X164589833Y-119569142D01*
X164542214Y-119473904D01*
X164494595Y-119283428D01*
X164494595Y-119045333D01*
X164542214Y-118854857D01*
X164589833Y-118759619D01*
X164637452Y-118712000D01*
X164732690Y-118664380D01*
X150923166Y-121655333D02*
X150875547Y-121607714D01*
X150780309Y-121464857D01*
X150732690Y-121369619D01*
X150685071Y-121226761D01*
X150637452Y-120988666D01*
X150637452Y-120798190D01*
X150685071Y-120560095D01*
X150732690Y-120417238D01*
X150780309Y-120322000D01*
X150875547Y-120179142D01*
X150923166Y-120131523D01*
X151161261Y-120274380D02*
X151494595Y-121274380D01*
X151827928Y-120274380D01*
X152685071Y-120322000D02*
X152589833Y-120274380D01*
X152446976Y-120274380D01*
X152304119Y-120322000D01*
X152208880Y-120417238D01*
X152161261Y-120512476D01*
X152113642Y-120702952D01*
X152113642Y-120845809D01*
X152161261Y-121036285D01*
X152208880Y-121131523D01*
X152304119Y-121226761D01*
X152446976Y-121274380D01*
X152542214Y-121274380D01*
X152685071Y-121226761D01*
X152732690Y-121179142D01*
X152732690Y-120845809D01*
X152542214Y-120845809D01*
X153113642Y-120988666D02*
X153589833Y-120988666D01*
X153018404Y-121274380D02*
X153351738Y-120274380D01*
X153685071Y-121274380D01*
X154780309Y-121274380D02*
X154780309Y-120274380D01*
X155113642Y-120988666D01*
X155446976Y-120274380D01*
X155446976Y-121274380D01*
X155923166Y-120274380D02*
X155923166Y-121083904D01*
X155970785Y-121179142D01*
X156018404Y-121226761D01*
X156113642Y-121274380D01*
X156304119Y-121274380D01*
X156399357Y-121226761D01*
X156446976Y-121179142D01*
X156494595Y-121083904D01*
X156494595Y-120274380D01*
X156923166Y-121226761D02*
X157066023Y-121274380D01*
X157304119Y-121274380D01*
X157399357Y-121226761D01*
X157446976Y-121179142D01*
X157494595Y-121083904D01*
X157494595Y-120988666D01*
X157446976Y-120893428D01*
X157399357Y-120845809D01*
X157304119Y-120798190D01*
X157113642Y-120750571D01*
X157018404Y-120702952D01*
X156970785Y-120655333D01*
X156923166Y-120560095D01*
X156923166Y-120464857D01*
X156970785Y-120369619D01*
X157018404Y-120322000D01*
X157113642Y-120274380D01*
X157351738Y-120274380D01*
X157494595Y-120322000D01*
X157780309Y-120274380D02*
X158351738Y-120274380D01*
X158066023Y-121274380D02*
X158066023Y-120274380D01*
X158637452Y-121226761D02*
X158780309Y-121274380D01*
X159018404Y-121274380D01*
X159113642Y-121226761D01*
X159161261Y-121179142D01*
X159208880Y-121083904D01*
X159208880Y-120988666D01*
X159161261Y-120893428D01*
X159113642Y-120845809D01*
X159018404Y-120798190D01*
X158827928Y-120750571D01*
X158732690Y-120702952D01*
X158685071Y-120655333D01*
X158637452Y-120560095D01*
X158637452Y-120464857D01*
X158685071Y-120369619D01*
X158732690Y-120322000D01*
X158827928Y-120274380D01*
X159066023Y-120274380D01*
X159208880Y-120322000D01*
X159637452Y-120274380D02*
X159637452Y-121083904D01*
X159685071Y-121179142D01*
X159732690Y-121226761D01*
X159827928Y-121274380D01*
X160018404Y-121274380D01*
X160113642Y-121226761D01*
X160161261Y-121179142D01*
X160208880Y-121083904D01*
X160208880Y-120274380D01*
X160685071Y-121274380D02*
X160685071Y-120274380D01*
X161066023Y-120274380D01*
X161161261Y-120322000D01*
X161208880Y-120369619D01*
X161256500Y-120464857D01*
X161256500Y-120607714D01*
X161208880Y-120702952D01*
X161161261Y-120750571D01*
X161066023Y-120798190D01*
X160685071Y-120798190D01*
X161685071Y-121274380D02*
X161685071Y-120274380D01*
X162066023Y-120274380D01*
X162161261Y-120322000D01*
X162208880Y-120369619D01*
X162256500Y-120464857D01*
X162256500Y-120607714D01*
X162208880Y-120702952D01*
X162161261Y-120750571D01*
X162066023Y-120798190D01*
X161685071Y-120798190D01*
X162875547Y-120274380D02*
X163066023Y-120274380D01*
X163161261Y-120322000D01*
X163256500Y-120417238D01*
X163304119Y-120607714D01*
X163304119Y-120941047D01*
X163256500Y-121131523D01*
X163161261Y-121226761D01*
X163066023Y-121274380D01*
X162875547Y-121274380D01*
X162780309Y-121226761D01*
X162685071Y-121131523D01*
X162637452Y-120941047D01*
X162637452Y-120607714D01*
X162685071Y-120417238D01*
X162780309Y-120322000D01*
X162875547Y-120274380D01*
X164304119Y-121274380D02*
X163970785Y-120798190D01*
X163732690Y-121274380D02*
X163732690Y-120274380D01*
X164113642Y-120274380D01*
X164208880Y-120322000D01*
X164256500Y-120369619D01*
X164304119Y-120464857D01*
X164304119Y-120607714D01*
X164256500Y-120702952D01*
X164208880Y-120750571D01*
X164113642Y-120798190D01*
X163732690Y-120798190D01*
X164589833Y-120274380D02*
X165161261Y-120274380D01*
X164875547Y-121274380D02*
X164875547Y-120274380D01*
X151018404Y-122884380D02*
X150446976Y-122884380D01*
X150732690Y-122884380D02*
X150732690Y-121884380D01*
X150637452Y-122027238D01*
X150542214Y-122122476D01*
X150446976Y-122170095D01*
X151923166Y-121884380D02*
X151446976Y-121884380D01*
X151399357Y-122360571D01*
X151446976Y-122312952D01*
X151542214Y-122265333D01*
X151780309Y-122265333D01*
X151875547Y-122312952D01*
X151923166Y-122360571D01*
X151970785Y-122455809D01*
X151970785Y-122693904D01*
X151923166Y-122789142D01*
X151875547Y-122836761D01*
X151780309Y-122884380D01*
X151542214Y-122884380D01*
X151446976Y-122836761D01*
X151399357Y-122789142D01*
X153161261Y-122884380D02*
X153161261Y-121884380D01*
X153732690Y-122884380D02*
X153304119Y-122312952D01*
X153732690Y-121884380D02*
X153161261Y-122455809D01*
X154161261Y-122884380D02*
X154161261Y-121884380D01*
X154161261Y-122360571D02*
X154732690Y-122360571D01*
X154732690Y-122884380D02*
X154732690Y-121884380D01*
X155113642Y-121884380D02*
X155780309Y-121884380D01*
X155113642Y-122884380D01*
X155780309Y-122884380D01*
X156875547Y-121836761D02*
X156018404Y-123122476D01*
X157208880Y-122884380D02*
X157208880Y-121884380D01*
X157589833Y-121884380D01*
X157685071Y-121932000D01*
X157732690Y-121979619D01*
X157780309Y-122074857D01*
X157780309Y-122217714D01*
X157732690Y-122312952D01*
X157685071Y-122360571D01*
X157589833Y-122408190D01*
X157208880Y-122408190D01*
X158399357Y-121884380D02*
X158589833Y-121884380D01*
X158685071Y-121932000D01*
X158780309Y-122027238D01*
X158827928Y-122217714D01*
X158827928Y-122551047D01*
X158780309Y-122741523D01*
X158685071Y-122836761D01*
X158589833Y-122884380D01*
X158399357Y-122884380D01*
X158304119Y-122836761D01*
X158208880Y-122741523D01*
X158161261Y-122551047D01*
X158161261Y-122217714D01*
X158208880Y-122027238D01*
X158304119Y-121932000D01*
X158399357Y-121884380D01*
X159208880Y-122836761D02*
X159351738Y-122884380D01*
X159589833Y-122884380D01*
X159685071Y-122836761D01*
X159732690Y-122789142D01*
X159780309Y-122693904D01*
X159780309Y-122598666D01*
X159732690Y-122503428D01*
X159685071Y-122455809D01*
X159589833Y-122408190D01*
X159399357Y-122360571D01*
X159304119Y-122312952D01*
X159256500Y-122265333D01*
X159208880Y-122170095D01*
X159208880Y-122074857D01*
X159256500Y-121979619D01*
X159304119Y-121932000D01*
X159399357Y-121884380D01*
X159637452Y-121884380D01*
X159780309Y-121932000D01*
X160923166Y-122836761D02*
X161066023Y-122884380D01*
X161304119Y-122884380D01*
X161399357Y-122836761D01*
X161446976Y-122789142D01*
X161494595Y-122693904D01*
X161494595Y-122598666D01*
X161446976Y-122503428D01*
X161399357Y-122455809D01*
X161304119Y-122408190D01*
X161113642Y-122360571D01*
X161018404Y-122312952D01*
X160970785Y-122265333D01*
X160923166Y-122170095D01*
X160923166Y-122074857D01*
X160970785Y-121979619D01*
X161018404Y-121932000D01*
X161113642Y-121884380D01*
X161351738Y-121884380D01*
X161494595Y-121932000D01*
X162113642Y-122408190D02*
X162113642Y-122884380D01*
X161780309Y-121884380D02*
X162113642Y-122408190D01*
X162446976Y-121884380D01*
X162780309Y-122884380D02*
X162780309Y-121884380D01*
X163351738Y-122884380D01*
X163351738Y-121884380D01*
X164399357Y-122789142D02*
X164351738Y-122836761D01*
X164208880Y-122884380D01*
X164113642Y-122884380D01*
X163970785Y-122836761D01*
X163875547Y-122741523D01*
X163827928Y-122646285D01*
X163780309Y-122455809D01*
X163780309Y-122312952D01*
X163827928Y-122122476D01*
X163875547Y-122027238D01*
X163970785Y-121932000D01*
X164113642Y-121884380D01*
X164208880Y-121884380D01*
X164351738Y-121932000D01*
X164399357Y-121979619D01*
X164732690Y-123265333D02*
X164780309Y-123217714D01*
X164875547Y-123074857D01*
X164923166Y-122979619D01*
X164970785Y-122836761D01*
X165018404Y-122598666D01*
X165018404Y-122408190D01*
X164970785Y-122170095D01*
X164923166Y-122027238D01*
X164875547Y-121932000D01*
X164780309Y-121789142D01*
X164732690Y-121741523D01*
X155110476Y-93842380D02*
X154920000Y-93842380D01*
X154824761Y-93890000D01*
X154777142Y-93937619D01*
X154681904Y-94080476D01*
X154634285Y-94270952D01*
X154634285Y-94651904D01*
X154681904Y-94747142D01*
X154729523Y-94794761D01*
X154824761Y-94842380D01*
X155015238Y-94842380D01*
X155110476Y-94794761D01*
X155158095Y-94747142D01*
X155205714Y-94651904D01*
X155205714Y-94413809D01*
X155158095Y-94318571D01*
X155110476Y-94270952D01*
X155015238Y-94223333D01*
X154824761Y-94223333D01*
X154729523Y-94270952D01*
X154681904Y-94318571D01*
X154634285Y-94413809D01*
X111863142Y-82216190D02*
X111910761Y-82263809D01*
X111958380Y-82406666D01*
X111958380Y-82501904D01*
X111910761Y-82644761D01*
X111815523Y-82740000D01*
X111720285Y-82787619D01*
X111529809Y-82835238D01*
X111386952Y-82835238D01*
X111196476Y-82787619D01*
X111101238Y-82740000D01*
X111006000Y-82644761D01*
X110958380Y-82501904D01*
X110958380Y-82406666D01*
X111006000Y-82263809D01*
X111053619Y-82216190D01*
X111006000Y-81263809D02*
X110958380Y-81359047D01*
X110958380Y-81501904D01*
X111006000Y-81644761D01*
X111101238Y-81740000D01*
X111196476Y-81787619D01*
X111386952Y-81835238D01*
X111529809Y-81835238D01*
X111720285Y-81787619D01*
X111815523Y-81740000D01*
X111910761Y-81644761D01*
X111958380Y-81501904D01*
X111958380Y-81406666D01*
X111910761Y-81263809D01*
X111863142Y-81216190D01*
X111529809Y-81216190D01*
X111529809Y-81406666D01*
X111672666Y-80835238D02*
X111672666Y-80359047D01*
X111958380Y-80930476D02*
X110958380Y-80597142D01*
X111958380Y-80263809D01*
X110910761Y-79216190D02*
X112196476Y-80073333D01*
X111434571Y-78882857D02*
X111434571Y-78549523D01*
X111958380Y-78406666D02*
X111958380Y-78882857D01*
X110958380Y-78882857D01*
X110958380Y-78406666D01*
X111006000Y-77454285D02*
X110958380Y-77549523D01*
X110958380Y-77692380D01*
X111006000Y-77835238D01*
X111101238Y-77930476D01*
X111196476Y-77978095D01*
X111386952Y-78025714D01*
X111529809Y-78025714D01*
X111720285Y-77978095D01*
X111815523Y-77930476D01*
X111910761Y-77835238D01*
X111958380Y-77692380D01*
X111958380Y-77597142D01*
X111910761Y-77454285D01*
X111863142Y-77406666D01*
X111529809Y-77406666D01*
X111529809Y-77597142D01*
X111672666Y-77025714D02*
X111672666Y-76549523D01*
X111958380Y-77120952D02*
X110958380Y-76787619D01*
X111958380Y-76454285D01*
X111958380Y-75359047D02*
X110958380Y-75359047D01*
X111672666Y-75025714D01*
X110958380Y-74692380D01*
X111958380Y-74692380D01*
X135056571Y-80239809D02*
X135056571Y-79906476D01*
X135580380Y-79763619D02*
X135580380Y-80239809D01*
X134580380Y-80239809D01*
X134580380Y-79763619D01*
X134628000Y-78811238D02*
X134580380Y-78906476D01*
X134580380Y-79049333D01*
X134628000Y-79192190D01*
X134723238Y-79287428D01*
X134818476Y-79335047D01*
X135008952Y-79382666D01*
X135151809Y-79382666D01*
X135342285Y-79335047D01*
X135437523Y-79287428D01*
X135532761Y-79192190D01*
X135580380Y-79049333D01*
X135580380Y-78954095D01*
X135532761Y-78811238D01*
X135485142Y-78763619D01*
X135151809Y-78763619D01*
X135151809Y-78954095D01*
X135294666Y-78382666D02*
X135294666Y-77906476D01*
X135580380Y-78477904D02*
X134580380Y-78144571D01*
X135580380Y-77811238D01*
X135056571Y-77144571D02*
X135104190Y-77001714D01*
X135151809Y-76954095D01*
X135247047Y-76906476D01*
X135389904Y-76906476D01*
X135485142Y-76954095D01*
X135532761Y-77001714D01*
X135580380Y-77096952D01*
X135580380Y-77477904D01*
X134580380Y-77477904D01*
X134580380Y-77144571D01*
X134628000Y-77049333D01*
X134675619Y-77001714D01*
X134770857Y-76954095D01*
X134866095Y-76954095D01*
X134961333Y-77001714D01*
X135008952Y-77049333D01*
X135056571Y-77144571D01*
X135056571Y-77477904D01*
X135580380Y-76001714D02*
X135580380Y-76477904D01*
X134580380Y-76477904D01*
X134580380Y-75668380D02*
X135389904Y-75668380D01*
X135485142Y-75620761D01*
X135532761Y-75573142D01*
X135580380Y-75477904D01*
X135580380Y-75287428D01*
X135532761Y-75192190D01*
X135485142Y-75144571D01*
X135389904Y-75096952D01*
X134580380Y-75096952D01*
X135056571Y-74620761D02*
X135056571Y-74287428D01*
X135580380Y-74144571D02*
X135580380Y-74620761D01*
X134580380Y-74620761D01*
X134580380Y-74144571D01*
X148502666Y-121776476D02*
X148502666Y-121300285D01*
X148788380Y-121871714D02*
X147788380Y-121538380D01*
X148788380Y-121205047D01*
X147788380Y-120871714D02*
X148597904Y-120871714D01*
X148693142Y-120824095D01*
X148740761Y-120776476D01*
X148788380Y-120681238D01*
X148788380Y-120490761D01*
X148740761Y-120395523D01*
X148693142Y-120347904D01*
X148597904Y-120300285D01*
X147788380Y-120300285D01*
X148788380Y-119824095D02*
X147788380Y-119824095D01*
X147788380Y-119586000D01*
X147836000Y-119443142D01*
X147931238Y-119347904D01*
X148026476Y-119300285D01*
X148216952Y-119252666D01*
X148359809Y-119252666D01*
X148550285Y-119300285D01*
X148645523Y-119347904D01*
X148740761Y-119443142D01*
X148788380Y-119586000D01*
X148788380Y-119824095D01*
X148788380Y-118824095D02*
X147788380Y-118824095D01*
X147788380Y-118157428D02*
X147788380Y-117966952D01*
X147836000Y-117871714D01*
X147931238Y-117776476D01*
X148121714Y-117728857D01*
X148455047Y-117728857D01*
X148645523Y-117776476D01*
X148740761Y-117871714D01*
X148788380Y-117966952D01*
X148788380Y-118157428D01*
X148740761Y-118252666D01*
X148645523Y-118347904D01*
X148455047Y-118395523D01*
X148121714Y-118395523D01*
X147931238Y-118347904D01*
X147836000Y-118252666D01*
X147788380Y-118157428D01*
X148740761Y-116586000D02*
X148788380Y-116443142D01*
X148788380Y-116205047D01*
X148740761Y-116109809D01*
X148693142Y-116062190D01*
X148597904Y-116014571D01*
X148502666Y-116014571D01*
X148407428Y-116062190D01*
X148359809Y-116109809D01*
X148312190Y-116205047D01*
X148264571Y-116395523D01*
X148216952Y-116490761D01*
X148169333Y-116538380D01*
X148074095Y-116586000D01*
X147978857Y-116586000D01*
X147883619Y-116538380D01*
X147836000Y-116490761D01*
X147788380Y-116395523D01*
X147788380Y-116157428D01*
X147836000Y-116014571D01*
X147788380Y-115728857D02*
X147788380Y-115157428D01*
X148788380Y-115443142D02*
X147788380Y-115443142D01*
X148264571Y-114824095D02*
X148264571Y-114490761D01*
X148788380Y-114347904D02*
X148788380Y-114824095D01*
X147788380Y-114824095D01*
X147788380Y-114347904D01*
X148788380Y-113347904D02*
X148312190Y-113681238D01*
X148788380Y-113919333D02*
X147788380Y-113919333D01*
X147788380Y-113538380D01*
X147836000Y-113443142D01*
X147883619Y-113395523D01*
X147978857Y-113347904D01*
X148121714Y-113347904D01*
X148216952Y-113395523D01*
X148264571Y-113443142D01*
X148312190Y-113538380D01*
X148312190Y-113919333D01*
X148264571Y-112919333D02*
X148264571Y-112586000D01*
X148788380Y-112443142D02*
X148788380Y-112919333D01*
X147788380Y-112919333D01*
X147788380Y-112443142D01*
X147788380Y-111824095D02*
X147788380Y-111633619D01*
X147836000Y-111538380D01*
X147931238Y-111443142D01*
X148121714Y-111395523D01*
X148455047Y-111395523D01*
X148645523Y-111443142D01*
X148740761Y-111538380D01*
X148788380Y-111633619D01*
X148788380Y-111824095D01*
X148740761Y-111919333D01*
X148645523Y-112014571D01*
X148455047Y-112062190D01*
X148121714Y-112062190D01*
X147931238Y-112014571D01*
X147836000Y-111919333D01*
X147788380Y-111824095D01*
X141930380Y-88463142D02*
X140930380Y-88463142D01*
X141930380Y-87986952D02*
X140930380Y-87986952D01*
X141930380Y-87415523D01*
X140930380Y-87415523D01*
X140930380Y-87082190D02*
X140930380Y-86510761D01*
X141930380Y-86796476D02*
X140930380Y-86796476D01*
X141406571Y-86177428D02*
X141406571Y-85844095D01*
X141930380Y-85701238D02*
X141930380Y-86177428D01*
X140930380Y-86177428D01*
X140930380Y-85701238D01*
X141930380Y-85272666D02*
X140930380Y-85272666D01*
X141930380Y-84701238D01*
X140930380Y-84701238D01*
X141882761Y-84272666D02*
X141930380Y-84129809D01*
X141930380Y-83891714D01*
X141882761Y-83796476D01*
X141835142Y-83748857D01*
X141739904Y-83701238D01*
X141644666Y-83701238D01*
X141549428Y-83748857D01*
X141501809Y-83796476D01*
X141454190Y-83891714D01*
X141406571Y-84082190D01*
X141358952Y-84177428D01*
X141311333Y-84225047D01*
X141216095Y-84272666D01*
X141120857Y-84272666D01*
X141025619Y-84225047D01*
X140978000Y-84177428D01*
X140930380Y-84082190D01*
X140930380Y-83844095D01*
X140978000Y-83701238D01*
X164655523Y-81478380D02*
X164084095Y-81478380D01*
X164369809Y-81478380D02*
X164369809Y-80478380D01*
X164274571Y-80621238D01*
X164179333Y-80716476D01*
X164084095Y-80764095D01*
X164988857Y-80478380D02*
X165607904Y-80478380D01*
X165274571Y-80859333D01*
X165417428Y-80859333D01*
X165512666Y-80906952D01*
X165560285Y-80954571D01*
X165607904Y-81049809D01*
X165607904Y-81287904D01*
X165560285Y-81383142D01*
X165512666Y-81430761D01*
X165417428Y-81478380D01*
X165131714Y-81478380D01*
X165036476Y-81430761D01*
X164988857Y-81383142D01*
%TO.C,R22*%
X133294380Y-117482857D02*
X132818190Y-117816190D01*
X133294380Y-118054285D02*
X132294380Y-118054285D01*
X132294380Y-117673333D01*
X132342000Y-117578095D01*
X132389619Y-117530476D01*
X132484857Y-117482857D01*
X132627714Y-117482857D01*
X132722952Y-117530476D01*
X132770571Y-117578095D01*
X132818190Y-117673333D01*
X132818190Y-118054285D01*
X132389619Y-117101904D02*
X132342000Y-117054285D01*
X132294380Y-116959047D01*
X132294380Y-116720952D01*
X132342000Y-116625714D01*
X132389619Y-116578095D01*
X132484857Y-116530476D01*
X132580095Y-116530476D01*
X132722952Y-116578095D01*
X133294380Y-117149523D01*
X133294380Y-116530476D01*
X132389619Y-116149523D02*
X132342000Y-116101904D01*
X132294380Y-116006666D01*
X132294380Y-115768571D01*
X132342000Y-115673333D01*
X132389619Y-115625714D01*
X132484857Y-115578095D01*
X132580095Y-115578095D01*
X132722952Y-115625714D01*
X133294380Y-116197142D01*
X133294380Y-115578095D01*
%TO.C,R20*%
X139565142Y-107894380D02*
X139231809Y-107418190D01*
X138993714Y-107894380D02*
X138993714Y-106894380D01*
X139374666Y-106894380D01*
X139469904Y-106942000D01*
X139517523Y-106989619D01*
X139565142Y-107084857D01*
X139565142Y-107227714D01*
X139517523Y-107322952D01*
X139469904Y-107370571D01*
X139374666Y-107418190D01*
X138993714Y-107418190D01*
X139946095Y-106989619D02*
X139993714Y-106942000D01*
X140088952Y-106894380D01*
X140327047Y-106894380D01*
X140422285Y-106942000D01*
X140469904Y-106989619D01*
X140517523Y-107084857D01*
X140517523Y-107180095D01*
X140469904Y-107322952D01*
X139898476Y-107894380D01*
X140517523Y-107894380D01*
X141136571Y-106894380D02*
X141231809Y-106894380D01*
X141327047Y-106942000D01*
X141374666Y-106989619D01*
X141422285Y-107084857D01*
X141469904Y-107275333D01*
X141469904Y-107513428D01*
X141422285Y-107703904D01*
X141374666Y-107799142D01*
X141327047Y-107846761D01*
X141231809Y-107894380D01*
X141136571Y-107894380D01*
X141041333Y-107846761D01*
X140993714Y-107799142D01*
X140946095Y-107703904D01*
X140898476Y-107513428D01*
X140898476Y-107275333D01*
X140946095Y-107084857D01*
X140993714Y-106989619D01*
X141041333Y-106942000D01*
X141136571Y-106894380D01*
%TO.C,JP1*%
X114050380Y-110307333D02*
X114764666Y-110307333D01*
X114907523Y-110354952D01*
X115002761Y-110450190D01*
X115050380Y-110593047D01*
X115050380Y-110688285D01*
X115050380Y-109831142D02*
X114050380Y-109831142D01*
X114050380Y-109450190D01*
X114098000Y-109354952D01*
X114145619Y-109307333D01*
X114240857Y-109259714D01*
X114383714Y-109259714D01*
X114478952Y-109307333D01*
X114526571Y-109354952D01*
X114574190Y-109450190D01*
X114574190Y-109831142D01*
X115050380Y-108307333D02*
X115050380Y-108878761D01*
X115050380Y-108593047D02*
X114050380Y-108593047D01*
X114193238Y-108688285D01*
X114288476Y-108783523D01*
X114336095Y-108878761D01*
%TO.C,JP8*%
X129544380Y-115133333D02*
X130258666Y-115133333D01*
X130401523Y-115180952D01*
X130496761Y-115276190D01*
X130544380Y-115419047D01*
X130544380Y-115514285D01*
X130544380Y-114657142D02*
X129544380Y-114657142D01*
X129544380Y-114276190D01*
X129592000Y-114180952D01*
X129639619Y-114133333D01*
X129734857Y-114085714D01*
X129877714Y-114085714D01*
X129972952Y-114133333D01*
X130020571Y-114180952D01*
X130068190Y-114276190D01*
X130068190Y-114657142D01*
X129972952Y-113514285D02*
X129925333Y-113609523D01*
X129877714Y-113657142D01*
X129782476Y-113704761D01*
X129734857Y-113704761D01*
X129639619Y-113657142D01*
X129592000Y-113609523D01*
X129544380Y-113514285D01*
X129544380Y-113323809D01*
X129592000Y-113228571D01*
X129639619Y-113180952D01*
X129734857Y-113133333D01*
X129782476Y-113133333D01*
X129877714Y-113180952D01*
X129925333Y-113228571D01*
X129972952Y-113323809D01*
X129972952Y-113514285D01*
X130020571Y-113609523D01*
X130068190Y-113657142D01*
X130163428Y-113704761D01*
X130353904Y-113704761D01*
X130449142Y-113657142D01*
X130496761Y-113609523D01*
X130544380Y-113514285D01*
X130544380Y-113323809D01*
X130496761Y-113228571D01*
X130449142Y-113180952D01*
X130353904Y-113133333D01*
X130163428Y-113133333D01*
X130068190Y-113180952D01*
X130020571Y-113228571D01*
X129972952Y-113323809D01*
%TO.C,C5*%
X113387142Y-101806666D02*
X113434761Y-101854285D01*
X113482380Y-101997142D01*
X113482380Y-102092380D01*
X113434761Y-102235238D01*
X113339523Y-102330476D01*
X113244285Y-102378095D01*
X113053809Y-102425714D01*
X112910952Y-102425714D01*
X112720476Y-102378095D01*
X112625238Y-102330476D01*
X112530000Y-102235238D01*
X112482380Y-102092380D01*
X112482380Y-101997142D01*
X112530000Y-101854285D01*
X112577619Y-101806666D01*
X112482380Y-100901904D02*
X112482380Y-101378095D01*
X112958571Y-101425714D01*
X112910952Y-101378095D01*
X112863333Y-101282857D01*
X112863333Y-101044761D01*
X112910952Y-100949523D01*
X112958571Y-100901904D01*
X113053809Y-100854285D01*
X113291904Y-100854285D01*
X113387142Y-100901904D01*
X113434761Y-100949523D01*
X113482380Y-101044761D01*
X113482380Y-101282857D01*
X113434761Y-101378095D01*
X113387142Y-101425714D01*
%TO.C,C4*%
X113133142Y-114466666D02*
X113180761Y-114514285D01*
X113228380Y-114657142D01*
X113228380Y-114752380D01*
X113180761Y-114895238D01*
X113085523Y-114990476D01*
X112990285Y-115038095D01*
X112799809Y-115085714D01*
X112656952Y-115085714D01*
X112466476Y-115038095D01*
X112371238Y-114990476D01*
X112276000Y-114895238D01*
X112228380Y-114752380D01*
X112228380Y-114657142D01*
X112276000Y-114514285D01*
X112323619Y-114466666D01*
X112561714Y-113609523D02*
X113228380Y-113609523D01*
X112180761Y-113847619D02*
X112895047Y-114085714D01*
X112895047Y-113466666D01*
%TO.C,C3*%
X143359142Y-93384666D02*
X143406761Y-93432285D01*
X143454380Y-93575142D01*
X143454380Y-93670380D01*
X143406761Y-93813238D01*
X143311523Y-93908476D01*
X143216285Y-93956095D01*
X143025809Y-94003714D01*
X142882952Y-94003714D01*
X142692476Y-93956095D01*
X142597238Y-93908476D01*
X142502000Y-93813238D01*
X142454380Y-93670380D01*
X142454380Y-93575142D01*
X142502000Y-93432285D01*
X142549619Y-93384666D01*
X142454380Y-93051333D02*
X142454380Y-92432285D01*
X142835333Y-92765619D01*
X142835333Y-92622761D01*
X142882952Y-92527523D01*
X142930571Y-92479904D01*
X143025809Y-92432285D01*
X143263904Y-92432285D01*
X143359142Y-92479904D01*
X143406761Y-92527523D01*
X143454380Y-92622761D01*
X143454380Y-92908476D01*
X143406761Y-93003714D01*
X143359142Y-93051333D01*
%TO.C,C2*%
X113355333Y-123801142D02*
X113307714Y-123848761D01*
X113164857Y-123896380D01*
X113069619Y-123896380D01*
X112926761Y-123848761D01*
X112831523Y-123753523D01*
X112783904Y-123658285D01*
X112736285Y-123467809D01*
X112736285Y-123324952D01*
X112783904Y-123134476D01*
X112831523Y-123039238D01*
X112926761Y-122944000D01*
X113069619Y-122896380D01*
X113164857Y-122896380D01*
X113307714Y-122944000D01*
X113355333Y-122991619D01*
X113736285Y-122991619D02*
X113783904Y-122944000D01*
X113879142Y-122896380D01*
X114117238Y-122896380D01*
X114212476Y-122944000D01*
X114260095Y-122991619D01*
X114307714Y-123086857D01*
X114307714Y-123182095D01*
X114260095Y-123324952D01*
X113688666Y-123896380D01*
X114307714Y-123896380D01*
%TO.C,C1*%
X143105142Y-99226666D02*
X143152761Y-99274285D01*
X143200380Y-99417142D01*
X143200380Y-99512380D01*
X143152761Y-99655238D01*
X143057523Y-99750476D01*
X142962285Y-99798095D01*
X142771809Y-99845714D01*
X142628952Y-99845714D01*
X142438476Y-99798095D01*
X142343238Y-99750476D01*
X142248000Y-99655238D01*
X142200380Y-99512380D01*
X142200380Y-99417142D01*
X142248000Y-99274285D01*
X142295619Y-99226666D01*
X143200380Y-98274285D02*
X143200380Y-98845714D01*
X143200380Y-98560000D02*
X142200380Y-98560000D01*
X142343238Y-98655238D01*
X142438476Y-98750476D01*
X142486095Y-98845714D01*
%TO.C,U2*%
X121920095Y-123427380D02*
X121920095Y-124236904D01*
X121967714Y-124332142D01*
X122015333Y-124379761D01*
X122110571Y-124427380D01*
X122301047Y-124427380D01*
X122396285Y-124379761D01*
X122443904Y-124332142D01*
X122491523Y-124236904D01*
X122491523Y-123427380D01*
X122920095Y-123522619D02*
X122967714Y-123475000D01*
X123062952Y-123427380D01*
X123301047Y-123427380D01*
X123396285Y-123475000D01*
X123443904Y-123522619D01*
X123491523Y-123617857D01*
X123491523Y-123713095D01*
X123443904Y-123855952D01*
X122872476Y-124427380D01*
X123491523Y-124427380D01*
%TO.C,U1*%
X114719380Y-106669904D02*
X115528904Y-106669904D01*
X115624142Y-106622285D01*
X115671761Y-106574666D01*
X115719380Y-106479428D01*
X115719380Y-106288952D01*
X115671761Y-106193714D01*
X115624142Y-106146095D01*
X115528904Y-106098476D01*
X114719380Y-106098476D01*
X115719380Y-105098476D02*
X115719380Y-105669904D01*
X115719380Y-105384190D02*
X114719380Y-105384190D01*
X114862238Y-105479428D01*
X114957476Y-105574666D01*
X115005095Y-105669904D01*
%TO.C,R14*%
X127881142Y-93416380D02*
X127547809Y-92940190D01*
X127309714Y-93416380D02*
X127309714Y-92416380D01*
X127690666Y-92416380D01*
X127785904Y-92464000D01*
X127833523Y-92511619D01*
X127881142Y-92606857D01*
X127881142Y-92749714D01*
X127833523Y-92844952D01*
X127785904Y-92892571D01*
X127690666Y-92940190D01*
X127309714Y-92940190D01*
X128833523Y-93416380D02*
X128262095Y-93416380D01*
X128547809Y-93416380D02*
X128547809Y-92416380D01*
X128452571Y-92559238D01*
X128357333Y-92654476D01*
X128262095Y-92702095D01*
X129690666Y-92749714D02*
X129690666Y-93416380D01*
X129452571Y-92368761D02*
X129214476Y-93083047D01*
X129833523Y-93083047D01*
%TO.C,R10*%
X127881142Y-97226380D02*
X127547809Y-96750190D01*
X127309714Y-97226380D02*
X127309714Y-96226380D01*
X127690666Y-96226380D01*
X127785904Y-96274000D01*
X127833523Y-96321619D01*
X127881142Y-96416857D01*
X127881142Y-96559714D01*
X127833523Y-96654952D01*
X127785904Y-96702571D01*
X127690666Y-96750190D01*
X127309714Y-96750190D01*
X128833523Y-97226380D02*
X128262095Y-97226380D01*
X128547809Y-97226380D02*
X128547809Y-96226380D01*
X128452571Y-96369238D01*
X128357333Y-96464476D01*
X128262095Y-96512095D01*
X129452571Y-96226380D02*
X129547809Y-96226380D01*
X129643047Y-96274000D01*
X129690666Y-96321619D01*
X129738285Y-96416857D01*
X129785904Y-96607333D01*
X129785904Y-96845428D01*
X129738285Y-97035904D01*
X129690666Y-97131142D01*
X129643047Y-97178761D01*
X129547809Y-97226380D01*
X129452571Y-97226380D01*
X129357333Y-97178761D01*
X129309714Y-97131142D01*
X129262095Y-97035904D01*
X129214476Y-96845428D01*
X129214476Y-96607333D01*
X129262095Y-96416857D01*
X129309714Y-96321619D01*
X129357333Y-96274000D01*
X129452571Y-96226380D01*
%TO.C,R18*%
X111371142Y-53002380D02*
X111037809Y-52526190D01*
X110799714Y-53002380D02*
X110799714Y-52002380D01*
X111180666Y-52002380D01*
X111275904Y-52050000D01*
X111323523Y-52097619D01*
X111371142Y-52192857D01*
X111371142Y-52335714D01*
X111323523Y-52430952D01*
X111275904Y-52478571D01*
X111180666Y-52526190D01*
X110799714Y-52526190D01*
X112323523Y-53002380D02*
X111752095Y-53002380D01*
X112037809Y-53002380D02*
X112037809Y-52002380D01*
X111942571Y-52145238D01*
X111847333Y-52240476D01*
X111752095Y-52288095D01*
X112894952Y-52430952D02*
X112799714Y-52383333D01*
X112752095Y-52335714D01*
X112704476Y-52240476D01*
X112704476Y-52192857D01*
X112752095Y-52097619D01*
X112799714Y-52050000D01*
X112894952Y-52002380D01*
X113085428Y-52002380D01*
X113180666Y-52050000D01*
X113228285Y-52097619D01*
X113275904Y-52192857D01*
X113275904Y-52240476D01*
X113228285Y-52335714D01*
X113180666Y-52383333D01*
X113085428Y-52430952D01*
X112894952Y-52430952D01*
X112799714Y-52478571D01*
X112752095Y-52526190D01*
X112704476Y-52621428D01*
X112704476Y-52811904D01*
X112752095Y-52907142D01*
X112799714Y-52954761D01*
X112894952Y-53002380D01*
X113085428Y-53002380D01*
X113180666Y-52954761D01*
X113228285Y-52907142D01*
X113275904Y-52811904D01*
X113275904Y-52621428D01*
X113228285Y-52526190D01*
X113180666Y-52478571D01*
X113085428Y-52430952D01*
%TO.C,R17*%
X128468380Y-74810857D02*
X127992190Y-75144190D01*
X128468380Y-75382285D02*
X127468380Y-75382285D01*
X127468380Y-75001333D01*
X127516000Y-74906095D01*
X127563619Y-74858476D01*
X127658857Y-74810857D01*
X127801714Y-74810857D01*
X127896952Y-74858476D01*
X127944571Y-74906095D01*
X127992190Y-75001333D01*
X127992190Y-75382285D01*
X128468380Y-73858476D02*
X128468380Y-74429904D01*
X128468380Y-74144190D02*
X127468380Y-74144190D01*
X127611238Y-74239428D01*
X127706476Y-74334666D01*
X127754095Y-74429904D01*
X127468380Y-73525142D02*
X127468380Y-72858476D01*
X128468380Y-73287047D01*
%TO.C,R7*%
X125674380Y-85510666D02*
X125198190Y-85844000D01*
X125674380Y-86082095D02*
X124674380Y-86082095D01*
X124674380Y-85701142D01*
X124722000Y-85605904D01*
X124769619Y-85558285D01*
X124864857Y-85510666D01*
X125007714Y-85510666D01*
X125102952Y-85558285D01*
X125150571Y-85605904D01*
X125198190Y-85701142D01*
X125198190Y-86082095D01*
X124674380Y-85177333D02*
X124674380Y-84510666D01*
X125674380Y-84939238D01*
%TO.C,D2*%
X106703904Y-62682380D02*
X106703904Y-61682380D01*
X106942000Y-61682380D01*
X107084857Y-61730000D01*
X107180095Y-61825238D01*
X107227714Y-61920476D01*
X107275333Y-62110952D01*
X107275333Y-62253809D01*
X107227714Y-62444285D01*
X107180095Y-62539523D01*
X107084857Y-62634761D01*
X106942000Y-62682380D01*
X106703904Y-62682380D01*
X107656285Y-61777619D02*
X107703904Y-61730000D01*
X107799142Y-61682380D01*
X108037238Y-61682380D01*
X108132476Y-61730000D01*
X108180095Y-61777619D01*
X108227714Y-61872857D01*
X108227714Y-61968095D01*
X108180095Y-62110952D01*
X107608666Y-62682380D01*
X108227714Y-62682380D01*
%TO.C,R16*%
X144230380Y-74048857D02*
X143754190Y-74382190D01*
X144230380Y-74620285D02*
X143230380Y-74620285D01*
X143230380Y-74239333D01*
X143278000Y-74144095D01*
X143325619Y-74096476D01*
X143420857Y-74048857D01*
X143563714Y-74048857D01*
X143658952Y-74096476D01*
X143706571Y-74144095D01*
X143754190Y-74239333D01*
X143754190Y-74620285D01*
X144230380Y-73096476D02*
X144230380Y-73667904D01*
X144230380Y-73382190D02*
X143230380Y-73382190D01*
X143373238Y-73477428D01*
X143468476Y-73572666D01*
X143516095Y-73667904D01*
X143230380Y-72239333D02*
X143230380Y-72429809D01*
X143278000Y-72525047D01*
X143325619Y-72572666D01*
X143468476Y-72667904D01*
X143658952Y-72715523D01*
X144039904Y-72715523D01*
X144135142Y-72667904D01*
X144182761Y-72620285D01*
X144230380Y-72525047D01*
X144230380Y-72334571D01*
X144182761Y-72239333D01*
X144135142Y-72191714D01*
X144039904Y-72144095D01*
X143801809Y-72144095D01*
X143706571Y-72191714D01*
X143658952Y-72239333D01*
X143611333Y-72334571D01*
X143611333Y-72525047D01*
X143658952Y-72620285D01*
X143706571Y-72667904D01*
X143801809Y-72715523D01*
%TO.C,JP2*%
X137850666Y-73322380D02*
X137850666Y-74036666D01*
X137803047Y-74179523D01*
X137707809Y-74274761D01*
X137564952Y-74322380D01*
X137469714Y-74322380D01*
X138326857Y-74322380D02*
X138326857Y-73322380D01*
X138707809Y-73322380D01*
X138803047Y-73370000D01*
X138850666Y-73417619D01*
X138898285Y-73512857D01*
X138898285Y-73655714D01*
X138850666Y-73750952D01*
X138803047Y-73798571D01*
X138707809Y-73846190D01*
X138326857Y-73846190D01*
X139279238Y-73417619D02*
X139326857Y-73370000D01*
X139422095Y-73322380D01*
X139660190Y-73322380D01*
X139755428Y-73370000D01*
X139803047Y-73417619D01*
X139850666Y-73512857D01*
X139850666Y-73608095D01*
X139803047Y-73750952D01*
X139231619Y-74322380D01*
X139850666Y-74322380D01*
%TO.C,R21*%
X139565142Y-104592380D02*
X139231809Y-104116190D01*
X138993714Y-104592380D02*
X138993714Y-103592380D01*
X139374666Y-103592380D01*
X139469904Y-103640000D01*
X139517523Y-103687619D01*
X139565142Y-103782857D01*
X139565142Y-103925714D01*
X139517523Y-104020952D01*
X139469904Y-104068571D01*
X139374666Y-104116190D01*
X138993714Y-104116190D01*
X139946095Y-103687619D02*
X139993714Y-103640000D01*
X140088952Y-103592380D01*
X140327047Y-103592380D01*
X140422285Y-103640000D01*
X140469904Y-103687619D01*
X140517523Y-103782857D01*
X140517523Y-103878095D01*
X140469904Y-104020952D01*
X139898476Y-104592380D01*
X140517523Y-104592380D01*
X141469904Y-104592380D02*
X140898476Y-104592380D01*
X141184190Y-104592380D02*
X141184190Y-103592380D01*
X141088952Y-103735238D01*
X140993714Y-103830476D01*
X140898476Y-103878095D01*
%TO.C,R8*%
X117943333Y-77922380D02*
X117610000Y-77446190D01*
X117371904Y-77922380D02*
X117371904Y-76922380D01*
X117752857Y-76922380D01*
X117848095Y-76970000D01*
X117895714Y-77017619D01*
X117943333Y-77112857D01*
X117943333Y-77255714D01*
X117895714Y-77350952D01*
X117848095Y-77398571D01*
X117752857Y-77446190D01*
X117371904Y-77446190D01*
X118514761Y-77350952D02*
X118419523Y-77303333D01*
X118371904Y-77255714D01*
X118324285Y-77160476D01*
X118324285Y-77112857D01*
X118371904Y-77017619D01*
X118419523Y-76970000D01*
X118514761Y-76922380D01*
X118705238Y-76922380D01*
X118800476Y-76970000D01*
X118848095Y-77017619D01*
X118895714Y-77112857D01*
X118895714Y-77160476D01*
X118848095Y-77255714D01*
X118800476Y-77303333D01*
X118705238Y-77350952D01*
X118514761Y-77350952D01*
X118419523Y-77398571D01*
X118371904Y-77446190D01*
X118324285Y-77541428D01*
X118324285Y-77731904D01*
X118371904Y-77827142D01*
X118419523Y-77874761D01*
X118514761Y-77922380D01*
X118705238Y-77922380D01*
X118800476Y-77874761D01*
X118848095Y-77827142D01*
X118895714Y-77731904D01*
X118895714Y-77541428D01*
X118848095Y-77446190D01*
X118800476Y-77398571D01*
X118705238Y-77350952D01*
%TO.C,R13*%
X117467142Y-70302380D02*
X117133809Y-69826190D01*
X116895714Y-70302380D02*
X116895714Y-69302380D01*
X117276666Y-69302380D01*
X117371904Y-69350000D01*
X117419523Y-69397619D01*
X117467142Y-69492857D01*
X117467142Y-69635714D01*
X117419523Y-69730952D01*
X117371904Y-69778571D01*
X117276666Y-69826190D01*
X116895714Y-69826190D01*
X118419523Y-70302380D02*
X117848095Y-70302380D01*
X118133809Y-70302380D02*
X118133809Y-69302380D01*
X118038571Y-69445238D01*
X117943333Y-69540476D01*
X117848095Y-69588095D01*
X118752857Y-69302380D02*
X119371904Y-69302380D01*
X119038571Y-69683333D01*
X119181428Y-69683333D01*
X119276666Y-69730952D01*
X119324285Y-69778571D01*
X119371904Y-69873809D01*
X119371904Y-70111904D01*
X119324285Y-70207142D01*
X119276666Y-70254761D01*
X119181428Y-70302380D01*
X118895714Y-70302380D01*
X118800476Y-70254761D01*
X118752857Y-70207142D01*
%TO.C,D3*%
X106703904Y-69286380D02*
X106703904Y-68286380D01*
X106942000Y-68286380D01*
X107084857Y-68334000D01*
X107180095Y-68429238D01*
X107227714Y-68524476D01*
X107275333Y-68714952D01*
X107275333Y-68857809D01*
X107227714Y-69048285D01*
X107180095Y-69143523D01*
X107084857Y-69238761D01*
X106942000Y-69286380D01*
X106703904Y-69286380D01*
X107608666Y-68286380D02*
X108227714Y-68286380D01*
X107894380Y-68667333D01*
X108037238Y-68667333D01*
X108132476Y-68714952D01*
X108180095Y-68762571D01*
X108227714Y-68857809D01*
X108227714Y-69095904D01*
X108180095Y-69191142D01*
X108132476Y-69238761D01*
X108037238Y-69286380D01*
X107751523Y-69286380D01*
X107656285Y-69238761D01*
X107608666Y-69191142D01*
D11*
%TO.C,J1*%
X149005108Y-85344000D02*
X150093680Y-85344000D01*
X150311394Y-85416571D01*
X150456537Y-85561714D01*
X150529108Y-85779428D01*
X150529108Y-85924571D01*
X150529108Y-83820000D02*
X150529108Y-84690857D01*
X150529108Y-84255428D02*
X149005108Y-84255428D01*
X149222822Y-84400571D01*
X149367965Y-84545714D01*
X149440537Y-84690857D01*
X155556857Y-89625714D02*
X155629428Y-89408000D01*
X155629428Y-89045142D01*
X155556857Y-88900000D01*
X155484285Y-88827428D01*
X155339142Y-88754857D01*
X155194000Y-88754857D01*
X155048857Y-88827428D01*
X154976285Y-88900000D01*
X154903714Y-89045142D01*
X154831142Y-89335428D01*
X154758571Y-89480571D01*
X154686000Y-89553142D01*
X154540857Y-89625714D01*
X154395714Y-89625714D01*
X154250571Y-89553142D01*
X154178000Y-89480571D01*
X154105428Y-89335428D01*
X154105428Y-88972571D01*
X154178000Y-88754857D01*
X155484285Y-87230857D02*
X155556857Y-87303428D01*
X155629428Y-87521142D01*
X155629428Y-87666285D01*
X155556857Y-87884000D01*
X155411714Y-88029142D01*
X155266571Y-88101714D01*
X154976285Y-88174285D01*
X154758571Y-88174285D01*
X154468285Y-88101714D01*
X154323142Y-88029142D01*
X154178000Y-87884000D01*
X154105428Y-87666285D01*
X154105428Y-87521142D01*
X154178000Y-87303428D01*
X154250571Y-87230857D01*
X155194000Y-86650285D02*
X155194000Y-85924571D01*
X155629428Y-86795428D02*
X154105428Y-86287428D01*
X155629428Y-85779428D01*
X155629428Y-84400571D02*
X154903714Y-84908571D01*
X155629428Y-85271428D02*
X154105428Y-85271428D01*
X154105428Y-84690857D01*
X154178000Y-84545714D01*
X154250571Y-84473142D01*
X154395714Y-84400571D01*
X154613428Y-84400571D01*
X154758571Y-84473142D01*
X154831142Y-84545714D01*
X154903714Y-84690857D01*
X154903714Y-85271428D01*
X154105428Y-83965142D02*
X154105428Y-83094285D01*
X155629428Y-83529714D02*
X154105428Y-83529714D01*
X155048857Y-82586285D02*
X155048857Y-81425142D01*
X154831142Y-80191428D02*
X154831142Y-80699428D01*
X155629428Y-80699428D02*
X154105428Y-80699428D01*
X154105428Y-79973714D01*
D10*
%TO.C,JP3*%
X137850666Y-82002380D02*
X137850666Y-82716666D01*
X137803047Y-82859523D01*
X137707809Y-82954761D01*
X137564952Y-83002380D01*
X137469714Y-83002380D01*
X138326857Y-83002380D02*
X138326857Y-82002380D01*
X138707809Y-82002380D01*
X138803047Y-82050000D01*
X138850666Y-82097619D01*
X138898285Y-82192857D01*
X138898285Y-82335714D01*
X138850666Y-82430952D01*
X138803047Y-82478571D01*
X138707809Y-82526190D01*
X138326857Y-82526190D01*
X139231619Y-82002380D02*
X139850666Y-82002380D01*
X139517333Y-82383333D01*
X139660190Y-82383333D01*
X139755428Y-82430952D01*
X139803047Y-82478571D01*
X139850666Y-82573809D01*
X139850666Y-82811904D01*
X139803047Y-82907142D01*
X139755428Y-82954761D01*
X139660190Y-83002380D01*
X139374476Y-83002380D01*
X139279238Y-82954761D01*
X139231619Y-82907142D01*
%TO.C,JP6*%
X131500666Y-64432380D02*
X131500666Y-65146666D01*
X131453047Y-65289523D01*
X131357809Y-65384761D01*
X131214952Y-65432380D01*
X131119714Y-65432380D01*
X131976857Y-65432380D02*
X131976857Y-64432380D01*
X132357809Y-64432380D01*
X132453047Y-64480000D01*
X132500666Y-64527619D01*
X132548285Y-64622857D01*
X132548285Y-64765714D01*
X132500666Y-64860952D01*
X132453047Y-64908571D01*
X132357809Y-64956190D01*
X131976857Y-64956190D01*
X133405428Y-64432380D02*
X133214952Y-64432380D01*
X133119714Y-64480000D01*
X133072095Y-64527619D01*
X132976857Y-64670476D01*
X132929238Y-64860952D01*
X132929238Y-65241904D01*
X132976857Y-65337142D01*
X133024476Y-65384761D01*
X133119714Y-65432380D01*
X133310190Y-65432380D01*
X133405428Y-65384761D01*
X133453047Y-65337142D01*
X133500666Y-65241904D01*
X133500666Y-65003809D01*
X133453047Y-64908571D01*
X133405428Y-64860952D01*
X133310190Y-64813333D01*
X133119714Y-64813333D01*
X133024476Y-64860952D01*
X132976857Y-64908571D01*
X132929238Y-65003809D01*
%TO.C,R19*%
X111523142Y-49954380D02*
X111189809Y-49478190D01*
X110951714Y-49954380D02*
X110951714Y-48954380D01*
X111332666Y-48954380D01*
X111427904Y-49002000D01*
X111475523Y-49049619D01*
X111523142Y-49144857D01*
X111523142Y-49287714D01*
X111475523Y-49382952D01*
X111427904Y-49430571D01*
X111332666Y-49478190D01*
X110951714Y-49478190D01*
X112475523Y-49954380D02*
X111904095Y-49954380D01*
X112189809Y-49954380D02*
X112189809Y-48954380D01*
X112094571Y-49097238D01*
X111999333Y-49192476D01*
X111904095Y-49240095D01*
X112951714Y-49954380D02*
X113142190Y-49954380D01*
X113237428Y-49906761D01*
X113285047Y-49859142D01*
X113380285Y-49716285D01*
X113427904Y-49525809D01*
X113427904Y-49144857D01*
X113380285Y-49049619D01*
X113332666Y-49002000D01*
X113237428Y-48954380D01*
X113046952Y-48954380D01*
X112951714Y-49002000D01*
X112904095Y-49049619D01*
X112856476Y-49144857D01*
X112856476Y-49382952D01*
X112904095Y-49478190D01*
X112951714Y-49525809D01*
X113046952Y-49573428D01*
X113237428Y-49573428D01*
X113332666Y-49525809D01*
X113380285Y-49478190D01*
X113427904Y-49382952D01*
%TO.C,R11*%
X117467142Y-66492380D02*
X117133809Y-66016190D01*
X116895714Y-66492380D02*
X116895714Y-65492380D01*
X117276666Y-65492380D01*
X117371904Y-65540000D01*
X117419523Y-65587619D01*
X117467142Y-65682857D01*
X117467142Y-65825714D01*
X117419523Y-65920952D01*
X117371904Y-65968571D01*
X117276666Y-66016190D01*
X116895714Y-66016190D01*
X118419523Y-66492380D02*
X117848095Y-66492380D01*
X118133809Y-66492380D02*
X118133809Y-65492380D01*
X118038571Y-65635238D01*
X117943333Y-65730476D01*
X117848095Y-65778095D01*
X119371904Y-66492380D02*
X118800476Y-66492380D01*
X119086190Y-66492380D02*
X119086190Y-65492380D01*
X118990952Y-65635238D01*
X118895714Y-65730476D01*
X118800476Y-65778095D01*
%TO.C,R4*%
X107275333Y-65984380D02*
X106942000Y-65508190D01*
X106703904Y-65984380D02*
X106703904Y-64984380D01*
X107084857Y-64984380D01*
X107180095Y-65032000D01*
X107227714Y-65079619D01*
X107275333Y-65174857D01*
X107275333Y-65317714D01*
X107227714Y-65412952D01*
X107180095Y-65460571D01*
X107084857Y-65508190D01*
X106703904Y-65508190D01*
X108132476Y-65317714D02*
X108132476Y-65984380D01*
X107894380Y-64936761D02*
X107656285Y-65651047D01*
X108275333Y-65651047D01*
%TO.C,R2*%
X159345333Y-53792380D02*
X159012000Y-53316190D01*
X158773904Y-53792380D02*
X158773904Y-52792380D01*
X159154857Y-52792380D01*
X159250095Y-52840000D01*
X159297714Y-52887619D01*
X159345333Y-52982857D01*
X159345333Y-53125714D01*
X159297714Y-53220952D01*
X159250095Y-53268571D01*
X159154857Y-53316190D01*
X158773904Y-53316190D01*
X159726285Y-52887619D02*
X159773904Y-52840000D01*
X159869142Y-52792380D01*
X160107238Y-52792380D01*
X160202476Y-52840000D01*
X160250095Y-52887619D01*
X160297714Y-52982857D01*
X160297714Y-53078095D01*
X160250095Y-53220952D01*
X159678666Y-53792380D01*
X160297714Y-53792380D01*
%TO.C,R5*%
X107275333Y-72334380D02*
X106942000Y-71858190D01*
X106703904Y-72334380D02*
X106703904Y-71334380D01*
X107084857Y-71334380D01*
X107180095Y-71382000D01*
X107227714Y-71429619D01*
X107275333Y-71524857D01*
X107275333Y-71667714D01*
X107227714Y-71762952D01*
X107180095Y-71810571D01*
X107084857Y-71858190D01*
X106703904Y-71858190D01*
X108180095Y-71334380D02*
X107703904Y-71334380D01*
X107656285Y-71810571D01*
X107703904Y-71762952D01*
X107799142Y-71715333D01*
X108037238Y-71715333D01*
X108132476Y-71762952D01*
X108180095Y-71810571D01*
X108227714Y-71905809D01*
X108227714Y-72143904D01*
X108180095Y-72239142D01*
X108132476Y-72286761D01*
X108037238Y-72334380D01*
X107799142Y-72334380D01*
X107703904Y-72286761D01*
X107656285Y-72239142D01*
%TO.C,JP7*%
X131500666Y-89622380D02*
X131500666Y-90336666D01*
X131453047Y-90479523D01*
X131357809Y-90574761D01*
X131214952Y-90622380D01*
X131119714Y-90622380D01*
X131976857Y-90622380D02*
X131976857Y-89622380D01*
X132357809Y-89622380D01*
X132453047Y-89670000D01*
X132500666Y-89717619D01*
X132548285Y-89812857D01*
X132548285Y-89955714D01*
X132500666Y-90050952D01*
X132453047Y-90098571D01*
X132357809Y-90146190D01*
X131976857Y-90146190D01*
X132881619Y-89622380D02*
X133548285Y-89622380D01*
X133119714Y-90622380D01*
%TO.C,D1*%
X106703904Y-56078380D02*
X106703904Y-55078380D01*
X106942000Y-55078380D01*
X107084857Y-55126000D01*
X107180095Y-55221238D01*
X107227714Y-55316476D01*
X107275333Y-55506952D01*
X107275333Y-55649809D01*
X107227714Y-55840285D01*
X107180095Y-55935523D01*
X107084857Y-56030761D01*
X106942000Y-56078380D01*
X106703904Y-56078380D01*
X108227714Y-56078380D02*
X107656285Y-56078380D01*
X107942000Y-56078380D02*
X107942000Y-55078380D01*
X107846761Y-55221238D01*
X107751523Y-55316476D01*
X107656285Y-55364095D01*
%TO.C,J2*%
X110594380Y-90455333D02*
X111308666Y-90455333D01*
X111451523Y-90502952D01*
X111546761Y-90598190D01*
X111594380Y-90741047D01*
X111594380Y-90836285D01*
X110689619Y-90026761D02*
X110642000Y-89979142D01*
X110594380Y-89883904D01*
X110594380Y-89645809D01*
X110642000Y-89550571D01*
X110689619Y-89502952D01*
X110784857Y-89455333D01*
X110880095Y-89455333D01*
X111022952Y-89502952D01*
X111594380Y-90074380D01*
X111594380Y-89455333D01*
%TO.C,JP5*%
X131500666Y-80722380D02*
X131500666Y-81436666D01*
X131453047Y-81579523D01*
X131357809Y-81674761D01*
X131214952Y-81722380D01*
X131119714Y-81722380D01*
X131976857Y-81722380D02*
X131976857Y-80722380D01*
X132357809Y-80722380D01*
X132453047Y-80770000D01*
X132500666Y-80817619D01*
X132548285Y-80912857D01*
X132548285Y-81055714D01*
X132500666Y-81150952D01*
X132453047Y-81198571D01*
X132357809Y-81246190D01*
X131976857Y-81246190D01*
X133453047Y-80722380D02*
X132976857Y-80722380D01*
X132929238Y-81198571D01*
X132976857Y-81150952D01*
X133072095Y-81103333D01*
X133310190Y-81103333D01*
X133405428Y-81150952D01*
X133453047Y-81198571D01*
X133500666Y-81293809D01*
X133500666Y-81531904D01*
X133453047Y-81627142D01*
X133405428Y-81674761D01*
X133310190Y-81722380D01*
X133072095Y-81722380D01*
X132976857Y-81674761D01*
X132929238Y-81627142D01*
%TO.C,J4*%
X134029666Y-57942380D02*
X134029666Y-58656666D01*
X133982047Y-58799523D01*
X133886809Y-58894761D01*
X133743952Y-58942380D01*
X133648714Y-58942380D01*
X134934428Y-58275714D02*
X134934428Y-58942380D01*
X134696333Y-57894761D02*
X134458238Y-58609047D01*
X135077285Y-58609047D01*
%TO.C,R12*%
X117467142Y-74112380D02*
X117133809Y-73636190D01*
X116895714Y-74112380D02*
X116895714Y-73112380D01*
X117276666Y-73112380D01*
X117371904Y-73160000D01*
X117419523Y-73207619D01*
X117467142Y-73302857D01*
X117467142Y-73445714D01*
X117419523Y-73540952D01*
X117371904Y-73588571D01*
X117276666Y-73636190D01*
X116895714Y-73636190D01*
X118419523Y-74112380D02*
X117848095Y-74112380D01*
X118133809Y-74112380D02*
X118133809Y-73112380D01*
X118038571Y-73255238D01*
X117943333Y-73350476D01*
X117848095Y-73398095D01*
X118800476Y-73207619D02*
X118848095Y-73160000D01*
X118943333Y-73112380D01*
X119181428Y-73112380D01*
X119276666Y-73160000D01*
X119324285Y-73207619D01*
X119371904Y-73302857D01*
X119371904Y-73398095D01*
X119324285Y-73540952D01*
X118752857Y-74112380D01*
X119371904Y-74112380D01*
%TO.C,R9*%
X117689333Y-91638380D02*
X117356000Y-91162190D01*
X117117904Y-91638380D02*
X117117904Y-90638380D01*
X117498857Y-90638380D01*
X117594095Y-90686000D01*
X117641714Y-90733619D01*
X117689333Y-90828857D01*
X117689333Y-90971714D01*
X117641714Y-91066952D01*
X117594095Y-91114571D01*
X117498857Y-91162190D01*
X117117904Y-91162190D01*
X118165523Y-91638380D02*
X118356000Y-91638380D01*
X118451238Y-91590761D01*
X118498857Y-91543142D01*
X118594095Y-91400285D01*
X118641714Y-91209809D01*
X118641714Y-90828857D01*
X118594095Y-90733619D01*
X118546476Y-90686000D01*
X118451238Y-90638380D01*
X118260761Y-90638380D01*
X118165523Y-90686000D01*
X118117904Y-90733619D01*
X118070285Y-90828857D01*
X118070285Y-91066952D01*
X118117904Y-91162190D01*
X118165523Y-91209809D01*
X118260761Y-91257428D01*
X118451238Y-91257428D01*
X118546476Y-91209809D01*
X118594095Y-91162190D01*
X118641714Y-91066952D01*
%TO.C,JP4*%
X137850666Y-64432380D02*
X137850666Y-65146666D01*
X137803047Y-65289523D01*
X137707809Y-65384761D01*
X137564952Y-65432380D01*
X137469714Y-65432380D01*
X138326857Y-65432380D02*
X138326857Y-64432380D01*
X138707809Y-64432380D01*
X138803047Y-64480000D01*
X138850666Y-64527619D01*
X138898285Y-64622857D01*
X138898285Y-64765714D01*
X138850666Y-64860952D01*
X138803047Y-64908571D01*
X138707809Y-64956190D01*
X138326857Y-64956190D01*
X139755428Y-64765714D02*
X139755428Y-65432380D01*
X139517333Y-64384761D02*
X139279238Y-65099047D01*
X139898285Y-65099047D01*
%TO.C,R6*%
X117923333Y-81612380D02*
X117590000Y-81136190D01*
X117351904Y-81612380D02*
X117351904Y-80612380D01*
X117732857Y-80612380D01*
X117828095Y-80660000D01*
X117875714Y-80707619D01*
X117923333Y-80802857D01*
X117923333Y-80945714D01*
X117875714Y-81040952D01*
X117828095Y-81088571D01*
X117732857Y-81136190D01*
X117351904Y-81136190D01*
X118780476Y-80612380D02*
X118590000Y-80612380D01*
X118494761Y-80660000D01*
X118447142Y-80707619D01*
X118351904Y-80850476D01*
X118304285Y-81040952D01*
X118304285Y-81421904D01*
X118351904Y-81517142D01*
X118399523Y-81564761D01*
X118494761Y-81612380D01*
X118685238Y-81612380D01*
X118780476Y-81564761D01*
X118828095Y-81517142D01*
X118875714Y-81421904D01*
X118875714Y-81183809D01*
X118828095Y-81088571D01*
X118780476Y-81040952D01*
X118685238Y-80993333D01*
X118494761Y-80993333D01*
X118399523Y-81040952D01*
X118351904Y-81088571D01*
X118304285Y-81183809D01*
%TO.C,J3*%
X140890666Y-118096380D02*
X140890666Y-118810666D01*
X140843047Y-118953523D01*
X140747809Y-119048761D01*
X140604952Y-119096380D01*
X140509714Y-119096380D01*
X141271619Y-118096380D02*
X141890666Y-118096380D01*
X141557333Y-118477333D01*
X141700190Y-118477333D01*
X141795428Y-118524952D01*
X141843047Y-118572571D01*
X141890666Y-118667809D01*
X141890666Y-118905904D01*
X141843047Y-119001142D01*
X141795428Y-119048761D01*
X141700190Y-119096380D01*
X141414476Y-119096380D01*
X141319238Y-119048761D01*
X141271619Y-119001142D01*
%TO.C,R15*%
X129405142Y-62428380D02*
X129071809Y-61952190D01*
X128833714Y-62428380D02*
X128833714Y-61428380D01*
X129214666Y-61428380D01*
X129309904Y-61476000D01*
X129357523Y-61523619D01*
X129405142Y-61618857D01*
X129405142Y-61761714D01*
X129357523Y-61856952D01*
X129309904Y-61904571D01*
X129214666Y-61952190D01*
X128833714Y-61952190D01*
X130357523Y-62428380D02*
X129786095Y-62428380D01*
X130071809Y-62428380D02*
X130071809Y-61428380D01*
X129976571Y-61571238D01*
X129881333Y-61666476D01*
X129786095Y-61714095D01*
X131262285Y-61428380D02*
X130786095Y-61428380D01*
X130738476Y-61904571D01*
X130786095Y-61856952D01*
X130881333Y-61809333D01*
X131119428Y-61809333D01*
X131214666Y-61856952D01*
X131262285Y-61904571D01*
X131309904Y-61999809D01*
X131309904Y-62237904D01*
X131262285Y-62333142D01*
X131214666Y-62380761D01*
X131119428Y-62428380D01*
X130881333Y-62428380D01*
X130786095Y-62380761D01*
X130738476Y-62333142D01*
%TO.C,R1*%
X117689333Y-96464380D02*
X117356000Y-95988190D01*
X117117904Y-96464380D02*
X117117904Y-95464380D01*
X117498857Y-95464380D01*
X117594095Y-95512000D01*
X117641714Y-95559619D01*
X117689333Y-95654857D01*
X117689333Y-95797714D01*
X117641714Y-95892952D01*
X117594095Y-95940571D01*
X117498857Y-95988190D01*
X117117904Y-95988190D01*
X118641714Y-96464380D02*
X118070285Y-96464380D01*
X118356000Y-96464380D02*
X118356000Y-95464380D01*
X118260761Y-95607238D01*
X118165523Y-95702476D01*
X118070285Y-95750095D01*
%TO.C,J5*%
X100758666Y-123058380D02*
X100758666Y-123772666D01*
X100711047Y-123915523D01*
X100615809Y-124010761D01*
X100472952Y-124058380D01*
X100377714Y-124058380D01*
X101711047Y-123058380D02*
X101234857Y-123058380D01*
X101187238Y-123534571D01*
X101234857Y-123486952D01*
X101330095Y-123439333D01*
X101568190Y-123439333D01*
X101663428Y-123486952D01*
X101711047Y-123534571D01*
X101758666Y-123629809D01*
X101758666Y-123867904D01*
X101711047Y-123963142D01*
X101663428Y-124010761D01*
X101568190Y-124058380D01*
X101330095Y-124058380D01*
X101234857Y-124010761D01*
X101187238Y-123963142D01*
%TO.C,R3*%
X107275333Y-59380380D02*
X106942000Y-58904190D01*
X106703904Y-59380380D02*
X106703904Y-58380380D01*
X107084857Y-58380380D01*
X107180095Y-58428000D01*
X107227714Y-58475619D01*
X107275333Y-58570857D01*
X107275333Y-58713714D01*
X107227714Y-58808952D01*
X107180095Y-58856571D01*
X107084857Y-58904190D01*
X106703904Y-58904190D01*
X107608666Y-58380380D02*
X108227714Y-58380380D01*
X107894380Y-58761333D01*
X108037238Y-58761333D01*
X108132476Y-58808952D01*
X108180095Y-58856571D01*
X108227714Y-58951809D01*
X108227714Y-59189904D01*
X108180095Y-59285142D01*
X108132476Y-59332761D01*
X108037238Y-59380380D01*
X107751523Y-59380380D01*
X107656285Y-59332761D01*
X107608666Y-59285142D01*
D12*
%TO.C,R22*%
X131472000Y-120110000D02*
X131802000Y-120110000D01*
X134212000Y-113570000D02*
X134212000Y-120110000D01*
X131472000Y-113570000D02*
X131472000Y-120110000D01*
X131802000Y-113570000D02*
X131472000Y-113570000D01*
X133882000Y-113570000D02*
X134212000Y-113570000D01*
X134212000Y-120110000D02*
X133882000Y-120110000D01*
%TO.C,R20*%
X143478000Y-106072000D02*
X143478000Y-106402000D01*
X136938000Y-106402000D02*
X136938000Y-106072000D01*
X136938000Y-108482000D02*
X136938000Y-108812000D01*
X136938000Y-108812000D02*
X143478000Y-108812000D01*
X136938000Y-106072000D02*
X143478000Y-106072000D01*
X143478000Y-108812000D02*
X143478000Y-108482000D01*
%TO.C,JP1*%
X105858000Y-108144000D02*
X105858000Y-110804000D01*
X110998000Y-108144000D02*
X105858000Y-108144000D01*
X112268000Y-108144000D02*
X113598000Y-108144000D01*
X110998000Y-110804000D02*
X105858000Y-110804000D01*
X113598000Y-108144000D02*
X113598000Y-109474000D01*
X110998000Y-108144000D02*
X110998000Y-110804000D01*
%TO.C,JP8*%
X121352000Y-112970000D02*
X121352000Y-115630000D01*
X126492000Y-112970000D02*
X121352000Y-112970000D01*
X127762000Y-112970000D02*
X129092000Y-112970000D01*
X126492000Y-115630000D02*
X121352000Y-115630000D01*
X129092000Y-112970000D02*
X129092000Y-114300000D01*
X126492000Y-112970000D02*
X126492000Y-115630000D01*
%TO.C,C5*%
X114085000Y-99020000D02*
X114400000Y-99020000D01*
X111660000Y-104260000D02*
X111660000Y-99020000D01*
X114400000Y-104260000D02*
X114400000Y-99020000D01*
X111660000Y-99020000D02*
X111975000Y-99020000D01*
X114085000Y-104260000D02*
X114400000Y-104260000D01*
X111660000Y-104260000D02*
X111975000Y-104260000D01*
%TO.C,C4*%
X118968000Y-114554000D02*
G75*
G03*
X118968000Y-114554000I-2620000J0D01*
G01*
X114387000Y-116253000D02*
X114387000Y-115594000D01*
X115708000Y-117055000D02*
X115708000Y-115594000D01*
X116308000Y-117134000D02*
X116308000Y-115594000D01*
X114587000Y-113514000D02*
X114587000Y-112653000D01*
X114747000Y-113514000D02*
X114747000Y-112519000D01*
X115788000Y-117074000D02*
X115788000Y-115594000D01*
X115868000Y-113514000D02*
X115868000Y-112018000D01*
X114667000Y-113514000D02*
X114667000Y-112583000D01*
X115948000Y-117104000D02*
X115948000Y-115594000D01*
X118902775Y-116279000D02*
X118902775Y-115779000D01*
X115027000Y-116778000D02*
X115027000Y-115594000D01*
X115708000Y-113514000D02*
X115708000Y-112053000D01*
X115908000Y-117097000D02*
X115908000Y-115594000D01*
X114627000Y-116491000D02*
X114627000Y-115594000D01*
X116108000Y-117123000D02*
X116108000Y-115594000D01*
X115147000Y-116844000D02*
X115147000Y-115594000D01*
X114947000Y-116729000D02*
X114947000Y-115594000D01*
X114907000Y-113514000D02*
X114907000Y-112405000D01*
X114707000Y-116558000D02*
X114707000Y-115594000D01*
X115627000Y-117034000D02*
X115627000Y-115594000D01*
X114467000Y-113514000D02*
X114467000Y-112769000D01*
X115668000Y-113514000D02*
X115668000Y-112063000D01*
X116268000Y-113514000D02*
X116268000Y-111975000D01*
X116068000Y-113514000D02*
X116068000Y-111989000D01*
X115547000Y-113514000D02*
X115547000Y-112099000D01*
X114507000Y-113514000D02*
X114507000Y-112728000D01*
X114187000Y-115997000D02*
X114187000Y-113111000D01*
X115908000Y-113514000D02*
X115908000Y-112011000D01*
X115988000Y-117110000D02*
X115988000Y-115594000D01*
X115507000Y-116996000D02*
X115507000Y-115594000D01*
X115828000Y-113514000D02*
X115828000Y-112026000D01*
X115587000Y-113514000D02*
X115587000Y-112086000D01*
X114867000Y-113514000D02*
X114867000Y-112432000D01*
X114307000Y-116159000D02*
X114307000Y-112949000D01*
X114747000Y-116589000D02*
X114747000Y-115594000D01*
X114427000Y-116297000D02*
X114427000Y-115594000D01*
X114987000Y-113514000D02*
X114987000Y-112354000D01*
X114027000Y-115732000D02*
X114027000Y-113376000D01*
X115067000Y-116801000D02*
X115067000Y-115594000D01*
X115387000Y-116952000D02*
X115387000Y-115594000D01*
X114147000Y-115937000D02*
X114147000Y-113171000D01*
X114107000Y-115873000D02*
X114107000Y-113235000D01*
X115948000Y-113514000D02*
X115948000Y-112004000D01*
X115187000Y-113514000D02*
X115187000Y-112244000D01*
X114627000Y-113514000D02*
X114627000Y-112617000D01*
X115748000Y-113514000D02*
X115748000Y-112043000D01*
X113747000Y-114838000D02*
X113747000Y-114270000D01*
X113787000Y-115072000D02*
X113787000Y-114036000D01*
X115227000Y-113514000D02*
X115227000Y-112225000D01*
X114547000Y-113514000D02*
X114547000Y-112690000D01*
X116148000Y-117127000D02*
X116148000Y-115594000D01*
X116268000Y-117133000D02*
X116268000Y-115594000D01*
X116068000Y-117119000D02*
X116068000Y-115594000D01*
X116228000Y-117132000D02*
X116228000Y-115594000D01*
X113987000Y-115652000D02*
X113987000Y-113456000D01*
X114427000Y-113514000D02*
X114427000Y-112811000D01*
X114547000Y-116418000D02*
X114547000Y-115594000D01*
X114987000Y-116754000D02*
X114987000Y-115594000D01*
X115147000Y-113514000D02*
X115147000Y-112264000D01*
X114867000Y-116676000D02*
X114867000Y-115594000D01*
X115547000Y-117009000D02*
X115547000Y-115594000D01*
X116348000Y-113514000D02*
X116348000Y-111974000D01*
X119152775Y-116029000D02*
X118652775Y-116029000D01*
X113907000Y-115469000D02*
X113907000Y-113639000D01*
X114267000Y-116108000D02*
X114267000Y-113000000D01*
X113947000Y-115565000D02*
X113947000Y-113543000D01*
X115668000Y-117045000D02*
X115668000Y-115594000D01*
X115347000Y-116936000D02*
X115347000Y-115594000D01*
X116188000Y-113514000D02*
X116188000Y-111978000D01*
X115387000Y-113514000D02*
X115387000Y-112156000D01*
X115427000Y-113514000D02*
X115427000Y-112140000D01*
X116028000Y-113514000D02*
X116028000Y-111993000D01*
X114827000Y-116649000D02*
X114827000Y-115594000D01*
X114467000Y-116339000D02*
X114467000Y-115594000D01*
X115107000Y-113514000D02*
X115107000Y-112286000D01*
X115267000Y-116902000D02*
X115267000Y-115594000D01*
X115467000Y-113514000D02*
X115467000Y-112126000D01*
X115347000Y-113514000D02*
X115347000Y-112172000D01*
X115587000Y-117022000D02*
X115587000Y-115594000D01*
X114827000Y-113514000D02*
X114827000Y-112459000D01*
X114787000Y-113514000D02*
X114787000Y-112489000D01*
X113827000Y-115231000D02*
X113827000Y-113877000D01*
X115267000Y-113514000D02*
X115267000Y-112206000D01*
X115988000Y-113514000D02*
X115988000Y-111998000D01*
X114227000Y-116054000D02*
X114227000Y-113054000D01*
X114067000Y-115805000D02*
X114067000Y-113303000D01*
X113867000Y-115359000D02*
X113867000Y-113749000D01*
X115868000Y-117090000D02*
X115868000Y-115594000D01*
X115307000Y-116919000D02*
X115307000Y-115594000D01*
X116028000Y-117115000D02*
X116028000Y-115594000D01*
X116348000Y-117134000D02*
X116348000Y-115594000D01*
X115307000Y-113514000D02*
X115307000Y-112189000D01*
X114347000Y-116207000D02*
X114347000Y-115594000D01*
X114507000Y-116380000D02*
X114507000Y-115594000D01*
X114907000Y-116703000D02*
X114907000Y-115594000D01*
X115828000Y-117082000D02*
X115828000Y-115594000D01*
X116228000Y-113514000D02*
X116228000Y-111976000D01*
X114947000Y-113514000D02*
X114947000Y-112379000D01*
X115067000Y-113514000D02*
X115067000Y-112307000D01*
X115788000Y-113514000D02*
X115788000Y-112034000D01*
X115507000Y-113514000D02*
X115507000Y-112112000D01*
X116108000Y-113514000D02*
X116108000Y-111985000D01*
X115748000Y-117065000D02*
X115748000Y-115594000D01*
X114587000Y-116455000D02*
X114587000Y-115594000D01*
X115427000Y-116968000D02*
X115427000Y-115594000D01*
X115467000Y-116982000D02*
X115467000Y-115594000D01*
X115627000Y-113514000D02*
X115627000Y-112074000D01*
X116308000Y-113514000D02*
X116308000Y-111974000D01*
X114787000Y-116619000D02*
X114787000Y-115594000D01*
X116188000Y-117130000D02*
X116188000Y-115594000D01*
X114707000Y-113514000D02*
X114707000Y-112550000D01*
X114387000Y-113514000D02*
X114387000Y-112855000D01*
X114667000Y-116525000D02*
X114667000Y-115594000D01*
X115187000Y-116864000D02*
X115187000Y-115594000D01*
X115227000Y-116883000D02*
X115227000Y-115594000D01*
X115107000Y-116822000D02*
X115107000Y-115594000D01*
X116148000Y-113514000D02*
X116148000Y-111981000D01*
X115027000Y-113514000D02*
X115027000Y-112330000D01*
X114347000Y-113514000D02*
X114347000Y-112901000D01*
%TO.C,C3*%
X141237888Y-94512000D02*
X141237888Y-95125000D01*
X140557888Y-94512000D02*
X140557888Y-95696000D01*
X139436888Y-94512000D02*
X139436888Y-96045000D01*
X140477888Y-91204000D02*
X140477888Y-92432000D01*
X140357888Y-91143000D02*
X140357888Y-92432000D01*
X140397888Y-91162000D02*
X140397888Y-92432000D01*
X140917888Y-91501000D02*
X140917888Y-92432000D01*
X141197888Y-94512000D02*
X141197888Y-95171000D01*
X140877888Y-94512000D02*
X140877888Y-95476000D01*
X139396888Y-90896000D02*
X139396888Y-92432000D01*
X140797888Y-91407000D02*
X140797888Y-92432000D01*
X139276888Y-94512000D02*
X139276888Y-96052000D01*
X139957888Y-94512000D02*
X139957888Y-95952000D01*
X140117888Y-91044000D02*
X140117888Y-92432000D01*
X140157888Y-91058000D02*
X140157888Y-92432000D01*
X140997888Y-91571000D02*
X140997888Y-92432000D01*
X139836888Y-90961000D02*
X139836888Y-92432000D01*
X139476888Y-94512000D02*
X139476888Y-96041000D01*
X140077888Y-94512000D02*
X140077888Y-95914000D01*
X139796888Y-94512000D02*
X139796888Y-95992000D01*
X140517888Y-94512000D02*
X140517888Y-95719000D01*
X140637888Y-94512000D02*
X140637888Y-95647000D01*
X139356888Y-94512000D02*
X139356888Y-96050000D01*
X139756888Y-90944000D02*
X139756888Y-92432000D01*
X140677888Y-91323000D02*
X140677888Y-92432000D01*
X141077888Y-91646000D02*
X141077888Y-92432000D01*
X141237888Y-91819000D02*
X141237888Y-92432000D01*
X140277888Y-94512000D02*
X140277888Y-95837000D01*
X139236888Y-90892000D02*
X139236888Y-92432000D01*
X139556888Y-90911000D02*
X139556888Y-92432000D01*
X140277888Y-91107000D02*
X140277888Y-92432000D01*
X139716888Y-90936000D02*
X139716888Y-92432000D01*
X141717888Y-92667000D02*
X141717888Y-94277000D01*
X141517888Y-92221000D02*
X141517888Y-94723000D01*
X141357888Y-91972000D02*
X141357888Y-94972000D01*
X139596888Y-94512000D02*
X139596888Y-96028000D01*
X140317888Y-94512000D02*
X140317888Y-95820000D01*
X141757888Y-92795000D02*
X141757888Y-94149000D01*
X140797888Y-94512000D02*
X140797888Y-95537000D01*
X140757888Y-94512000D02*
X140757888Y-95567000D01*
X139997888Y-91004000D02*
X139997888Y-92432000D01*
X140237888Y-94512000D02*
X140237888Y-95854000D01*
X140117888Y-94512000D02*
X140117888Y-95900000D01*
X140317888Y-91124000D02*
X140317888Y-92432000D01*
X140477888Y-94512000D02*
X140477888Y-95740000D01*
X141117888Y-91687000D02*
X141117888Y-92432000D01*
X140757888Y-91377000D02*
X140757888Y-92432000D01*
X139556888Y-94512000D02*
X139556888Y-96033000D01*
X140157888Y-94512000D02*
X140157888Y-95886000D01*
X140197888Y-94512000D02*
X140197888Y-95870000D01*
X139396888Y-94512000D02*
X139396888Y-96048000D01*
X140237888Y-91090000D02*
X140237888Y-92432000D01*
X139916888Y-90981000D02*
X139916888Y-92432000D01*
X141637888Y-92461000D02*
X141637888Y-94483000D01*
X141317888Y-91918000D02*
X141317888Y-95026000D01*
X141677888Y-92557000D02*
X141677888Y-94387000D01*
X136432113Y-91997000D02*
X136932113Y-91997000D01*
X139236888Y-94512000D02*
X139236888Y-96052000D01*
X140037888Y-91017000D02*
X140037888Y-92432000D01*
X140717888Y-91350000D02*
X140717888Y-92432000D01*
X140437888Y-94512000D02*
X140437888Y-95762000D01*
X140597888Y-91272000D02*
X140597888Y-92432000D01*
X141037888Y-91608000D02*
X141037888Y-92432000D01*
X141157888Y-94512000D02*
X141157888Y-95215000D01*
X141597888Y-92374000D02*
X141597888Y-94570000D01*
X139356888Y-90894000D02*
X139356888Y-92432000D01*
X139516888Y-90907000D02*
X139516888Y-92432000D01*
X139316888Y-90893000D02*
X139316888Y-92432000D01*
X139436888Y-90899000D02*
X139436888Y-92432000D01*
X141037888Y-94512000D02*
X141037888Y-95336000D01*
X140357888Y-94512000D02*
X140357888Y-95801000D01*
X141797888Y-92954000D02*
X141797888Y-93990000D01*
X141837888Y-93188000D02*
X141837888Y-93756000D01*
X139836888Y-94512000D02*
X139836888Y-95983000D01*
X140957888Y-94512000D02*
X140957888Y-95409000D01*
X140397888Y-94512000D02*
X140397888Y-95782000D01*
X139636888Y-94512000D02*
X139636888Y-96022000D01*
X141477888Y-92153000D02*
X141477888Y-94791000D01*
X141437888Y-92089000D02*
X141437888Y-94855000D01*
X140197888Y-91074000D02*
X140197888Y-92432000D01*
X140517888Y-91225000D02*
X140517888Y-92432000D01*
X141557888Y-92294000D02*
X141557888Y-94650000D01*
X140597888Y-94512000D02*
X140597888Y-95672000D01*
X141157888Y-91729000D02*
X141157888Y-92432000D01*
X140837888Y-91437000D02*
X140837888Y-92432000D01*
X141277888Y-91867000D02*
X141277888Y-95077000D01*
X140717888Y-94512000D02*
X140717888Y-95594000D01*
X139997888Y-94512000D02*
X139997888Y-95940000D01*
X139756888Y-94512000D02*
X139756888Y-96000000D01*
X140077888Y-91030000D02*
X140077888Y-92432000D01*
X139596888Y-90916000D02*
X139596888Y-92432000D01*
X139676888Y-94512000D02*
X139676888Y-96015000D01*
X141397888Y-92029000D02*
X141397888Y-94915000D01*
X141077888Y-94512000D02*
X141077888Y-95298000D01*
X140037888Y-94512000D02*
X140037888Y-95927000D01*
X139516888Y-94512000D02*
X139516888Y-96037000D01*
X139316888Y-94512000D02*
X139316888Y-96051000D01*
X139916888Y-94512000D02*
X139916888Y-95963000D01*
X141117888Y-94512000D02*
X141117888Y-95257000D01*
X139957888Y-90992000D02*
X139957888Y-92432000D01*
X140877888Y-91468000D02*
X140877888Y-92432000D01*
X140677888Y-94512000D02*
X140677888Y-95621000D01*
X140637888Y-91297000D02*
X140637888Y-92432000D01*
X140437888Y-91182000D02*
X140437888Y-92432000D01*
X139476888Y-90903000D02*
X139476888Y-92432000D01*
X140957888Y-91535000D02*
X140957888Y-92432000D01*
X139676888Y-90929000D02*
X139676888Y-92432000D01*
X139876888Y-94512000D02*
X139876888Y-95973000D01*
X140557888Y-91248000D02*
X140557888Y-92432000D01*
X136682113Y-91747000D02*
X136682113Y-92247000D01*
X139636888Y-90922000D02*
X139636888Y-92432000D01*
X140917888Y-94512000D02*
X140917888Y-95443000D01*
X139716888Y-94512000D02*
X139716888Y-96008000D01*
X139796888Y-90952000D02*
X139796888Y-92432000D01*
X140837888Y-94512000D02*
X140837888Y-95507000D01*
X140997888Y-94512000D02*
X140997888Y-95373000D01*
X139276888Y-90892000D02*
X139276888Y-92432000D01*
X139876888Y-90971000D02*
X139876888Y-92432000D01*
X141197888Y-91773000D02*
X141197888Y-92432000D01*
X141856888Y-93472000D02*
G75*
G03*
X141856888Y-93472000I-2620000J0D01*
G01*
%TO.C,C2*%
X115523000Y-120928000D02*
X115523000Y-121541000D01*
X114843000Y-120928000D02*
X114843000Y-122112000D01*
X113722000Y-120928000D02*
X113722000Y-122461000D01*
X114763000Y-117620000D02*
X114763000Y-118848000D01*
X114643000Y-117559000D02*
X114643000Y-118848000D01*
X114683000Y-117578000D02*
X114683000Y-118848000D01*
X115203000Y-117917000D02*
X115203000Y-118848000D01*
X115483000Y-120928000D02*
X115483000Y-121587000D01*
X115163000Y-120928000D02*
X115163000Y-121892000D01*
X113682000Y-117312000D02*
X113682000Y-118848000D01*
X115083000Y-117823000D02*
X115083000Y-118848000D01*
X113562000Y-120928000D02*
X113562000Y-122468000D01*
X114243000Y-120928000D02*
X114243000Y-122368000D01*
X114403000Y-117460000D02*
X114403000Y-118848000D01*
X114443000Y-117474000D02*
X114443000Y-118848000D01*
X115283000Y-117987000D02*
X115283000Y-118848000D01*
X114122000Y-117377000D02*
X114122000Y-118848000D01*
X113762000Y-120928000D02*
X113762000Y-122457000D01*
X114363000Y-120928000D02*
X114363000Y-122330000D01*
X114082000Y-120928000D02*
X114082000Y-122408000D01*
X114803000Y-120928000D02*
X114803000Y-122135000D01*
X114923000Y-120928000D02*
X114923000Y-122063000D01*
X113642000Y-120928000D02*
X113642000Y-122466000D01*
X114042000Y-117360000D02*
X114042000Y-118848000D01*
X114963000Y-117739000D02*
X114963000Y-118848000D01*
X115363000Y-118062000D02*
X115363000Y-118848000D01*
X115523000Y-118235000D02*
X115523000Y-118848000D01*
X114563000Y-120928000D02*
X114563000Y-122253000D01*
X113522000Y-117308000D02*
X113522000Y-118848000D01*
X113842000Y-117327000D02*
X113842000Y-118848000D01*
X114563000Y-117523000D02*
X114563000Y-118848000D01*
X114002000Y-117352000D02*
X114002000Y-118848000D01*
X116003000Y-119083000D02*
X116003000Y-120693000D01*
X115803000Y-118637000D02*
X115803000Y-121139000D01*
X115643000Y-118388000D02*
X115643000Y-121388000D01*
X113882000Y-120928000D02*
X113882000Y-122444000D01*
X114603000Y-120928000D02*
X114603000Y-122236000D01*
X116043000Y-119211000D02*
X116043000Y-120565000D01*
X115083000Y-120928000D02*
X115083000Y-121953000D01*
X115043000Y-120928000D02*
X115043000Y-121983000D01*
X114283000Y-117420000D02*
X114283000Y-118848000D01*
X114523000Y-120928000D02*
X114523000Y-122270000D01*
X114403000Y-120928000D02*
X114403000Y-122316000D01*
X114603000Y-117540000D02*
X114603000Y-118848000D01*
X114763000Y-120928000D02*
X114763000Y-122156000D01*
X115403000Y-118103000D02*
X115403000Y-118848000D01*
X115043000Y-117793000D02*
X115043000Y-118848000D01*
X113842000Y-120928000D02*
X113842000Y-122449000D01*
X114443000Y-120928000D02*
X114443000Y-122302000D01*
X114483000Y-120928000D02*
X114483000Y-122286000D01*
X113682000Y-120928000D02*
X113682000Y-122464000D01*
X114523000Y-117506000D02*
X114523000Y-118848000D01*
X114202000Y-117397000D02*
X114202000Y-118848000D01*
X115923000Y-118877000D02*
X115923000Y-120899000D01*
X115603000Y-118334000D02*
X115603000Y-121442000D01*
X115963000Y-118973000D02*
X115963000Y-120803000D01*
X110717225Y-118413000D02*
X111217225Y-118413000D01*
X113522000Y-120928000D02*
X113522000Y-122468000D01*
X114323000Y-117433000D02*
X114323000Y-118848000D01*
X115003000Y-117766000D02*
X115003000Y-118848000D01*
X114723000Y-120928000D02*
X114723000Y-122178000D01*
X114883000Y-117688000D02*
X114883000Y-118848000D01*
X115323000Y-118024000D02*
X115323000Y-118848000D01*
X115443000Y-120928000D02*
X115443000Y-121631000D01*
X115883000Y-118790000D02*
X115883000Y-120986000D01*
X113642000Y-117310000D02*
X113642000Y-118848000D01*
X113802000Y-117323000D02*
X113802000Y-118848000D01*
X113602000Y-117309000D02*
X113602000Y-118848000D01*
X113722000Y-117315000D02*
X113722000Y-118848000D01*
X115323000Y-120928000D02*
X115323000Y-121752000D01*
X114643000Y-120928000D02*
X114643000Y-122217000D01*
X116083000Y-119370000D02*
X116083000Y-120406000D01*
X116123000Y-119604000D02*
X116123000Y-120172000D01*
X114122000Y-120928000D02*
X114122000Y-122399000D01*
X115243000Y-120928000D02*
X115243000Y-121825000D01*
X114683000Y-120928000D02*
X114683000Y-122198000D01*
X113922000Y-120928000D02*
X113922000Y-122438000D01*
X115763000Y-118569000D02*
X115763000Y-121207000D01*
X115723000Y-118505000D02*
X115723000Y-121271000D01*
X114483000Y-117490000D02*
X114483000Y-118848000D01*
X114803000Y-117641000D02*
X114803000Y-118848000D01*
X115843000Y-118710000D02*
X115843000Y-121066000D01*
X114883000Y-120928000D02*
X114883000Y-122088000D01*
X115443000Y-118145000D02*
X115443000Y-118848000D01*
X115123000Y-117853000D02*
X115123000Y-118848000D01*
X115563000Y-118283000D02*
X115563000Y-121493000D01*
X115003000Y-120928000D02*
X115003000Y-122010000D01*
X114283000Y-120928000D02*
X114283000Y-122356000D01*
X114042000Y-120928000D02*
X114042000Y-122416000D01*
X114363000Y-117446000D02*
X114363000Y-118848000D01*
X113882000Y-117332000D02*
X113882000Y-118848000D01*
X113962000Y-120928000D02*
X113962000Y-122431000D01*
X115683000Y-118445000D02*
X115683000Y-121331000D01*
X115363000Y-120928000D02*
X115363000Y-121714000D01*
X114323000Y-120928000D02*
X114323000Y-122343000D01*
X113802000Y-120928000D02*
X113802000Y-122453000D01*
X113602000Y-120928000D02*
X113602000Y-122467000D01*
X114202000Y-120928000D02*
X114202000Y-122379000D01*
X115403000Y-120928000D02*
X115403000Y-121673000D01*
X114243000Y-117408000D02*
X114243000Y-118848000D01*
X115163000Y-117884000D02*
X115163000Y-118848000D01*
X114963000Y-120928000D02*
X114963000Y-122037000D01*
X114923000Y-117713000D02*
X114923000Y-118848000D01*
X114723000Y-117598000D02*
X114723000Y-118848000D01*
X113762000Y-117319000D02*
X113762000Y-118848000D01*
X115243000Y-117951000D02*
X115243000Y-118848000D01*
X113962000Y-117345000D02*
X113962000Y-118848000D01*
X114162000Y-120928000D02*
X114162000Y-122389000D01*
X114843000Y-117664000D02*
X114843000Y-118848000D01*
X110967225Y-118163000D02*
X110967225Y-118663000D01*
X113922000Y-117338000D02*
X113922000Y-118848000D01*
X115203000Y-120928000D02*
X115203000Y-121859000D01*
X114002000Y-120928000D02*
X114002000Y-122424000D01*
X114082000Y-117368000D02*
X114082000Y-118848000D01*
X115123000Y-120928000D02*
X115123000Y-121923000D01*
X115283000Y-120928000D02*
X115283000Y-121789000D01*
X113562000Y-117308000D02*
X113562000Y-118848000D01*
X114162000Y-117387000D02*
X114162000Y-118848000D01*
X115483000Y-118189000D02*
X115483000Y-118848000D01*
X116142000Y-119888000D02*
G75*
G03*
X116142000Y-119888000I-2620000J0D01*
G01*
%TO.C,C1*%
X140983888Y-100354000D02*
X140983888Y-100967000D01*
X140303888Y-100354000D02*
X140303888Y-101538000D01*
X139182888Y-100354000D02*
X139182888Y-101887000D01*
X140223888Y-97046000D02*
X140223888Y-98274000D01*
X140103888Y-96985000D02*
X140103888Y-98274000D01*
X140143888Y-97004000D02*
X140143888Y-98274000D01*
X140663888Y-97343000D02*
X140663888Y-98274000D01*
X140943888Y-100354000D02*
X140943888Y-101013000D01*
X140623888Y-100354000D02*
X140623888Y-101318000D01*
X139142888Y-96738000D02*
X139142888Y-98274000D01*
X140543888Y-97249000D02*
X140543888Y-98274000D01*
X139022888Y-100354000D02*
X139022888Y-101894000D01*
X139703888Y-100354000D02*
X139703888Y-101794000D01*
X139863888Y-96886000D02*
X139863888Y-98274000D01*
X139903888Y-96900000D02*
X139903888Y-98274000D01*
X140743888Y-97413000D02*
X140743888Y-98274000D01*
X139582888Y-96803000D02*
X139582888Y-98274000D01*
X139222888Y-100354000D02*
X139222888Y-101883000D01*
X139823888Y-100354000D02*
X139823888Y-101756000D01*
X139542888Y-100354000D02*
X139542888Y-101834000D01*
X140263888Y-100354000D02*
X140263888Y-101561000D01*
X140383888Y-100354000D02*
X140383888Y-101489000D01*
X139102888Y-100354000D02*
X139102888Y-101892000D01*
X139502888Y-96786000D02*
X139502888Y-98274000D01*
X140423888Y-97165000D02*
X140423888Y-98274000D01*
X140823888Y-97488000D02*
X140823888Y-98274000D01*
X140983888Y-97661000D02*
X140983888Y-98274000D01*
X140023888Y-100354000D02*
X140023888Y-101679000D01*
X138982888Y-96734000D02*
X138982888Y-98274000D01*
X139302888Y-96753000D02*
X139302888Y-98274000D01*
X140023888Y-96949000D02*
X140023888Y-98274000D01*
X139462888Y-96778000D02*
X139462888Y-98274000D01*
X141463888Y-98509000D02*
X141463888Y-100119000D01*
X141263888Y-98063000D02*
X141263888Y-100565000D01*
X141103888Y-97814000D02*
X141103888Y-100814000D01*
X139342888Y-100354000D02*
X139342888Y-101870000D01*
X140063888Y-100354000D02*
X140063888Y-101662000D01*
X141503888Y-98637000D02*
X141503888Y-99991000D01*
X140543888Y-100354000D02*
X140543888Y-101379000D01*
X140503888Y-100354000D02*
X140503888Y-101409000D01*
X139743888Y-96846000D02*
X139743888Y-98274000D01*
X139983888Y-100354000D02*
X139983888Y-101696000D01*
X139863888Y-100354000D02*
X139863888Y-101742000D01*
X140063888Y-96966000D02*
X140063888Y-98274000D01*
X140223888Y-100354000D02*
X140223888Y-101582000D01*
X140863888Y-97529000D02*
X140863888Y-98274000D01*
X140503888Y-97219000D02*
X140503888Y-98274000D01*
X139302888Y-100354000D02*
X139302888Y-101875000D01*
X139903888Y-100354000D02*
X139903888Y-101728000D01*
X139943888Y-100354000D02*
X139943888Y-101712000D01*
X139142888Y-100354000D02*
X139142888Y-101890000D01*
X139983888Y-96932000D02*
X139983888Y-98274000D01*
X139662888Y-96823000D02*
X139662888Y-98274000D01*
X141383888Y-98303000D02*
X141383888Y-100325000D01*
X141063888Y-97760000D02*
X141063888Y-100868000D01*
X141423888Y-98399000D02*
X141423888Y-100229000D01*
X136178113Y-97839000D02*
X136678113Y-97839000D01*
X138982888Y-100354000D02*
X138982888Y-101894000D01*
X139783888Y-96859000D02*
X139783888Y-98274000D01*
X140463888Y-97192000D02*
X140463888Y-98274000D01*
X140183888Y-100354000D02*
X140183888Y-101604000D01*
X140343888Y-97114000D02*
X140343888Y-98274000D01*
X140783888Y-97450000D02*
X140783888Y-98274000D01*
X140903888Y-100354000D02*
X140903888Y-101057000D01*
X141343888Y-98216000D02*
X141343888Y-100412000D01*
X139102888Y-96736000D02*
X139102888Y-98274000D01*
X139262888Y-96749000D02*
X139262888Y-98274000D01*
X139062888Y-96735000D02*
X139062888Y-98274000D01*
X139182888Y-96741000D02*
X139182888Y-98274000D01*
X140783888Y-100354000D02*
X140783888Y-101178000D01*
X140103888Y-100354000D02*
X140103888Y-101643000D01*
X141543888Y-98796000D02*
X141543888Y-99832000D01*
X141583888Y-99030000D02*
X141583888Y-99598000D01*
X139582888Y-100354000D02*
X139582888Y-101825000D01*
X140703888Y-100354000D02*
X140703888Y-101251000D01*
X140143888Y-100354000D02*
X140143888Y-101624000D01*
X139382888Y-100354000D02*
X139382888Y-101864000D01*
X141223888Y-97995000D02*
X141223888Y-100633000D01*
X141183888Y-97931000D02*
X141183888Y-100697000D01*
X139943888Y-96916000D02*
X139943888Y-98274000D01*
X140263888Y-97067000D02*
X140263888Y-98274000D01*
X141303888Y-98136000D02*
X141303888Y-100492000D01*
X140343888Y-100354000D02*
X140343888Y-101514000D01*
X140903888Y-97571000D02*
X140903888Y-98274000D01*
X140583888Y-97279000D02*
X140583888Y-98274000D01*
X141023888Y-97709000D02*
X141023888Y-100919000D01*
X140463888Y-100354000D02*
X140463888Y-101436000D01*
X139743888Y-100354000D02*
X139743888Y-101782000D01*
X139502888Y-100354000D02*
X139502888Y-101842000D01*
X139823888Y-96872000D02*
X139823888Y-98274000D01*
X139342888Y-96758000D02*
X139342888Y-98274000D01*
X139422888Y-100354000D02*
X139422888Y-101857000D01*
X141143888Y-97871000D02*
X141143888Y-100757000D01*
X140823888Y-100354000D02*
X140823888Y-101140000D01*
X139783888Y-100354000D02*
X139783888Y-101769000D01*
X139262888Y-100354000D02*
X139262888Y-101879000D01*
X139062888Y-100354000D02*
X139062888Y-101893000D01*
X139662888Y-100354000D02*
X139662888Y-101805000D01*
X140863888Y-100354000D02*
X140863888Y-101099000D01*
X139703888Y-96834000D02*
X139703888Y-98274000D01*
X140623888Y-97310000D02*
X140623888Y-98274000D01*
X140423888Y-100354000D02*
X140423888Y-101463000D01*
X140383888Y-97139000D02*
X140383888Y-98274000D01*
X140183888Y-97024000D02*
X140183888Y-98274000D01*
X139222888Y-96745000D02*
X139222888Y-98274000D01*
X140703888Y-97377000D02*
X140703888Y-98274000D01*
X139422888Y-96771000D02*
X139422888Y-98274000D01*
X139622888Y-100354000D02*
X139622888Y-101815000D01*
X140303888Y-97090000D02*
X140303888Y-98274000D01*
X136428113Y-97589000D02*
X136428113Y-98089000D01*
X139382888Y-96764000D02*
X139382888Y-98274000D01*
X140663888Y-100354000D02*
X140663888Y-101285000D01*
X139462888Y-100354000D02*
X139462888Y-101850000D01*
X139542888Y-96794000D02*
X139542888Y-98274000D01*
X140583888Y-100354000D02*
X140583888Y-101349000D01*
X140743888Y-100354000D02*
X140743888Y-101215000D01*
X139022888Y-96734000D02*
X139022888Y-98274000D01*
X139622888Y-96813000D02*
X139622888Y-98274000D01*
X140943888Y-97615000D02*
X140943888Y-98274000D01*
X141602888Y-99314000D02*
G75*
G03*
X141602888Y-99314000I-2620000J0D01*
G01*
%TO.C,U2*%
X127802000Y-122975000D02*
X117562000Y-122975000D01*
X124532000Y-122975000D02*
X124532000Y-121465000D01*
X120831000Y-122975000D02*
X120831000Y-121465000D01*
X127802000Y-122975000D02*
X127802000Y-118334000D01*
X127802000Y-118334000D02*
X117562000Y-118334000D01*
X117562000Y-122975000D02*
X117562000Y-118334000D01*
X127802000Y-121465000D02*
X117562000Y-121465000D01*
%TO.C,U1*%
X116267000Y-106908000D02*
G75*
G03*
X116267000Y-104908000I0J1000000D01*
G01*
X134167000Y-103258000D02*
X116267000Y-103258000D01*
X116207000Y-111048000D02*
X134227000Y-111048000D01*
X116267000Y-106908000D02*
X116267000Y-108558000D01*
X134167000Y-108558000D02*
X134167000Y-103258000D01*
X116267000Y-108558000D02*
X134167000Y-108558000D01*
X116267000Y-103258000D02*
X116267000Y-104908000D01*
X134227000Y-111048000D02*
X134227000Y-100768000D01*
X134227000Y-100768000D02*
X116207000Y-100768000D01*
X116207000Y-100768000D02*
X116207000Y-111048000D01*
%TO.C,R14*%
X131794000Y-94004000D02*
X131794000Y-94334000D01*
X125254000Y-91594000D02*
X125254000Y-91924000D01*
X131794000Y-91924000D02*
X131794000Y-91594000D01*
X131794000Y-94334000D02*
X125254000Y-94334000D01*
X131794000Y-91594000D02*
X125254000Y-91594000D01*
X125254000Y-94334000D02*
X125254000Y-94004000D01*
%TO.C,R10*%
X131794000Y-95404000D02*
X125254000Y-95404000D01*
X131794000Y-98144000D02*
X125254000Y-98144000D01*
X131794000Y-95734000D02*
X131794000Y-95404000D01*
X131794000Y-97814000D02*
X131794000Y-98144000D01*
X125254000Y-95404000D02*
X125254000Y-95734000D01*
X125254000Y-98144000D02*
X125254000Y-97814000D01*
%TO.C,R18*%
X115284000Y-53948000D02*
X115284000Y-53618000D01*
X108744000Y-51538000D02*
X108744000Y-51208000D01*
X108744000Y-51208000D02*
X115284000Y-51208000D01*
X115284000Y-51208000D02*
X115284000Y-51538000D01*
X108744000Y-53618000D02*
X108744000Y-53948000D01*
X108744000Y-53948000D02*
X115284000Y-53948000D01*
%TO.C,R17*%
X126646000Y-77438000D02*
X126976000Y-77438000D01*
X126976000Y-70898000D02*
X126646000Y-70898000D01*
X129386000Y-77438000D02*
X129056000Y-77438000D01*
X126646000Y-70898000D02*
X126646000Y-77438000D01*
X129386000Y-70898000D02*
X129386000Y-77438000D01*
X129056000Y-70898000D02*
X129386000Y-70898000D01*
%TO.C,R7*%
X126592000Y-82074000D02*
X126262000Y-82074000D01*
X124182000Y-88614000D02*
X123852000Y-88614000D01*
X126592000Y-88614000D02*
X126592000Y-82074000D01*
X126262000Y-88614000D02*
X126592000Y-88614000D01*
X123852000Y-82074000D02*
X124182000Y-82074000D01*
X123852000Y-88614000D02*
X123852000Y-82074000D01*
%TO.C,D2*%
X108962000Y-63350000D02*
X108962000Y-61110000D01*
X109562000Y-61110000D02*
X105322000Y-61110000D01*
X109562000Y-63350000D02*
X109562000Y-61110000D01*
X105322000Y-63350000D02*
X109562000Y-63350000D01*
X108722000Y-63350000D02*
X108722000Y-61110000D01*
X108842000Y-63350000D02*
X108842000Y-61110000D01*
X104672000Y-62230000D02*
X105322000Y-62230000D01*
X105322000Y-61110000D02*
X105322000Y-63350000D01*
X110212000Y-62230000D02*
X109562000Y-62230000D01*
%TO.C,R16*%
X145134000Y-70136000D02*
X145134000Y-76676000D01*
X142394000Y-70136000D02*
X142394000Y-76676000D01*
X144804000Y-70136000D02*
X145134000Y-70136000D01*
X142394000Y-76676000D02*
X142724000Y-76676000D01*
X142724000Y-70136000D02*
X142394000Y-70136000D01*
X145134000Y-76676000D02*
X144804000Y-76676000D01*
%TO.C,JP2*%
X137354000Y-74870000D02*
X138684000Y-74870000D01*
X137354000Y-80070000D02*
X140014000Y-80070000D01*
X137354000Y-77470000D02*
X137354000Y-80070000D01*
X140014000Y-77470000D02*
X140014000Y-80070000D01*
X137354000Y-76200000D02*
X137354000Y-74870000D01*
X137354000Y-77470000D02*
X140014000Y-77470000D01*
%TO.C,R21*%
X136938000Y-105510000D02*
X136938000Y-105180000D01*
X143478000Y-105510000D02*
X136938000Y-105510000D01*
X143478000Y-103100000D02*
X143478000Y-102770000D01*
X143478000Y-102770000D02*
X136938000Y-102770000D01*
X143478000Y-105180000D02*
X143478000Y-105510000D01*
X136938000Y-102770000D02*
X136938000Y-103100000D01*
%TO.C,R8*%
X114840000Y-76100000D02*
X121380000Y-76100000D01*
X114840000Y-78840000D02*
X121380000Y-78840000D01*
X114840000Y-78510000D02*
X114840000Y-78840000D01*
X114840000Y-76430000D02*
X114840000Y-76100000D01*
X121380000Y-76100000D02*
X121380000Y-76430000D01*
X121380000Y-78840000D02*
X121380000Y-78510000D01*
%TO.C,R13*%
X114840000Y-68480000D02*
X121380000Y-68480000D01*
X121380000Y-68480000D02*
X121380000Y-68810000D01*
X114840000Y-68810000D02*
X114840000Y-68480000D01*
X114840000Y-70890000D02*
X114840000Y-71220000D01*
X121380000Y-71220000D02*
X121380000Y-70890000D01*
X114840000Y-71220000D02*
X121380000Y-71220000D01*
%TO.C,D3*%
X108962000Y-69954000D02*
X108962000Y-67714000D01*
X109562000Y-69954000D02*
X109562000Y-67714000D01*
X104672000Y-68834000D02*
X105322000Y-68834000D01*
X105322000Y-67714000D02*
X105322000Y-69954000D01*
X105322000Y-69954000D02*
X109562000Y-69954000D01*
X108722000Y-69954000D02*
X108722000Y-67714000D01*
X109562000Y-67714000D02*
X105322000Y-67714000D01*
X110212000Y-68834000D02*
X109562000Y-68834000D01*
X108842000Y-69954000D02*
X108842000Y-67714000D01*
D13*
%TO.C,J1*%
X146431000Y-61468000D02*
X153289000Y-61468000D01*
X163449000Y-61468000D02*
X163449000Y-108712000D01*
X146431000Y-61468000D02*
X146431000Y-108712000D01*
X156337000Y-111887000D02*
X153289000Y-111887000D01*
X156337000Y-59436000D02*
X153289000Y-59436000D01*
X146431000Y-108712000D02*
X153289000Y-108712000D01*
X156337000Y-57785000D02*
X153289000Y-57785000D01*
X163449000Y-108712000D02*
X156337000Y-108712000D01*
X156337000Y-110236000D02*
X153289000Y-110236000D01*
X153289000Y-111887000D02*
X153289000Y-57785000D01*
X156337000Y-57785000D02*
X156337000Y-111887000D01*
X156337000Y-61468000D02*
X163449000Y-61468000D01*
D12*
%TO.C,JP3*%
X140014000Y-86360000D02*
X140014000Y-83760000D01*
X140014000Y-86360000D02*
X137354000Y-86360000D01*
X140014000Y-83760000D02*
X137354000Y-83760000D01*
X140014000Y-87630000D02*
X140014000Y-88960000D01*
X137354000Y-86360000D02*
X137354000Y-83760000D01*
X140014000Y-88960000D02*
X138684000Y-88960000D01*
%TO.C,JP6*%
X131004000Y-68580000D02*
X133664000Y-68580000D01*
X131004000Y-71180000D02*
X133664000Y-71180000D01*
X131004000Y-68580000D02*
X131004000Y-71180000D01*
X131004000Y-65980000D02*
X132334000Y-65980000D01*
X131004000Y-67310000D02*
X131004000Y-65980000D01*
X133664000Y-68580000D02*
X133664000Y-71180000D01*
%TO.C,R19*%
X115284000Y-50900000D02*
X115284000Y-50570000D01*
X115284000Y-48160000D02*
X115284000Y-48490000D01*
X108744000Y-50570000D02*
X108744000Y-50900000D01*
X108744000Y-48160000D02*
X115284000Y-48160000D01*
X108744000Y-50900000D02*
X115284000Y-50900000D01*
X108744000Y-48490000D02*
X108744000Y-48160000D01*
%TO.C,R11*%
X114840000Y-65000000D02*
X114840000Y-64670000D01*
X121380000Y-64670000D02*
X121380000Y-65000000D01*
X121380000Y-67410000D02*
X121380000Y-67080000D01*
X114840000Y-64670000D02*
X121380000Y-64670000D01*
X114840000Y-67080000D02*
X114840000Y-67410000D01*
X114840000Y-67410000D02*
X121380000Y-67410000D01*
%TO.C,R4*%
X104172000Y-66902000D02*
X104172000Y-66572000D01*
X110712000Y-64162000D02*
X104172000Y-64162000D01*
X110712000Y-64492000D02*
X110712000Y-64162000D01*
X110712000Y-66902000D02*
X104172000Y-66902000D01*
X104172000Y-64162000D02*
X104172000Y-64492000D01*
X110712000Y-66572000D02*
X110712000Y-66902000D01*
%TO.C,R2*%
X156242000Y-51970000D02*
X162782000Y-51970000D01*
X156242000Y-52300000D02*
X156242000Y-51970000D01*
X162782000Y-51970000D02*
X162782000Y-52300000D01*
X162782000Y-54710000D02*
X162782000Y-54380000D01*
X156242000Y-54380000D02*
X156242000Y-54710000D01*
X156242000Y-54710000D02*
X162782000Y-54710000D01*
%TO.C,R5*%
X110712000Y-70512000D02*
X104172000Y-70512000D01*
X104172000Y-70512000D02*
X104172000Y-70842000D01*
X110712000Y-72922000D02*
X110712000Y-73252000D01*
X104172000Y-73252000D02*
X104172000Y-72922000D01*
X110712000Y-73252000D02*
X104172000Y-73252000D01*
X110712000Y-70842000D02*
X110712000Y-70512000D01*
%TO.C,JP7*%
X133664000Y-88960000D02*
X132334000Y-88960000D01*
X133664000Y-87630000D02*
X133664000Y-88960000D01*
X131004000Y-86360000D02*
X131004000Y-83760000D01*
X133664000Y-86360000D02*
X133664000Y-83760000D01*
X133664000Y-83760000D02*
X131004000Y-83760000D01*
X133664000Y-86360000D02*
X131004000Y-86360000D01*
%TO.C,D1*%
X110212000Y-55626000D02*
X109562000Y-55626000D01*
X108962000Y-56746000D02*
X108962000Y-54506000D01*
X109562000Y-54506000D02*
X105322000Y-54506000D01*
X108842000Y-56746000D02*
X108842000Y-54506000D01*
X109562000Y-56746000D02*
X109562000Y-54506000D01*
X105322000Y-56746000D02*
X109562000Y-56746000D01*
X108722000Y-56746000D02*
X108722000Y-54506000D01*
X105322000Y-54506000D02*
X105322000Y-56746000D01*
X104672000Y-55626000D02*
X105322000Y-55626000D01*
%TO.C,J2*%
X111096338Y-84832000D02*
X110663325Y-84582000D01*
X110202000Y-74637000D02*
X110202000Y-105607000D01*
X110202000Y-105607000D02*
X99722000Y-105607000D01*
X110663325Y-84582000D02*
X111096338Y-84332000D01*
X111096338Y-84332000D02*
X111096338Y-84832000D01*
X99722000Y-74637000D02*
X110202000Y-74637000D01*
%TO.C,JP5*%
X131004000Y-77460000D02*
X133664000Y-77460000D01*
X131004000Y-76190000D02*
X131004000Y-74860000D01*
X133664000Y-77460000D02*
X133664000Y-80060000D01*
X131004000Y-80060000D02*
X133664000Y-80060000D01*
X131004000Y-74860000D02*
X132334000Y-74860000D01*
X131004000Y-77460000D02*
X131004000Y-80060000D01*
%TO.C,J4*%
X149848000Y-48950000D02*
X149848000Y-57550000D01*
X130048000Y-58011325D02*
X130298000Y-58444338D01*
X149848000Y-57550000D02*
X118878000Y-57550000D01*
X118878000Y-57550000D02*
X118878000Y-48950000D01*
X130298000Y-58444338D02*
X129798000Y-58444338D01*
X129798000Y-58444338D02*
X130048000Y-58011325D01*
%TO.C,R12*%
X114840000Y-75030000D02*
X121380000Y-75030000D01*
X114840000Y-72620000D02*
X114840000Y-72290000D01*
X114840000Y-74700000D02*
X114840000Y-75030000D01*
X121380000Y-75030000D02*
X121380000Y-74700000D01*
X121380000Y-72290000D02*
X121380000Y-72620000D01*
X114840000Y-72290000D02*
X121380000Y-72290000D01*
%TO.C,R9*%
X114586000Y-92556000D02*
X121126000Y-92556000D01*
X121126000Y-92556000D02*
X121126000Y-92226000D01*
X114586000Y-90146000D02*
X114586000Y-89816000D01*
X114586000Y-92226000D02*
X114586000Y-92556000D01*
X114586000Y-89816000D02*
X121126000Y-89816000D01*
X121126000Y-89816000D02*
X121126000Y-90146000D01*
%TO.C,JP4*%
X137354000Y-65980000D02*
X138684000Y-65980000D01*
X137354000Y-71180000D02*
X140014000Y-71180000D01*
X137354000Y-68580000D02*
X140014000Y-68580000D01*
X140014000Y-68580000D02*
X140014000Y-71180000D01*
X137354000Y-67310000D02*
X137354000Y-65980000D01*
X137354000Y-68580000D02*
X137354000Y-71180000D01*
%TO.C,R6*%
X114820000Y-80120000D02*
X114820000Y-79790000D01*
X114820000Y-79790000D02*
X121360000Y-79790000D01*
X114820000Y-82200000D02*
X114820000Y-82530000D01*
X114820000Y-82530000D02*
X121360000Y-82530000D01*
X121360000Y-79790000D02*
X121360000Y-80120000D01*
X121360000Y-82530000D02*
X121360000Y-82200000D01*
D14*
%TO.C,J3*%
X137624000Y-127044000D02*
X137624000Y-123444000D01*
X144824000Y-127044000D02*
X137624000Y-127044000D01*
X141224000Y-123444000D02*
X147224000Y-123444000D01*
X144824000Y-123644000D02*
X144824000Y-127044000D01*
X135224000Y-123444000D02*
X141224000Y-123444000D01*
X135224000Y-109244000D02*
X135224000Y-123444000D01*
X147224000Y-109244000D02*
X135224000Y-109244000D01*
X147224000Y-123444000D02*
X147224000Y-109244000D01*
D12*
%TO.C,R15*%
X126778000Y-60606000D02*
X133318000Y-60606000D01*
X133318000Y-60606000D02*
X133318000Y-60936000D01*
X133318000Y-63346000D02*
X133318000Y-63016000D01*
X126778000Y-63016000D02*
X126778000Y-63346000D01*
X126778000Y-63346000D02*
X133318000Y-63346000D01*
X126778000Y-60936000D02*
X126778000Y-60606000D01*
%TO.C,R1*%
X121126000Y-94642000D02*
X121126000Y-94972000D01*
X114586000Y-97052000D02*
X114586000Y-97382000D01*
X114586000Y-94642000D02*
X121126000Y-94642000D01*
X114586000Y-97382000D02*
X121126000Y-97382000D01*
X114586000Y-94972000D02*
X114586000Y-94642000D01*
X121126000Y-97382000D02*
X121126000Y-97052000D01*
%TO.C,J5*%
X108796000Y-114106000D02*
X108796000Y-113056000D01*
X108596000Y-113256000D02*
X108596000Y-115856000D01*
X107746000Y-113056000D02*
X108796000Y-113056000D01*
X108596000Y-122456000D02*
X106696000Y-122456000D01*
X93896000Y-113256000D02*
X108596000Y-113256000D01*
X108596000Y-119756000D02*
X108596000Y-122456000D01*
X102696000Y-122456000D02*
X93896000Y-122456000D01*
X93896000Y-122456000D02*
X93896000Y-113256000D01*
%TO.C,R3*%
X110712000Y-57558000D02*
X104172000Y-57558000D01*
X110712000Y-60298000D02*
X104172000Y-60298000D01*
X110712000Y-59968000D02*
X110712000Y-60298000D01*
X104172000Y-60298000D02*
X104172000Y-59968000D01*
X110712000Y-57888000D02*
X110712000Y-57558000D01*
X104172000Y-57558000D02*
X104172000Y-57888000D01*
%TD*%
D15*
%TO.C,J1*%
X155140660Y-58336180D03*
X155140660Y-111335820D03*
%TD*%
M02*
