%TF.GenerationSoftware,KiCad,Pcbnew,(6.0.2)*%
%TF.CreationDate,2022-09-11T15:54:13-05:00*%
%TF.ProjectId,CGA2SCart,43474132-5343-4617-9274-2e6b69636164,rev?*%
%TF.SameCoordinates,Original*%
%TF.FileFunction,Copper,L2,Bot*%
%TF.FilePolarity,Positive*%
%FSLAX46Y46*%
G04 Gerber Fmt 4.6, Leading zero omitted, Abs format (unit mm)*
G04 Created by KiCad (PCBNEW (6.0.2)) date 2022-09-11 15:54:13*
%MOMM*%
%LPD*%
G01*
G04 APERTURE LIST*
%TA.AperFunction,ComponentPad*%
%ADD10C,1.600000*%
%TD*%
%TA.AperFunction,ComponentPad*%
%ADD11R,1.600000X1.600000*%
%TD*%
%TA.AperFunction,ComponentPad*%
%ADD12C,4.000000*%
%TD*%
%TA.AperFunction,ComponentPad*%
%ADD13O,1.600000X1.600000*%
%TD*%
%TA.AperFunction,ComponentPad*%
%ADD14R,1.700000X1.700000*%
%TD*%
%TA.AperFunction,ComponentPad*%
%ADD15O,1.700000X1.700000*%
%TD*%
%TA.AperFunction,ComponentPad*%
%ADD16C,1.998980*%
%TD*%
%TA.AperFunction,WasherPad*%
%ADD17O,4.100000X3.100000*%
%TD*%
%TA.AperFunction,ComponentPad*%
%ADD18R,1.500000X1.500000*%
%TD*%
%TA.AperFunction,ComponentPad*%
%ADD19C,1.500000*%
%TD*%
%TA.AperFunction,ComponentPad*%
%ADD20O,1.000000X2.000000*%
%TD*%
%TA.AperFunction,ComponentPad*%
%ADD21O,2.000000X1.000000*%
%TD*%
%TA.AperFunction,ComponentPad*%
%ADD22O,2.000000X1.500000*%
%TD*%
%TA.AperFunction,ComponentPad*%
%ADD23O,1.500000X2.000000*%
%TD*%
%TA.AperFunction,ViaPad*%
%ADD24C,0.800000*%
%TD*%
%TA.AperFunction,Conductor*%
%ADD25C,0.350000*%
%TD*%
%TA.AperFunction,Conductor*%
%ADD26C,0.250000*%
%TD*%
G04 APERTURE END LIST*
D10*
%TO.P,J2,9,9*%
%TO.N,Net-(J2-Pad9)*%
X105110000Y-83355000D03*
%TO.P,J2,8,8*%
%TO.N,Net-(J2-Pad8)*%
X105110000Y-80585000D03*
%TO.P,J2,7,7*%
%TO.N,Net-(J2-Pad7)*%
X105110000Y-77815000D03*
%TO.P,J2,6,6*%
%TO.N,Net-(R3-Pad1)*%
X105110000Y-75045000D03*
%TO.P,J2,5,5*%
%TO.N,Net-(R6-Pad1)*%
X107950000Y-84740000D03*
%TO.P,J2,4,4*%
%TO.N,Net-(J2-Pad4)*%
X107950000Y-81970000D03*
%TO.P,J2,3,3*%
%TO.N,Net-(J2-Pad3)*%
X107950000Y-79200000D03*
%TO.P,J2,2,2*%
%TO.N,Net-(J2-Pad2)*%
X107950000Y-76430000D03*
D11*
%TO.P,J2,1,1*%
%TO.N,GND*%
X107950000Y-73660000D03*
D12*
%TO.P,J2,0*%
%TO.N,N/C*%
X107650000Y-91700000D03*
X107650000Y-66700000D03*
%TD*%
D11*
%TO.P,D3,1,K*%
%TO.N,Net-(JP4-Pad1)*%
X120650000Y-50800000D03*
D13*
%TO.P,D3,2,A*%
%TO.N,Net-(R5-Pad2)*%
X113030000Y-50800000D03*
%TD*%
D11*
%TO.P,D2,1,K*%
%TO.N,Net-(JP3-Pad1)*%
X123780000Y-59700000D03*
D13*
%TO.P,D2,2,A*%
%TO.N,Net-(R4-Pad2)*%
X123780000Y-52080000D03*
%TD*%
%TO.P,D1,2,A*%
%TO.N,Net-(R3-Pad2)*%
X127000000Y-52070000D03*
D11*
%TO.P,D1,1,K*%
%TO.N,Net-(JP2-Pad1)*%
X127000000Y-59690000D03*
%TD*%
D12*
%TO.P,J4,0*%
%TO.N,N/C*%
X145345000Y-108730000D03*
X120345000Y-108730000D03*
D11*
%TO.P,J4,1*%
%TO.N,Net-(J1-Pad15)*%
X137160000Y-106680000D03*
D10*
%TO.P,J4,2*%
%TO.N,Net-(J1-Pad11)*%
X134870000Y-106680000D03*
%TO.P,J4,3*%
%TO.N,Net-(J1-Pad7)*%
X132580000Y-106680000D03*
%TO.P,J4,4*%
%TO.N,unconnected-(J4-Pad4)*%
X130290000Y-106680000D03*
%TO.P,J4,5*%
%TO.N,GND*%
X128000000Y-106680000D03*
%TO.P,J4,6*%
%TO.N,unconnected-(J4-Pad6)*%
X138305000Y-108660000D03*
%TO.P,J4,7*%
%TO.N,unconnected-(J4-Pad7)*%
X136015000Y-108660000D03*
%TO.P,J4,8*%
%TO.N,Net-(J2-Pad8)*%
X133725000Y-108660000D03*
%TO.P,J4,9*%
%TO.N,Net-(J2-Pad9)*%
X131435000Y-108660000D03*
%TO.P,J4,10*%
%TO.N,unconnected-(J4-Pad10)*%
X129145000Y-108660000D03*
%TO.P,J4,11*%
%TO.N,unconnected-(J4-Pad11)*%
X137160000Y-110640000D03*
%TO.P,J4,12*%
%TO.N,unconnected-(J4-Pad12)*%
X134870000Y-110640000D03*
%TO.P,J4,13*%
%TO.N,unconnected-(J4-Pad13)*%
X132580000Y-110640000D03*
%TO.P,J4,14*%
%TO.N,unconnected-(J4-Pad14)*%
X130290000Y-110640000D03*
%TO.P,J4,15*%
%TO.N,unconnected-(J4-Pad15)*%
X128000000Y-110640000D03*
%TD*%
%TO.P,R14,1*%
%TO.N,Net-(Q1-Pad2)*%
X124460000Y-96520000D03*
D13*
%TO.P,R14,2*%
%TO.N,GND*%
X116840000Y-96520000D03*
%TD*%
D10*
%TO.P,R10,1*%
%TO.N,Net-(Q1-Pad2)*%
X121920000Y-92710000D03*
D13*
%TO.P,R10,2*%
%TO.N,Net-(J2-Pad9)*%
X114300000Y-92710000D03*
%TD*%
D10*
%TO.P,R7,1*%
%TO.N,Net-(J2-Pad4)*%
X114300000Y-85090000D03*
D13*
%TO.P,R7,2*%
%TO.N,Net-(J1-Pad11)*%
X121920000Y-85090000D03*
%TD*%
D14*
%TO.P,JP2,1,A*%
%TO.N,Net-(JP2-Pad1)*%
X135890000Y-76200000D03*
D15*
%TO.P,JP2,2,B*%
%TO.N,Net-(J1-Pad7)*%
X135890000Y-78740000D03*
%TD*%
D10*
%TO.P,R8,1*%
%TO.N,Net-(J2-Pad3)*%
X114300000Y-77470000D03*
D13*
%TO.P,R8,2*%
%TO.N,Net-(J1-Pad15)*%
X121920000Y-77470000D03*
%TD*%
D10*
%TO.P,R13,1*%
%TO.N,Net-(J2-Pad2)*%
X114300000Y-69850000D03*
D13*
%TO.P,R13,2*%
%TO.N,Net-(JP6-Pad1)*%
X121920000Y-69850000D03*
%TD*%
D16*
%TO.P,J1,21,P21*%
%TO.N,GND*%
X147660360Y-97790000D03*
%TO.P,J1,20,P20*%
%TO.N,Net-(J1-Pad20)*%
X152740360Y-95885000D03*
%TO.P,J1,19,P19*%
%TO.N,unconnected-(J1-Pad19)*%
X147660360Y-93980000D03*
%TO.P,J1,18,P18*%
%TO.N,unconnected-(J1-Pad18)*%
X152740360Y-92075000D03*
%TO.P,J1,17,P17*%
%TO.N,unconnected-(J1-Pad17)*%
X147660360Y-90170000D03*
%TO.P,J1,16,P16*%
%TO.N,Net-(J1-Pad16)*%
X152740360Y-88265000D03*
%TO.P,J1,15,P15*%
%TO.N,Net-(J1-Pad15)*%
X147660360Y-86360000D03*
%TO.P,J1,14,P14*%
%TO.N,unconnected-(J1-Pad14)*%
X152740360Y-84455000D03*
%TO.P,J1,13,P13*%
%TO.N,GND*%
X147660360Y-82550000D03*
%TO.P,J1,12,P12*%
%TO.N,unconnected-(J1-Pad12)*%
X152740360Y-80645000D03*
%TO.P,J1,11,P11*%
%TO.N,Net-(J1-Pad11)*%
X147660360Y-78740000D03*
%TO.P,J1,10,P10*%
%TO.N,unconnected-(J1-Pad10)*%
X152740360Y-76835000D03*
%TO.P,J1,9,P9*%
%TO.N,GND*%
X147660360Y-74930000D03*
%TO.P,J1,8,P8*%
%TO.N,unconnected-(J1-Pad8)*%
X152740360Y-73025000D03*
%TO.P,J1,7,P7*%
%TO.N,Net-(J1-Pad7)*%
X147660360Y-71120000D03*
%TO.P,J1,6,P6*%
%TO.N,Net-(J1-Pad6)*%
X152740360Y-69215000D03*
%TO.P,J1,5,P5*%
%TO.N,GND*%
X147660360Y-67310000D03*
%TO.P,J1,4,P4*%
X152740360Y-65405000D03*
%TO.P,J1,3,P3*%
%TO.N,unconnected-(J1-Pad3)*%
X147660360Y-63500000D03*
%TO.P,J1,2,P2*%
%TO.N,Net-(J1-Pad2)*%
X152740360Y-61595000D03*
%TO.P,J1,1,P1*%
%TO.N,unconnected-(J1-Pad1)*%
X147660360Y-59690000D03*
D17*
%TO.P,J1,*%
%TO.N,*%
X154739340Y-52240180D03*
X154739340Y-105239820D03*
%TD*%
D14*
%TO.P,JP3,1,A*%
%TO.N,Net-(JP3-Pad1)*%
X135890000Y-87630000D03*
D15*
%TO.P,JP3,2,B*%
%TO.N,Net-(J1-Pad11)*%
X135890000Y-85090000D03*
%TD*%
D14*
%TO.P,JP6,1,A*%
%TO.N,Net-(JP6-Pad1)*%
X128270000Y-67310000D03*
D15*
%TO.P,JP6,2,B*%
%TO.N,Net-(J1-Pad15)*%
X128270000Y-69850000D03*
%TD*%
D10*
%TO.P,R11,1*%
%TO.N,Net-(R11-Pad1)*%
X121920000Y-66040000D03*
D13*
%TO.P,R11,2*%
%TO.N,Net-(R3-Pad1)*%
X114300000Y-66040000D03*
%TD*%
D10*
%TO.P,R4,1*%
%TO.N,Net-(R3-Pad1)*%
X113030000Y-58420000D03*
D13*
%TO.P,R4,2*%
%TO.N,Net-(R4-Pad2)*%
X120650000Y-58420000D03*
%TD*%
D10*
%TO.P,R2,1*%
%TO.N,Net-(J1-Pad16)*%
X142240000Y-102870000D03*
D13*
%TO.P,R2,2*%
%TO.N,Net-(JP1-Pad1)*%
X134620000Y-102870000D03*
%TD*%
D10*
%TO.P,R5,1*%
%TO.N,Net-(R3-Pad1)*%
X113030000Y-54610000D03*
D13*
%TO.P,R5,2*%
%TO.N,Net-(R5-Pad2)*%
X120650000Y-54610000D03*
%TD*%
D14*
%TO.P,JP7,1,A*%
%TO.N,Net-(J1-Pad11)*%
X128270000Y-85090000D03*
D15*
%TO.P,JP7,2,B*%
%TO.N,Net-(R11-Pad1)*%
X128270000Y-87630000D03*
%TD*%
D14*
%TO.P,JP5,1,A*%
%TO.N,Net-(J1-Pad7)*%
X128270000Y-78740000D03*
D15*
%TO.P,JP5,2,B*%
%TO.N,Net-(JP5-Pad2)*%
X128270000Y-76200000D03*
%TD*%
D10*
%TO.P,R12,1*%
%TO.N,Net-(J2-Pad7)*%
X114300000Y-73660000D03*
D13*
%TO.P,R12,2*%
%TO.N,Net-(JP5-Pad2)*%
X121920000Y-73660000D03*
%TD*%
D10*
%TO.P,R9,1*%
%TO.N,Net-(Q1-Pad2)*%
X121920000Y-81280000D03*
D13*
%TO.P,R9,2*%
%TO.N,Net-(J2-Pad8)*%
X114300000Y-81280000D03*
%TD*%
D14*
%TO.P,JP4,1,A*%
%TO.N,Net-(JP4-Pad1)*%
X135890000Y-67310000D03*
D15*
%TO.P,JP4,2,B*%
%TO.N,Net-(J1-Pad15)*%
X135890000Y-69850000D03*
%TD*%
D18*
%TO.P,Q1,1,S*%
%TO.N,GND*%
X128270000Y-92710000D03*
D19*
%TO.P,Q1,2,G*%
%TO.N,Net-(Q1-Pad2)*%
X128270000Y-95250000D03*
%TO.P,Q1,3,D*%
%TO.N,Net-(J1-Pad20)*%
X128270000Y-97790000D03*
%TD*%
D13*
%TO.P,R6,2*%
%TO.N,Net-(J1-Pad7)*%
X121920000Y-88900000D03*
D10*
%TO.P,R6,1*%
%TO.N,Net-(R6-Pad1)*%
X114300000Y-88900000D03*
%TD*%
D20*
%TO.P,J3,1*%
%TO.N,Net-(J1-Pad2)*%
X131090000Y-54360000D03*
%TO.P,J3,2*%
%TO.N,Net-(J1-Pad6)*%
X141090000Y-57860000D03*
D21*
%TO.P,J3,3*%
%TO.N,GND*%
X135890000Y-49960000D03*
D22*
%TO.P,J3,4*%
%TO.N,unconnected-(J3-Pad4)*%
X131590000Y-61260000D03*
D23*
%TO.P,J3,5*%
%TO.N,unconnected-(J3-Pad5)*%
X138490000Y-56860000D03*
%TD*%
D15*
%TO.P,JP1,2,B*%
%TO.N,Net-(J2-Pad7)*%
X109220000Y-99060000D03*
D14*
%TO.P,JP1,1,A*%
%TO.N,Net-(JP1-Pad1)*%
X111760000Y-99060000D03*
%TD*%
D10*
%TO.P,R1,1*%
%TO.N,Net-(JP1-Pad1)*%
X142240000Y-95250000D03*
D13*
%TO.P,R1,2*%
%TO.N,Net-(J1-Pad20)*%
X134620000Y-95250000D03*
%TD*%
D10*
%TO.P,R3,1*%
%TO.N,Net-(R3-Pad1)*%
X113030000Y-62230000D03*
D13*
%TO.P,R3,2*%
%TO.N,Net-(R3-Pad2)*%
X120650000Y-62230000D03*
%TD*%
D24*
%TO.N,Net-(J2-Pad8)*%
X102890000Y-78400000D03*
%TO.N,Net-(J1-Pad15)*%
X151960000Y-86280000D03*
%TO.N,Net-(J1-Pad11)*%
X145350000Y-96490000D03*
X143010000Y-99030000D03*
%TO.N,Net-(J1-Pad7)*%
X145270000Y-92950000D03*
X142720000Y-97480000D03*
%TD*%
D25*
%TO.N,Net-(R11-Pad1)*%
X129190000Y-87630000D02*
X128270000Y-87630000D01*
X131980000Y-90420000D02*
X129190000Y-87630000D01*
X131980000Y-94630000D02*
X131980000Y-90420000D01*
X130090000Y-96520000D02*
X131980000Y-94630000D01*
X127030000Y-96520000D02*
X130090000Y-96520000D01*
X116990000Y-99680000D02*
X123870000Y-99680000D01*
X115030000Y-95410000D02*
X115030000Y-97720000D01*
X116980000Y-93460000D02*
X115030000Y-95410000D01*
X116980000Y-69430000D02*
X116980000Y-93460000D01*
X120370000Y-66040000D02*
X116980000Y-69430000D01*
X115030000Y-97720000D02*
X116990000Y-99680000D01*
X121920000Y-66040000D02*
X120370000Y-66040000D01*
X123870000Y-99680000D02*
X127030000Y-96520000D01*
%TO.N,Net-(J1-Pad20)*%
X134620000Y-95550000D02*
X132380000Y-97790000D01*
X134620000Y-95250000D02*
X134620000Y-95550000D01*
X132380000Y-97790000D02*
X128270000Y-97790000D01*
D26*
%TO.N,Net-(J2-Pad8)*%
X102690000Y-78600000D02*
X102890000Y-78400000D01*
X102690000Y-100150000D02*
X102690000Y-78600000D01*
X102690000Y-100150000D02*
X114820000Y-112280000D01*
D25*
%TO.N,Net-(J2-Pad7)*%
X103500000Y-97150000D02*
X105410000Y-99060000D01*
X103500000Y-79425000D02*
X103500000Y-97150000D01*
X105110000Y-77815000D02*
X103500000Y-79425000D01*
X105410000Y-99060000D02*
X109220000Y-99060000D01*
%TO.N,Net-(R3-Pad1)*%
X113030000Y-64770000D02*
X114300000Y-66040000D01*
X113030000Y-62230000D02*
X113030000Y-64770000D01*
X105110000Y-72300000D02*
X105110000Y-75045000D01*
X109670000Y-70670000D02*
X106740000Y-70670000D01*
X114300000Y-66040000D02*
X109670000Y-70670000D01*
X106740000Y-70670000D02*
X105110000Y-72300000D01*
%TO.N,Net-(J2-Pad2)*%
X107950000Y-76430000D02*
X114300000Y-70080000D01*
X114300000Y-70080000D02*
X114300000Y-69850000D01*
%TO.N,Net-(J2-Pad7)*%
X110145000Y-77815000D02*
X114300000Y-73660000D01*
X105110000Y-77815000D02*
X110145000Y-77815000D01*
%TO.N,Net-(J2-Pad3)*%
X112570000Y-79200000D02*
X114300000Y-77470000D01*
X107950000Y-79200000D02*
X112570000Y-79200000D01*
%TO.N,Net-(J2-Pad8)*%
X108840000Y-80590000D02*
X108835000Y-80585000D01*
X108835000Y-80585000D02*
X105110000Y-80585000D01*
X109980000Y-80590000D02*
X108840000Y-80590000D01*
X110670000Y-81280000D02*
X109980000Y-80590000D01*
X114300000Y-81280000D02*
X110670000Y-81280000D01*
%TO.N,Net-(J2-Pad4)*%
X109380000Y-81970000D02*
X107950000Y-81970000D01*
X114300000Y-85090000D02*
X112500000Y-85090000D01*
X112500000Y-85090000D02*
X109380000Y-81970000D01*
%TO.N,Net-(R6-Pad1)*%
X114300000Y-88900000D02*
X112110000Y-88900000D01*
X112110000Y-88900000D02*
X107950000Y-84740000D01*
%TO.N,Net-(J2-Pad9)*%
X113100000Y-92710000D02*
X114300000Y-92710000D01*
X105110000Y-84720000D02*
X113100000Y-92710000D01*
X105110000Y-83355000D02*
X105110000Y-84720000D01*
D26*
%TO.N,Net-(J2-Pad8)*%
X133220000Y-112280000D02*
X133725000Y-111775000D01*
X114820000Y-112280000D02*
X133220000Y-112280000D01*
X133725000Y-111775000D02*
X133725000Y-108660000D01*
D25*
%TO.N,Net-(J1-Pad6)*%
X141520000Y-57860000D02*
X141090000Y-57860000D01*
X145370000Y-61710000D02*
X141520000Y-57860000D01*
X149940000Y-61710000D02*
X145370000Y-61710000D01*
X150600000Y-62370000D02*
X149940000Y-61710000D01*
X150600000Y-67074640D02*
X150600000Y-62370000D01*
X152740360Y-69215000D02*
X150600000Y-67074640D01*
%TO.N,Net-(J1-Pad2)*%
X152740360Y-60040360D02*
X152740360Y-61595000D01*
X146675000Y-53975000D02*
X152740360Y-60040360D01*
X131475000Y-53975000D02*
X146675000Y-53975000D01*
X131090000Y-54360000D02*
X131475000Y-53975000D01*
%TO.N,Net-(R3-Pad2)*%
X125200000Y-60990000D02*
X125200000Y-58210000D01*
X123960000Y-62230000D02*
X125200000Y-60990000D01*
X120650000Y-62230000D02*
X123960000Y-62230000D01*
X125200000Y-58210000D02*
X127000000Y-56410000D01*
X127000000Y-56410000D02*
X127000000Y-52070000D01*
%TO.N,Net-(R4-Pad2)*%
X123780000Y-54020000D02*
X123780000Y-52080000D01*
X123190000Y-54610000D02*
X123780000Y-54020000D01*
X123190000Y-55880000D02*
X123190000Y-54610000D01*
X120650000Y-58420000D02*
X123190000Y-55880000D01*
%TO.N,Net-(JP3-Pad1)*%
X136090000Y-87830000D02*
X135890000Y-87630000D01*
X136090000Y-96050000D02*
X136090000Y-87830000D01*
X129170000Y-102970000D02*
X136090000Y-96050000D01*
X118210000Y-102970000D02*
X129170000Y-102970000D01*
X113660000Y-98420000D02*
X118210000Y-102970000D01*
X117470000Y-59690000D02*
X115860000Y-61300000D01*
X123780000Y-59700000D02*
X123770000Y-59690000D01*
X123770000Y-59690000D02*
X117470000Y-59690000D01*
X115860000Y-93270000D02*
X113660000Y-95470000D01*
X115860000Y-61300000D02*
X115860000Y-93270000D01*
X113660000Y-95470000D02*
X113660000Y-98420000D01*
%TO.N,Net-(R5-Pad2)*%
X114300000Y-50800000D02*
X113030000Y-50800000D01*
X118110000Y-54610000D02*
X114300000Y-50800000D01*
%TO.N,Net-(JP4-Pad1)*%
X121920000Y-49530000D02*
X120650000Y-50800000D01*
X127000000Y-49530000D02*
X121920000Y-49530000D01*
X129540000Y-52070000D02*
X127000000Y-49530000D01*
X130810000Y-58420000D02*
X129540000Y-57150000D01*
X133350000Y-58420000D02*
X130810000Y-58420000D01*
X135890000Y-67310000D02*
X135890000Y-60960000D01*
%TO.N,Net-(R5-Pad2)*%
X120650000Y-54610000D02*
X118110000Y-54610000D01*
%TO.N,Net-(JP4-Pad1)*%
X129540000Y-57150000D02*
X129540000Y-52070000D01*
X135890000Y-60960000D02*
X133350000Y-58420000D01*
%TO.N,Net-(JP2-Pad1)*%
X127000000Y-63220000D02*
X127000000Y-59690000D01*
X122530000Y-67690000D02*
X127000000Y-63220000D01*
%TO.N,Net-(R3-Pad1)*%
X113030000Y-62230000D02*
X113030000Y-58420000D01*
X113030000Y-58420000D02*
X113030000Y-54610000D01*
%TO.N,Net-(J1-Pad15)*%
X140640000Y-106680000D02*
X137160000Y-106680000D01*
X142800000Y-104520000D02*
X140640000Y-106680000D01*
X148610000Y-104520000D02*
X142800000Y-104520000D01*
X152070000Y-107980000D02*
X148610000Y-104520000D01*
X157530000Y-107980000D02*
X152070000Y-107980000D01*
X155240000Y-100030000D02*
X158040000Y-102830000D01*
X158040000Y-102830000D02*
X158040000Y-107470000D01*
X158040000Y-107470000D02*
X157530000Y-107980000D01*
X154810000Y-86280000D02*
X155240000Y-86710000D01*
X151960000Y-86280000D02*
X154810000Y-86280000D01*
X155240000Y-86710000D02*
X155240000Y-100030000D01*
%TO.N,Net-(J1-Pad11)*%
X136780000Y-104770000D02*
X134870000Y-106680000D01*
X143010000Y-99170000D02*
X137410000Y-104770000D01*
X143010000Y-99030000D02*
X143010000Y-99170000D01*
X137410000Y-104770000D02*
X136780000Y-104770000D01*
%TO.N,Net-(J1-Pad7)*%
X136070000Y-104340000D02*
X142720000Y-97690000D01*
X136070000Y-104340000D02*
X134920000Y-104340000D01*
X134920000Y-104340000D02*
X132580000Y-106680000D01*
D26*
%TO.N,Net-(J2-Pad9)*%
X131435000Y-108660000D02*
X131435000Y-105585000D01*
X130840000Y-104990000D02*
X111560000Y-104990000D01*
X131435000Y-105585000D02*
X130840000Y-104990000D01*
D25*
%TO.N,Net-(JP1-Pad1)*%
X133650000Y-103840000D02*
X116540000Y-103840000D01*
X134620000Y-102870000D02*
X133650000Y-103840000D01*
X116540000Y-103840000D02*
X111760000Y-99060000D01*
D26*
%TO.N,Net-(J2-Pad9)*%
X110530000Y-96480000D02*
X114300000Y-92710000D01*
X110530000Y-103960000D02*
X110530000Y-96480000D01*
X111560000Y-104990000D02*
X110530000Y-103960000D01*
D25*
%TO.N,Net-(J1-Pad11)*%
X146155000Y-95685000D02*
X146155000Y-95355000D01*
X145350000Y-96490000D02*
X146155000Y-95685000D01*
X146155000Y-95355000D02*
X146790000Y-95990000D01*
X139645000Y-88845000D02*
X146155000Y-95355000D01*
%TO.N,Net-(J1-Pad7)*%
X145270000Y-92020000D02*
X145210000Y-91960000D01*
X145270000Y-92950000D02*
X145270000Y-92020000D01*
X145210000Y-91960000D02*
X144665000Y-91960000D01*
X148810000Y-91960000D02*
X145210000Y-91960000D01*
X142720000Y-97690000D02*
X142720000Y-97480000D01*
%TO.N,Net-(J1-Pad16)*%
X154450000Y-89974640D02*
X152740360Y-88265000D01*
X154450000Y-102090000D02*
X154450000Y-89974640D01*
X153670000Y-102870000D02*
X154450000Y-102090000D01*
X142240000Y-102870000D02*
X153670000Y-102870000D01*
%TO.N,GND*%
X125450000Y-92710000D02*
X121640000Y-96520000D01*
X121640000Y-96520000D02*
X116840000Y-96520000D01*
X128270000Y-92710000D02*
X125450000Y-92710000D01*
%TO.N,Net-(J1-Pad15)*%
X128270000Y-69850000D02*
X125450000Y-72670000D01*
X145720000Y-86360000D02*
X147660360Y-86360000D01*
X143125000Y-77085000D02*
X143125000Y-83765000D01*
X125450000Y-73940000D02*
X121920000Y-77470000D01*
X125450000Y-72670000D02*
X125450000Y-73940000D01*
X135890000Y-69850000D02*
X128270000Y-69850000D01*
X143125000Y-83765000D02*
X145720000Y-86360000D01*
X135890000Y-69850000D02*
X143125000Y-77085000D01*
%TO.N,Net-(J1-Pad7)*%
X126980000Y-80030000D02*
X120670000Y-80030000D01*
X145980000Y-84420000D02*
X148500000Y-84420000D01*
X119360000Y-87500000D02*
X120760000Y-88900000D01*
X119360000Y-81340000D02*
X119360000Y-87500000D01*
X135890000Y-78740000D02*
X128270000Y-78740000D01*
X144780000Y-74295000D02*
X147660360Y-71414640D01*
X149680000Y-85600000D02*
X149680000Y-91090000D01*
X144665000Y-91960000D02*
X141605000Y-88900000D01*
X141605000Y-88900000D02*
X141605000Y-84455000D01*
X141605000Y-84455000D02*
X135890000Y-78740000D01*
X147660360Y-71414640D02*
X147660360Y-71120000D01*
X144780000Y-74295000D02*
X144780000Y-83220000D01*
X128270000Y-78740000D02*
X126980000Y-80030000D01*
X148500000Y-84420000D02*
X149680000Y-85600000D01*
X120670000Y-80030000D02*
X119360000Y-81340000D01*
X120760000Y-88900000D02*
X121920000Y-88900000D01*
X149680000Y-91090000D02*
X148810000Y-91960000D01*
X144780000Y-83220000D02*
X145980000Y-84420000D01*
%TO.N,Net-(Q1-Pad2)*%
X129050000Y-90640000D02*
X129050000Y-90590000D01*
X121350000Y-87100000D02*
X122360000Y-87100000D01*
X130810000Y-92400000D02*
X129050000Y-90640000D01*
X125730000Y-95250000D02*
X124460000Y-96520000D01*
X123800000Y-90830000D02*
X121920000Y-92710000D01*
X129300000Y-95250000D02*
X130810000Y-93740000D01*
X128270000Y-95250000D02*
X129300000Y-95250000D01*
X123800000Y-90590000D02*
X123800000Y-90830000D01*
X130810000Y-93740000D02*
X130810000Y-92400000D01*
X121920000Y-81280000D02*
X120280000Y-82920000D01*
X129050000Y-90590000D02*
X123800000Y-90590000D01*
X123800000Y-88540000D02*
X123800000Y-90590000D01*
X120280000Y-86030000D02*
X121350000Y-87100000D01*
X128270000Y-95250000D02*
X125730000Y-95250000D01*
X120280000Y-82920000D02*
X120280000Y-86030000D01*
X122360000Y-87100000D02*
X123800000Y-88540000D01*
%TO.N,Net-(J1-Pad20)*%
X138810000Y-87620000D02*
X138810000Y-89590000D01*
X144060000Y-98070000D02*
X146980000Y-100990000D01*
X134620000Y-93130000D02*
X133120000Y-91630000D01*
X144060000Y-94840000D02*
X144060000Y-98070000D01*
X133750000Y-86370000D02*
X137560000Y-86370000D01*
X133120000Y-87000000D02*
X133750000Y-86370000D01*
X134620000Y-95250000D02*
X134620000Y-93130000D01*
X138810000Y-89590000D02*
X144060000Y-94840000D01*
X133120000Y-91630000D02*
X133120000Y-87000000D01*
X152740360Y-98829640D02*
X152740360Y-95885000D01*
X137560000Y-86370000D02*
X138810000Y-87620000D01*
X150580000Y-100990000D02*
X152740360Y-98829640D01*
X146980000Y-100990000D02*
X150580000Y-100990000D01*
%TO.N,Net-(JP1-Pad1)*%
X134620000Y-102870000D02*
X142240000Y-95250000D01*
%TO.N,Net-(JP2-Pad1)*%
X121560000Y-67690000D02*
X122530000Y-67690000D01*
X119990000Y-77910000D02*
X119990000Y-76130000D01*
X128000000Y-73610000D02*
X122880000Y-78730000D01*
X120050000Y-69200000D02*
X121560000Y-67690000D01*
X135890000Y-76200000D02*
X134610000Y-76200000D01*
X120810000Y-78730000D02*
X119990000Y-77910000D01*
X119990000Y-76130000D02*
X120620000Y-75500000D01*
X122880000Y-78730000D02*
X120810000Y-78730000D01*
X123960000Y-72780000D02*
X122820000Y-71640000D01*
X123960000Y-74150000D02*
X123960000Y-72780000D01*
X122610000Y-75500000D02*
X123960000Y-74150000D01*
X134610000Y-76200000D02*
X132020000Y-73610000D01*
X132020000Y-73610000D02*
X128000000Y-73610000D01*
X120620000Y-75500000D02*
X122610000Y-75500000D01*
X120050000Y-70730000D02*
X120050000Y-69200000D01*
X120960000Y-71640000D02*
X120050000Y-70730000D01*
X122820000Y-71640000D02*
X120960000Y-71640000D01*
%TO.N,Net-(JP5-Pad2)*%
X120460000Y-73660000D02*
X118620000Y-75500000D01*
X121920000Y-73660000D02*
X120460000Y-73660000D01*
X127770000Y-76350000D02*
X128120000Y-76350000D01*
X118620000Y-77890000D02*
X120140000Y-79410000D01*
X128120000Y-76350000D02*
X128270000Y-76200000D01*
X118620000Y-75500000D02*
X118620000Y-77890000D01*
X124710000Y-79410000D02*
X127770000Y-76350000D01*
X120140000Y-79410000D02*
X124710000Y-79410000D01*
%TO.N,Net-(JP6-Pad1)*%
X121920000Y-69850000D02*
X124460000Y-67310000D01*
X124460000Y-67310000D02*
X128270000Y-67310000D01*
%TO.N,Net-(J1-Pad11)*%
X146790000Y-95990000D02*
X149750000Y-95990000D01*
X128270000Y-85090000D02*
X135890000Y-85090000D01*
X135890000Y-85090000D02*
X137790000Y-85090000D01*
X149750000Y-95990000D02*
X150790000Y-94950000D01*
X147660360Y-79715360D02*
X147660360Y-78740000D01*
X150790000Y-82845000D02*
X147660360Y-79715360D01*
X137790000Y-85090000D02*
X139645000Y-86945000D01*
X150790000Y-94950000D02*
X150790000Y-82845000D01*
X139645000Y-86945000D02*
X139645000Y-88845000D01*
X121920000Y-85090000D02*
X128270000Y-85090000D01*
%TD*%
M02*
